<svg width="34" height="34" viewBox="0 0 34 34" fill="none" xmlns="http://www.w3.org/2000/svg">
<path d="M16.6381 33.071C25.827 33.071 33.2761 25.7754 33.2761 16.776C33.2761 7.77648 25.827 0.480957 16.6381 0.480957C7.44911 0.480957 0 7.77648 0 16.776C0 25.7754 7.44911 33.071 16.6381 33.071Z" fill="#FCB0D0"/>
<path d="M16.6384 8.36505C19.4361 8.36505 19.7664 8.37471 20.8707 8.4254C21.8911 8.47127 22.4457 8.63784 22.8155 8.77786C23.3035 8.96374 23.6535 9.18583 24.0208 9.54553C24.3881 9.90523 24.6148 10.2456 24.8046 10.726C24.9476 11.0881 25.1177 11.6313 25.1645 12.6307C25.2138 13.7122 25.2261 14.0381 25.2261 16.7757C25.2261 19.5132 25.2163 19.8391 25.1645 20.9206C25.1177 21.9201 24.9476 22.4632 24.8046 22.8254C24.6148 23.3033 24.3881 23.6461 24.0208 24.0058C23.6535 24.3655 23.306 24.5876 22.8155 24.7735C22.4457 24.9135 21.8911 25.0801 20.8707 25.126C19.7664 25.1742 19.4361 25.1863 16.6384 25.1863C13.8408 25.1863 13.5105 25.1767 12.4062 25.126C11.3857 25.0801 10.8311 24.9135 10.4614 24.7735C9.97335 24.5876 9.62334 24.3655 9.25607 24.0058C8.8888 23.6461 8.66203 23.3058 8.47223 22.8254C8.32927 22.4632 8.15919 21.9201 8.11235 20.9206C8.06306 19.8391 8.05073 19.5132 8.05073 16.7757C8.05073 14.0381 8.06059 13.7122 8.11235 12.6307C8.15919 11.6313 8.32927 11.0881 8.47223 10.726C8.66203 10.248 8.8888 9.90523 9.25607 9.54553C9.62334 9.18583 9.97089 8.96374 10.4614 8.77786C10.8311 8.63784 11.3857 8.47127 12.4062 8.4254C13.5105 8.37712 13.8432 8.36505 16.6384 8.36505ZM16.6384 6.51587C13.7939 6.51587 13.4365 6.52794 12.3199 6.57864C11.2058 6.62933 10.4441 6.80073 9.77616 7.05662C9.08845 7.31976 8.50427 7.6698 7.92009 8.23952C7.33838 8.80924 6.9785 9.38137 6.71229 10.0573C6.45348 10.7091 6.27601 11.4551 6.22424 12.5486C6.17248 13.6422 6.16016 13.9923 6.16016 16.7781C6.16016 19.5639 6.17248 19.914 6.22424 21.0076C6.27601 22.0987 6.45101 22.8447 6.71229 23.4989C6.98097 24.1724 7.33838 24.7445 7.92009 25.3167C8.50181 25.8864 9.08599 26.2389 9.77616 26.4996C10.4417 26.753 11.2033 26.9269 12.3199 26.9776C13.4365 27.0283 13.7939 27.0403 16.6384 27.0403C19.4829 27.0403 19.8403 27.0283 20.9569 26.9776C22.0711 26.9269 22.8327 26.7555 23.5007 26.4996C24.1884 26.2364 24.7726 25.8864 25.3568 25.3167C25.9385 24.747 26.2984 24.1748 26.5646 23.4989C26.8234 22.8471 27.0009 22.1011 27.0526 21.0076C27.1044 19.914 27.1167 19.5639 27.1167 16.7781C27.1167 13.9923 27.1044 13.6422 27.0526 12.5486C27.0009 11.4575 26.8258 10.7115 26.5646 10.0573C26.2959 9.38379 25.9385 8.81165 25.3568 8.23952C24.7751 7.6698 24.1909 7.31734 23.5007 7.05662C22.8352 6.80314 22.0735 6.62933 20.9569 6.57864C19.8403 6.52794 19.4829 6.51587 16.6384 6.51587Z" fill="#F9F5EF"/>
<path d="M16.6382 11.5081C13.668 11.5081 11.2598 13.8666 11.2598 16.7756C11.2598 19.6845 13.668 22.0431 16.6382 22.0431C19.6084 22.0431 22.0166 19.6845 22.0166 16.7756C22.0166 13.8666 19.6084 11.5081 16.6382 11.5081ZM16.6382 20.1963C14.7106 20.1963 13.1454 18.6658 13.1454 16.7756C13.1454 14.8853 14.7082 13.3548 16.6382 13.3548C18.5682 13.3548 20.1309 14.8853 20.1309 16.7756C20.1309 18.6658 18.5682 20.1963 16.6382 20.1963Z" fill="#F9F5EF"/>
<path d="M22.2312 12.5292C22.9255 12.5292 23.4883 11.978 23.4883 11.2981C23.4883 10.6181 22.9255 10.0669 22.2312 10.0669C21.5369 10.0669 20.9741 10.6181 20.9741 11.2981C20.9741 11.978 21.5369 12.5292 22.2312 12.5292Z" fill="#F9F5EF"/>
</svg>
