<svg width="34" height="34" viewBox="0 0 34 34" fill="none" xmlns="http://www.w3.org/2000/svg">
<path d="M17.2128 33.0709C26.4017 33.0709 33.8508 25.7754 33.8508 16.776C33.8508 7.77648 26.4017 0.480957 17.2128 0.480957C8.02382 0.480957 0.574707 7.77648 0.574707 16.776C0.574707 25.7754 8.02382 33.0709 17.2128 33.0709Z" fill="#D1ABEE"/>
<path fill-rule="evenodd" clip-rule="evenodd" d="M17.2124 6.64551C11.2465 6.64551 6.62207 10.9244 6.62207 16.7063C6.62207 19.7304 7.88668 22.3437 9.94867 24.1476C10.121 24.3002 10.2269 24.5117 10.2332 24.7395L10.2913 26.584C10.31 27.1718 10.9309 27.5562 11.4811 27.3182L13.5826 26.4091C13.7612 26.3319 13.9605 26.3176 14.1474 26.3685C15.113 26.6288 16.1409 26.7671 17.2124 26.7671C23.1782 26.7671 27.8027 22.4881 27.8027 16.7063C27.8027 10.9244 23.1782 6.64551 17.2124 6.64551Z" fill="#F9F5EF"/>
<path fill-rule="evenodd" clip-rule="evenodd" d="M10.8545 19.6495L13.9652 14.8153C14.4594 14.0466 15.5205 13.8554 16.2618 14.4005L18.737 16.2186C18.9634 16.3854 19.2769 16.3854 19.5033 16.2166L22.8444 13.7334C23.2908 13.4019 23.8723 13.9246 23.5733 14.3882L20.4626 19.2224C19.9684 19.9911 18.9073 20.1823 18.166 19.6373L15.6908 17.8191C15.4644 17.6524 15.1509 17.6524 14.9245 17.8212L11.5834 20.3043C11.1369 20.6358 10.5555 20.1132 10.8545 19.6495Z" fill="#D1ABEE"/>
</svg>
