<svg width="34" height="34" viewBox="0 0 34 34" fill="none" xmlns="http://www.w3.org/2000/svg">
<path d="M17.3617 33.071C26.5506 33.071 33.9997 25.7754 33.9997 16.776C33.9997 7.77648 26.5506 0.480957 17.3617 0.480957C8.17274 0.480957 0.723633 7.77648 0.723633 16.776C0.723633 25.7754 8.17274 33.071 17.3617 33.071Z" fill="#ABD9DC"/>
<path d="M25.4613 10.1565C25.3972 9.97548 25.3208 9.92479 25.2025 9.88134C24.9437 9.78478 24.5049 9.92961 24.5049 9.92961C24.5049 9.92961 8.95391 15.4047 8.06655 16.0107C7.87429 16.141 7.8102 16.2159 7.78062 16.3052C7.6278 16.7373 8.10599 16.928 8.10599 16.928L12.1139 18.2075C12.1139 18.2075 12.2643 18.2292 12.316 18.1954C13.228 17.6305 21.4904 12.5223 21.9661 12.3509C22.0425 12.3292 22.0967 12.3533 22.082 12.404C21.8922 13.0607 14.7168 19.3059 14.7168 19.3059C14.7168 19.3059 14.6897 19.3397 14.6725 19.3783L14.6626 19.3735L14.2879 23.2674C14.2879 23.2674 14.1302 24.4599 15.3503 23.2674C16.2106 22.4249 17.0412 21.7224 17.4578 21.3796C18.8357 22.3114 20.3195 23.3422 20.958 23.8806C21.2784 24.1509 21.5495 24.1944 21.7689 24.1871C22.3753 24.1654 22.5454 23.5112 22.5454 23.5112C22.5454 23.5112 25.38 12.3413 25.4736 10.8446C25.4835 10.6973 25.4958 10.6056 25.4958 10.5042C25.4958 10.3641 25.4835 10.2241 25.4613 10.1565Z" fill="#F9F5EF"/>
</svg>
