<svg width="34" height="34" viewBox="0 0 34 34" fill="none" xmlns="http://www.w3.org/2000/svg">
<path d="M16.7875 33.071C25.9764 33.071 33.4255 25.7754 33.4255 16.776C33.4255 7.77648 25.9764 0.480957 16.7875 0.480957C7.59852 0.480957 0.149414 7.77648 0.149414 16.776C0.149414 25.7754 7.59852 33.071 16.7875 33.071Z" fill="#95D595"/>
<path fill-rule="evenodd" clip-rule="evenodd" d="M24.7912 9.1383C22.7996 7.18532 20.1473 6.10864 17.325 6.10864C11.5079 6.10864 6.77282 10.7437 6.77035 16.4409C6.77035 18.2611 7.25594 20.0403 8.18027 21.607L6.68408 26.9614L12.2794 25.525C13.82 26.3482 15.5577 26.7828 17.3226 26.7828H17.3275C23.1447 26.7828 27.8797 22.1477 27.8822 16.4481C27.8822 13.6864 26.7853 11.0913 24.7937 9.1383H24.7912ZM17.325 25.0374H17.3226C15.7475 25.0374 14.2045 24.6222 12.8586 23.84L12.5382 23.6541L9.218 24.5063L10.1054 21.3366L9.89584 21.0107C9.01834 19.6444 8.55494 18.0631 8.55494 16.4409C8.55494 11.7045 12.4914 7.8516 17.3324 7.8516C19.6766 7.8516 21.8777 8.74722 23.5341 10.3695C25.1905 11.9942 26.1025 14.1499 26.1001 16.4457C26.1001 21.1821 22.1636 25.035 17.3275 25.035L17.325 25.0374ZM22.1365 18.6039C21.8728 18.4735 20.5762 17.8507 20.3347 17.7638C20.0931 17.6769 19.9181 17.6334 19.7406 17.8942C19.5656 18.1525 19.0603 18.7343 18.905 18.9056C18.7522 19.077 18.5969 19.0988 18.3332 18.9708C18.0694 18.8405 17.219 18.5701 16.2134 17.689C15.4295 17.0034 14.8996 16.1584 14.7468 15.9001C14.5939 15.6418 14.7295 15.5018 14.8626 15.3739C14.9809 15.258 15.1264 15.0721 15.257 14.9224C15.3876 14.7728 15.432 14.6641 15.5207 14.4927C15.6095 14.3213 15.5651 14.1692 15.4986 14.0413C15.432 13.9109 14.9045 12.6411 14.6851 12.1245C14.4707 11.62 14.2538 11.69 14.0911 11.6803C13.9383 11.6731 13.7608 11.6707 13.5858 11.6707C13.4108 11.6707 13.1249 11.7358 12.8833 11.9942C12.6417 12.2525 11.9614 12.8777 11.9614 14.1475C11.9614 15.4173 12.9055 16.6461 13.0386 16.8175C13.1692 16.9889 14.8971 19.5985 17.5444 20.7162C18.173 20.9818 18.6659 21.1411 19.048 21.2594C19.679 21.4549 20.2558 21.4284 20.7093 21.3608C21.2171 21.2859 22.2696 20.7355 22.489 20.132C22.7084 19.5285 22.7084 19.0119 22.6418 18.9032C22.5753 18.7946 22.4003 18.7318 22.1365 18.6015V18.6039Z" fill="#F9F5EF"/>
</svg>
