<svg width="19" height="19" viewBox="0 0 19 19" fill="none" xmlns="http://www.w3.org/2000/svg">
<path fill-rule="evenodd" clip-rule="evenodd" d="M17.6876 1.062C16.7078 0.0822001 15.1192 0.0821968 14.1394 1.062L9.21109 5.99031L4.28302 1.06224C3.30322 0.082437 1.71465 0.0824379 0.734852 1.06224C-0.244948 2.04204 -0.244952 3.63061 0.734848 4.61041L5.66292 9.53848L0.735195 14.4662C-0.244605 15.446 -0.244604 17.0346 0.735196 18.0144C1.715 18.9942 3.30356 18.9942 4.28336 18.0144L9.21109 13.0866L14.1391 18.0146C15.1189 18.9944 16.7074 18.9944 17.6872 18.0146C18.667 17.0348 18.667 15.4462 17.6872 14.4664L12.7593 9.53848L17.6876 4.61017C18.6674 3.63037 18.6674 2.0418 17.6876 1.062Z" fill="#B6B6B6" fill-opacity="0.5"/>
</svg>
