<svg width="115" height="132" viewBox="0 0 115 132" fill="none" xmlns="http://www.w3.org/2000/svg">
<path d="M0.259093 62.8771C1.56909 77.2571 8.44909 89.9271 17.1991 98.9571C21.0891 102.977 25.4991 106.437 30.2391 109.247C31.8191 110.807 33.4491 112.307 35.1191 113.727C44.1791 121.457 54.7391 127.057 65.9391 129.887C76.8091 132.637 88.8391 132.907 99.6691 126.527C111.029 119.827 116.459 104.947 113.009 91.6071C112.329 88.9871 111.449 86.4971 110.399 84.1171C111.419 82.6371 111.509 80.8071 110.989 79.2871C114.169 64.1171 108.899 49.9071 101.999 38.5171C88.0991 15.5871 64.7391 -9.82294 37.2091 3.84706C29.1291 7.85706 22.1391 14.6771 18.1791 23.4871C17.6391 23.7671 17.0991 24.0671 16.5591 24.3871C10.8091 27.8071 5.85909 33.6371 3.11909 40.5471C3.09909 40.5971 3.07909 40.6571 3.05909 40.7071C1.12909 41.8571 0.219093 44.3671 0.499093 46.7771C0.579093 47.4671 0.669093 48.1471 0.759093 48.8371C-0.0809071 53.4771 -0.180907 58.1871 0.249093 62.8871L0.259093 62.8771ZM102.489 111.837C96.9891 120.307 86.0891 121.987 78.0291 121.557C72.1991 121.247 66.3891 119.787 60.8691 117.577C68.9391 117.447 77.0991 115.537 84.8291 111.537C92.1991 107.717 99.3991 101.957 104.509 94.4171C106.109 100.117 106.099 106.267 102.479 111.837H102.489ZM54.8191 10.2871C66.6991 11.5271 76.5291 20.4071 84.2791 29.8971C91.5591 38.7971 99.1391 49.2771 102.199 61.6271C103.049 65.0471 103.499 68.5971 103.379 72.1971C99.2091 66.5371 94.3791 61.4771 89.8091 56.6571C84.4391 50.9971 78.8291 45.6471 73.0491 40.5671C67.3591 35.5671 61.5291 30.6471 55.1991 26.7471C47.7191 22.1171 39.2491 19.2371 30.6591 19.8771C37.2691 12.8271 46.5591 9.42706 54.8191 10.2871ZM24.2691 31.2371C28.8891 29.6171 33.8691 29.4671 38.2791 30.4871C44.6891 31.9671 50.4091 35.4071 55.7991 39.3571C61.1091 43.2571 66.2091 47.5771 71.1391 52.0871C76.2491 56.7671 81.1991 61.7071 85.9591 66.8771C90.0591 71.3371 94.1791 75.8771 97.7591 80.9471C81.1591 88.4271 62.5791 87.0371 47.9091 78.1271C39.3491 72.9271 31.9191 65.1671 27.2491 55.1471C23.9691 48.1071 22.1891 39.3171 24.2691 31.2471V31.2371ZM11.6491 42.2471C12.5391 40.5171 13.5891 38.9871 14.7591 37.6471C13.9691 52.1271 20.7891 65.5471 28.7991 74.8671C44.7191 93.3871 69.4791 100.177 92.5691 93.2371C93.3991 92.9871 94.2391 92.7071 95.0591 92.4171C94.5391 93.0071 94.0091 93.5871 93.4691 94.1371C77.0691 110.907 52.3391 110.277 35.3991 100.577C24.9691 90.1771 16.8191 76.5771 12.3491 61.0571C11.1291 56.8171 10.1691 52.4571 9.47909 48.0071C9.98909 46.0271 10.6991 44.0971 11.6591 42.2471H11.6491Z" fill="#C6E1DF"/>
</svg>
