<svg width="222" height="65" viewBox="0 0 222 65" fill="none" xmlns="http://www.w3.org/2000/svg">
<path d="M165.629 16.3023C166.589 15.2596 167.576 14.2308 168.591 13.2158C164.531 17.2756 160.916 21.6412 157.426 25.9373C155.688 28.0645 154.006 30.2195 152.379 32.3885L146.234 63.6291C145.47 63.8238 144.705 64.0184 143.94 64.2131H160.791C162.237 62.1971 163.683 60.1811 165.115 58.1651C162.39 59.0272 159.651 59.8613 156.898 60.6677L165.629 16.2884V16.3023Z" fill="#FFB087"/>
<path d="M190.433 2.03738C186.164 2.06518 182.369 3.24696 179.018 5.01268C179.657 5.13781 180.297 5.24904 180.951 5.37417C185.539 6.27788 189.654 7.30672 193.672 8.76657C193.825 10.5879 193.936 12.4092 194.006 14.2584C194.395 24.5607 193.463 34.7657 191.183 44.8039C191.545 49.1278 190.905 53.5769 189.682 57.72C189.028 59.9446 188.138 62.1135 187.054 64.2268H195.493C196.425 61.8632 197.287 59.4719 198.065 57.0666C197.913 59.458 197.718 61.8493 197.482 64.2268H207.547C208.02 59.4023 208.312 54.564 208.423 49.7396C211.496 47.9877 214.332 46.0413 216.71 43.8585C216.877 46.653 217.03 49.4615 217.141 52.2561C217.308 56.2463 217.405 60.2365 217.447 64.2268H218.809C223.661 49.7535 222.883 34.2096 216.181 20.1117C212.233 11.8253 203.571 1.94005 190.433 2.02347V2.03738ZM213.86 31.2065C213.86 31.2065 213.818 31.4011 213.804 31.4984C213.776 31.6375 213.734 31.7904 213.693 31.9294C213.415 32.9861 213.025 34.0288 212.469 35.0299C212.469 34.9882 211.927 35.8641 211.844 35.9753C211.524 36.4341 211.176 36.879 210.815 37.31C210.495 37.6854 210.161 38.0608 209.814 38.4223C209.758 38.4918 209.716 38.5335 209.689 38.5613C209.689 38.5613 209.689 38.5613 209.675 38.5752C209.411 38.8255 209.132 39.0757 208.854 39.3121C208.715 39.4372 208.562 39.5623 208.423 39.6736C208.243 31.7487 207.673 23.8377 206.811 15.9407C207.826 16.8027 208.743 17.7064 209.536 18.6518C212.469 22.1276 214.068 25.7286 213.971 29.6354C213.971 30.1498 213.915 30.6642 213.846 31.1926L213.86 31.2065Z" fill="#FFB087"/>
<path d="M118.122 3.6224C113.228 1.00858 107.361 -0.201001 101.091 1.53691C96.767 2.73259 93.4163 5.12396 90.7191 7.87681C93.9585 7.23726 97.2119 6.63942 100.465 6.08328C100.424 6.25012 100.396 6.43087 100.354 6.59771C99.5754 10.4489 98.8803 14.314 98.2824 18.193C96.044 14.7311 93.2773 11.4778 90.0795 8.54417C89.1202 9.58691 88.2582 10.6575 87.4657 11.7419C86.5064 13.0349 85.6305 14.3696 84.7963 15.7322C85.3941 16.3856 85.978 17.0391 86.5342 17.7203C88.0357 19.5556 89.3704 21.4742 90.5105 23.4624C90.5244 23.4902 90.5383 23.518 90.5522 23.5458C90.5661 23.5736 90.58 23.6014 90.6078 23.657C90.7051 23.8378 90.8025 24.0185 90.8998 24.1993C91.1501 24.6859 91.4003 25.1725 91.6228 25.6591C92.1094 26.7019 92.5543 27.7585 92.9436 28.8291C93.2912 29.7745 93.597 30.7338 93.8612 31.707C94.0002 32.2215 94.1254 32.7359 94.2505 33.2642C94.3061 33.5284 94.3617 33.7786 94.4173 34.0428C94.4312 34.1123 94.4451 34.1818 94.459 34.2374C94.459 34.2652 94.459 34.3209 94.4868 34.4182C94.8205 36.5871 94.9596 38.756 94.8761 40.9388C94.8344 41.926 94.751 42.9131 94.612 43.8863C94.5703 44.1505 94.5425 44.4146 94.5008 44.6649C94.5008 44.6927 94.5008 44.7066 94.5008 44.7205C94.5008 44.7483 94.5007 44.7761 94.4729 44.8317C94.3478 45.4157 94.2227 45.9857 94.0698 46.5697C93.7083 47.96 93.2356 49.3364 92.6655 50.685C90.3715 47.3204 88.7865 44.2756 87.2293 40.4522C86.3812 38.3528 85.6444 36.2395 85.0465 34.0984C84.7684 33.0974 84.5043 32.0824 84.2679 31.0814C84.1428 30.5392 84.0316 29.9969 83.9203 29.4686C83.8786 29.2462 83.8369 29.0237 83.7952 28.8152C83.7952 28.7595 83.6701 28.0366 83.6701 28.0505C83.1974 25.0613 82.961 22.0443 82.9193 19.0272C81.5429 21.502 80.2916 24.0046 79.0542 26.4933C77.6361 29.3296 76.3013 32.1937 75.05 35.0855C76.2457 39.6319 77.9836 44.1088 80.3472 48.4883C82.2798 52.0615 84.5599 55.5234 87.2015 58.8185C86.1449 59.9168 85.0882 60.7927 83.4198 62.0023C82.5022 62.6697 81.5429 63.3092 80.5418 63.8931C80.4723 63.921 80.1526 64.1017 80.1248 64.1156C80.0274 64.1712 79.9301 64.2129 79.8328 64.2685H93.027C93.2495 63.5039 93.458 62.7253 93.6387 61.9328C94.4729 58.2623 94.89 54.564 95.4879 50.8658C96.0023 47.7375 96.0162 42.7463 99.1583 40.3827C101.411 38.6865 104.025 39.3817 106.068 40.772C106.569 28.6483 108.335 16.5386 110.948 4.56783C113.34 4.24805 115.745 3.95608 118.136 3.69192L118.122 3.6224Z" fill="#FFB087"/>
<path d="M45.7417 49.8647C45.1577 48.8776 44.5738 47.8905 43.976 46.9172C44.5738 47.8905 45.1716 48.8776 45.7417 49.8647Z" fill="#E4D47F"/>
<path d="M37.6779 21.4186C45.0049 19.2358 52.3736 17.1225 59.798 15.1482C61.0632 14.8145 62.3423 14.4809 63.6214 14.1472C62.1337 11.7975 60.3958 9.5591 58.352 7.54312C51.3726 9.37835 44.4488 11.3387 37.5666 13.3686C37.0244 13.5354 36.4683 13.6884 35.926 13.8552C35.4255 11.9366 34.8694 10.0179 34.2716 8.11316C35.0362 7.8907 35.8148 7.66825 36.5795 7.4458C41.974 5.93034 47.4241 4.52611 52.9159 3.2331C48.3278 0.438541 42.4189 -0.729335 36.649 0.466347C31.0877 1.62032 26.5413 4.65124 22.9821 7.96022C19.8817 10.8382 17.4625 14.1055 15.3075 17.4423C15.1545 18.3738 15.0572 19.3053 15.0294 20.2368C14.4316 20.4176 13.8337 20.6122 13.2359 20.793C11.3033 24.0046 9.57931 27.2997 8.07776 30.6365C9.30125 30.2055 10.5247 29.8023 11.7621 29.3991C13.2498 28.9125 13.1942 28.9403 14.9182 28.3981C15.3631 28.259 15.8219 28.12 16.2668 27.9809C18.3245 33.584 23.0099 38.7699 29.6974 41.6896C31.1294 39.7153 33.34 37.2683 36.3988 38.2833C37.7752 38.7421 38.8596 39.618 39.7494 40.6329C39.9163 40.2576 39.9997 39.8544 39.9858 39.4651C39.6521 33.4171 38.8874 27.397 37.6918 21.4186H37.6779ZM26.1103 15.2455C26.2355 15.7322 26.3606 16.2188 26.4857 16.7054C26.152 16.8027 25.8323 16.9139 25.4986 17.0113C25.6654 16.4134 25.874 15.8295 26.1103 15.2455ZM28.6129 30.5392C28.0568 29.8718 27.5702 29.1627 27.1253 28.4537C27.0557 28.3424 26.9862 28.2173 26.9167 28.1061C26.875 28.0366 26.8333 27.9392 26.8055 27.8975C26.5969 27.4387 26.3745 26.9938 26.1798 26.535C25.9852 26.0484 25.8045 25.5618 25.6515 25.0752C26.4857 24.8249 27.3199 24.5607 28.1541 24.3105C28.5712 26.6045 28.9188 28.9125 29.2108 31.2343C29.0022 31.0119 28.8076 30.7894 28.6129 30.5531V30.5392Z" fill="#FFB087"/>
<path d="M118.122 3.62256C119.248 4.2204 120.319 4.88776 121.32 5.62463C120.305 4.90166 119.234 4.2204 118.122 3.62256Z" fill="#E4D47F"/>
<path d="M206.825 15.9685C207.687 23.8656 208.257 31.7765 208.438 39.7014C208.577 39.5763 208.73 39.4651 208.869 39.3399C209.147 39.1036 209.425 38.8533 209.689 38.6031C209.689 38.6031 209.689 38.6031 209.703 38.5892C209.731 38.5613 209.772 38.5196 209.828 38.4501C210.176 38.0886 210.509 37.7132 210.829 37.3379C211.19 36.9069 211.538 36.4619 211.858 36.0031C211.941 35.878 212.483 35.016 212.483 35.0577C213.026 34.0567 213.429 33.0139 213.707 31.9573C213.749 31.8183 213.776 31.6653 213.818 31.5263C213.846 31.429 213.874 31.276 213.874 31.2343C213.929 30.7199 213.985 30.2055 213.999 29.6771C214.082 25.7842 212.497 22.1833 209.564 18.6935C208.757 17.7481 207.84 16.8444 206.839 15.9824L206.825 15.9685Z" fill="#E4D47F"/>
<path d="M15.3072 17.4424C15.0013 17.9151 14.7094 18.3878 14.4174 18.8466C14.1254 19.3193 13.8335 19.792 13.5554 20.2508C13.4442 20.4177 13.3468 20.5984 13.2495 20.7792C13.8474 20.5984 14.4452 20.4038 15.043 20.223C15.0708 19.2776 15.1682 18.3461 15.3211 17.4285L15.3072 17.4424Z" fill="#E4D47F"/>
<path d="M152.366 32.3885C151.824 33.1114 151.281 33.8483 150.753 34.5713C150.684 34.6686 150.6 34.7798 150.531 34.8771C149.46 36.3509 148.431 37.8246 147.402 39.3123C147.319 39.4374 147.222 39.5626 147.138 39.7016C146.638 40.4385 146.137 41.1892 145.637 41.94C145.164 42.663 144.691 43.386 144.232 44.1089C144.135 44.2619 144.024 44.4287 143.926 44.5816C143.454 45.3185 142.995 46.0554 142.536 46.7923C142.536 46.8062 142.522 46.8201 142.508 46.834C142.063 47.543 141.632 48.266 141.201 48.9751C141.09 49.1558 140.979 49.3366 140.868 49.5173C140.437 50.2542 140.006 50.9772 139.575 51.714C139.589 51.1162 139.603 50.5183 139.603 49.9066C139.603 45.6939 139.213 41.4812 138.407 37.3241C138.087 35.6418 137.712 33.9456 137.267 32.2494C136.238 28.287 134.875 24.2828 133.026 20.4594C131.441 17.1783 129.509 14.0222 127.145 11.1025C126.992 10.9079 126.825 10.7132 126.659 10.5186C126.603 10.4491 126.547 10.3935 126.492 10.3239C126.381 10.1988 126.269 10.0737 126.158 9.94855C126.089 9.86513 126.005 9.78171 125.936 9.7122C125.838 9.60097 125.741 9.50365 125.63 9.39242C125.546 9.309 125.463 9.21168 125.38 9.12826C125.282 9.03094 125.199 8.93361 125.101 8.85019C125.004 8.75287 124.907 8.65555 124.809 8.57213C124.726 8.48871 124.643 8.41919 124.559 8.33577C124.448 8.22455 124.337 8.12722 124.226 8.016C124.212 8.00209 124.198 7.98819 124.184 7.97429C123.85 7.66841 123.503 7.36254 123.155 7.07057C123.155 7.07057 123.127 7.05667 123.113 7.04277C122.946 6.90373 122.794 6.7786 122.627 6.63957C122.585 6.61177 122.557 6.58396 122.515 6.54225C122.349 6.41712 122.182 6.27809 122.015 6.15296C121.973 6.12515 121.945 6.09734 121.904 6.06954C121.723 5.9305 121.542 5.80537 121.361 5.66634C121.348 5.66634 121.32 5.63854 121.306 5.62463C120.291 4.90166 119.22 4.2204 118.108 3.62256C115.703 3.88672 113.311 4.17869 110.92 4.49847C108.306 16.4692 106.541 28.579 106.04 40.7026C106.193 40.8139 106.36 40.9251 106.499 41.0363C106.527 41.0641 106.554 41.078 106.582 41.1058C106.721 41.217 106.874 41.3283 107.013 41.4534C107.041 41.4673 107.055 41.4951 107.083 41.509C107.208 41.6202 107.333 41.7315 107.458 41.8566C107.472 41.8566 107.486 41.8844 107.5 41.8983C107.625 42.0234 107.75 42.1486 107.861 42.2737C107.889 42.3015 107.903 42.3293 107.931 42.3432C108.042 42.4683 108.153 42.5935 108.265 42.7186C108.265 42.7186 108.292 42.7464 108.292 42.7603C108.39 42.8854 108.487 42.9967 108.57 43.1079C108.584 43.1357 108.598 43.1496 108.612 43.1774C108.696 43.3025 108.779 43.4277 108.862 43.5389C108.876 43.5667 108.89 43.5945 108.904 43.6084C108.988 43.7335 109.057 43.8448 109.113 43.9699C110.253 46.0832 110.948 48.3911 111.518 50.6991C111.838 51.9782 112.116 53.2712 112.422 54.5364C112.547 55.0369 112.672 55.5374 112.797 56.0379C113.52 58.763 114.257 61.4741 114.98 64.1992H143.899C144.663 64.0045 145.428 63.8099 146.193 63.6152L152.338 32.3746L152.366 32.3885Z" fill="#E4D47F"/>
<path d="M16.2668 27.981C15.8219 28.12 15.3631 28.259 14.9182 28.3981C13.1942 28.9403 13.2498 28.9125 11.7622 29.3991C10.5248 29.8023 9.3013 30.2055 8.07781 30.6365C7.77194 31.2899 7.49387 31.9573 7.2019 32.6247C7.2019 32.6525 7.1741 32.6803 7.1741 32.6942C6.88213 33.3754 6.60406 34.0567 6.326 34.738C6.08964 35.3358 5.85328 35.9336 5.63083 36.5454C5.18593 37.755 4.75492 38.9507 4.36563 40.1741C3.97634 41.3837 3.60095 42.6072 3.25337 43.8168C1.37643 50.5182 0.291969 57.3308 0 64.1851H20.9105C20.994 63.3509 21.0913 62.5167 21.2303 61.6825C22.1757 55.5929 24.4559 49.6423 28.0429 44.0949C28.321 43.6778 28.5991 43.2607 28.8771 42.8436C28.9188 42.7741 28.9745 42.7045 29.0301 42.6211C29.2247 42.3431 29.4472 42.0233 29.6835 41.6896C22.996 38.7699 18.3245 33.5701 16.2529 27.981H16.2668Z" fill="#E4D47F"/>
<path d="M26.0966 15.2456C25.8603 15.8295 25.6517 16.4135 25.4849 17.0113C25.8185 16.914 26.1383 16.8028 26.472 16.7055C26.3469 16.2188 26.2217 15.7322 26.0966 15.2456Z" fill="#E4D47F"/>
<path d="M25.6375 25.0613C25.7904 25.5479 25.9711 26.0484 26.1658 26.5211C26.3604 26.98 26.5829 27.4249 26.7914 27.8837C26.8192 27.9254 26.8609 28.0227 26.9027 28.0922C26.9722 28.2034 27.0417 28.3286 27.1112 28.4398C27.5561 29.1628 28.0566 29.8579 28.5989 30.5253C28.7935 30.7616 28.9881 30.9841 29.1967 31.2066C28.9186 28.8847 28.571 26.5768 28.14 24.2827C27.3058 24.533 26.4716 24.7971 25.6375 25.0474V25.0613Z" fill="#E4D47F"/>
<path d="M83.7815 28.7598C83.8232 28.9822 83.865 29.2047 83.9067 29.4132C84.0179 29.9554 84.1291 30.4977 84.2542 31.026C84.4906 32.0409 84.7409 33.042 85.0328 34.043C85.6446 36.1841 86.3675 38.3113 87.2156 40.3968C88.7728 44.2202 90.3578 47.265 92.6518 50.6296C93.2219 49.281 93.6946 47.9046 94.0561 46.5142C94.209 45.9442 94.3341 45.3603 94.4593 44.7763C94.4593 44.7346 94.4732 44.6929 94.4871 44.6651C94.4871 44.6512 94.4871 44.6373 94.4871 44.6095C94.5288 44.3453 94.5705 44.0951 94.5983 43.8309C94.7373 42.8438 94.8207 41.8706 94.8625 40.8834C94.9459 38.7006 94.8068 36.5317 94.4732 34.3628C94.4593 34.2655 94.4454 34.2098 94.4454 34.182C94.4454 34.1264 94.4176 34.0569 94.4036 33.9874C94.348 33.7232 94.2924 33.4591 94.2368 33.2088C94.1256 32.6944 93.9865 32.1661 93.8475 31.6516C93.5834 30.6923 93.2775 29.733 92.9299 28.7737C92.5406 27.7031 92.0957 26.6465 91.6091 25.6037C91.3727 25.1171 91.1364 24.6166 90.8861 24.1439C90.7888 23.9631 90.6915 23.7824 90.5942 23.6016C90.5663 23.5599 90.5524 23.5182 90.5385 23.4904C90.5385 23.4626 90.5107 23.4487 90.4968 23.407C89.3428 21.4327 88.022 19.5141 86.5205 17.6649C85.9644 16.9976 85.3804 16.3302 84.7826 15.6768C84.4489 16.2051 84.143 16.7334 83.8232 17.2756C83.8232 17.2756 83.8232 17.3034 83.8093 17.3034C83.5035 17.8318 83.1976 18.374 82.8917 18.9023C82.9334 21.9193 83.1698 24.9363 83.6425 27.9256C83.6425 27.9117 83.7676 28.6346 83.7676 28.6902L83.7815 28.7598Z" fill="#E4D47F"/>
<path d="M80.5411 63.8237C81.556 63.2397 82.5014 62.6002 83.419 61.9328C85.0874 60.7371 86.1441 59.8473 87.2007 58.749C84.5591 55.4539 82.2651 51.992 80.3464 48.4188C77.9829 44.0532 76.245 39.5763 75.0493 35.0161C74.799 35.6139 74.5348 36.1978 74.2846 36.7957C74.2846 36.7957 74.2846 36.7957 74.2846 36.8096C74.0482 37.3796 73.798 37.9636 73.5616 38.5475C73.506 38.6726 73.4643 38.7978 73.4087 38.9229C73.214 39.3956 73.0333 39.8544 72.8386 40.3271C72.5884 40.9389 72.352 41.5645 72.1157 42.1763C71.8515 38.3111 71.2954 34.446 70.35 30.6365C70.2665 30.3168 70.197 29.997 70.1136 29.6911C70.0858 29.5938 70.058 29.4965 70.0302 29.3991C69.9746 29.1767 69.9051 28.9542 69.8494 28.7179C69.8216 28.6066 69.7799 28.4954 69.7521 28.3842C69.6965 28.1756 69.627 27.9532 69.5714 27.7446C69.5436 27.6334 69.5019 27.5222 69.4741 27.411C69.4045 27.1885 69.335 26.9661 69.2655 26.7436C69.2377 26.6324 69.196 26.5351 69.1682 26.4238C69.0987 26.1875 69.0152 25.9372 68.9318 25.7009C68.904 25.6174 68.8762 25.534 68.8484 25.4506C68.7511 25.1586 68.6538 24.8667 68.5425 24.5608C68.5425 24.533 68.5147 24.4913 68.5147 24.4635C68.3757 24.0603 68.2228 23.6432 68.0698 23.24C67.8335 22.6143 67.5832 21.9887 67.3329 21.363C67.3329 21.3352 67.3051 21.3074 67.3051 21.2796C67.18 20.9598 67.041 20.654 66.9019 20.3342C66.888 20.2925 66.8602 20.2508 66.8463 20.2091C66.7073 19.9032 66.5683 19.5973 66.4292 19.3053C66.4153 19.2636 66.3875 19.2358 66.3736 19.1941C66.2207 18.8743 66.0677 18.5546 65.9148 18.2487C65.9148 18.2348 65.9009 18.2209 65.887 18.1931C65.7341 17.8733 65.5672 17.5535 65.4004 17.2338C65.3448 17.1364 65.3031 17.0391 65.2475 16.9557C65.1223 16.7332 65.0111 16.5108 64.886 16.2883C64.8304 16.1771 64.7608 16.0659 64.6913 15.9547C64.5801 15.7461 64.455 15.5376 64.3298 15.3429C64.2603 15.2317 64.1908 15.1066 64.1213 14.9953C63.9962 14.7868 63.871 14.5921 63.7459 14.3836C63.7042 14.3141 63.6486 14.2306 63.6069 14.1611C62.3278 14.4948 61.0487 14.8285 59.7835 15.1622C52.3591 17.1364 44.9904 19.2497 37.6633 21.4326C38.859 27.411 39.6376 33.4311 39.9574 39.479C39.9852 39.8822 39.8879 40.2715 39.721 40.6469C40.736 41.787 41.5145 43.08 42.1958 44.1505C42.7936 45.082 43.3776 46.0136 43.9476 46.9451C44.5455 47.9183 45.1433 48.9054 45.7133 49.8926C46.2556 50.8241 46.7978 51.7695 47.3261 52.7149C48.8277 55.3983 50.218 58.1233 51.5249 60.8623C51.6222 61.0708 51.7196 61.2655 51.8169 61.474C52.2479 62.3916 52.665 63.2953 53.0682 64.213H79.7903C79.8876 64.1713 79.9849 64.1156 80.0823 64.06C80.1101 64.0461 80.4437 63.8654 80.4994 63.8376L80.5411 63.8237Z" fill="#E4D47F"/>
<path d="M216.71 43.8586C214.332 46.0415 211.496 47.9879 208.424 49.7397C208.312 54.5642 208.02 59.4025 207.548 64.227H217.461C217.419 60.2367 217.322 56.2465 217.155 52.2562C217.044 49.4478 216.891 46.6532 216.724 43.8586H216.71Z" fill="#E4D47F"/>
<path d="M34.2715 8.09929C34.8693 10.004 35.4116 11.9227 35.926 13.8413C36.4682 13.6745 37.0243 13.5077 37.5666 13.3547C44.4487 11.3249 51.3725 9.36449 58.352 7.52926C58.1712 7.34851 57.9766 7.16777 57.7958 6.98703C57.6985 6.88971 57.6012 6.80629 57.5039 6.70896C57.3787 6.58383 57.2397 6.47261 57.1007 6.34748C57.0034 6.26406 56.9199 6.18064 56.8226 6.09722C56.6002 5.90257 56.3777 5.70793 56.1414 5.52718C56.1136 5.51328 56.0857 5.48547 56.0718 5.47157C55.7521 5.20741 55.4045 4.94325 55.0708 4.69299C54.9874 4.62347 54.904 4.56786 54.8066 4.49834C54.4312 4.22028 54.0559 3.95611 53.6666 3.69195C53.4163 3.52511 53.18 3.37217 52.9158 3.21924C47.424 4.51224 41.9739 5.91648 36.5794 7.43193C35.8147 7.65439 35.0362 7.87684 34.2715 8.09929Z" fill="#E4D47F"/>
<path d="M98.2961 18.2069C98.8939 14.3418 99.5752 10.4767 100.368 6.61159C100.409 6.44475 100.437 6.26401 100.479 6.09717C97.2116 6.6533 93.9722 7.25114 90.7327 7.89069C90.7188 7.9046 90.7049 7.9324 90.6771 7.9463C90.4824 8.15485 90.2878 8.3495 90.1071 8.55805C93.3187 11.4916 96.0716 14.745 98.31 18.2069H98.2961Z" fill="#E4D47F"/>
<path d="M193.993 14.2584C193.924 12.4092 193.812 10.5879 193.66 8.76658C189.641 7.30674 185.526 6.2918 180.938 5.37418C180.298 5.24905 179.659 5.12392 179.005 5.0127C178.672 5.17953 178.352 5.36028 178.032 5.55492C178.032 5.55492 178.004 5.56883 177.991 5.58273C177.671 5.76347 177.365 5.95812 177.059 6.13886C177.059 6.13886 177.045 6.13886 177.031 6.15276C176.725 6.34741 176.419 6.54206 176.114 6.75061C175.516 7.1538 174.932 7.5709 174.362 8.0019C174.334 8.01581 174.306 8.04361 174.278 8.05752C174.014 8.25216 173.764 8.46071 173.514 8.66926C173.472 8.69707 173.444 8.72487 173.402 8.75268C173.152 8.96123 172.902 9.15587 172.666 9.36442C172.638 9.39223 172.61 9.42004 172.582 9.44784C172.332 9.65639 172.082 9.87885 171.845 10.1013C171.345 10.5462 170.858 11.005 170.372 11.4638C170.288 11.5472 170.205 11.6307 170.107 11.7141C169.621 12.1729 169.148 12.6317 168.675 13.1044C168.634 13.1461 168.606 13.1739 168.564 13.2156C167.549 14.2306 166.576 15.2594 165.603 16.3022L156.871 60.6815C159.624 59.8751 162.363 59.0409 165.088 58.1789C168.94 52.7983 172.791 47.4177 176.642 42.0371C176.99 41.5644 177.379 40.9249 177.838 40.2158C177.963 40.0073 178.102 39.8126 178.241 39.5902C178.38 39.3816 178.519 39.1592 178.672 38.9506C178.741 38.8394 178.825 38.7421 178.894 38.6308C179.047 38.4223 179.2 38.1998 179.367 37.9913C179.617 37.6715 179.868 37.3656 180.146 37.0598C180.326 36.8651 180.507 36.6705 180.702 36.4758C180.896 36.2951 181.091 36.1143 181.286 35.9475C181.786 35.5304 182.328 35.1828 182.898 34.9326C183.58 34.6267 184.317 34.4738 185.109 34.5294C188.335 34.7518 189.794 38.1859 190.337 40.1463C190.434 40.5217 190.531 40.8971 190.615 41.2725C190.615 41.3281 190.643 41.3837 190.643 41.4393C190.712 41.773 190.782 42.0928 190.837 42.4264C190.837 42.4542 190.837 42.4821 190.837 42.5099C190.893 42.8713 190.948 43.2328 191.004 43.6082C191.06 43.9975 191.087 44.3868 191.129 44.7761C193.409 34.724 194.355 24.519 193.952 14.2306L193.993 14.2584Z" fill="#E4D47F"/>
<path d="M195.481 64.241H197.469C197.705 61.8635 197.9 59.4722 198.053 57.0808C197.274 59.4861 196.412 61.8774 195.481 64.241Z" fill="#E4D47F"/>
</svg>
