<svg width="84" height="76" viewBox="0 0 84 76" fill="none" xmlns="http://www.w3.org/2000/svg">
<path d="M82.5879 38C82.5879 58.7017 65.4778 75.5 44.3511 75.5C23.2244 75.5 6.11426 58.7017 6.11426 38C6.11426 17.2983 23.2244 0.5 44.3511 0.5C65.4778 0.5 82.5879 17.2983 82.5879 38Z" fill="#F9F5EF" stroke="#231F20"/>
<path d="M58.9378 17.5408L57.9848 19.0266L53.5247 18.4809L53.8973 14.1885C55.9131 15.2463 57.7136 16.3422 58.9383 17.5408H58.9378Z" fill="#EFB27B"/>
<g opacity="0.3">
<path d="M58.9378 17.5408L57.9848 19.0266L53.5247 18.4809L53.8973 14.1885C55.9131 15.2463 57.7136 16.3422 58.9383 17.5408H58.9378Z" fill="#231F20"/>
</g>
<path d="M18.4913 36.724L20.4835 35.4934L23.6015 36.724L23.3936 31.1941L18.9592 32.4377L18.4913 36.724Z" fill="#EFB27B"/>
<g opacity="0.2">
<path d="M18.4913 36.724L20.4835 35.4934L23.6015 36.724L23.3936 31.1941L18.9592 32.4377L18.4913 36.724Z" fill="#231F20"/>
</g>
<path d="M23.6013 37.1928C23.5409 37.1928 23.4804 37.1818 23.4229 37.1591L20.5314 36.0177L18.7458 37.121C18.5905 37.2167 18.3935 37.2171 18.2382 37.1222C18.0826 37.0272 17.9964 36.8536 18.0159 36.6746L18.4841 32.3883C18.5048 32.1988 18.6406 32.0402 18.8278 31.9878L23.2622 30.7442C23.4034 30.7045 23.5554 30.7308 23.6746 30.8152C23.7934 30.8996 23.8663 31.0331 23.8717 31.1772L24.0795 36.7071C24.0853 36.8657 24.0091 37.0163 23.8766 37.1076C23.7951 37.164 23.699 37.1928 23.6017 37.1928H23.6013ZM20.4834 35.0253C20.5438 35.0253 20.6043 35.0366 20.6618 35.0589L23.0966 36.0202L22.9385 31.8093L19.4004 32.8018L19.0716 35.8124L20.2288 35.0975C20.3062 35.0496 20.3948 35.0253 20.4838 35.0253H20.4834Z" fill="#231F20"/>
<path d="M57.9845 19.4954C57.9651 19.4954 57.9452 19.4942 57.9253 19.4918L53.4652 18.946C53.2106 18.9148 53.0263 18.692 53.0483 18.4417L53.4209 14.1493C53.4346 13.9923 53.5277 13.8523 53.6693 13.7772C53.8105 13.7022 53.981 13.7013 54.1226 13.776C56.5748 15.0622 58.1638 16.1212 59.2758 17.2098C59.4336 17.3644 59.4613 17.6054 59.3425 17.7905L58.3894 19.2763C58.3012 19.4139 58.1476 19.4954 57.9849 19.4954H57.9845ZM54.0394 18.072L57.7419 18.5253L58.3257 17.6152C57.4049 16.7834 56.1095 15.9208 54.311 14.9433L54.0394 18.0725V18.072Z" fill="#231F20"/>
<path d="M53.8966 14.1885C55.9124 15.2463 57.713 16.3422 58.9376 17.5408Z" fill="#EFB27B"/>
<path d="M62.7803 29.7023C62.7335 33.9813 61.8773 38.8223 60.8121 43.8552C52.1965 51.1213 42.553 54.9958 31.1599 53.0871C27.9405 51.6954 24.9642 46.6398 23.5313 40.7589C23.5081 40.6607 23.4845 40.5617 23.4613 40.4635C23.4382 40.3641 23.4158 40.2663 23.3939 40.1669C23.3496 39.9681 23.3069 39.7697 23.2651 39.5697C23.2456 39.4691 23.2249 39.3696 23.2055 39.269C23.1459 38.9684 23.0925 38.6669 23.0432 38.3626C22.9082 37.5539 22.8056 36.7368 22.7381 35.9192C22.7029 35.5118 22.6772 35.1044 22.6602 34.6971C22.5836 32.8712 22.6822 31.0571 22.9939 29.3278C23.1252 28.593 23.2941 27.8752 23.5056 27.1786C23.5226 27.1214 23.5396 27.0641 23.5578 27.0065C24.6375 26.2871 25.7442 25.588 26.8782 24.9072C26.8807 24.906 26.8848 24.9035 26.8885 24.9007C34.2972 20.4472 42.8664 16.7764 52.5137 13.838C52.5928 13.8137 52.6722 13.7897 52.7513 13.7654C53.6762 15.0934 54.6338 16.3995 55.6262 17.6841C57.132 19.6386 58.7168 21.5419 60.3824 23.3942C61.9465 25.1344 62.8064 27.3818 62.7807 29.7015L62.7803 29.7023Z" fill="#FFE790"/>
<path d="M55.001 17.4872L54.8491 17.7773L50.8129 16.6976L50.2321 18.9065H43.8364L41.963 22.4779L37.7447 22.1967C35.8961 23.3746 34.2852 25.228 32.8664 27.6268H30.3294C30.3281 27.6459 30.3269 27.6637 30.3269 27.6816L30.3737 27.6382C30.3567 27.6649 30.3414 27.6917 30.3256 27.7185C30.249 29.5927 29.888 31.2351 29.1031 32.5351C29.0691 32.5299 29.0368 32.5262 29.0029 32.5209C29.012 32.9908 29.0563 33.4606 29.142 33.9228C28.7574 33.8145 28.3247 34.1926 28.391 34.5797C28.4584 34.9656 28.9925 35.1843 29.32 34.9591C29.2654 35.0114 29.2173 35.0686 29.1759 35.1295C28.8758 35.5762 29.2488 36.1645 29.7903 36.1098C29.8048 36.1085 29.8189 36.1073 29.8334 36.1061C29.9282 37.0596 30.023 38.0119 30.119 38.9658C29.6541 38.752 29.1134 38.9569 28.6406 39.1504C26.9866 39.8252 25.2772 40.3652 23.5313 40.7584C23.5081 40.6602 23.4845 40.5612 23.4613 40.463C23.4382 40.3636 23.4158 40.2658 23.3939 40.1664C23.3496 39.9676 23.3069 39.7692 23.2651 39.5692C23.2456 39.4685 23.2249 39.3691 23.2055 39.2685C23.1471 38.9678 23.0937 38.6652 23.0432 38.3621C22.9107 37.5534 22.808 36.7375 22.7393 35.9187H22.7381C22.7029 35.5113 22.6772 35.1039 22.6602 34.6965C22.5836 32.8707 22.6822 31.0566 22.9939 29.3273C23.1252 28.5925 23.2941 27.8747 23.5056 27.1781C24.6019 26.4002 25.726 25.6439 26.8782 24.9067C26.8807 24.9055 26.8848 24.903 26.8885 24.9002C34.2144 20.2175 42.652 16.3495 52.1266 13.2402C52.2553 13.4403 52.3837 13.6387 52.5137 13.8375C53.3177 15.0714 54.1465 16.2882 55.0015 17.4864L55.001 17.4872Z" fill="#FFD059"/>
<path d="M61.5912 25.305C61.8002 26.1294 61.9791 26.9774 61.895 27.823C61.811 28.6686 61.4276 29.5215 60.7126 30.0015C61.0012 30.3318 60.9759 30.8811 60.6588 31.1846C60.3413 31.4881 59.7807 31.4999 59.4503 31.2094C59.529 31.889 59.0814 32.5475 58.4919 32.9143C57.9027 33.2811 57.1935 33.4081 56.5009 33.4913C55.6373 33.5952 54.7666 33.6426 53.8964 33.6333C55.2775 33.9948 56.6586 34.3564 58.0398 34.7179C58.2083 34.7621 58.3809 34.8067 58.5548 34.7942C58.7709 34.7787 58.9696 34.6781 59.1663 34.5888C59.9761 34.2225 60.8671 34.0305 61.7588 34.0305C61.9766 34.0305 62.2192 34.033 62.3782 33.8869C62.4726 33.8001 62.5185 33.6759 62.5595 33.5554C63.5043 30.7769 63.2567 27.6291 61.8884 25.0254" fill="#FFD059"/>
<g opacity="0.6">
<path d="M60.3822 23.3942C58.7166 21.5415 57.1318 19.6382 55.626 17.6841C54.6337 16.3995 53.6761 15.093 52.7512 13.7654C41.5228 17.1659 31.7497 21.5521 23.5572 27.0065C23.4732 27.2743 23.3978 27.5462 23.3258 27.8205C31.4578 22.4561 41.1311 18.1328 52.2258 14.7724C53.1507 16.1005 54.1083 17.4066 55.1007 18.6912C56.6064 20.6456 58.1913 22.549 59.8568 24.4012C61.4209 26.1415 62.2808 28.3889 62.2552 30.7086C62.2105 34.792 61.4284 39.3875 60.4315 44.1725C60.5586 44.067 60.6857 43.9611 60.8124 43.8544C61.8776 38.8215 62.7338 33.9809 62.7806 29.7015C62.8066 27.3818 61.9463 25.1344 60.3822 23.3942Z" fill="#F9F5EF"/>
</g>
<path d="M36.8704 54.041C34.9651 54.041 33.0366 53.8767 31.0792 53.5488C31.0403 53.5423 31.0026 53.5314 30.967 53.5155C28.7839 52.5718 26.6625 50.0618 24.9932 46.4482C23.3496 42.8894 22.351 38.7228 22.1821 34.7165C22.0616 31.8389 22.3705 29.1987 23.1004 26.8693C23.1323 26.7675 23.1989 26.6794 23.2888 26.6194C31.3715 21.238 41.2365 16.763 52.6102 13.3182C52.8106 13.2577 53.0279 13.332 53.1459 13.5016C54.07 14.8284 55.033 16.1406 56.0072 17.4016C57.5017 19.3415 59.094 21.2534 60.7409 23.0849C62.3916 24.9213 63.2854 27.2734 63.2585 29.7071C63.2089 34.2576 62.2306 39.4605 61.2804 43.9501C61.2589 44.0511 61.2042 44.1428 61.1243 44.2101C53.3157 50.7954 45.3327 54.041 36.8708 54.041H36.8704ZM31.2999 52.6351C41.5839 54.3404 51.097 51.3858 60.3774 43.6035C61.3077 39.1943 62.2542 34.1152 62.3026 29.6974C62.3274 27.4954 61.518 25.3672 60.0235 23.7045C58.3612 21.8555 56.7532 19.925 55.2445 17.9668C54.3312 16.7849 53.4275 15.5575 52.556 14.3155C41.4804 17.6986 31.8642 22.0665 23.9657 27.3014C23.3024 29.4909 23.0234 31.9716 23.1368 34.6779C23.4713 42.6103 27.2032 50.808 31.2994 52.6355L31.2999 52.6351Z" fill="#231F20"/>
<path d="M39.2594 38.5933C44.2705 33.1315 53.1258 31.679 59.764 35.03C59.9996 35.1469 60.094 35.4289 59.9748 35.6597C59.8589 35.8845 59.5827 35.9783 59.3509 35.8748C52.8331 32.91 44.8829 34.2534 39.4676 38.8047C39.4039 38.8566 39.3091 38.8485 39.2561 38.786C39.2076 38.7292 39.2105 38.6468 39.2594 38.5933Z" fill="#231F20"/>
<path d="M35.2947 29.9179C34.718 27.974 35.9633 25.8349 38.1716 25.8418C39.3346 25.8438 40.4719 26.588 40.948 27.5739C40.9782 27.6348 40.9526 27.7082 40.8909 27.7379C40.847 27.759 40.7965 27.7525 40.76 27.7253C40.204 27.3256 39.6393 27.0254 39.0551 26.8915C37.9112 26.6034 36.7135 27.0615 36.1331 28.1059C35.8221 28.6167 35.6611 29.2399 35.5373 29.905C35.5203 30.0324 35.3253 30.0429 35.2947 29.9184V29.9179Z" fill="#231F20"/>
<path d="M49.3504 24.7222C48.7658 22.8371 49.908 20.6692 52.0783 20.6948C53.2197 20.7102 54.3061 21.4759 54.7532 22.4436C54.7818 22.5036 54.7557 22.575 54.6944 22.603C54.6509 22.6229 54.6021 22.616 54.5665 22.5888C54.0299 22.19 53.4859 21.88 52.9212 21.7364C50.7961 21.2357 49.8534 22.881 49.5872 24.7072C49.5706 24.8314 49.3818 24.8432 49.3499 24.7222H49.3504Z" fill="#231F20"/>
<path d="M37.6859 32.6237C38.857 32.2269 39.6543 31.4744 39.4668 30.9428C39.2793 30.4112 38.1779 30.3019 37.0069 30.6986C35.8358 31.0954 35.0385 31.8479 35.226 32.3795C35.4135 32.9111 36.5148 33.0204 37.6859 32.6237Z" fill="#FFA1AD"/>
<path d="M55.7914 26.4923C56.9467 26.0534 57.7151 25.2724 57.5076 24.748C57.3002 24.2236 56.1955 24.1542 55.0402 24.5932C53.8849 25.0321 53.1165 25.8131 53.324 26.3375C53.5314 26.8619 54.6361 26.9312 55.7914 26.4923Z" fill="#FFA1AD"/>
<path d="M43.8572 27.1836C42.238 28.2365 42.5365 31.0102 45.1828 30.6389C45.2983 30.6227 45.4155 30.6341 45.5285 30.6613C48.9623 31.4894 50.6519 29.6027 50.1948 26.7697C50.1004 26.1846 49.5767 25.7582 48.9723 25.7582H48.1004C46.2228 24.4513 44.6922 25.3533 44.3159 26.5811C44.2401 26.8274 44.0758 27.0412 43.8568 27.1832L43.8572 27.1836Z" fill="#FF9761"/>
<g opacity="0.6">
<path d="M43.5968 27.8243C43.8154 27.6819 43.9801 27.4684 44.0559 27.2221C44.4326 25.9944 45.9632 25.0924 47.8404 26.3993H48.7123C49.3167 26.3993 49.8404 26.8257 49.9348 27.4108C50.0532 28.1456 50.0263 28.8159 49.8628 29.3925C50.2425 28.6982 50.36 27.7967 50.1944 26.7697C50.1 26.1846 49.5763 25.7582 48.9719 25.7582H48.1C46.2224 24.4513 44.6918 25.3533 44.3155 26.5811C44.2397 26.8274 44.0754 27.0412 43.8563 27.1832C43.3484 27.5135 43.0292 28.0134 42.912 28.5323C43.0768 28.2596 43.3049 28.0138 43.5963 27.8243H43.5968Z" fill="#F9F5EF"/>
</g>
<path d="M47.0554 31.1775C46.588 31.1775 46.0556 31.1162 45.4499 30.9701C45.3671 30.9503 45.2921 30.9446 45.2279 30.9539C43.9921 31.1276 43.0378 30.6752 42.676 29.7444C42.291 28.7544 42.7211 27.5396 43.6767 26.9184C43.8344 26.8157 43.9507 26.6635 44.0041 26.4899C44.2302 25.7531 44.7966 25.168 45.5186 24.9253C46.3383 24.6494 47.2877 24.8328 48.2014 25.4402H48.9718C49.7465 25.4402 50.3956 25.9786 50.5153 26.7204C50.7624 28.2545 50.413 29.537 49.5308 30.3315C49.0609 30.7547 48.2833 31.1783 47.0558 31.1783L47.0554 31.1775ZM45.2909 30.3128C45.3923 30.3128 45.4975 30.3258 45.6051 30.3518C47.1229 30.7178 48.3285 30.5486 49.0911 29.8621C49.8077 29.2165 50.0855 28.136 49.8731 26.8189C49.8048 26.3953 49.4173 26.076 48.9714 26.076H48.0995C48.032 26.076 47.9662 26.0553 47.9116 26.0172C46.9312 25.3347 46.1839 25.3737 45.7293 25.5266C45.2044 25.7031 44.792 26.1316 44.626 26.6725C44.5291 26.9881 44.3196 27.2636 44.0356 27.4483C43.3268 27.9092 43.0035 28.7986 43.2829 29.5172C43.5326 30.1595 44.2082 30.4532 45.1356 30.3234C45.1861 30.3161 45.2379 30.3128 45.2909 30.3128Z" fill="#231F20"/>
<path d="M50.1379 26.2046C50.2004 27.1521 50.1487 28.3368 49.2912 28.9613C48.4053 29.3975 47.4348 29.7156 46.435 29.7346C45.7867 29.7517 45.1375 29.6348 44.533 29.4105C44.4577 29.3829 44.4192 29.3009 44.4473 29.2271C44.4751 29.1544 44.5566 29.1167 44.6307 29.1419C45.7862 29.5253 47.0556 29.4068 48.1656 28.9369C48.4641 28.8148 48.782 28.6614 49.052 28.5093C49.042 28.5134 49.0329 28.5198 49.0259 28.528L49.0929 28.4553C49.6191 27.8524 49.5666 27.0502 49.49 26.2574C49.4531 25.8293 50.1002 25.7733 50.1371 26.2046H50.1379Z" fill="#231F20"/>
<g opacity="0.2">
<path d="M46.3149 25.2212C45.4989 25.3251 44.8373 26.113 44.8907 26.918C44.8952 26.9882 44.9052 27.06 44.9391 27.1221C44.971 27.181 45.0219 27.2272 45.0695 27.2751C45.3134 27.5193 45.4865 27.8241 45.7249 28.0736C46.2192 28.5897 46.9698 28.8258 47.6915 28.7987C48.4131 28.7719 49.1082 28.5041 49.7267 28.1389C49.5425 28.4371 49.2784 28.6879 48.9679 28.8579C48.8598 28.9171 48.7306 28.9898 48.7269 29.1111C48.7248 29.1862 48.7741 29.2515 48.8052 29.3196C48.9103 29.5509 48.8035 29.8244 48.6478 30.026C48.1904 30.6176 47.3652 30.8237 46.6084 30.7929C46.4234 30.7852 46.2358 30.7653 46.0648 30.6955C45.915 30.6347 45.7767 30.5357 45.6152 30.5215C45.4206 30.504 45.2409 30.6128 45.0522 30.6627C44.5272 30.801 43.9708 30.4517 43.7046 29.9875C43.3456 29.3614 43.421 28.5228 43.8855 27.9677C44.0287 27.7965 44.2059 27.6484 44.3078 27.4508C44.4224 27.228 44.4274 26.9683 44.4792 26.7241C44.6079 26.1175 45.0563 25.5847 45.6392 25.3449" fill="#231F20"/>
</g>
<path d="M31.4578 44.6489C32.7997 45.9639 34.4255 47.1028 36.296 47.4169C37.7433 47.6599 39.2325 47.3913 40.6381 46.9746C42.4461 46.4386 44.1858 45.6519 45.711 44.5596C47.5281 43.258 49.0516 41.521 51.0968 40.5995C52.8671 39.8018 54.895 39.6898 56.8251 39.9516C58.7552 40.2133 60.6137 40.8296 62.4589 41.4431C64.0218 41.9624 65.5847 42.4818 67.1472 43.0011C66.344 43.9384 65.5408 44.8757 64.7376 45.813C63.9237 46.7628 63.1089 47.7135 62.2271 48.6037C58.2012 52.6681 52.7777 55.3785 47.0569 56.1847C45.2638 56.4375 43.4497 56.5085 41.6396 56.5791C40.1562 56.6371 38.6463 56.6923 37.2105 56.3214C36.2256 56.067 35.3036 55.6179 34.4309 55.103C31.7559 53.5242 29.3787 51.0832 28.903 48.0588C28.8719 47.862 28.8508 47.6534 28.9299 47.4696C28.9887 47.3333 29.0972 47.2246 29.2031 47.1195C29.9595 46.3693 30.7159 45.619 31.4723 44.8688" fill="#FFD059"/>
<g opacity="0.3">
<path d="M43.7267 27.0476C43.3338 27.3726 42.8892 27.8494 42.5791 28.5132C42.3191 29.0699 42.0227 29.704 42.2847 30.3849C42.4561 30.8312 42.8403 31.2552 43.3144 31.4029C43.5938 31.4897 43.8919 31.495 44.185 31.4991C44.544 31.5043 44.9033 31.5096 45.2623 31.5149C45.897 31.5242 46.5387 31.5327 47.1585 31.3976C47.7782 31.2625 48.3835 30.9683 48.7681 30.4733C47.9943 31.0418 46.9225 31.06 45.9881 30.8166C45.6299 30.7233 45.2693 30.5942 44.9 30.6247C44.7154 30.6397 44.5349 30.6945 44.3498 30.6949C43.9677 30.6961 43.6166 30.4616 43.3872 30.1621C43.0573 29.7316 42.9277 29.3206 42.9033 29.1486C42.8341 28.6568 42.9819 28.273 43.0544 28.1131" fill="#231F20"/>
</g>
<path d="M58.9373 17.5414C57.9474 16.5421 56.8209 16.0032 55.5702 15.8864L54.9959 16.8618L50.8608 15.8864L50.2671 17.8814H43.7158L41.7969 21.1063L37.4758 20.8515C35.5818 21.9158 33.9319 23.5903 32.4783 25.757H29.88C29.81 27.4834 29.4407 28.9961 28.6239 30.189C27.0531 29.9727 25.4658 29.9049 23.8611 29.9763L23.7286 30.3212L22.605 33.2446H19.6598L19.1712 34.7001L18.4906 36.7243C17.2875 27.5447 18.6334 17.8672 23.1884 11.8106C24.916 9.51249 27.3599 7.84203 30.1334 6.96724C40.7498 3.61617 52.846 9.06292 58.9373 17.541V17.5414Z" fill="#FFECDC"/>
<g opacity="0.6">
<path d="M18.8496 22.1963C17.9334 26.7613 17.8464 31.8141 18.4902 36.7249L18.958 35.3332C18.2608 30.9073 18.1896 26.3515 18.8496 22.1963Z" fill="#F9F5EF"/>
</g>
<g opacity="0.6">
<path d="M52.2982 15.1048C51.6093 15.0261 50.9208 14.9474 50.2319 14.8687C50.0154 15.6185 49.7989 16.3683 49.5823 17.1181C48.8901 17.125 48.1975 17.1319 47.5053 17.1384C45.9453 17.1518 44.3849 17.1652 42.8249 17.1786C42.2229 18.2299 41.6209 19.2812 41.0194 20.3328C39.4929 20.2375 37.9665 20.1417 36.44 20.0464C35.6654 20.6286 34.7732 21.3918 33.8744 22.3701C32.9996 23.322 32.3318 24.2459 31.8284 25.044C30.9146 25.0789 30.0005 25.1138 29.0868 25.1483C29.0822 26.7607 28.7961 28.1832 28.0882 29.3222C26.6408 29.1716 25.1831 29.1603 23.7146 29.2792L23.6049 29.6054L22.6754 32.3681L19.9752 32.4643L19.7488 33.2457H22.6042L23.7278 30.3223L23.8603 29.9775C25.4646 29.906 27.0523 29.9738 28.6231 30.1901C29.4403 28.9972 29.8092 27.4845 29.8792 25.7581H32.4775C33.9311 23.591 35.5809 21.9169 37.475 20.8526L41.7961 21.1074L43.715 17.8825H50.2663L50.86 15.8875L54.9951 16.8629L55.2758 16.3861C54.7161 16.0855 54.0884 15.7852 53.3933 15.5061C53.0161 15.3547 52.6506 15.2221 52.2982 15.1056V15.1048Z" fill="#F9F5EF"/>
</g>
<g opacity="0.6">
<path d="M30.1327 6.96724C29.1705 7.27074 28.2493 7.67202 27.3828 8.15973C27.3791 8.16176 28.5483 7.66715 28.67 7.61603C30.786 6.72338 36.5287 5.99669 42.9322 8.01285C42.8718 8.06925 42.8221 8.13376 42.7886 8.20761C42.5447 8.74441 43.1603 9.53481 44.1639 9.97261C45.1675 10.4104 46.1785 10.3301 46.4223 9.79286C46.4778 9.67033 46.4869 9.53481 46.4588 9.3932C50.4515 11.2807 53.3905 13.8422 55.4374 16.1107C55.5831 16.0126 55.8435 15.8689 56.1867 15.8438C56.501 15.821 56.7746 15.9058 57.0963 16.0665C57.9376 16.4869 58.6116 17.1779 58.937 17.541C52.8453 9.06292 40.7491 3.61617 30.1327 6.96724Z" fill="#F9F5EF"/>
</g>
<g opacity="0.5">
<path d="M44.1091 17.211C44.1518 17.0791 44.0864 16.9448 44.0495 16.817C44.0065 16.6677 43.9684 16.5172 43.9348 16.3654C43.8661 16.0566 43.8173 15.7438 43.7891 15.429C43.7634 15.1397 43.7502 14.8479 43.7535 14.5574C43.7572 14.2458 43.8003 13.9354 43.797 13.6238C43.7912 13.0529 43.4939 12.6054 43.2339 12.1164C43.0903 11.8466 43.0058 11.563 42.8978 11.2802C42.8448 11.1422 42.7847 11.0023 42.7446 10.8602C42.6994 10.7004 42.6978 10.5352 42.7023 10.3705C42.7028 10.351 42.6738 10.3518 42.6717 10.3705C42.6299 10.831 42.5641 11.2895 42.7127 11.7367C42.8535 12.1611 43.1205 12.5206 43.3089 12.9227C43.4091 13.1365 43.4683 13.3584 43.4728 13.5946C43.4774 13.8482 43.443 14.1009 43.4322 14.3537C43.412 14.8341 43.4418 15.3121 43.5159 15.7872C43.5577 16.0554 43.614 16.3216 43.684 16.5837C43.7398 16.7935 43.7812 17.1339 43.9725 17.2654C44.0239 17.3007 44.0922 17.2629 44.1091 17.211Z" fill="#F9F5EF"/>
</g>
<g opacity="0.5">
<path d="M43.287 15.3267C42.981 15.2699 42.6722 15.2914 42.3633 15.2626C42.0466 15.233 41.7386 15.1587 41.4277 15.0963C41.1503 15.0403 40.8716 14.9908 40.5943 14.936C40.4481 14.9072 40.3069 14.8666 40.1732 14.8013C40.068 14.7498 39.9794 14.6714 39.8602 14.6601C39.8246 14.6568 39.789 14.7007 39.8031 14.7339C39.8494 14.8435 39.9505 14.8962 40.0523 14.9538C40.1798 15.0257 40.3115 15.0926 40.4436 15.1559C40.7284 15.2918 41.0203 15.3783 41.3258 15.459C41.6545 15.5462 41.9944 15.6079 42.3331 15.642C42.6676 15.6757 43.0162 15.685 43.3106 15.5044C43.3772 15.4635 43.3747 15.3434 43.287 15.3271V15.3267Z" fill="#F9F5EF"/>
</g>
<g opacity="0.2">
<path d="M35.2072 6.35889C35.1173 6.38567 35.0291 6.41245 34.9397 6.44166C32.3546 7.27303 30.0772 8.85951 28.465 11.0428C24.9289 15.8351 23.47 23.016 23.7296 30.3215L22.6059 33.2449H19.6607L19.1721 34.7003C18.4393 26.245 19.8358 17.6216 23.8658 12.073C25.5168 9.80165 27.8489 8.15148 30.4965 7.28724C32.0425 6.78168 33.6211 6.48021 35.2072 6.35889Z" fill="#231F20"/>
</g>
<path d="M18.4912 37.193C18.4758 37.193 18.4609 37.1922 18.4452 37.1909C18.2229 37.1702 18.0448 37.0015 18.0167 36.7844C16.6968 26.7133 18.4858 17.2736 22.8027 11.5335C24.573 9.17938 27.057 7.44643 29.987 6.52173C35.0656 4.91863 40.8978 5.22497 46.4095 7.38395C51.6273 9.42769 56.2149 12.9394 59.3275 17.2724C59.4711 17.4724 59.4334 17.7467 59.2413 17.9029C59.0492 18.0587 58.7669 18.0437 58.5934 17.868C57.7716 17.0371 56.8633 16.5518 55.8249 16.3903L55.4097 17.0955C55.3037 17.2752 55.0901 17.3653 54.8839 17.317L51.1913 16.4467L50.7256 18.0125C50.6659 18.2125 50.4792 18.3497 50.2668 18.3497H43.9892L42.2085 21.3425C42.1179 21.495 41.9477 21.5859 41.7668 21.5741L37.5899 21.3283C35.8837 22.3175 34.2985 23.8938 32.8768 26.015C32.7886 26.1469 32.6383 26.2264 32.4772 26.2264H30.3314C30.2068 27.9618 29.7762 29.3466 29.0198 30.4503C28.9176 30.5992 28.7375 30.6779 28.5566 30.6531C27.1419 30.4588 25.6759 30.3849 24.195 30.4328L23.0511 33.4098C22.9811 33.5924 22.8027 33.7129 22.6039 33.7129H20.0052L18.9441 36.8712C18.8791 37.0647 18.6948 37.193 18.4903 37.193H18.4912ZM36.7622 6.42638C34.6069 6.42638 32.43 6.73435 30.2801 7.41316C27.5422 8.2774 25.2225 9.8943 23.5723 12.089C19.7038 17.2335 17.9409 25.5014 18.73 34.5154L19.2061 33.0982C19.2707 32.9062 19.4537 32.7764 19.6603 32.7764H22.2744L23.4137 29.8116C23.4812 29.6363 23.6485 29.517 23.8393 29.5089C25.379 29.4412 26.9063 29.5004 28.3843 29.685C29.0025 28.6698 29.3361 27.3755 29.4024 25.7395C29.4127 25.4884 29.6235 25.2896 29.8797 25.2896H32.2218C33.7247 23.1002 35.4113 21.4711 37.2375 20.4458C37.3183 20.4003 37.4106 20.3788 37.5037 20.3845L41.5316 20.6219L43.3024 17.6453C43.3881 17.5013 43.5454 17.4128 43.7151 17.4128H49.9087L50.4014 15.7553C50.4726 15.5151 50.7239 15.3727 50.9719 15.4311L54.7601 16.3242L55.1555 15.6527C55.249 15.4936 55.4279 15.4027 55.615 15.4206C56.0228 15.4587 56.4174 15.5382 56.7983 15.6588C52.1017 10.492 44.5854 6.42679 36.7618 6.42679L36.7622 6.42638Z" fill="#231F20"/>
<path d="M43.8109 17.7747C43.8547 17.6765 43.8473 17.5747 43.8249 17.4704C43.7947 17.3284 43.7773 17.1852 43.7471 17.0428C43.6875 16.7595 43.6332 16.4763 43.5794 16.1923C43.4652 15.5926 43.5177 15.0083 43.5401 14.4038C43.5509 14.1064 43.5471 13.8081 43.5707 13.5115C43.5914 13.2539 43.62 12.9954 43.478 12.7629C43.36 12.5702 43.1604 12.4659 42.9919 12.3239C42.7978 12.16 42.7204 11.9328 42.6905 11.6889C42.6752 11.5615 42.6781 11.4341 42.6678 11.3067C42.6541 11.1347 42.6127 10.9667 42.6028 10.7943C42.5833 10.4599 42.5572 10.1244 42.498 9.79449C42.4951 9.77867 42.4674 9.77826 42.4649 9.79449C42.4206 10.087 42.4111 10.3788 42.3925 10.6733C42.3747 10.9557 42.327 11.2377 42.3374 11.5209C42.3465 11.7624 42.3763 12.0078 42.479 12.2302C42.5783 12.4444 42.7431 12.5836 42.9269 12.7268C43.0089 12.7905 43.1008 12.8579 43.1518 12.95C43.2139 13.062 43.1878 13.2162 43.1753 13.3379C43.1447 13.6434 43.0925 13.9449 43.0437 14.2484C42.9476 14.8464 42.9203 15.4498 43.0106 16.0503C43.0611 16.3859 43.1604 16.7031 43.2896 17.0172C43.3542 17.1746 43.4349 17.3154 43.5124 17.4659C43.5761 17.5901 43.6167 17.722 43.7508 17.7905C43.7699 17.8003 43.8005 17.797 43.81 17.7751L43.8109 17.7747Z" fill="#231F20"/>
<path d="M43.3451 15.8944C43.1965 15.6631 42.8272 15.6408 42.5767 15.5828C42.255 15.5085 41.9213 15.4744 41.5963 15.4168C40.9422 15.3012 40.2943 15.1539 39.6542 14.977L39.8447 15.1636C39.718 14.7766 39.5681 14.4004 39.4311 14.017C39.3984 13.9253 39.3106 13.8397 39.203 13.8466C38.9723 13.8616 38.7438 13.9034 38.5136 13.9233C38.2855 13.9431 38.0532 13.9358 37.8247 13.9285C37.5954 13.9208 37.366 13.9058 37.137 13.888C36.9619 13.8746 36.733 13.8048 36.5864 13.9221C36.5533 13.9484 36.5645 13.9955 36.5864 14.0235C36.6978 14.1635 36.9719 14.142 37.137 14.1574C37.366 14.1789 37.5954 14.1943 37.8247 14.2081C38.0541 14.2219 38.2851 14.2284 38.5136 14.2507C38.7417 14.273 38.9736 14.3099 39.203 14.3112C39.1268 14.2544 39.0506 14.1976 38.9748 14.1407C39.0415 14.3639 39.0924 14.5915 39.1587 14.8147C39.1905 14.9214 39.2278 15.0269 39.2626 15.1328C39.3019 15.2521 39.3251 15.3973 39.4447 15.4659C39.5379 15.5195 39.6691 15.5365 39.7722 15.5633C39.8794 15.5913 39.9867 15.6185 40.0939 15.6449C40.3187 15.6996 40.5443 15.7512 40.7708 15.7986C41.2179 15.8924 41.668 15.9739 42.1209 16.0319C42.3391 16.0599 42.5589 16.0839 42.78 16.0766C42.9771 16.0701 43.1994 16.0802 43.3414 15.9289C43.3497 15.9199 43.3526 15.9057 43.346 15.8948L43.3451 15.8944Z" fill="#231F20"/>
<g opacity="0.2">
<path d="M28.0551 21.5556C28.5849 21.5556 29.0143 20.9326 29.0143 20.1639C29.0143 19.3953 28.5849 18.7722 28.0551 18.7722C27.5253 18.7722 27.0958 19.3953 27.0958 20.1639C27.0958 20.9326 27.5253 21.5556 28.0551 21.5556Z" fill="#231F20"/>
</g>
<g opacity="0.2">
<path d="M39.1966 18.4816C39.629 18.4816 39.9795 18.0606 39.9795 17.5414C39.9795 17.0222 39.629 16.6013 39.1966 16.6013C38.7642 16.6013 38.4137 17.0222 38.4137 17.5414C38.4137 18.0606 38.7642 18.4816 39.1966 18.4816Z" fill="#231F20"/>
</g>
<g opacity="0.2">
<path d="M40.2681 12.7612C40.4615 12.7612 40.6184 12.5728 40.6184 12.3404C40.6184 12.1081 40.4615 11.9197 40.2681 11.9197C40.0747 11.9197 39.9178 12.1081 39.9178 12.3404C39.9178 12.5728 40.0747 12.7612 40.2681 12.7612Z" fill="#231F20"/>
</g>
<g opacity="0.2">
<path d="M34.8104 11.292C35.4616 11.292 35.9895 10.698 35.9895 9.96522C35.9895 9.23245 35.4616 8.63843 34.8104 8.63843C34.1592 8.63843 33.6313 9.23245 33.6313 9.96522C33.6313 10.698 34.1592 11.292 34.8104 11.292Z" fill="#231F20"/>
</g>
<g opacity="0.2">
<path d="M31.6657 22.7033C31.8989 22.7033 32.088 22.4763 32.088 22.1961C32.088 21.916 31.8989 21.689 31.6657 21.689C31.4325 21.689 31.2434 21.916 31.2434 22.1961C31.2434 22.4763 31.4325 22.7033 31.6657 22.7033Z" fill="#231F20"/>
</g>
<g opacity="0.2">
<path d="M33.9395 18.7719C34.1727 18.7719 34.3618 18.5449 34.3618 18.2648C34.3618 17.9846 34.1727 17.7576 33.9395 17.7576C33.7063 17.7576 33.5172 17.9846 33.5172 18.2648C33.5172 18.5449 33.7063 18.7719 33.9395 18.7719Z" fill="#231F20"/>
</g>
<g opacity="0.2">
<path d="M31.2437 13.7758C31.4769 13.7758 31.666 13.5488 31.666 13.2687C31.666 12.9885 31.4769 12.7615 31.2437 12.7615C31.0105 12.7615 30.8214 12.9885 30.8214 13.2687C30.8214 13.5488 31.0105 13.7758 31.2437 13.7758Z" fill="#231F20"/>
</g>
<g opacity="0.2">
<path d="M27.0882 25.1745C27.1471 24.8193 26.9009 24.4845 26.5384 24.4269C26.176 24.3692 25.8344 24.6104 25.7756 24.9657C25.7168 25.3209 25.9629 25.6556 26.3254 25.7133C26.6878 25.771 27.0294 25.5297 27.0882 25.1745Z" fill="#231F20"/>
</g>
<g opacity="0.2">
<path d="M46.7189 12.15C46.9786 11.8955 46.9786 11.4829 46.7189 11.2284C46.4593 10.974 46.0383 10.974 45.7786 11.2284C45.519 11.4829 45.519 11.8955 45.7786 12.15C46.0383 12.4045 46.4593 12.4045 46.7189 12.15Z" fill="#231F20"/>
</g>
<g opacity="0.2">
<path d="M48.048 16.0526C48.3077 15.7981 48.3077 15.3855 48.048 15.131C47.7884 14.8765 47.3674 14.8765 47.1077 15.131C46.8481 15.3855 46.8481 15.7981 47.1077 16.0526C47.3674 16.307 47.7884 16.307 48.048 16.0526Z" fill="#231F20"/>
</g>
<path d="M21.5664 47.6304C23.1252 77.6776 76.2162 79.2057 70.4039 41.0265L66.4509 39.0432L62.5526 41.9431C60.22 41.5803 57.9024 40.8857 55.6026 39.7922C55.3848 39.6888 55.1368 39.6555 54.9017 39.7127C54.156 39.8937 53.4079 40.2414 52.6586 40.7198C51.7395 41.3065 51.1474 42.2762 51.0576 43.3478L50.9591 44.5216L50.3339 44.5074C49.8669 44.4969 49.4392 44.7626 49.25 45.1809L48.4257 47.0044L45.6974 46.7179L45.6651 50.8557L40.2519 49.434H35.0122L32.44 51.1312C32.0251 51.4047 31.4633 51.2854 31.1971 50.8707C30.194 49.3098 29.4599 47.7384 28.9714 46.1576L21.5664 47.6304Z" fill="#FFECDC"/>
<g opacity="0.5">
<path d="M44.622 50.8126C44.6944 50.9805 44.9002 51.0649 45.0571 51.1433C45.243 51.2362 45.428 51.3271 45.6081 51.4309C45.9675 51.6383 46.3124 51.8699 46.6386 52.1252C46.6171 52.0748 46.596 52.0241 46.5744 51.9738C46.5152 52.8389 46.4689 53.7076 46.3765 54.5702C46.3314 54.9889 46.3024 55.4101 46.2486 55.828C46.2188 56.0597 46.1948 56.291 46.1621 56.5226C46.1501 56.6091 46.1439 56.6931 46.1368 56.7799C46.1273 56.9 46.0958 57.0148 46.088 57.1349C46.0867 57.1568 46.1169 57.1572 46.124 57.1398C46.1741 57.0164 46.1964 56.8886 46.2453 56.7645C46.297 56.6326 46.3298 56.4947 46.3649 56.3579C46.4304 56.1039 46.4966 55.8511 46.5579 55.5959C46.6854 55.0656 46.7827 54.5353 46.8613 53.9957C46.9383 53.4674 46.9768 52.9306 47.0025 52.3974C47.0087 52.2664 47.017 52.1349 47.0108 52.0038C47.0033 51.8472 46.9106 51.7929 46.7889 51.7056C46.5906 51.5632 46.3861 51.4293 46.1766 51.3035C45.9344 51.1583 45.6843 51.026 45.4313 50.8998C45.2235 50.7963 44.9051 50.6069 44.6675 50.7006C44.6166 50.7205 44.6 50.7635 44.6211 50.8122L44.622 50.8126Z" fill="#F9F5EF"/>
</g>
<g opacity="0.5">
<path d="M46.2706 52.7026C46.384 52.8344 46.5463 52.8612 46.7086 52.9225C46.8668 52.9825 47.0199 53.0552 47.1682 53.1363C47.4654 53.2986 47.7428 53.4974 47.9904 53.7267C48.2392 53.9571 48.4441 54.2127 48.635 54.4899C48.7248 54.6201 48.8304 54.739 48.991 54.7824C49.1521 54.8258 49.3314 54.7897 49.4891 54.7483C49.812 54.6635 50.1076 54.5004 50.4074 54.3596C50.6786 54.2322 51.0164 54.0833 51.3232 54.1166C51.6279 54.1499 51.8908 54.3645 52.1048 54.5641C52.3213 54.7662 52.5279 54.9816 52.7792 55.1435C53.1225 55.3647 53.5257 55.4186 53.9244 55.4653C54.4084 55.5221 54.899 55.5899 55.3863 55.6016C55.474 55.6036 55.4914 55.4742 55.407 55.4523C54.9938 55.3444 54.5665 55.2823 54.1455 55.2093C53.7724 55.1447 53.3572 55.1273 53.0169 54.9512C52.4907 54.6794 52.1661 54.1284 51.6047 53.9113C51.3186 53.8005 50.9936 53.7737 50.6984 53.861C50.3809 53.9551 50.0902 54.1178 49.7884 54.2493C49.6452 54.3118 49.497 54.3665 49.3434 54.4006C49.1496 54.4436 49.0577 54.4262 48.948 54.2606C48.7604 53.9778 48.5671 53.7084 48.3216 53.4702C48.0537 53.211 47.7498 52.9874 47.4203 52.8093C47.2481 52.7164 47.0684 52.636 46.885 52.5662C46.7061 52.4985 46.5165 52.4145 46.331 52.4806C46.2313 52.5163 46.2027 52.623 46.2714 52.7026H46.2706Z" fill="#F9F5EF"/>
</g>
<g opacity="0.6">
<path d="M32.3199 51.7516C32.5696 52.1663 33.0962 52.2856 33.4849 52.0121L35.8957 50.3148H40.8063L45.8792 51.7366L45.9098 47.5988L48.4667 47.8852L49.2393 46.0618C49.4165 45.6435 49.8172 45.3773 50.2548 45.3883L50.8407 45.4025L50.9102 44.5216L50.3327 44.5086C49.8657 44.4981 49.438 44.7638 49.2488 45.1821L48.4245 47.0056L45.6962 46.7191L45.6639 50.8569L40.2507 49.4352H35.011L32.4387 51.1324C32.3158 51.2136 32.1796 51.2594 32.0421 51.274C32.1328 51.4335 32.2243 51.5929 32.3203 51.752L32.3199 51.7516Z" fill="#F9F5EF"/>
<path d="M70.4029 41.0277L66.4499 39.0444L62.5516 41.9443C60.2191 41.5816 57.9015 40.8869 55.6016 39.7934C55.3839 39.69 55.1359 39.6567 54.9007 39.7139C54.1551 39.8949 53.407 40.2426 52.6576 40.721C51.7385 41.3077 51.1465 42.2774 51.0566 43.349L51.0334 43.6229C51.2429 42.798 51.7381 42.0741 52.4336 41.6006C53.1362 41.1223 53.8371 40.7745 54.536 40.5936C54.7562 40.5364 54.9885 40.5696 55.1926 40.6731C57.3479 41.7666 59.5198 42.4612 61.7058 42.824L65.359 39.9241L69.0636 41.9074C70.5366 52.2308 67.9718 59.6499 63.4186 64.3882C68.8694 59.7112 72.0747 52.0137 70.4025 41.0277H70.4029Z" fill="#F9F5EF"/>
</g>
<g opacity="0.2">
<path d="M69.408 41.0204L68.7241 40.6707C71.5513 71.3399 29.5732 70.5848 25.684 46.8453L22.605 47.4693C24.0991 76.8118 74.9781 78.3037 69.408 41.0204Z" fill="#231F20"/>
</g>
<path d="M47.2778 70.4128C43.1208 70.4128 38.8817 69.5328 35.0008 67.7406C26.6208 63.8706 21.55 56.5497 21.0884 47.6549C21.0764 47.4236 21.2387 47.2183 21.4705 47.1721L28.8755 45.6992C29.1173 45.6517 29.3566 45.7913 29.4282 46.0226C29.9089 47.5798 30.64 49.1269 31.6009 50.6221C31.661 50.7154 31.7545 50.7795 31.8642 50.8023C31.9719 50.8246 32.0816 50.8039 32.1727 50.7434L34.7449 49.0462C34.824 48.9943 34.9167 48.9663 35.012 48.9663H40.2517C40.2935 48.9663 40.3349 48.9715 40.3755 48.9821L45.1916 50.2472L45.2194 46.7148C45.2206 46.5825 45.2786 46.4567 45.3792 46.3687C45.4798 46.2806 45.6139 46.2384 45.7481 46.2526L48.1295 46.5026L48.8126 44.9916C49.0809 44.398 49.682 44.0186 50.3444 44.0393L50.5191 44.0433L50.5808 43.3097C50.6822 42.1039 51.3612 40.9889 52.3975 40.3279C53.2181 39.8041 54.0221 39.4442 54.7867 39.2588C55.1225 39.1772 55.4864 39.2174 55.811 39.3716C57.9254 40.377 60.1502 41.0757 62.4269 41.449L66.1617 38.6704C66.3078 38.5617 66.5049 38.5447 66.6684 38.6266L70.6214 40.6099C70.7584 40.6789 70.8536 40.8083 70.8764 40.9576C71.7438 46.6568 71.3554 51.7578 69.7213 56.1196C68.2363 60.0833 65.775 63.3378 62.4049 65.793C58.2127 68.8471 52.8194 70.412 47.2783 70.412L47.2778 70.4128ZM22.0671 48.0095C22.6401 56.3663 27.484 63.234 35.4082 66.893C44.1521 70.931 54.7718 70.1872 61.834 65.0416C68.5981 60.1134 71.4813 51.7006 69.966 41.3342L66.4999 39.5951L62.8409 42.3173C62.737 42.3944 62.6057 42.4268 62.477 42.4066C60.0376 42.0272 57.6542 41.2895 55.3933 40.2147C55.2691 40.1559 55.1353 40.1392 55.0161 40.168C54.3553 40.3283 53.6499 40.6464 52.9187 41.113C52.1284 41.6174 51.6105 42.4674 51.533 43.3868L51.4345 44.5607C51.4138 44.8078 51.1977 44.9964 50.9472 44.9904L50.3216 44.9762C50.0451 44.9697 49.7975 45.1251 49.6861 45.3713L48.8618 47.1948C48.7778 47.3806 48.5807 47.493 48.3737 47.4707L46.1704 47.2394L46.1418 50.8599C46.1406 51.0047 46.071 51.1411 45.9534 51.2291C45.8358 51.3168 45.6831 51.3464 45.5402 51.3086L40.1879 49.9027H35.1569L32.7055 51.52C32.3979 51.7229 32.0286 51.7935 31.6659 51.718C31.3012 51.6426 30.9907 51.4304 30.7915 51.1208C29.8687 49.6848 29.1475 48.1998 28.6441 46.7006L22.0671 48.0087V48.0095Z" fill="#231F20"/>
<path d="M64.4064 43.8119C64.3145 43.9486 64.3016 44.1275 64.2834 44.2878C64.2602 44.4923 64.2403 44.7004 64.237 44.9062C64.2308 45.2969 64.2482 45.6905 64.2565 46.0816C64.2648 46.4736 64.2743 46.8651 64.2834 47.2571C64.2875 47.4315 64.2809 47.6121 64.3215 47.7833C64.3629 47.9586 64.466 48.1059 64.5927 48.2329C64.8527 48.4938 65.1433 48.7307 65.4178 48.977C65.7126 49.2416 66.0148 49.4947 66.3158 49.752C66.6085 50.0019 66.8962 50.2576 67.1869 50.5095C67.3363 50.639 67.4891 50.7647 67.6394 50.8934C67.7553 50.9924 67.918 51.0845 68.0041 51.2107C68.1076 51.3632 68.0853 51.5746 68.1486 51.7434C68.1958 51.8692 68.2745 51.9844 68.3746 52.0757C68.5937 52.2741 68.9211 52.3877 69.2126 52.296C69.3496 52.253 69.3356 52.0217 69.1766 52.0368C68.9145 52.0615 68.6566 51.9982 68.4976 51.7763C68.4227 51.672 68.4024 51.5515 68.3817 51.4281C68.3556 51.2719 68.3146 51.1323 68.2426 50.9899C68.0981 50.7055 67.8327 50.4929 67.6013 50.277C67.3355 50.0291 67.0697 49.7816 66.8031 49.5349C66.5364 49.2878 66.2814 49.0306 66.0107 48.7871C65.7329 48.5368 65.4546 48.2868 65.1768 48.0365C65.0833 47.9521 64.9678 47.8681 64.8982 47.7622C64.8096 47.6279 64.834 47.4392 64.8307 47.2875C64.8229 46.9268 64.815 46.5657 64.8075 46.205C64.7984 45.7927 64.7897 45.3801 64.7736 44.9678C64.7661 44.7706 64.7367 44.5755 64.7107 44.3803C64.6854 44.1928 64.6713 43.9685 64.5562 43.8114C64.5177 43.7587 64.4445 43.7551 64.4064 43.8114V43.8119Z" fill="#231F20"/>
<path d="M66.6919 49.8302C66.4712 49.9901 66.3822 50.3203 66.2882 50.5646C66.1772 50.8527 66.0766 51.1448 65.9707 51.4345C65.8659 51.7214 65.7636 52.0095 65.6564 52.2955C65.5873 52.4805 65.4622 52.808 65.2064 52.7918C65.1037 52.7853 65.013 52.7406 64.9054 52.7512C64.7824 52.7629 64.6785 52.8242 64.6305 52.9382C64.5837 53.049 64.6106 53.1719 64.6313 53.2864C64.662 53.4543 64.6773 53.6211 64.6901 53.7911C64.7133 54.0974 64.7564 54.4005 64.7845 54.7065C64.7974 54.8489 64.8094 54.9913 64.8218 55.1337C64.8317 55.2461 64.8131 55.3678 64.9265 55.4263C64.9435 55.4348 64.9675 55.438 64.9841 55.4263C65.0892 55.3504 65.0598 55.2526 65.0524 55.1337C65.0433 54.9913 65.0337 54.8489 65.0255 54.7065C65.0077 54.4014 65.0052 54.0962 64.9824 53.7911C64.9716 53.6491 64.9572 53.5063 64.9588 53.3639C64.9588 53.3334 64.9899 53.135 64.9646 53.1196C64.8768 53.1172 64.8549 53.1253 64.8996 53.1443C64.9224 53.1573 64.946 53.1679 64.9712 53.1764C65.2155 53.2726 65.4751 53.2166 65.6784 53.0612C65.892 52.8981 65.9963 52.6546 66.0853 52.4116C66.183 52.1442 66.2766 51.8752 66.3727 51.607C66.4762 51.3165 66.5817 51.0263 66.6836 50.735C66.7701 50.4879 66.9245 50.156 66.8542 49.8951C66.8376 49.833 66.7498 49.788 66.6914 49.8302H66.6919Z" fill="#231F20"/>
<path d="M43.5701 50.5155C43.8901 50.9274 44.3894 51.1988 44.8241 51.48C45.2862 51.7794 45.7383 52.0923 46.199 52.3921C46.1597 52.2976 46.1204 52.203 46.0815 52.1085C45.7354 53.8289 45.5553 55.5845 45.5101 57.337C45.5076 57.4278 45.5619 57.5118 45.6397 57.5581C46.1398 57.8563 46.64 58.1545 47.1401 58.4528C47.1223 58.3185 47.1049 58.1846 47.0871 58.0503C46.5663 58.6187 46.2818 59.4067 46.38 60.1727C46.4263 60.5351 46.5067 60.9067 46.6433 61.248C46.7679 61.56 46.9484 61.9503 47.2552 62.1219C47.3177 62.1568 47.3744 62.0891 47.3475 62.0314C47.2738 61.8744 47.1633 61.7482 47.0722 61.6005C46.9873 61.4634 46.9157 61.3181 46.8586 61.1676C46.7364 60.8446 46.6859 60.516 46.7261 60.1727C46.801 59.5312 47.0088 58.9027 47.4576 58.4126C47.5707 58.2888 47.5545 58.0994 47.4046 58.0101C46.9045 57.7119 46.4044 57.4136 45.9043 57.1154C45.9473 57.1893 45.9908 57.2631 46.0339 57.3366C46.0777 55.6247 46.2694 53.9267 46.5758 52.2416C46.5969 52.1268 46.5609 52.0225 46.4582 51.958C46.002 51.6723 45.5366 51.3993 45.0804 51.1116C44.6461 50.8381 44.1907 50.4932 43.6806 50.3747C43.6069 50.3577 43.5163 50.4437 43.5709 50.5143L43.5701 50.5155Z" fill="#231F20"/>
<path d="M46.2186 53.1102C46.3296 53.2251 46.4327 53.3013 46.5767 53.3752C46.7386 53.458 46.9075 53.5237 47.0636 53.6182C47.365 53.8016 47.6205 54.0524 47.8436 54.321C47.9508 54.45 48.0469 54.588 48.1367 54.7288C48.2344 54.8821 48.3085 55.0533 48.4174 55.199C48.7428 55.6364 49.2297 55.3313 49.6181 55.1592C50.0495 54.9681 50.4837 54.7839 50.9056 54.5742C51.0472 54.504 51.2381 54.3713 51.3979 54.4585C51.537 54.5348 51.6223 54.6979 51.7138 54.82C52.1116 55.3532 52.7885 55.7127 53.4655 55.7488C53.6662 55.7593 53.8604 55.7403 54.06 55.7354C54.2587 55.7305 54.4578 55.7403 54.657 55.737C55.165 55.7277 55.68 55.7415 56.1867 55.7103C56.2455 55.7066 56.2455 55.625 56.1867 55.6206C55.7239 55.5865 55.256 55.5999 54.7923 55.5804C54.6251 55.5731 54.4582 55.5662 54.2914 55.5536C54.0981 55.539 53.9217 55.4928 53.735 55.4465C53.0792 55.283 52.4375 55.1126 52.0334 54.5393C51.828 54.2479 51.5987 53.9704 51.1996 54.0045C50.9917 54.0223 50.7996 54.1169 50.6084 54.1911C50.3773 54.2804 50.1517 54.381 49.9252 54.4804C49.7187 54.5713 49.5117 54.6618 49.3051 54.7527C49.2111 54.7941 49.1175 54.8363 49.0231 54.8764C48.9527 54.9061 48.8944 54.9539 48.8364 54.9105C48.7784 54.8667 48.7391 54.7377 48.7035 54.6752C48.665 54.6074 48.6248 54.5401 48.583 54.4743C48.4787 54.3096 48.3636 54.1518 48.2406 53.9996C47.9844 53.6819 47.6751 53.4003 47.3199 53.1914C47.1481 53.0903 46.956 52.9946 46.7577 52.9585C46.5602 52.9224 46.3921 52.9463 46.2273 53.0579C46.2091 53.0705 46.2045 53.094 46.2203 53.1106L46.2186 53.1102Z" fill="#231F20"/>
<path d="M52.7045 55.6332C52.743 55.6835 52.7215 55.7736 52.7141 55.8316C52.7004 55.94 52.6822 56.0471 52.6739 56.1562C52.6569 56.3709 52.6503 56.5863 52.6412 56.8014C52.6321 57.0164 52.6226 57.2315 52.6135 57.4465C52.6056 57.6437 52.5725 57.8689 52.6606 58.0539C52.7377 58.2158 52.8896 58.3022 53.0461 58.3805C53.2419 58.4791 53.4253 58.5956 53.6154 58.7039C53.8137 58.8175 54.0116 58.9328 54.2057 59.0529C54.3291 59.1291 54.4976 59.287 54.65 59.2237C54.6616 59.2188 54.6686 59.2034 54.6686 59.1916C54.6682 59.0338 54.4359 58.9376 54.32 58.8609C54.1461 58.7465 53.9743 58.6284 53.8046 58.5083C53.612 58.3724 53.4121 58.2466 53.2291 58.0985C53.1711 58.0515 53.0991 58.0028 53.0651 57.9346C53.0237 57.8518 53.0386 57.75 53.0424 57.6611C53.0618 57.2315 53.0771 56.801 53.0862 56.3709C53.0908 56.1652 53.0916 55.9566 53.0655 55.7521C53.0482 55.6162 52.9765 55.505 52.8436 55.4555C52.7476 55.4198 52.6399 55.5505 52.7041 55.6332H52.7045Z" fill="#231F20"/>
<path d="M31.2581 51.0206C30.9678 51.0896 30.9256 51.5343 30.8706 51.7696C30.7956 52.0889 30.7294 52.4107 30.6598 52.7312C30.5207 53.3727 30.3816 54.0142 30.2425 54.6553C30.1729 54.9758 30.1034 55.2968 30.0338 55.6173C29.9655 55.9322 29.8786 56.2535 29.9109 56.5777C29.9423 56.8934 30.0595 57.205 30.1845 57.4955C30.3158 57.7994 30.4205 58.1187 30.5294 58.4312C30.5907 58.6064 30.6536 58.7817 30.7099 58.9586C30.7302 59.0219 30.741 59.1108 30.7786 59.1656C30.8205 59.226 30.9028 59.2455 30.9683 59.2739C31.3086 59.4228 31.6551 59.5843 32.0095 59.6971C32.0844 59.721 32.1234 59.6159 32.0612 59.5766C31.7122 59.355 31.3243 59.1769 30.9525 58.9951C30.972 59.0199 30.9914 59.0446 31.0109 59.0698C30.8623 58.5261 30.7128 57.969 30.6172 57.414C30.5716 57.1486 30.4984 56.8889 30.4607 56.6219C30.4234 56.357 30.4864 56.1083 30.5418 55.8506C30.7778 54.7579 31.0121 53.6648 31.2473 52.5722C31.3119 52.2715 31.3843 51.9713 31.4357 51.6682C31.4601 51.5229 31.5065 51.3273 31.4539 51.1857C31.4257 51.1099 31.3562 50.9975 31.2572 51.021L31.2581 51.0206Z" fill="#231F20"/>
<path d="M29.8416 56.2939C29.5029 56.4039 29.1924 56.5873 28.877 56.7496C28.5863 56.8993 28.3226 57.0709 28.2783 57.4166C28.2584 57.5724 28.2862 57.7282 28.328 57.8784C28.3781 58.0581 28.4994 58.1851 28.5805 58.3486C28.7482 58.687 28.8712 59.0404 28.9929 59.3963C29.0148 59.4604 29.1121 59.4348 29.0964 59.3683C29.0223 59.0562 28.9614 58.7515 28.9134 58.4346C28.8898 58.2809 28.8935 58.1429 28.8894 57.9887C28.8856 57.8516 28.8376 57.7274 28.8215 57.5931C28.8086 57.4884 28.819 57.4069 28.9084 57.3407C29.0036 57.2706 29.1216 57.2219 29.226 57.1671C29.4963 57.0251 29.7791 56.8969 30.0225 56.7143C30.1153 56.6445 30.1695 56.5406 30.1186 56.427C30.0739 56.3272 29.9546 56.257 29.8416 56.2939Z" fill="#231F20"/>
<g opacity="0.2">
<path d="M56.4253 46.5915C56.9825 46.5915 57.4343 46.052 57.4343 45.3865C57.4343 44.7209 56.9825 44.1814 56.4253 44.1814C55.8681 44.1814 55.4164 44.7209 55.4164 45.3865C55.4164 46.052 55.8681 46.5915 56.4253 46.5915Z" fill="#231F20"/>
</g>
<g opacity="0.2">
<path d="M51.2135 61.6023C51.7708 61.6023 52.2225 61.0628 52.2225 60.3972C52.2225 59.7317 51.7708 59.1921 51.2135 59.1921C50.6563 59.1921 50.2046 59.7317 50.2046 60.3972C50.2046 61.0628 50.6563 61.6023 51.2135 61.6023Z" fill="#231F20"/>
</g>
<g opacity="0.2">
<path d="M62.8255 50.4141C63.1895 50.2664 63.3623 49.8574 63.2115 49.5007C63.0608 49.144 62.6435 48.9746 62.2795 49.1224C61.9155 49.2701 61.7427 49.6791 61.8935 50.0358C62.0442 50.3925 62.4615 50.5619 62.8255 50.4141Z" fill="#231F20"/>
</g>
<g opacity="0.2">
<path d="M33.4619 54.6101C33.525 54.229 33.2609 53.8699 32.872 53.808C32.4832 53.7462 32.1167 54.005 32.0536 54.3861C31.9905 54.7672 32.2546 55.1263 32.6435 55.1882C33.0323 55.25 33.3987 54.9912 33.4619 54.6101Z" fill="#231F20"/>
</g>
<g opacity="0.2">
<path d="M58.8442 52.3106C59.2382 52.3106 59.5575 51.9976 59.5575 51.6115C59.5575 51.2254 59.2382 50.9124 58.8442 50.9124C58.4502 50.9124 58.1309 51.2254 58.1309 51.6115C58.1309 51.9976 58.4502 52.3106 58.8442 52.3106Z" fill="#231F20"/>
</g>
<g opacity="0.2">
<path d="M59.2829 57.643C59.5402 57.5385 59.6623 57.2494 59.5558 56.9973C59.4492 56.7451 59.1542 56.6254 58.8969 56.7298C58.6396 56.8343 58.5174 57.1234 58.624 57.3755C58.7306 57.6277 59.0256 57.7474 59.2829 57.643Z" fill="#231F20"/>
</g>
<g opacity="0.2">
<path d="M28.5432 51.6119C28.8217 51.6119 29.0475 51.3907 29.0475 51.1177C29.0475 50.8448 28.8217 50.6235 28.5432 50.6235C28.2647 50.6235 28.0389 50.8448 28.0389 51.1177C28.0389 51.3907 28.2647 51.6119 28.5432 51.6119Z" fill="#231F20"/>
</g>
<g opacity="0.2">
<path d="M41.9813 59.6864C42.2598 59.6864 42.4856 59.4651 42.4856 59.1922C42.4856 58.9193 42.2598 58.698 41.9813 58.698C41.7028 58.698 41.4771 58.9193 41.4771 59.1922C41.4771 59.4651 41.7028 59.6864 41.9813 59.6864Z" fill="#231F20"/>
</g>
<g opacity="0.2">
<path d="M53.1912 50.3532C53.3139 49.6124 52.8006 48.9144 52.0447 48.7942C51.2889 48.6739 50.5767 49.177 50.454 49.9177C50.3313 50.6585 50.8446 51.3565 51.6004 51.4768C52.3563 51.597 53.0685 51.094 53.1912 50.3532Z" fill="#231F20"/>
</g>
<path d="M29.8803 39.0451C23.7352 39.6111 18.0152 42.4477 16.3194 47.6015C16.1207 48.206 16.2913 48.8759 16.7715 49.302C19.5326 51.7523 28.3626 48.9607 31.2445 44.5085L29.8803 39.0447V39.0451Z" fill="#FFE790"/>
<path d="M21.5813 41.5432C19.7907 42.614 18.61 44.6042 18.547 46.6593C18.5404 46.8788 18.5483 47.1093 18.6567 47.3016C18.884 47.7041 19.4351 47.7763 19.9046 47.7848C23.9329 47.8603 27.9765 46.7096 31.337 44.5307C30.5239 45.7881 29.284 46.7181 28.0158 47.5373C27.2988 48.0007 26.561 48.4389 25.7719 48.772C23.9267 49.551 21.8839 49.7235 19.8818 49.8862C19.1242 49.9479 18.3425 50.0067 17.6196 49.7754C16.8968 49.5441 16.2406 48.9457 16.1946 48.2015C16.171 47.8217 16.3047 47.4513 16.4426 47.0959C16.8897 45.9423 17.4093 44.7997 18.1835 43.8264C18.9577 42.853 20.0122 42.0536 21.2381 41.7708" fill="#FFD059"/>
<path d="M29.895 39.193C25.0408 39.9546 19.6818 41.8774 17.3485 46.4218C17.1605 46.8073 16.987 47.2085 16.8525 47.6155C16.638 48.1024 16.7763 48.7013 17.2284 49.0027C17.9421 49.5513 18.8935 49.6734 19.787 49.697C23.8381 49.6422 28.4721 47.4483 31.1255 44.4336C31.1751 44.3732 31.2666 44.3642 31.3275 44.4142C31.3788 44.4559 31.3925 44.5257 31.3648 44.5821C31.0352 45.2532 30.5777 45.8643 30.0594 46.4116C29.5402 46.9606 28.9585 47.4496 28.3404 47.8849C25.6568 49.8276 19.5303 52.0166 16.5759 49.8017C15.7889 49.245 15.5214 48.1584 15.892 47.295L15.9905 47.0264C16.4029 45.9625 17.0003 44.9623 17.7414 44.0896C20.7028 40.6371 25.384 39.0575 29.8669 38.896C30.0486 38.8972 30.0892 39.1549 29.8954 39.1922L29.895 39.193Z" fill="#231F20"/>
<path d="M73.7804 40.0698C71.3431 41.5861 67.3471 41.3073 63.8524 40.108C61.0972 39.8852 60.2331 38.0873 60.2356 36.128C60.2356 35.6265 60.2927 35.1132 60.39 34.6141C64.9822 33.2147 71.7041 34.5557 74.0176 38.8578C74.0408 38.9025 74.0644 38.9471 74.0875 38.9913C74.2813 39.3731 74.1472 39.8418 73.7795 40.0698H73.7804Z" fill="#FFE790"/>
<path d="M73.7804 40.0699C71.3431 41.5862 67.3471 41.3075 63.8524 40.1081C61.0972 39.8853 60.2331 38.0875 60.2356 36.1281C60.3267 35.629 60.4761 35.1401 60.6852 34.6755L61.1348 34.6845C60.4828 35.1847 60.258 36.1512 60.6244 36.8796C61.0831 37.786 62.1976 38.1362 63.202 38.3719C64.7984 38.7464 66.4122 39.0568 68.036 39.3015C69.2196 39.4796 70.4198 39.6248 71.6109 39.5015C72.441 39.4151 73.257 39.196 74.0184 38.8584C74.0416 38.903 74.0652 38.9476 74.0884 38.9919C74.2821 39.3737 74.148 39.8423 73.7804 40.0703V40.0699Z" fill="#FFD059"/>
<g opacity="0.6">
<path d="M74.0883 38.9912C74.0651 38.9465 74.0415 38.9019 74.0183 38.8577C71.7044 34.5555 64.983 33.215 60.3908 34.614C60.3324 34.9126 60.291 35.2157 60.2649 35.5188C64.848 34.2415 71.3695 35.6085 73.6416 39.8331C73.6647 39.8777 73.6883 39.9224 73.7115 39.9666C73.7306 40.0043 73.7455 40.0429 73.7583 40.0822C73.7653 40.0778 73.7732 40.0737 73.7802 40.0692C74.1479 39.8412 74.2816 39.373 74.0883 38.9908V38.9912Z" fill="#F9F5EF"/>
</g>
<path d="M69.4616 41.5811C67.4818 41.5811 65.4105 41.1494 63.6915 40.5595C63.4373 40.4722 63.3032 40.1996 63.3922 39.95C63.4812 39.7009 63.7598 39.5694 64.014 39.6567C67.7985 40.9547 71.441 40.9587 73.5197 39.666C73.6762 39.5686 73.7342 39.3658 73.6518 39.2043C71.5391 35.0575 65.0437 33.6971 60.5351 35.0697C60.278 35.148 60.0043 35.0072 59.9244 34.7548C59.8445 34.5025 59.9882 34.2347 60.2457 34.1564C62.6896 33.4122 65.6146 33.4134 68.2713 34.1596C71.207 34.9841 73.4278 36.6237 74.5249 38.777C74.8329 39.3816 74.6255 40.1107 74.0426 40.4734C72.765 41.2679 71.1466 41.5807 69.462 41.5807L69.4616 41.5811Z" fill="#231F20"/>
<path d="M34.9553 51.6563L31.4428 46.3325C31.1799 45.9345 31.0847 45.4415 31.2238 44.9874C31.4507 44.2474 32.1678 43.894 32.9797 44.3796C33.1626 44.4888 33.3154 44.6405 33.4404 44.8109L36.8246 49.4373C36.5476 46.509 36.5584 43.9723 37.152 42.23C37.2315 41.9963 37.3475 41.7739 37.5097 41.5853C38.2156 40.7636 39.2035 40.8748 39.7123 41.765C39.887 42.0709 39.9607 42.4227 39.9561 42.7733L39.8787 48.5937L41.6908 43.9617C41.8142 43.6465 42.0191 43.3645 42.2974 43.1652C43.3407 42.4183 44.3612 42.8621 44.5318 43.8489C44.581 44.1346 44.5409 44.4287 44.4423 44.7022L43.0223 48.6453C42.6021 49.8118 42.4957 51.059 42.6625 52.2852C43.3407 57.2739 38.1796 57.1619 35.2733 52.1761C35.171 52.0008 35.0675 51.8263 34.9557 51.6567L34.9553 51.6563Z" fill="#FF9761"/>
<g opacity="0.6">
<path d="M40.2521 49.436C40.9812 47.6251 41.7098 45.8143 42.4389 44.0038C42.4733 43.8959 42.612 43.5076 43.0235 43.2613C43.3087 43.0905 43.5865 43.071 43.7165 43.0702C43.5841 42.998 43.1543 42.7854 42.6972 42.9355C42.5209 42.9935 42.4033 43.0897 42.2973 43.1656C42.0191 43.3648 41.8142 43.6468 41.6908 43.962C41.0867 45.5059 40.4827 47.0502 39.8787 48.594C40.0033 48.8748 40.1275 49.1556 40.2521 49.4364V49.436Z" fill="#F9F5EF"/>
<path d="M36.0602 51.8254C35.9579 51.6501 35.8544 51.4757 35.7426 51.3061L32.2302 45.9822C31.9673 45.5842 31.872 45.0912 32.0112 44.6372C32.0687 44.4497 32.1577 44.2874 32.2716 44.1572C31.7743 44.1475 31.381 44.4741 31.2241 44.9874C31.085 45.4414 31.1806 45.9344 31.4431 46.3324L34.9556 51.6562C35.0674 51.8258 35.1709 52.0003 35.2731 52.1756C37.2244 55.523 40.192 56.6733 41.7267 55.5583C40.1038 55.9239 37.7166 54.666 36.0606 51.8254H36.0602Z" fill="#F9F5EF"/>
<path d="M37.6322 50.1142C37.5449 48.9879 37.4625 47.6379 37.4157 46.1038C37.4157 46.1038 37.3362 43.5062 38.0438 41.9871C38.2152 41.6187 38.4768 41.3505 38.4768 41.3505C38.6101 41.2137 38.7389 41.118 38.8316 41.0559C38.4913 41.0738 37.9117 41.1606 37.5101 41.5846C37.2733 41.8345 37.1892 42.1064 37.1524 42.2293C36.9206 43.0076 36.7901 45.4668 36.822 48.7777C36.817 48.9083 36.8166 49.3457 37.1346 49.7324C37.3072 49.9426 37.5072 50.0562 37.6326 50.1142H37.6322Z" fill="#F9F5EF"/>
</g>
<g opacity="0.3">
<path d="M44.531 43.8488C44.4221 43.2191 43.9663 42.8125 43.3801 42.7935C43.3705 42.9696 43.3324 43.144 43.272 43.3112C43.3689 43.3242 43.5167 43.3595 43.6177 43.4731C44.0661 43.9774 42.8878 45.2385 42.1885 47.197C41.9285 47.9258 42.0867 47.7643 41.4922 50.8942C40.9602 53.6939 40.8053 53.9974 40.5134 54.1982C39.3588 54.9918 37.4324 54.5459 35.7258 52.8889C38.6819 57.1597 43.3059 57.0238 42.6617 52.2851C42.4949 51.0589 42.6013 49.8117 43.0215 48.6451L44.4416 44.7021C44.5401 44.4286 44.5807 44.1349 44.531 43.8488Z" fill="#231F20"/>
</g>
<path d="M40.3772 56.4362C38.6785 56.4362 36.4731 55.1788 34.8581 52.408C34.7483 52.2197 34.6548 52.0631 34.5542 51.9105L31.0417 46.5867C30.6915 46.056 30.5913 45.4242 30.766 44.8525C30.9225 44.3417 31.2711 43.9514 31.7219 43.7822C32.1881 43.6073 32.723 43.6771 33.2285 43.9794C33.4546 44.1145 33.6566 44.3023 33.8288 44.5381L36.2206 47.8076C36.079 45.2859 36.235 43.4422 36.6987 42.0813C36.8035 41.7737 36.9534 41.5051 37.1442 41.2832C37.5876 40.7667 38.1523 40.5119 38.7324 40.5666C39.2983 40.6194 39.8075 40.9724 40.1296 41.536C40.335 41.8955 40.4406 42.3255 40.4344 42.7792L40.3917 45.974L41.2446 43.7935C41.4065 43.3801 41.6731 43.0319 42.0155 42.7869C42.6568 42.3276 43.3693 42.2014 43.9708 42.4412C44.5186 42.6591 44.8949 43.1439 45.003 43.7704C45.0626 44.1161 45.0249 44.4918 44.8928 44.8578L43.4728 48.8009C43.0919 49.8586 42.9756 51.0418 43.1362 52.2229C43.4185 54.2995 42.7354 55.8211 41.3092 56.2934C41.0235 56.3879 40.7101 56.4362 40.3776 56.4362H40.3772ZM32.2506 44.6245C32.1881 44.6245 32.1252 44.6342 32.0635 44.6574C31.8888 44.7231 31.753 44.8882 31.6814 45.1224C31.587 45.4303 31.6462 45.7789 31.8441 46.0783L35.3565 51.4021C35.4753 51.5827 35.5859 51.7689 35.6877 51.9434C37.345 54.7864 39.6631 55.8487 41.0028 55.406C41.9765 55.0834 42.4088 53.9685 42.1885 52.3471C42.008 51.0199 42.1405 49.6858 42.5715 48.4892L43.9915 44.5462C44.0694 44.3299 44.0934 44.1161 44.0607 43.9274C44.0081 43.6235 43.8483 43.404 43.6111 43.3095C43.3233 43.1947 42.9474 43.2803 42.5793 43.544C42.3856 43.6828 42.2328 43.8852 42.1372 44.1299L40.3251 48.7619C40.2423 48.9737 40.0162 49.0971 39.7889 49.054C39.5616 49.0114 39.3981 48.8147 39.401 48.5878L39.4784 42.7674C39.4821 42.4777 39.4188 42.2103 39.2954 41.994C39.1265 41.6987 38.8947 41.5234 38.6421 41.4998C38.3825 41.4767 38.1109 41.6135 37.8758 41.8873C37.7632 42.0184 37.6721 42.1839 37.6058 42.3787C37.0958 43.8759 36.996 46.1708 37.3007 49.3945C37.3206 49.605 37.1943 49.8026 36.9919 49.8765C36.7894 49.9507 36.5621 49.8826 36.4363 49.7105L33.0521 45.0842C32.9553 44.9515 32.8472 44.8493 32.7313 44.7799C32.6021 44.7028 32.4282 44.6249 32.2514 44.6249L32.2506 44.6245Z" fill="#231F20"/>
<path d="M60.3736 40.9634L58.3189 35.5799C58.1653 35.1774 58.1781 34.723 58.3917 34.3473C58.7391 33.735 59.4441 33.5589 60.0672 34.1436C60.2076 34.2751 60.3127 34.4386 60.3897 34.6135L62.4689 39.3546C62.8047 36.7087 63.3172 34.465 64.1883 33.0347C64.305 32.8428 64.452 32.6679 64.6329 32.532C65.4212 31.9388 66.2736 32.2252 66.5473 33.1106C66.6413 33.4149 66.6367 33.7403 66.5635 34.0499L65.3409 39.1891L67.8639 35.4327C68.0357 35.177 68.2733 34.9665 68.559 34.8431C69.6309 34.3802 70.4469 34.9677 70.4022 35.8741C70.3893 36.1366 70.2953 36.389 70.1537 36.6126L68.1143 39.8338C67.5111 40.7869 67.1696 41.8706 67.0739 42.9885C66.6852 47.5353 62.1369 46.4527 60.5524 41.484C60.4965 41.3091 60.4394 41.135 60.374 40.9634H60.3736Z" fill="#FF9761"/>
<g opacity="0.6">
<path d="M65.504 40.0046C66.5088 38.5398 67.5132 37.0755 68.518 35.6107C68.5697 35.5219 68.7697 35.2042 69.1829 35.0646C69.4694 34.9676 69.719 35.0033 69.8341 35.0273C69.731 34.938 69.3928 34.6682 68.9585 34.7136C68.7908 34.7311 68.6674 34.7939 68.5586 34.841C68.2729 34.9644 68.0352 35.1749 67.8634 35.4306C67.0226 36.6827 66.1813 37.9348 65.3405 39.187C65.3951 39.4592 65.4498 39.7315 65.504 40.0041V40.0046Z" fill="#F9F5EF"/>
<path d="M61.3182 41.3237C61.2623 41.1488 61.2052 40.9748 61.1398 40.8031L59.0851 35.4197C58.9315 35.0172 58.9443 34.5628 59.1579 34.187C59.2457 34.032 59.3571 33.9054 59.4837 33.8117C59.0453 33.7087 58.6325 33.9229 58.3916 34.3473C58.1784 34.723 58.1651 35.1775 58.3187 35.58L60.3735 40.9634C60.4389 41.135 60.496 41.3091 60.5519 41.484C61.6159 44.8196 64.0155 46.4037 65.5954 45.7086C64.0859 45.7232 62.2212 44.1546 61.3182 41.3237Z" fill="#F9F5EF"/>
<path d="M63.0494 40.1074C63.1955 39.093 63.3905 37.8823 63.653 36.5149C63.653 36.5149 64.0977 34.1997 65.0255 32.9894C65.2503 32.696 65.5351 32.5082 65.5351 32.5082C65.6804 32.4124 65.8133 32.352 65.9077 32.3146C65.6026 32.2655 65.0722 32.2323 64.6326 32.5313C64.3734 32.7078 64.2451 32.9322 64.1879 33.034C63.8286 33.6788 63.2253 35.8317 62.5969 38.7697C62.5667 38.8845 62.4793 39.2716 62.6842 39.6745C62.7956 39.8936 62.95 40.0324 63.0494 40.1074Z" fill="#F9F5EF"/>
</g>
<g opacity="0.3">
<path d="M70.402 35.8729C70.4305 35.2947 70.1076 34.8476 69.5922 34.719C69.5487 34.8728 69.4804 35.0205 69.3939 35.1572C69.4771 35.1872 69.6013 35.2465 69.6679 35.3666C69.9648 35.8985 68.6714 36.7907 67.6641 38.3922C67.2894 38.9879 67.4617 38.8751 66.314 41.5331C65.2877 43.9108 65.0902 44.1502 64.7921 44.2723C63.6122 44.7551 61.9951 43.9932 60.8123 42.201C62.583 46.5457 66.7044 47.3061 67.0737 42.9877C67.1694 41.8699 67.5109 40.7861 68.1142 39.833L70.1536 36.6118C70.2952 36.3886 70.3891 36.1359 70.402 35.8733V35.8729Z" fill="#231F20"/>
</g>
<path d="M64.8188 46.3369C63.1772 46.3369 61.101 44.7748 60.0958 41.6229C60.0357 41.4351 59.984 41.2788 59.926 41.1267L57.8713 35.7432C57.6618 35.1947 57.6991 34.6027 57.974 34.1186C58.2207 33.6841 58.6186 33.3968 59.0649 33.3311C59.5269 33.2625 59.9997 33.4309 60.3976 33.8046C60.5752 33.9713 60.7205 34.1811 60.8286 34.4278L62.2378 37.6413C62.6109 35.4531 63.1093 33.891 63.778 32.7939C63.9349 32.5366 64.1245 32.3232 64.3418 32.1597C64.849 31.7779 65.4133 31.6578 65.9308 31.8205C66.4359 31.9795 66.8271 32.3999 67.0048 32.9736C67.1178 33.3384 67.1261 33.747 67.0288 34.1551L66.4144 36.7373L67.4643 35.174C67.6945 34.8315 68.0058 34.5686 68.366 34.4132C69.0396 34.1223 69.7116 34.1482 70.2096 34.4834C70.6642 34.7897 70.9085 35.3042 70.8795 35.8954C70.8633 36.2204 70.7528 36.5531 70.5599 36.8582L68.5204 40.0795C67.9773 40.9376 67.6415 41.9564 67.55 43.0264C67.3865 44.9411 66.4649 46.1734 65.085 46.3223C64.9976 46.3316 64.9086 46.3365 64.8188 46.3365V46.3369ZM59.2681 34.2533C59.2483 34.2533 59.228 34.255 59.2077 34.2578C59.0541 34.2805 58.9125 34.3929 58.8094 34.5747C58.6711 34.8181 58.6558 35.1245 58.7668 35.4154L60.8215 40.7988C60.8873 40.9713 60.9436 41.1413 61.0082 41.3438C61.905 44.1548 63.7233 45.5266 64.9807 45.3919C65.8836 45.2945 66.4732 44.4039 66.5978 42.9489C66.7017 41.7325 67.0859 40.5696 67.7082 39.5865L69.7476 36.3652C69.8552 36.1952 69.9165 36.0175 69.9248 35.8512C69.9376 35.5878 69.8465 35.3764 69.6685 35.2563C69.4495 35.1091 69.1154 35.1143 68.7515 35.2714C68.5606 35.3537 68.3917 35.4986 68.2629 35.6901L65.74 39.4465C65.6124 39.636 65.3649 39.7086 65.1521 39.6193C64.9393 39.5297 64.8225 39.3037 64.8751 39.0825L66.0977 33.9433C66.1569 33.695 66.154 33.454 66.0898 33.2463C66.0033 32.9667 65.843 32.7776 65.6385 32.7131C65.4286 32.6474 65.1748 32.7143 64.9239 32.903C64.8026 32.9943 64.6933 33.1193 64.5985 33.2747C63.8533 34.4976 63.3118 36.5052 62.9429 39.412C62.9164 39.6218 62.7496 39.7881 62.5359 39.8182C62.3227 39.8478 62.1149 39.7338 62.0296 39.5394L59.9504 34.7983C59.8933 34.6676 59.8213 34.5613 59.7368 34.4818C59.6225 34.3742 59.4528 34.2537 59.2681 34.2537V34.2533Z" fill="#231F20"/>
<path d="M20.3767 49.1873C19.735 49.1873 18.9032 48.6254 18.3269 48.1977C17.7258 47.751 17.2327 47.3063 17.164 47.2438C17.0729 47.1675 16.2979 46.5135 15.3548 45.6131C15.0794 46.0014 14.7722 46.3264 14.4365 46.5833C14.0047 46.9139 13.5211 47.1367 12.9986 47.2462C12.7386 47.3006 12.4803 47.3246 12.2269 47.3246C10.4645 47.3246 8.95126 46.1694 8.87881 46.1134C8.66601 45.9483 8.58362 45.6691 8.67388 45.4184C8.7633 45.1692 9.00343 45.0029 9.27253 45.0029C9.2746 45.0029 9.27667 45.0029 9.27874 45.0029C9.81033 45.0077 10.0153 45.0021 10.2243 44.9213C10.4686 44.8272 10.7878 44.5996 11.367 44.1861C11.5061 44.0867 11.6593 43.9776 11.8303 43.8566C12.3052 43.5207 12.756 43.358 13.1609 43.2983C12.7324 42.7814 12.3933 42.3099 12.1482 41.8908C11.0424 39.9996 9.17938 38.3044 9.16075 38.2874C8.70244 37.8755 8.67139 37.174 9.09244 36.7236C9.29613 36.5053 9.57435 36.3783 9.87616 36.3653C10.1767 36.3523 10.4661 36.4554 10.6889 36.6554C10.7572 36.7167 12.1772 37.9993 13.3977 39.6998C13.5534 39.4117 13.7641 39.1366 14.0291 38.8757C14.1918 38.7154 14.3388 38.5722 14.4721 38.4419C15.0322 37.8954 15.3407 37.5947 15.4897 37.3464C15.6193 37.1314 15.6615 36.9115 15.7493 36.3386C15.7895 36.0752 15.9961 35.8663 16.2635 35.8188C16.5301 35.7709 16.7984 35.8947 16.9313 36.1268C16.9872 36.2245 18.2901 38.5438 17.4666 40.6346C17.2166 41.2696 16.7976 41.8149 16.2213 42.2564C16.0553 42.3834 15.8739 42.5031 15.6785 42.6142C17.7138 44.634 20.7994 47.099 20.9422 47.2126C21.4366 47.5745 21.5438 48.2626 21.1799 48.7524C21.1252 48.8258 21.0619 48.8924 20.9907 48.9508C20.8826 49.0579 20.7025 49.1744 20.4239 49.1869C20.4077 49.1878 20.3916 49.1882 20.3755 49.1882L20.3767 49.1873ZM15.173 44.2117L15.5862 44.6174C16.7131 45.7243 17.7047 46.5553 17.7465 46.5902L17.7614 46.6031C17.7668 46.608 18.3071 47.1014 18.9368 47.5615C19.9267 48.2846 20.303 48.3223 20.3813 48.3199L20.3871 48.3138L20.4189 48.2894C20.4367 48.2756 20.4529 48.2594 20.4661 48.2411C20.5456 48.134 20.5216 47.9835 20.4123 47.9052H20.4115C20.3833 47.8841 16.7077 44.9578 14.6249 42.7907L14.1976 42.346L14.7669 42.0973C15.1142 41.9456 15.421 41.7687 15.6777 41.5719C16.1261 41.2286 16.4506 40.8079 16.6423 40.3214C16.9884 39.4429 16.8506 38.487 16.6738 37.8398C16.6138 37.6191 16.545 37.4174 16.4776 37.2426C16.3086 37.8743 16.0221 38.1539 15.0977 39.0558C14.9652 39.1853 14.819 39.3281 14.6571 39.4871C14.2589 39.8791 14.0287 40.3007 13.9724 40.7405L13.8155 41.9655L13.1564 40.9133C11.9268 38.9512 10.1664 37.361 10.0919 37.2945C10.043 37.2503 9.98215 37.2288 9.91549 37.2316C9.84884 37.2344 9.79046 37.2612 9.74575 37.3091C9.65425 37.4073 9.66088 37.5594 9.76024 37.6487C9.84138 37.7221 11.7429 39.4518 12.9167 41.4595C13.2516 42.0324 13.7902 42.7242 14.518 43.5166L15.1664 44.2226L15.1726 44.2117H15.173ZM10.0836 45.8444C10.734 46.1962 11.781 46.6137 12.8144 46.3978C13.2044 46.3163 13.5671 46.1487 13.8921 45.8996C14.2643 45.6147 14.5988 45.2151 14.8869 44.7115L14.9966 44.5196L14.0527 44.2194C13.493 44.0413 12.9195 44.1561 12.3486 44.5598C12.1789 44.6799 12.0265 44.7886 11.8883 44.8872C11.2291 45.3575 10.8984 45.5936 10.5489 45.7283C10.3928 45.7884 10.2421 45.8241 10.0832 45.8444H10.0836Z" fill="#231F20"/>
<path d="M16.35 36.3337C16.35 36.3337 16.3508 36.3346 16.3512 36.3362C16.4191 36.4567 18.8999 40.9223 14.2812 42.4378C14.2812 42.4378 12.9418 40.9666 14.2538 39.4304C14.3143 39.3598 14.3797 39.2888 14.4517 39.2178C16.0875 37.6074 16.1438 37.678 16.35 36.3337Z" fill="#16B768"/>
<g opacity="0.3">
<path d="M16.3512 36.3369C16.4191 36.4574 18.8999 40.9231 14.2812 42.4385C14.2812 42.4385 12.9418 40.9673 14.2538 39.4311C13.7707 40.54 14.4571 41.1085 14.4571 41.1085C17.4835 39.2465 16.3901 36.4351 16.3512 36.3369Z" fill="#231F20"/>
</g>
<path d="M14.0883 42.4541C14.0862 42.4314 14.0858 42.4135 14.085 42.3945C14.0841 42.3754 14.0837 42.3571 14.0833 42.3393C14.0825 42.3028 14.0825 42.2662 14.0841 42.2305C14.0854 42.1583 14.0912 42.0873 14.0961 42.0159C14.1032 41.9449 14.1102 41.8739 14.121 41.8037C14.1338 41.7335 14.1438 41.6633 14.1587 41.5939C14.1748 41.5245 14.1885 41.4552 14.2063 41.3862L14.2638 41.1813L14.335 40.9808C14.3462 40.9472 14.3595 40.9143 14.3739 40.8818L14.4162 40.7841L14.4588 40.6867L14.5077 40.5921C14.5412 40.5296 14.5718 40.4659 14.6079 40.4051C14.6832 40.285 14.7548 40.1633 14.8447 40.0533L14.9093 39.9697C14.9308 39.9417 14.9519 39.9137 14.9772 39.8886C15.0256 39.837 15.0732 39.7851 15.1225 39.7348C15.1693 39.6825 15.2243 39.6378 15.2781 39.5924C15.332 39.5469 15.385 39.5015 15.44 39.4585C15.45 39.4508 15.464 39.4524 15.4719 39.4621C15.4785 39.4698 15.4785 39.4808 15.4727 39.4889L15.4719 39.4901C15.3096 39.7137 15.1494 39.9304 15.0223 40.1661C14.9908 40.2249 14.9531 40.2801 14.9266 40.3414C14.8981 40.4014 14.8691 40.4611 14.8393 40.5203C14.8111 40.5804 14.7888 40.6424 14.7631 40.7033L14.7263 40.795L14.6952 40.8891C14.6087 41.1379 14.5474 41.3939 14.5097 41.6528C14.4998 41.7173 14.4944 41.7826 14.4866 41.8471C14.4816 41.912 14.4758 41.977 14.4716 42.0415C14.4692 42.1064 14.4659 42.1709 14.4667 42.235C14.4663 42.2675 14.4675 42.2991 14.4679 42.3308C14.4679 42.3466 14.4683 42.3624 14.4696 42.3774L14.4721 42.42V42.4281C14.4787 42.532 14.3975 42.6213 14.2911 42.6274C14.1868 42.633 14.097 42.556 14.0883 42.4541Z" fill="#231F20"/>
<path d="M15.9212 41.8173C15.4935 42.1448 14.9665 42.4117 14.3417 42.6166C14.2688 42.6406 14.1881 42.6195 14.1368 42.5635C14.121 42.546 12.5706 40.8013 14.3148 39.085C14.4771 38.9256 14.6237 38.7823 14.7566 38.6529C15.9601 37.4783 15.9833 37.4559 16.1592 36.3065C16.1712 36.2265 16.2342 36.1632 16.3149 36.1486C16.3956 36.134 16.4772 36.1717 16.5173 36.2419C16.5691 36.3324 17.7755 38.4784 17.0257 40.3818C16.8038 40.945 16.4341 41.425 15.9207 41.8177L15.9212 41.8173ZM14.3463 42.2158C15.5345 41.7995 16.3149 41.1373 16.6664 40.2467C17.1392 39.0485 16.7343 37.6941 16.4341 36.963C16.2702 37.7079 16.0205 37.9518 15.0286 38.9195C14.8961 39.0489 14.7499 39.1913 14.5881 39.3508C13.3034 40.6151 14.0784 41.8628 14.3463 42.2158Z" fill="#231F20"/>
<path d="M15.1632 44.5768C13.1019 48.4456 9.34392 45.6046 9.2458 45.5299C9.24455 45.5291 9.24414 45.5287 9.24414 45.5287C10.5118 45.5401 10.4551 45.48 12.1737 44.2648C12.4701 44.055 12.7533 43.9272 13.0187 43.8587C14.2926 43.5312 15.1637 44.5768 15.1637 44.5768" fill="#16B768"/>
<g opacity="0.3">
<path d="M15.1634 44.5768C13.1021 48.4456 9.34409 45.6046 9.24597 45.5299C9.33043 45.5835 12.2182 47.3842 14.1065 44.5448C14.1065 44.5448 13.9744 44.1682 13.0184 43.8587C14.2923 43.5312 15.1634 44.5768 15.1634 44.5768Z" fill="#231F20"/>
</g>
<g opacity="0.7">
<path d="M9.69439 45.8267C10.748 45.8254 10.7948 45.7045 12.4103 44.5619C12.7067 44.3522 12.9899 44.2244 13.2553 44.1558C14.1131 43.9351 14.7875 44.3372 15.137 44.6236C15.1457 44.6078 15.1544 44.5928 15.163 44.577C15.163 44.577 14.2924 43.5309 13.0181 43.8588C12.7527 43.9269 12.4695 44.0552 12.1731 44.2649C10.4545 45.4801 10.5112 45.5398 9.24353 45.5288C9.24353 45.5288 9.24353 45.5292 9.24519 45.5301C9.26465 45.5451 9.42818 45.6684 9.69397 45.8271" fill="#F9F5EF"/>
</g>
<path d="M15.1162 44.7591L15.0781 44.751C15.0645 44.7482 15.0504 44.7453 15.0359 44.7429C15.0069 44.738 14.9784 44.7323 14.9486 44.7279C14.8902 44.7177 14.8302 44.7112 14.7705 44.7043C14.7105 44.6987 14.6505 44.6942 14.59 44.6897C14.5296 44.6877 14.4691 44.6828 14.4083 44.6824C14.1657 44.6771 13.9214 44.6926 13.6809 44.7327L13.5902 44.7461L13.5008 44.7652C13.4411 44.7786 13.3807 44.7891 13.3215 44.8054C13.2627 44.8228 13.2039 44.8394 13.1443 44.8557C13.0839 44.8699 13.028 44.895 12.9692 44.9137C12.9116 44.9348 12.8512 44.9514 12.7945 44.9766C12.7373 45.0005 12.6806 45.0253 12.6222 45.0484C12.563 45.0699 12.5084 45.0999 12.4517 45.1271C12.3954 45.1547 12.3378 45.1815 12.279 45.2075L12.2774 45.2083C12.2662 45.2131 12.2525 45.2083 12.2471 45.1973C12.243 45.1884 12.2455 45.1782 12.2521 45.1718C12.4401 44.9993 12.6491 44.8407 12.8826 44.7242C12.9969 44.6597 13.119 44.6126 13.2408 44.5631C13.302 44.5396 13.3654 44.5217 13.4279 44.5006L13.5223 44.4706L13.6183 44.4463C13.6825 44.4321 13.7463 44.4122 13.8117 44.4021L14.0071 44.3672L14.2046 44.3444C14.2708 44.3384 14.3371 44.3351 14.4033 44.3315C14.4695 44.3282 14.5362 44.3298 14.6029 44.3286C14.6695 44.3294 14.7362 44.3331 14.8028 44.3371C14.8695 44.3428 14.9361 44.3481 15.0032 44.357C15.0367 44.3607 15.0703 44.3659 15.1042 44.372C15.1208 44.3749 15.1378 44.3777 15.1556 44.3814C15.173 44.385 15.1895 44.3879 15.2106 44.3931C15.3137 44.4179 15.3771 44.5197 15.3518 44.6212C15.327 44.721 15.2255 44.7822 15.1241 44.7607L15.1158 44.7591H15.1162Z" fill="#231F20"/>
<path d="M14.1358 46.1448C13.7562 46.4353 13.3364 46.6293 12.8781 46.7254C11.0101 47.1162 9.20125 45.7354 9.12507 45.6766C9.06049 45.6267 9.03565 45.5419 9.06297 45.4656C9.0903 45.3897 9.16399 45.339 9.24638 45.3398C10.3249 45.3496 10.3489 45.3325 11.5996 44.4403C11.7383 44.3413 11.8911 44.2321 12.0612 44.1116C13.9056 42.8071 15.2992 44.4415 15.3129 44.4581C15.3617 44.5166 15.37 44.5977 15.3344 44.6647C14.997 45.298 14.5962 45.7926 14.1358 46.1448ZM9.86698 45.7066C10.5054 46.075 11.6613 46.5948 12.7994 46.3558C13.6622 46.1748 14.378 45.5865 14.9295 44.6058C14.6343 44.3129 13.6121 43.4803 12.2865 44.4176C12.1167 44.5377 11.9639 44.6464 11.8261 44.745C10.8146 45.4668 10.541 45.662 9.86698 45.7062V45.7066Z" fill="#231F20"/>
<path d="M20.5436 48.386C20.3739 48.5159 20.1312 48.5264 19.9483 48.3962C19.8812 48.3487 13.931 43.6396 12.6712 41.4851C11.5041 39.4892 9.58227 37.7506 9.56281 37.7335C9.36118 37.5526 9.34752 37.2454 9.53258 37.0478C9.71723 36.8502 10.0302 36.8368 10.2318 37.0178C10.3151 37.0925 12.2849 38.8725 13.5303 41.0026C14.6791 42.9669 20.5159 47.6005 20.5303 47.611C20.751 47.7689 20.7995 48.0724 20.6388 48.2886C20.6111 48.326 20.5788 48.3584 20.5432 48.3856" fill="#16B768"/>
<g opacity="0.3">
<path d="M20.5303 47.6115C20.5154 47.601 14.6787 42.9673 13.5302 41.0031C12.2849 38.8734 10.315 37.0933 10.2318 37.0183C10.0302 36.8373 9.71718 36.8507 9.53253 37.0483C9.49154 37.0925 9.46049 37.142 9.43896 37.1944C9.58014 37.1753 9.72836 37.2155 9.8418 37.3173C9.92501 37.392 11.8949 39.172 13.1402 41.3022C14.2891 43.2664 20.1258 47.9 20.1403 47.9106C20.3274 48.0445 20.3904 48.283 20.3071 48.4843C20.392 48.4725 20.474 48.4401 20.5435 48.3865C20.5791 48.3593 20.6114 48.3269 20.6392 48.2895C20.7998 48.0733 20.7514 47.7698 20.5307 47.6119" fill="#231F20"/>
</g>
<path d="M20.6615 48.5345C20.0429 49.2174 17.4297 46.8235 17.4297 46.8235C17.3655 46.7699 13.7831 43.7674 12.5034 41.5788C11.3553 39.615 9.4509 37.8893 9.43186 37.8723C9.1524 37.6216 9.13377 37.1943 9.38963 36.9204C9.51383 36.7873 9.68316 36.7103 9.86657 36.7025C10.05 36.6948 10.2255 36.7573 10.3609 36.879C10.4449 36.9545 12.4355 38.7528 13.6962 40.9089C14.8185 42.8285 20.6283 47.4483 20.6428 47.4589C20.9488 47.678 21.0163 48.1004 20.7931 48.4002C20.7554 48.4509 20.7107 48.4964 20.6602 48.5349L20.6615 48.5345ZM9.71131 37.1416C9.69807 37.1517 9.68564 37.1631 9.67405 37.1752C9.56144 37.2957 9.56972 37.4836 9.69268 37.5944C9.71255 37.6122 11.6596 39.3768 12.8379 41.3914C14.077 43.5106 18.6672 47.2264 18.7326 47.2731C18.8411 47.3502 20.1208 48.4733 20.4242 48.2371C20.4462 48.2201 20.4661 48.2002 20.4826 48.1779C20.5807 48.0456 20.5509 47.8598 20.4164 47.7636C20.4019 47.7531 14.5362 43.1032 13.3629 41.0968C12.1312 38.991 10.1837 37.2312 10.1013 37.1574C10.0417 37.1038 9.96427 37.0762 9.88354 37.0799C9.81978 37.0827 9.76017 37.1042 9.7109 37.142L9.71131 37.1416Z" fill="#231F20"/>
<path d="M6.88869 38.3394C6.88869 38.3394 6.9686 41.5765 9.29533 41.1172C11.6221 40.6579 10.5643 37.5969 10.5643 37.5969C10.5643 37.5969 12.366 39.5408 14.095 37.8456C15.5258 36.4426 14.1595 34.4552 12.7983 34.0839C12.7983 34.0839 15.5444 32.9276 14.5938 30.6505C13.6433 28.3735 11.637 29.1261 10.898 29.5635C10.898 29.5635 11.6568 25.6452 8.82792 25.7296C5.90252 25.8169 6.66968 29.286 6.66968 29.286C6.66968 29.286 4.36406 26.4936 2.50184 28.1609C0.509211 29.9453 3.33649 32.1303 3.33649 32.1303C3.33649 32.1303 0.426409 32.5811 0.716216 34.5437C1.05777 36.8584 3.90409 36.2137 3.90409 36.2137C3.90409 36.2137 1.96446 37.8387 3.27811 39.3347C4.95982 41.2494 6.88911 38.3398 6.88911 38.3398" fill="black"/>
<path d="M8.86541 41.8424C8.33217 41.8424 7.84943 41.6817 7.44743 41.3673C7.00899 41.024 6.67778 40.5128 6.4596 39.8445C5.98473 40.2503 5.372 40.6179 4.68226 40.6633C4.1842 40.6962 3.44519 40.5696 2.75048 39.7788C2.29673 39.2623 2.0831 38.6545 2.13278 38.0211C2.16383 37.6247 2.29176 37.2591 2.45737 36.9406C2.01479 36.8805 1.54158 36.7422 1.12177 36.4606C0.522282 36.0585 0.143877 35.4292 0.0275402 34.6408C-0.134338 33.5433 0.421264 32.6048 1.5925 31.9982C1.7374 31.9231 1.88313 31.8578 2.02472 31.8006C1.57884 31.2626 1.12798 30.5176 1.09693 29.6814C1.06919 28.9303 1.39295 28.2304 2.033 27.6571C2.60599 27.1442 3.29449 26.9016 4.02522 26.9551C4.73608 27.0075 5.39104 27.3264 5.92097 27.6896C5.99301 27.1418 6.17393 26.5531 6.566 26.0613C6.91874 25.619 7.59399 25.0838 8.80704 25.0477C9.41605 25.0295 10.2735 25.1601 10.9048 25.8844C11.5519 26.6269 11.6943 27.6916 11.6898 28.51C12.1912 28.3858 12.794 28.3396 13.4025 28.5368C14.2169 28.8009 14.8346 29.4249 15.2383 30.3914C15.7326 31.575 15.4892 32.7484 14.5527 33.6946C14.4239 33.8249 14.2898 33.9425 14.1573 34.0476C14.7034 34.4968 15.1269 35.1172 15.3058 35.7842C15.5575 36.7227 15.3024 37.6255 14.5874 38.3262C13.9648 38.9369 13.2605 39.2371 12.4897 39.2193C12.1307 39.2107 11.7974 39.1328 11.5002 39.0204C11.5076 39.6575 11.3793 40.2036 11.1168 40.6499C10.7678 41.2431 10.1857 41.6355 9.43302 41.784C9.23885 41.8221 9.04923 41.8412 8.86583 41.8412L8.86541 41.8424ZM7.58364 38.3222C7.59482 38.6975 7.75338 39.8648 8.31685 40.3034C8.45389 40.4101 8.69029 40.5412 9.15812 40.4491C9.52162 40.3773 9.7605 40.2259 9.91037 39.9727C10.29 39.33 10.0354 38.1964 9.90541 37.8138L8.8621 34.7475L11.0791 37.1386C11.0837 37.1435 11.754 37.8434 12.529 37.858C12.9053 37.8649 13.2572 37.7034 13.6038 37.3638C13.9652 37.0096 14.0853 36.5949 13.9606 36.1315C13.7946 35.5119 13.2022 34.9009 12.6126 34.7402L10.7107 34.2217L12.5244 33.4581C12.5282 33.4564 13.1165 33.2004 13.5773 32.7232C14.1159 32.1653 14.2347 31.5888 13.9507 30.9087C13.7081 30.3273 13.3765 29.965 12.9649 29.8315C12.4052 29.6497 11.6952 29.8879 11.2571 30.1468L9.92486 30.9347L10.2151 29.4363C10.3124 28.9242 10.4362 27.4441 9.84579 26.7685C9.70378 26.6062 9.44668 26.3924 8.84885 26.4102C8.30153 26.4265 7.9136 26.5863 7.66313 26.8983C7.14769 27.541 7.26195 28.7368 7.34931 29.1429L7.94631 31.9134L6.12922 29.7138C5.82409 29.3474 4.83088 28.3793 3.91799 28.314C3.56567 28.2888 3.2651 28.3996 2.97074 28.6629C2.63291 28.9656 2.47434 29.2817 2.48635 29.629C2.5145 30.4438 3.42118 31.3246 3.76812 31.5953L5.00436 32.5597L3.44519 32.8024C3.44064 32.8032 2.79892 32.9083 2.2189 33.215C1.29483 33.7035 1.37431 34.2424 1.40454 34.4452C1.4654 34.8583 1.63017 35.1492 1.90756 35.3354C2.48096 35.7201 3.45265 35.6158 3.74742 35.5489L6.51508 34.922L4.3556 36.7308C4.35353 36.7324 3.94863 37.0802 3.69857 37.5573C3.34666 38.2296 3.57022 38.6224 3.80497 38.8894C4.15149 39.2838 4.41853 39.3146 4.5891 39.3032C5.24572 39.2598 6.02903 38.3846 6.30559 37.9675L7.5294 36.1214L7.58364 38.3213V38.3222Z" fill="#231F20"/>
<path d="M6.88808 38.3394C6.88808 38.3394 6.96799 41.5765 9.29472 41.1172C11.6215 40.6579 10.5637 37.5969 10.5637 37.5969C10.5637 37.5969 12.3654 39.5408 14.0943 37.8456C15.5252 36.4426 14.1589 34.4552 12.7977 34.0839C12.7977 34.0839 15.5438 32.9276 14.5932 30.6505C13.6427 28.3735 11.6364 29.1261 10.8974 29.5635C10.8974 29.5635 11.6562 25.6452 8.82731 25.7296C5.90191 25.8169 6.66907 29.286 6.66907 29.286C6.66907 29.286 4.36345 26.4936 2.50123 28.1609C0.5086 29.9453 3.33588 32.1303 3.33588 32.1303C3.33588 32.1303 0.425799 32.5811 0.715606 34.5437C1.05716 36.8584 3.90348 36.2137 3.90348 36.2137C3.90348 36.2137 1.96385 37.8387 3.2775 39.3347C4.95921 41.2494 6.8885 38.3398 6.8885 38.3398" fill="#FFA1AD"/>
<g opacity="0.16">
<path d="M13.0249 29.6545C12.2233 29.3944 11.3299 29.8862 11.1585 29.9876C10.9884 30.0878 10.7739 30.0809 10.6108 29.9698C10.4477 29.859 10.3657 29.6638 10.4025 29.4723C10.5052 28.9355 10.6315 27.3803 9.991 26.6479C9.72852 26.3476 9.35301 26.2089 8.84295 26.2243C8.62643 26.2308 8.42894 26.2588 8.2534 26.3095C8.55439 26.7603 8.81149 27.1989 9.0276 27.6253C9.56499 28.6864 8.85082 29.9308 7.65102 30.074C6.97535 30.1548 6.31252 30.4136 5.73953 30.8596C4.14435 32.1011 3.82515 34.3835 5.02288 35.9983C5.03199 36.0105 5.04151 36.0231 5.05062 36.0353C5.68654 36.8715 5.42696 38.0624 4.49709 38.5692C4.19114 38.7359 3.90505 38.8796 3.65002 39.0009C3.83426 39.2127 4.06362 39.4184 4.36833 39.4764C4.66808 39.5328 5.0411 39.4468 5.5168 39.0824C6.06991 38.6588 6.4624 38.0758 6.46571 38.0705C6.49676 38.0234 6.53443 37.9833 6.5779 37.95C6.70211 37.8546 6.86812 37.8201 7.02586 37.864C7.23866 37.9232 7.38729 38.1111 7.39268 38.3273C7.40303 38.7505 7.56739 39.9568 8.19586 40.4486C8.45751 40.6535 8.78458 40.7135 9.19528 40.6324C9.43913 40.5845 9.64282 40.4985 9.80014 40.378C10.7114 39.6801 10.092 37.7735 10.0862 37.7556C10.0171 37.5548 10.0866 37.3361 10.2535 37.2087C10.2705 37.1957 10.2878 37.1835 10.3073 37.1726C10.5118 37.0537 10.7747 37.0918 10.9362 37.2639C10.9395 37.2675 11.2989 37.6457 11.8147 37.8753C12.4366 38.152 12.9909 38.0932 13.5097 37.696C13.5863 37.6372 13.6629 37.5702 13.7378 37.4968C14.1506 37.0922 14.2872 36.6171 14.1444 36.0848C13.9593 35.3958 13.3225 34.7405 12.6626 34.5608C12.4568 34.5044 12.3103 34.3275 12.2954 34.1185C12.2834 33.9518 12.3579 33.7939 12.4883 33.6941C12.5214 33.6689 12.5579 33.647 12.5976 33.6304C12.6009 33.6292 12.9595 33.4742 13.3457 33.1788C14.2296 32.502 14.4925 31.7145 14.1266 30.8376C13.862 30.2035 13.4906 29.8054 13.024 29.6537" fill="#660823"/>
</g>
<g opacity="0.4">
<path d="M6.67684 29.293C6.79814 29.4062 6.99811 29.3076 6.97865 29.1441C6.8797 28.3172 6.83623 26.1505 9.08513 26.0807C9.88459 26.056 10.3826 26.3676 10.6869 26.8176C10.3946 26.1838 9.84153 25.6993 8.82721 25.7294C6.37502 25.8024 6.55885 28.4949 6.66897 29.2857C6.67146 29.2882 6.67394 29.2906 6.67642 29.2926" fill="#F9F5EF"/>
</g>
<g opacity="0.4">
<path d="M3.79107 39.0074C3.05951 38.1752 3.55591 37.2063 4.09164 36.5469C4.29823 36.2929 4.10282 35.9217 3.77161 35.9391C2.8285 35.989 1.58439 35.7906 1.36124 34.461C1.15714 33.2429 2.66248 32.6672 3.49464 32.4444C3.70868 32.3872 3.77906 32.1239 3.62257 31.9693C2.91337 31.2702 1.63325 29.6809 3.06779 28.3975C3.82378 27.7211 4.65552 27.8157 5.36058 28.1459C4.54125 27.6278 3.46234 27.3008 2.50184 28.161C0.509211 29.9454 3.33649 32.1304 3.33649 32.1304C3.33649 32.1304 0.426409 32.5812 0.716216 34.5438C1.05777 36.8586 3.90409 36.2138 3.90409 36.2138C3.90409 36.2138 1.96446 37.8388 3.27811 39.3348C4.34253 40.5468 5.5059 39.8258 6.21675 39.1336C5.54523 39.6481 4.63482 39.967 3.7919 39.0074" fill="#F9F5EF"/>
</g>
<path d="M13.9279 38.2224C13.4874 38.56 13.0088 38.7243 12.5012 38.7125C11.8289 38.6967 11.2505 38.3737 10.8775 38.0991C11.0005 38.7008 11.0949 39.6689 10.6664 40.3976C10.3902 40.8675 9.94059 41.1665 9.32952 41.287C8.71761 41.4079 8.19347 41.3012 7.77035 40.9701C7.07357 40.4248 6.83469 39.4047 6.75313 38.8083C6.34906 39.2972 5.55623 40.0965 4.64665 40.1566C4.09395 40.1931 3.58844 39.9545 3.14296 39.4478C2.77615 39.0298 2.60972 38.5632 2.64905 38.0605C2.70122 37.3947 3.10322 36.8136 3.41538 36.4562C2.88504 36.498 2.05702 36.4728 1.41364 36.0415C0.930494 35.7173 0.636547 35.2219 0.540083 34.5682C0.410083 33.687 0.857628 32.9534 1.83386 32.4478C2.24746 32.2336 2.66934 32.1045 2.95542 32.0335C2.50539 31.6189 1.65294 30.6999 1.61444 29.6632C1.59208 29.0574 1.85001 28.5088 2.38201 28.0329C2.85316 27.6109 3.39261 27.419 3.98506 27.4628C4.9969 27.5375 5.9189 28.2812 6.41778 28.7648C6.3652 28.1347 6.3917 27.1041 6.97338 26.375C7.38739 25.856 8.00924 25.5805 8.82153 25.5566C9.54149 25.5351 10.1095 25.7566 10.509 26.2151C11.2692 27.0875 11.2004 28.5762 11.1218 29.2493C11.5946 29.0286 12.4205 28.7547 13.2382 29.0201C13.9023 29.2355 14.4131 29.7622 14.7568 30.5846C15.1741 31.5844 14.9741 32.5375 14.1788 33.3413C13.8513 33.6724 13.4891 33.9109 13.2282 34.0594C13.9619 34.4059 14.5932 35.1326 14.8027 35.9141C15.0056 36.6704 14.7982 37.3995 14.219 37.9676C14.1238 38.0609 14.0265 38.1457 13.9275 38.2216L13.9279 38.2224ZM10.4552 37.4612C10.4614 37.4568 10.4676 37.4523 10.4743 37.4482C10.5463 37.4068 10.6382 37.4202 10.6945 37.4811C10.7024 37.4896 11.5097 38.3445 12.5116 38.3668C13.0324 38.3786 13.5226 38.1624 13.9697 37.7241C14.5937 37.1123 14.5816 36.4509 14.4616 36.0034C14.2496 35.2126 13.5139 34.4595 12.7509 34.2514C12.6789 34.2319 12.6271 34.1694 12.6221 34.0964C12.6172 34.0229 12.6598 33.9548 12.7285 33.9259C12.7347 33.9231 13.3968 33.6399 13.9325 33.095C14.6268 32.389 14.7944 31.5893 14.4301 30.7173C14.1275 29.9922 13.689 29.5325 13.1272 29.3499C12.4011 29.1142 11.5461 29.3828 10.9885 29.7127C10.9288 29.748 10.8539 29.7455 10.7964 29.7066C10.7392 29.6676 10.7107 29.5995 10.7235 29.5325C10.7276 29.5118 11.1139 27.4429 10.2399 26.4407C9.91327 26.0662 9.43964 25.8857 8.83188 25.9035C8.12972 25.9246 7.59813 26.1551 7.25201 26.5884C6.47988 27.5553 6.83718 29.2339 6.8409 29.2505C6.85829 29.3288 6.81854 29.4084 6.74444 29.4428C6.67074 29.4773 6.58256 29.4579 6.53122 29.3958C6.5188 29.3808 5.28422 27.9059 3.95732 27.8089C3.46589 27.7728 3.01586 27.9347 2.61966 28.2893C2.16838 28.6934 1.94854 29.1515 1.96676 29.6506C2.01147 30.8711 3.42987 31.984 3.44436 31.995C3.49943 32.0376 3.52344 32.1082 3.50564 32.1747C3.48783 32.2413 3.43153 32.2912 3.36239 32.3017C3.33506 32.3058 0.627853 32.7493 0.889093 34.5196C0.970653 35.0734 1.21409 35.4893 1.61278 35.7567C2.49297 36.347 3.84885 36.0488 3.86251 36.046C3.94159 36.0281 4.02315 36.0655 4.06 36.1365C4.09643 36.2075 4.07904 36.2943 4.01694 36.3458C4.00783 36.3535 3.07341 37.1492 3.00096 38.0885C2.96949 38.4959 3.10736 38.8773 3.41041 39.2222C3.77888 39.6417 4.18668 39.8401 4.62222 39.8117C5.73549 39.7391 6.72953 38.2605 6.73947 38.2459C6.7817 38.1822 6.86119 38.153 6.93571 38.1737C7.01023 38.1944 7.06198 38.2601 7.06405 38.3356C7.06447 38.3522 7.11746 40.0174 7.99102 40.7007C8.32844 40.9644 8.75528 41.0476 9.25955 40.9482C9.76671 40.848 10.1368 40.6049 10.36 40.2252C10.9359 39.2457 10.4018 37.669 10.396 37.6531C10.3716 37.5829 10.396 37.5063 10.4544 37.4612H10.4552Z" fill="#231F20"/>
<path d="M10.8783 31.6823C12.0689 33.1762 11.7986 35.3332 10.2746 36.5001C8.75024 37.667 6.54936 37.4021 5.35867 35.9085C4.16798 34.4146 4.43832 32.2576 5.96229 31.0907C7.48668 29.9237 9.68756 30.1887 10.8787 31.6823" fill="#F4CC25"/>
<g opacity="0.3">
<path d="M9.13895 30.5125C9.49666 30.723 9.82248 30.9998 10.0949 31.3414C11.2856 32.8354 11.0152 34.9923 9.49127 36.1592C8.55727 36.8746 7.36906 37.0511 6.31458 36.737C7.52141 37.4475 9.09921 37.4 10.275 36.5001C11.7994 35.3331 12.0697 33.1758 10.8786 31.6822C10.4178 31.104 9.80509 30.7109 9.13937 30.5125" fill="#231F20"/>
</g>
<g opacity="0.7">
<path d="M5.83654 36.1065C4.64585 34.6125 4.9162 32.4556 6.44017 31.2886C7.40523 30.5498 8.64146 30.3854 9.72079 30.7433C8.54375 30.1505 7.07319 30.2394 5.96199 31.0902C4.4376 32.2572 4.16725 34.4145 5.35836 35.9081C5.79514 36.4562 6.36813 36.838 6.9937 37.0454C6.55609 36.8251 6.15906 36.5114 5.83654 36.1065Z" fill="#F9F5EF"/>
</g>
<path d="M10.3837 36.6366C8.78521 37.8603 6.46882 37.5816 5.21975 36.015C3.9711 34.4484 4.25552 32.1778 5.85402 30.9541C7.45251 29.7304 9.76931 30.0091 11.018 31.5757C12.2666 33.1423 11.9822 35.4129 10.3837 36.6366ZM6.07137 31.2268C4.62606 32.3332 4.36896 34.3855 5.49797 35.802C6.62697 37.2184 8.72104 37.4704 10.1663 36.3639C11.6117 35.2575 11.8688 33.2052 10.7397 31.7887C9.61074 30.3723 7.51668 30.1203 6.07137 31.2268Z" fill="#231F20"/>
</svg>
