<svg width="32" height="32" viewBox="0 0 32 32" fill="none" xmlns="http://www.w3.org/2000/svg">
<path fill-rule="evenodd" clip-rule="evenodd" d="M6.03245 1.86681C4.8812 0.710997 3.01467 0.710997 1.86343 1.86681C0.712181 3.02262 0.712183 4.89655 1.86343 6.05236L12.0665 16.2959L2.45304 25.9476C1.3018 27.1034 1.3018 28.9773 2.45304 30.1331C3.60429 31.2889 5.47082 31.2889 6.62207 30.1331L16.2356 20.4815L25.378 29.6601C26.5292 30.8159 28.3957 30.8159 29.547 29.6601C30.6982 28.5043 30.6982 26.6304 29.547 25.4746L20.4046 16.2959L30.1366 6.52535C31.2878 5.36954 31.2878 3.49561 30.1366 2.3398C28.9853 1.18399 27.1188 1.18399 25.9676 2.3398L16.2356 12.1104L6.03245 1.86681Z" fill="#F9F5EF"/>
<path d="M1.86343 1.86681L2.21768 2.21966H2.21768L1.86343 1.86681ZM6.03245 1.86681L5.6782 2.21966L6.03245 1.86681ZM1.86343 6.05236L2.21768 5.69951H2.21768L1.86343 6.05236ZM12.0665 16.2959L12.4208 16.6488L12.7723 16.2959L12.4208 15.9431L12.0665 16.2959ZM2.45304 25.9476L2.09879 25.5947L2.45304 25.9476ZM6.62207 30.1331L6.26781 29.7803L6.62207 30.1331ZM16.2356 20.4815L16.5898 20.1286L16.2356 19.773L15.8813 20.1286L16.2356 20.4815ZM25.378 29.6601L25.7322 29.3073L25.378 29.6601ZM29.547 29.6601L29.9012 30.013L29.547 29.6601ZM29.547 25.4746L29.9012 25.1217L29.547 25.4746ZM20.4046 16.2959L20.0503 15.9431L19.6989 16.2959L20.0503 16.6488L20.4046 16.2959ZM30.1366 6.52535L29.7823 6.1725L30.1366 6.52535ZM30.1366 2.3398L30.4908 1.98695V1.98694L30.1366 2.3398ZM25.9676 2.3398L26.3218 2.69265V2.69265L25.9676 2.3398ZM16.2356 12.1104L15.8813 12.4632L16.2356 12.8189L16.5898 12.4632L16.2356 12.1104ZM2.21768 2.21966C3.1735 1.26005 4.72237 1.26005 5.6782 2.21966L6.3867 1.51395C5.04004 0.161949 2.85584 0.161948 1.50917 1.51395L2.21768 2.21966ZM2.21768 5.69951C1.26077 4.7388 1.26076 3.18037 2.21768 2.21966L1.50917 1.51395C0.163598 2.86486 0.163601 5.05431 1.50917 6.40522L2.21768 5.69951ZM12.4208 15.9431L2.21768 5.69951L1.50917 6.40522L11.7123 16.6488L12.4208 15.9431ZM2.80729 26.3004L12.4208 16.6488L11.7123 15.9431L2.09879 25.5947L2.80729 26.3004ZM2.80729 29.7803C1.85038 28.8196 1.85038 27.2611 2.80729 26.3004L2.09879 25.5947C0.753216 26.9456 0.753215 29.1351 2.09879 30.486L2.80729 29.7803ZM6.26781 29.7803C5.31199 30.7399 3.76312 30.7399 2.80729 29.7803L2.09879 30.486C3.44546 31.838 5.62965 31.838 6.97632 30.486L6.26781 29.7803ZM15.8813 20.1286L6.26781 29.7803L6.97632 30.486L16.5898 20.8344L15.8813 20.1286ZM25.7322 29.3073L16.5898 20.1286L15.8813 20.8344L25.0237 30.013L25.7322 29.3073ZM29.1927 29.3073C28.2369 30.2669 26.688 30.2669 25.7322 29.3073L25.0237 30.013C26.3704 31.365 28.5546 31.365 29.9012 30.013L29.1927 29.3073ZM29.1927 25.8274C30.1496 26.7881 30.1496 28.3466 29.1927 29.3073L29.9012 30.013C31.2468 28.6621 31.2468 26.4726 29.9012 25.1217L29.1927 25.8274ZM20.0503 16.6488L29.1927 25.8274L29.9012 25.1217L20.7588 15.9431L20.0503 16.6488ZM29.7823 6.1725L20.0503 15.9431L20.7588 16.6488L30.4908 6.87821L29.7823 6.1725ZM29.7823 2.69265C30.7393 3.65336 30.7393 5.21179 29.7823 6.1725L30.4908 6.87821C31.8364 5.5273 31.8364 3.33786 30.4908 1.98695L29.7823 2.69265ZM26.3218 2.69265C27.2776 1.73304 28.8265 1.73304 29.7823 2.69265L30.4908 1.98694C29.1442 0.63494 26.96 0.634941 25.6133 1.98695L26.3218 2.69265ZM16.5898 12.4632L26.3218 2.69265L25.6133 1.98695L15.8813 11.7575L16.5898 12.4632ZM5.6782 2.21966L15.8813 12.4632L16.5898 11.7575L6.3867 1.51395L5.6782 2.21966Z" fill="black"/>
</svg>
