<svg width="68" height="57" viewBox="0 0 68 57" fill="none" xmlns="http://www.w3.org/2000/svg">
<path d="M16.0715 55.805C15.7501 55.8036 15.4938 55.6096 15.3018 55.4159C13.252 53.7355 11.2025 51.9909 9.21726 50.2465C8.76867 49.9231 8.57722 49.6008 8.57863 49.2794C8.58003 48.958 8.77458 48.5731 9.16225 48.1248C10.4547 46.5876 11.7471 45.0504 13.1041 43.4492L32.6834 20.392C37.5301 14.6275 42.441 8.8633 47.2876 3.0988C48.0629 2.20219 48.5146 1.81845 48.9646 1.82042C49.4146 1.82239 49.9275 2.14606 50.6958 2.85656C52.361 4.27812 54.0905 5.69997 55.8197 7.1861C56.396 7.7029 56.6517 8.02545 56.65 8.41115C56.6486 8.73257 56.3898 9.11716 55.9373 9.69375C50.0573 16.5466 44.2417 23.3997 38.3617 30.2525C32.9338 36.6574 27.5058 43.0622 22.0775 49.5313C20.5268 51.3245 18.9761 53.1177 17.4897 54.9112C17.102 55.3595 16.7789 55.7438 16.2001 55.8056L16.0715 55.805ZM13.7409 30.1449C7.37671 30.1171 1.35451 25.3979 0.358567 17.9364C0.233653 17.1001 0.173023 16.2642 0.176677 15.4285C0.196635 10.8643 1.9503 6.75769 4.66654 3.041C5.5073 1.88754 6.60323 1.18519 7.89088 0.740821C8.1483 0.677661 8.34171 0.549934 8.59885 0.551058L9.49883 0.554994C11.3631 0.563146 13.1642 0.313882 14.965 0.128899C15.4152 0.0665833 15.8652 0.068551 16.3152 0.0705186C18.3723 0.0795138 20.2992 0.473651 22.16 1.25322C27.3581 3.33308 30.0403 7.3948 30.2735 12.8601L30.2696 13.7601C30.2328 22.1813 24.096 28.9687 15.7342 30.025C15.0911 30.0865 14.5125 30.084 13.8694 30.1454L13.7409 30.1449ZM15.8823 10.8686C14.918 10.8644 13.7595 11.1807 12.665 11.5617C12.2787 11.6885 11.8922 11.8797 11.6976 12.2646C11.2431 13.2912 10.9812 14.3829 10.9764 15.4757C10.9739 16.0543 11.0357 16.6331 11.226 17.2125C11.6058 18.5642 12.567 19.2755 13.9809 19.346C16.8737 19.3586 19.5203 16.8631 19.5344 13.6488C19.5355 13.3917 19.5366 13.1346 19.4735 12.8771C19.3486 12.0409 18.9011 11.4604 18.0665 11.1996C17.4248 10.9396 16.718 10.8722 15.8823 10.8686ZM67.8912 39.8316C67.8575 47.5458 62.101 55.5563 52.1344 56.0913L51.363 56.0879C45.5131 56.0623 40.7718 52.4416 38.8021 47.1616C38.1031 45.2942 37.7901 43.3643 37.7983 41.5C37.8081 39.2501 38.2679 37.0021 39.1135 34.7558C39.8288 32.8947 40.7366 31.0986 41.9007 29.4966C42.8709 28.1508 44.0322 27.1916 45.6416 26.6844C46.0279 26.5575 46.4779 26.5595 46.9279 26.5614L47.7635 26.5651C48.535 26.5685 49.3067 26.5076 50.0783 26.4466C51.3652 26.1951 52.6511 26.1365 53.8725 26.1418C55.8653 26.1505 57.857 26.4164 59.7822 27.1962C64.7239 29.0821 67.8542 33.5958 67.8951 38.9317L67.8912 39.8316ZM48.6598 42.1261C48.7796 44.1195 49.9317 45.2817 51.6674 45.2893C52.0531 45.2909 52.5033 45.2286 52.9539 45.102C55.5926 44.4064 57.0805 42.2915 57.0923 39.5916L57.0945 39.0773C56.9713 37.8553 56.5235 37.3391 55.3036 37.0123C54.8541 36.8818 54.3401 36.8153 53.8901 36.8133C53.1187 36.8099 52.411 36.9354 51.6391 37.0606C49.9666 37.3104 49.0626 38.2065 48.7982 39.8767C48.7317 40.3907 48.6648 40.969 48.6626 41.4833L48.6598 42.1261Z" fill="#C4C3E2"/>
</svg>
