<svg width="76" height="75" viewBox="0 0 76 75" fill="none" xmlns="http://www.w3.org/2000/svg">
<path d="M30.5271 23.6489C26.5048 21.8724 24.4761 16.8409 25.277 12.4533C26.078 8.05969 29.235 4.3934 32.9942 2.1042C35.935 0.315765 39.6299 -0.751335 42.7753 0.631722C45.5464 1.84786 47.3237 4.76301 47.9961 7.76162C48.6684 10.7662 48.3995 13.89 48.1306 16.9601C52.9597 12.7573 59.5193 9.12679 65.4242 11.5114C67.9907 12.5487 70.0428 14.6113 71.7032 16.8588C74.9012 21.1928 76.9416 26.8323 75.5618 32.0724C74.1821 37.3125 68.4818 41.4498 63.4539 39.6852C68.2304 40.6092 70.8087 46.0639 71.2764 50.994C71.8844 57.4324 70.037 64.2165 65.7223 68.9619C61.4135 73.7131 54.5674 76.1335 48.4287 74.4822C42.29 72.8308 37.3557 66.8575 37.4024 60.3893C37.4083 59.4116 37.7649 58.1716 38.7237 58.1001C40.0976 61.0033 37.1393 64.0675 34.3682 65.6235C28.8609 68.7055 22.5 70.5118 16.2677 69.713C10.0355 68.9142 4.002 65.236 1.18404 59.513C0.254461 57.6291 -0.318484 55.4473 0.190152 53.4025C0.967722 50.2906 3.95523 48.3472 6.81411 46.9999C10.398 45.3068 14.7243 44.0728 18.1853 46.0282C14.8997 45.0266 11.5672 43.6615 9.24036 41.0921C7.14151 38.779 6.04239 35.6374 5.80853 32.4957C5.16543 23.7621 11.7368 15.0823 20.1848 13.5144C23.5231 12.8944 27.1946 13.3535 29.884 15.4578C32.5733 17.5682 33.9589 21.5385 32.5382 24.6802C31.369 24.9127 30.2172 25.2525 29.1005 25.6877" fill="#E4D47F"/>
</svg>
