<svg width="72" height="79" viewBox="0 0 72 79" fill="none" xmlns="http://www.w3.org/2000/svg">
<path d="M29.2689 78.5444C29.2855 78.6963 29.3021 78.8481 29.3187 79C30.8998 75.2664 32.7341 71.6341 34.5434 68.0102C36.2199 64.6563 37.884 61.294 39.295 57.8177C39.8843 56.3623 40.3988 54.8013 41.0462 53.3248C41.5525 52.1731 42.1376 51.072 42.9012 50.1059C42.9759 50.0131 43.0548 49.9329 43.1378 49.8612C43.1668 49.7136 43.1876 49.5659 43.2083 49.4182C43.6565 49.4351 44.1005 49.4689 44.5404 49.5364C45.9846 49.76 47.3914 50.3379 48.7774 50.7935C51.508 51.6921 54.2428 52.6076 57.0398 53.2742C60.5007 54.0968 64.1817 55.1473 67.7837 55.0165C68.9582 54.9743 70.1243 54.8056 71.2738 54.4638C71.5933 54.3668 71.834 54.1854 72 53.9618C70.9127 53.2024 69.5765 52.6498 68.5224 52.055C68.1033 51.8187 67.6842 51.574 67.2733 51.3251C66.4184 50.9032 65.5843 50.4434 64.7668 49.9287C63.7957 49.317 62.8247 48.7095 61.8536 48.0978C59.9073 47.1317 58.015 46.0433 56.1849 44.9084C53.5456 43.2715 51.0142 41.3309 48.2504 39.9008C47.7856 39.6603 47.3125 39.4283 46.8311 39.2216C47.9059 38.3609 49.0762 37.6058 50.2963 36.9266C51.7487 35.5006 53.641 34.5641 55.4545 33.7077C57.8822 32.5602 60.1854 31.3621 62.4512 29.9024C64.439 28.6241 66.4018 27.2783 68.3979 25.9874C69.4935 25.2787 70.5974 24.5826 71.722 23.9287C71.5103 23.6755 71.224 23.4941 70.8671 23.4562C66.2773 22.9794 61.8661 24.2451 57.3884 25.0466C54.915 25.4896 52.421 25.8144 49.9435 26.2532C49.1509 26.3924 48.2628 26.6793 47.3582 26.9155C47.6071 25.2491 47.9765 23.5996 48.2877 21.9416C48.6903 19.8154 49.0596 17.6849 49.3833 15.546C49.4289 15.2507 49.4538 14.9385 49.4787 14.6179C50.5909 10.2051 51.9188 5.84295 53.4169 1.54828C49.8854 3.84748 47.3955 7.39122 44.4823 10.3992C41.1749 13.8121 37.6018 17.0395 34.1035 20.271C33.4271 19.1826 33.0163 17.8621 32.4187 16.7652C31.8916 15.7949 31.3397 14.8373 30.7712 13.8881C27.3019 9.0534 23.2018 4.70389 19.579 0C19.4006 0.134999 19.2387 0.312186 19.1059 0.535779C18.6453 1.32046 18.4959 2.17687 18.5208 3.05436C18.5623 4.50561 19.0769 6.01169 19.4255 7.3406C20.2886 10.627 21.0854 13.9345 21.8739 17.242C23.2184 22.8824 24.2767 28.6368 26.447 34.0199C25.7457 34.2814 25.0361 34.5135 24.3223 34.7328C23.8492 34.8805 23.372 35.0239 22.8948 35.1589C15.2217 37.7323 7.58594 40.407 0 43.2251C0.219942 43.5837 0.556081 43.8622 0.975216 43.9339C1.63504 44.0478 2.29487 44.1448 2.9547 44.2334C6.86386 44.7692 10.7979 44.9548 14.7237 45.3598C18.3507 45.7353 21.932 46.5579 25.5714 46.6972C25.4345 46.9376 25.31 47.1612 25.1979 47.3553C24.8244 47.9965 24.4676 48.6462 24.119 49.3001C23.9488 49.6165 23.7828 49.9371 23.621 50.2578C22.7371 51.979 21.9071 53.734 21.0688 55.4806C20.0148 57.6785 18.7656 59.7752 17.8278 62.0323C16.8941 64.2808 15.8649 67.1285 16.8401 69.4404C19.5915 67.0146 22.3387 64.5804 25.1813 62.2643C26.1358 61.3404 27.1276 60.4502 28.107 59.577C29.2565 58.5476 30.435 57.5351 31.5638 56.4804C30.7172 58.9652 29.879 61.4543 29.4391 64.0572C28.634 68.8033 28.717 73.7519 29.2606 78.5359L29.2689 78.5444Z" fill="#FFB087"/>
</svg>
