<svg width="275" height="301" viewBox="0 0 275 301" fill="none" xmlns="http://www.w3.org/2000/svg">
<path d="M19.3295 123.78C23.5594 129.514 28.3063 134.744 33.4696 139.483C38.0841 143.715 43.4945 147.035 47.8434 151.577C52.0815 156.005 53.8602 161.633 49.7408 166.979C45.8081 172.091 39.6659 174.967 34.568 178.43C24.4161 185.315 14.4457 194.687 13.1811 208.404C11.9013 222.256 22.1052 231.854 32.946 236.629C52.6152 245.306 75.9735 243.677 95.4137 234.113C88.1488 241.704 81.777 250.234 78.8617 260.88C75.3753 273.585 77.9341 287.608 87.982 295.855C98.5333 304.516 111.997 299.973 120.534 290.289C125.722 284.397 129.31 277.23 133.337 270.438C136.57 264.999 141.473 257.678 148.334 260.301C154.33 262.589 157.541 269.367 160.292 275.039C163.549 281.721 167.15 288.529 173.716 291.884C184.502 297.396 197.542 292.514 204.916 282.939C213.815 271.4 215.01 255.769 213.832 241.442C213.186 233.686 211.594 226.031 211.056 218.271C210.628 212.13 211.244 202.802 218.537 202.034C224.79 201.39 231.239 206.072 236.639 208.77C242.706 211.792 249.092 214.263 255.886 213.793C261.87 213.377 267.568 210.712 271.188 205.375C274.376 200.664 275.064 194.665 274.46 189.019C272.97 175.116 263.762 162.635 254.539 153.568C248.979 148.105 242.836 143.484 236.153 139.798C231.488 137.221 223.988 134.041 222.398 127.99C220.599 121.117 228.779 116.324 232.576 112.403C236.83 108.02 240.023 102.552 242.033 96.5966C246.006 84.8008 245.282 70.7328 239.064 60.0351C232.863 49.3562 222.214 42.6176 210.731 40.9608C205.035 40.1393 199.134 40.7304 193.693 42.7519C188.287 44.7573 183.507 48.1841 178.308 50.6872C172.793 53.3444 166.936 54.2172 162.184 49.4192C156.83 44.012 154.28 35.5308 150.659 28.8117C143.727 15.9579 133.987 3.94351 119.882 0.964588C106.676 -1.83062 94.8959 4.96604 88.8804 17.9489C85.5691 25.0862 83.9001 32.8438 82.4548 40.6225C80.9414 48.758 79.6011 56.9298 78.4425 65.1295C77.4651 72.0595 76.6285 79.0062 75.916 85.9686C55.3766 77.0466 38.6625 48.5991 14.0165 59.4936C-12.7256 71.3201 7.83022 108.22 19.3207 123.789L19.3295 123.78Z" fill="#FFC698" fill-opacity="0.54"/>
</svg>
