<svg width="50" height="54" viewBox="0 0 50 54" fill="none" xmlns="http://www.w3.org/2000/svg">
<path opacity="0.87" d="M9.83827 18.2864C10.2544 17.0398 11.6097 13.5255 15.0212 11.5753C17.4682 10.1749 19.7133 10.1736 23.6585 10.5822C27.5251 10.9806 31.2508 11.9665 34.6724 13.4943C36.6375 14.3734 38.5341 15.4568 39.8773 17.0625C42.8542 20.6195 42.5852 25.9566 41.9518 30.8285C41.4725 34.5242 40.6944 38.5308 37.8719 41.3361C35.8314 43.3638 33.0468 44.4219 30.3747 45.4091C27.2579 46.5606 24.0859 47.7283 20.864 48.0148C17.6383 48.3029 14.2972 47.6002 12.2599 45.4399C10.6336 43.7183 10.0051 41.287 9.6413 38.8915C9.01966 34.8345 7.29101 35.6407 7.90813 31.4383C8.28731 28.8661 7.90466 28.61 8.06352 26.4803C8.19393 24.7228 8.5844 21.9682 9.84726 18.2869L9.83827 18.2864Z" fill="#FFFCBF" fill-opacity="0.34"/>
<path opacity="0.87" d="M19.5993 15.7551C20.2868 15.1282 22.3386 13.4351 25.1351 13.5777C27.1416 13.6789 28.5417 14.5915 30.8611 16.4577C33.1349 18.2853 35.1191 20.4309 36.7276 22.7988C37.6509 24.1598 38.4613 25.6235 38.7473 27.1955C39.3817 30.6785 37.3813 33.9777 35.3134 36.8316C33.7455 38.9969 31.8845 41.2393 29.1615 41.8825C27.1931 42.3474 25.0936 41.8902 23.0887 41.4335C20.7501 40.9008 18.3716 40.356 16.2645 39.228C14.1545 38.0996 12.3129 36.2914 11.7846 34.0827C11.3618 32.3215 11.8049 30.513 12.4007 28.835C13.4063 25.9909 12.0517 25.8025 13.8796 23.3696C14.9993 21.8811 14.8487 21.5618 15.679 20.2662C16.3639 19.1968 17.5532 17.5964 19.6047 15.7591L19.5993 15.7551Z" fill="#FFFCBF" fill-opacity="0.8"/>
<path d="M19.2706 34.4312L19.2704 34.4311C17.147 32.4782 16.2015 29.0196 17.3747 26.4123L17.6645 26.0621L20.7139 24.1802L23.1811 23.5116L23.2517 23.4924L23.3148 23.453L26.356 21.5542L26.4004 21.5265L26.4387 21.4901L27.7453 20.2487L28.2993 20.9925L29.8005 23.7137L31.79 27.4715L32.4088 29.2899C32.9396 31.3506 32.2723 33.1727 31.1766 34.501L31.1764 34.5012C30.1644 35.7294 28.8607 36.304 27.2753 36.5465L27.2753 36.5465C24.4395 36.9805 21.4029 36.3938 19.2706 34.4312Z" fill="#FF8D5D" stroke="#70686A"/>
<path d="M18.8826 24.787C17.7721 27.1163 18.6118 30.1288 20.4556 31.7972C22.3002 33.4676 24.9144 33.9327 27.3273 33.5502C28.6931 33.3337 29.8732 32.8264 30.7979 31.7213C31.7787 30.5502 32.3958 28.9238 31.924 27.096L31.0778 25.7962L29.203 22.8194L28.0936 20.5161L27.7659 20.039L26.7335 21.0144L24.2971 22.6508L21.9403 23.6562L19.2057 24.4026L18.8826 24.787Z" fill="#FFE24C" fill-opacity="0.29"/>
<path d="M20.9967 23.9729C20.1338 25.7751 20.7818 28.1033 22.2093 29.3912C23.6375 30.6808 25.6633 31.0374 27.5338 30.7391C28.5926 30.5702 29.5078 30.1767 30.2255 29.3213C30.9868 28.4148 31.4667 27.1566 31.1027 25.744L30.448 24.7399L28.9977 22.4405L28.1399 20.6608L27.8864 20.2923L27.0853 21.0476L25.1953 22.3154L23.3677 23.0954L21.2475 23.6754L20.9967 23.9729Z" fill="#FFE24C" fill-opacity="0.49"/>
<mask id="path-6-inside-1_404_1404" fill="white">
<path fill-rule="evenodd" clip-rule="evenodd" d="M16.7185 14.663C19.1985 14.5091 21.6998 15.0228 24.0493 15.8605L25.0091 16.0774C25.3339 16.1933 25.2425 16.4496 25.0019 16.5528L27.9763 18.6527C28.2329 18.3552 28.517 19.1421 28.2673 19.5781C26.6812 22.3582 23.7773 24.1623 21.017 25.1823C20.3936 25.4126 19.7375 25.6395 19.1327 25.8302C18.528 26.0209 17.8849 26.2015 17.2523 26.0835C16.304 25.9045 15.4861 25.1454 14.858 24.4035C14.3594 23.8119 14.0721 23.12 13.7756 22.4059C13.7388 22.3172 13.7018 22.2282 13.6643 22.1389C13.4225 21.5643 13.1204 20.996 12.811 20.4961C12.7651 20.4218 12.7188 20.3479 12.6726 20.274C12.4074 19.8501 12.1429 19.4274 11.945 18.9581C11.676 18.3219 11.4994 17.6088 11.4729 16.9065C11.4588 16.5496 11.7112 16.3853 11.9641 16.2206C11.9953 16.2002 12.0266 16.1799 12.0574 16.1591C12.3203 15.9784 12.5918 15.8123 12.874 15.666C14.0697 15.0404 15.4017 14.7445 16.7185 14.663Z"/>
</mask>
<path fill-rule="evenodd" clip-rule="evenodd" d="M16.7185 14.663C19.1985 14.5091 21.6998 15.0228 24.0493 15.8605L25.0091 16.0774C25.3339 16.1933 25.2425 16.4496 25.0019 16.5528L27.9763 18.6527C28.2329 18.3552 28.517 19.1421 28.2673 19.5781C26.6812 22.3582 23.7773 24.1623 21.017 25.1823C20.3936 25.4126 19.7375 25.6395 19.1327 25.8302C18.528 26.0209 17.8849 26.2015 17.2523 26.0835C16.304 25.9045 15.4861 25.1454 14.858 24.4035C14.3594 23.8119 14.0721 23.12 13.7756 22.4059C13.7388 22.3172 13.7018 22.2282 13.6643 22.1389C13.4225 21.5643 13.1204 20.996 12.811 20.4961C12.7651 20.4218 12.7188 20.3479 12.6726 20.274C12.4074 19.8501 12.1429 19.4274 11.945 18.9581C11.676 18.3219 11.4994 17.6088 11.4729 16.9065C11.4588 16.5496 11.7112 16.3853 11.9641 16.2206C11.9953 16.2002 12.0266 16.1799 12.0574 16.1591C12.3203 15.9784 12.5918 15.8123 12.874 15.666C14.0697 15.0404 15.4017 14.7445 16.7185 14.663Z" fill="#F9F5EF"/>
<path d="M24.0493 15.8605L23.7001 16.8275L23.7521 16.8461L23.8061 16.8582L24.0493 15.8605ZM16.7185 14.663L16.7381 15.6817L16.7382 15.6817L16.7185 14.663ZM25.0091 16.0774L25.3585 15.1105L25.3064 15.0919L25.2523 15.0797L25.0091 16.0774ZM25.0019 16.5528L24.6605 15.6111L22.9369 16.3498L24.4313 17.4048L25.0019 16.5528ZM27.9763 18.6527L27.4056 19.5048L28.1057 19.999L28.6928 19.3182L27.9763 18.6527ZM28.2673 19.5781L27.4318 19.0808L27.4309 19.0823L28.2673 19.5781ZM21.017 25.1823L21.3113 26.1428L21.3115 26.1427L21.017 25.1823ZM19.1327 25.8302L19.382 26.8061L19.382 26.8061L19.1327 25.8302ZM17.2523 26.0835L17.0413 27.0879L17.0432 27.0883L17.2523 26.0835ZM14.858 24.4035L14.1115 25.0939L14.1128 25.0955L14.858 24.4035ZM13.7756 22.4059L14.6766 21.9698L13.7756 22.4059ZM13.6643 22.1389L14.5635 21.6986L14.5635 21.6985L13.6643 22.1389ZM12.811 20.4961L11.9821 21.0728L12.811 20.4961ZM12.6726 20.274L13.4989 19.6932L13.4989 19.6932L12.6726 20.274ZM11.945 18.9581L12.8438 18.5169L12.8435 18.5161L11.945 18.9581ZM11.4729 16.9065L12.4512 16.8263L12.4512 16.8245L11.4729 16.9065ZM11.9641 16.2206L11.4692 15.3611L11.4692 15.3611L11.9641 16.2206ZM12.0574 16.1591L12.5657 17.0098L12.5735 17.0044L12.0574 16.1591ZM12.874 15.666L13.2819 16.5763L13.2852 16.5745L12.874 15.666ZM24.3985 14.8935C21.9735 14.0288 19.3431 13.4802 16.6988 13.6442L16.7382 15.6817C19.0538 15.538 21.4262 16.0167 23.7001 16.8275L24.3985 14.8935ZM25.2523 15.0797L24.2925 14.8627L23.8061 16.8582L24.7659 17.0752L25.2523 15.0797ZM25.3433 17.4945C25.6313 17.371 26.1034 17.0423 26.187 16.4226C26.2935 15.6327 25.705 15.2341 25.3585 15.1105L24.6597 17.0444C24.6377 17.0365 24.5244 16.9929 24.4151 16.8555C24.2902 16.6984 24.2142 16.4689 24.2481 16.2171C24.307 15.7804 24.6131 15.6314 24.6605 15.6111L25.3433 17.4945ZM28.5469 17.8007L25.5725 15.7007L24.4313 17.4048L27.4056 19.5048L28.5469 17.8007ZM29.1028 20.0753C29.4301 19.5038 29.3677 18.8583 29.2371 18.4697C29.175 18.2847 29.0319 17.9529 28.7112 17.7416C28.5257 17.6194 28.2537 17.5241 27.9325 17.5857C27.6201 17.6456 27.3971 17.8281 27.2598 17.9872L28.6928 19.3182C28.6197 19.403 28.4616 19.5449 28.2129 19.5926C27.9554 19.642 27.7458 19.5628 27.6191 19.4793C27.5035 19.4031 27.4444 19.3184 27.4228 19.2841C27.3977 19.2444 27.3883 19.2173 27.3861 19.211C27.3834 19.2028 27.3837 19.2014 27.3843 19.2056C27.3849 19.2096 27.3848 19.2122 27.3848 19.2115C27.3848 19.2112 27.3851 19.2007 27.39 19.181C27.3949 19.1614 27.4063 19.1254 27.4318 19.0808L29.1028 20.0753ZM21.3115 26.1427C24.179 25.0831 27.3421 23.1614 29.1037 20.0738L27.4309 19.0823C26.0202 21.555 23.3755 23.2415 20.7226 24.2219L21.3115 26.1427ZM19.382 26.8061C20.0042 26.6099 20.6755 26.3777 21.3113 26.1428L20.7227 24.2218C20.1117 24.4475 19.4708 24.6691 18.8834 24.8543L19.382 26.8061ZM17.0432 27.0883C17.9339 27.2545 18.791 26.9925 19.382 26.8061L18.8834 24.8543C18.2649 25.0494 17.836 25.1486 17.4614 25.0787L17.0432 27.0883ZM14.1128 25.0955C14.7603 25.8602 15.7576 26.8457 17.0413 27.0879L17.4632 25.079C16.8503 24.9634 16.212 24.4305 15.6032 23.7114L14.1128 25.0955ZM12.8747 22.8419C13.1625 23.5352 13.5015 24.3702 14.1115 25.0939L15.6045 23.713C15.2174 23.2537 14.9818 22.7048 14.6766 21.9698L12.8747 22.8419ZM12.7651 22.5792C12.8016 22.666 12.8377 22.7529 12.8747 22.8419L14.6766 21.9698C14.6399 21.8815 14.6021 21.7903 14.5635 21.6986L12.7651 22.5792ZM11.9821 21.0728C12.2687 21.5359 12.5461 22.0587 12.7651 22.5793L14.5635 21.6985C14.299 21.0699 13.9721 20.4561 13.6399 19.9193L11.9821 21.0728ZM11.8462 20.8547C11.8927 20.929 11.9377 21.0009 11.9821 21.0728L13.6399 19.9193C13.5925 19.8427 13.545 19.7667 13.4989 19.6932L11.8462 20.8547ZM11.0462 19.3993C11.2799 19.9536 11.5877 20.4416 11.8462 20.8547L13.4989 19.6932C13.227 19.2586 13.0059 18.9012 12.8438 18.5169L11.0462 19.3993ZM10.4946 16.9867C10.5265 17.8326 10.7369 18.6679 11.0465 19.4001L12.8435 18.5161C12.615 17.9759 12.4723 17.3849 12.4512 16.8263L10.4946 16.9867ZM11.4692 15.3611C11.3711 15.425 11.1136 15.5838 10.9067 15.8205C10.653 16.1106 10.4757 16.5063 10.4947 16.9885L12.4512 16.8245C12.4528 16.8674 12.4467 16.9347 12.4179 17.0114C12.3899 17.086 12.3527 17.1367 12.3301 17.1625C12.3107 17.1847 12.3034 17.187 12.3286 17.1681C12.356 17.1476 12.3905 17.1247 12.459 17.0801L11.4692 15.3611ZM11.5491 15.3084C11.5261 15.3239 11.5016 15.3399 11.4692 15.3611L12.459 17.0801C12.4891 17.0605 12.5271 17.0358 12.5657 17.0098L11.5491 15.3084ZM12.4661 14.7558C12.1417 14.924 11.834 15.1126 11.5413 15.3138L12.5735 17.0044C12.8065 16.8443 13.0419 16.7007 13.2819 16.5763L12.4661 14.7558ZM16.6989 13.6442C15.2865 13.7317 13.813 14.0511 12.4628 14.7575L13.2852 16.5745C14.3265 16.0298 15.5169 15.7573 16.7381 15.6817L16.6989 13.6442Z" fill="#70686A" mask="url(#path-6-inside-1_404_1404)"/>
<mask id="path-8-inside-2_404_1404" fill="white">
<path fill-rule="evenodd" clip-rule="evenodd" d="M27.5888 18.6281C27.5763 18.6047 27.564 18.5816 27.5516 18.5585C27.3005 18.0903 26.3934 18.1639 26.6476 18.64C27.0824 19.4523 27.6351 20.5402 28.1955 21.6432C28.8234 22.8789 29.4609 24.1336 29.9531 25.0412C30.5884 26.2129 31.2478 27.3734 31.9711 28.4857C32.5499 29.3773 33.1721 30.2704 33.9358 30.9866C35.0869 32.0676 36.5878 32.1048 37.9585 31.5311C38.5836 31.2691 39.1683 30.9052 39.7376 30.5237C40.3655 30.1026 40.9913 29.6763 41.5954 29.2168C42.4965 28.533 43.5326 27.6195 43.5272 26.3135C43.5201 24.9743 42.4819 23.8101 41.5995 23.0035C40.6108 22.1003 39.4604 21.5121 38.306 20.9219C37.8502 20.6889 37.3938 20.4556 36.9465 20.2024C36.512 19.9561 36.0811 19.6932 35.6493 19.4298C34.7296 18.8687 33.8052 18.3048 32.8306 17.8916C32.4061 17.7116 31.451 17.7705 31.5965 17.929L27.5888 18.6281Z"/>
</mask>
<path fill-rule="evenodd" clip-rule="evenodd" d="M27.5888 18.6281C27.5763 18.6047 27.564 18.5816 27.5516 18.5585C27.3005 18.0903 26.3934 18.1639 26.6476 18.64C27.0824 19.4523 27.6351 20.5402 28.1955 21.6432C28.8234 22.8789 29.4609 24.1336 29.9531 25.0412C30.5884 26.2129 31.2478 27.3734 31.9711 28.4857C32.5499 29.3773 33.1721 30.2704 33.9358 30.9866C35.0869 32.0676 36.5878 32.1048 37.9585 31.5311C38.5836 31.2691 39.1683 30.9052 39.7376 30.5237C40.3655 30.1026 40.9913 29.6763 41.5954 29.2168C42.4965 28.533 43.5326 27.6195 43.5272 26.3135C43.5201 24.9743 42.4819 23.8101 41.5995 23.0035C40.6108 22.1003 39.4604 21.5121 38.306 20.9219C37.8502 20.6889 37.3938 20.4556 36.9465 20.2024C36.512 19.9561 36.0811 19.6932 35.6493 19.4298C34.7296 18.8687 33.8052 18.3048 32.8306 17.8916C32.4061 17.7116 31.451 17.7705 31.5965 17.929L27.5888 18.6281Z" fill="#F9F5EF"/>
<path d="M27.5888 18.6281L26.7285 19.1503L27.0484 19.7504L27.7131 19.6344L27.5888 18.6281ZM27.5516 18.5585L28.411 18.0346L28.4107 18.0342L27.5516 18.5585ZM26.6476 18.64L25.7876 19.1627L25.7881 19.1636L26.6476 18.64ZM28.1955 21.6432L27.3263 22.1482L28.1955 21.6432ZM29.9531 25.0412L30.81 24.5129L30.81 24.5129L29.9531 25.0412ZM31.9711 28.4857L32.7888 27.8912L32.7884 27.8906L31.9711 28.4857ZM33.9358 30.9866L34.6068 30.2165L34.6063 30.216L33.9358 30.9866ZM37.9585 31.5311L38.292 32.4761L38.2925 32.4759L37.9585 31.5311ZM39.7376 30.5237L40.2437 31.3758L40.244 31.3756L39.7376 30.5237ZM41.5954 29.2168L41.0398 28.4L41.0389 28.4007L41.5954 29.2168ZM43.5272 26.3135L44.5062 26.2689L44.5062 26.2676L43.5272 26.3135ZM41.5995 23.0035L42.2613 22.2248L42.2611 22.2246L41.5995 23.0035ZM38.306 20.9219L37.8473 21.8417L38.306 20.9219ZM36.9465 20.2024L36.453 21.1034L36.4535 21.1037L36.9465 20.2024ZM35.6493 19.4298L36.1682 18.5438L36.1682 18.5438L35.6493 19.4298ZM32.8306 17.8916L33.2298 16.944L33.2297 16.944L32.8306 17.8916ZM31.5965 17.929L31.7208 18.9354L33.6004 18.6075L32.3166 17.2086L31.5965 17.929ZM28.449 18.1059C28.4363 18.082 28.4236 18.0582 28.411 18.0346L26.6923 19.0824C26.7043 19.1049 26.7164 19.1275 26.7285 19.1503L28.449 18.1059ZM28.4107 18.0342C28.0517 17.3646 27.3381 17.1878 26.8683 17.228C26.6355 17.248 26.213 17.3399 25.9046 17.7254C25.5032 18.2271 25.5976 18.8068 25.7876 19.1627L27.5075 18.1172C27.5327 18.1642 27.5857 18.2841 27.582 18.4624C27.5779 18.6576 27.5066 18.8474 27.388 18.9957C27.186 19.2482 26.9584 19.2617 26.9519 19.2622C26.907 19.2661 26.8804 19.2593 26.8564 19.2486C26.8304 19.2371 26.7526 19.1949 26.6925 19.0829L28.4107 18.0342ZM25.7881 19.1636C26.2168 19.9646 26.7642 21.0417 27.3263 22.1482L29.0647 21.1381C28.5061 20.0386 27.948 18.94 27.5071 18.1163L25.7881 19.1636ZM27.3263 22.1482C27.9519 23.3794 28.5962 24.6477 29.0961 25.5696L30.81 24.5129C30.3255 23.6194 29.6949 22.3783 29.0647 21.1381L27.3263 22.1482ZM29.0961 25.5696C29.7368 26.7512 30.4103 27.9373 31.1539 29.0808L32.7884 27.8906C32.0854 26.8094 31.4399 25.6746 30.81 24.5129L29.0961 25.5696ZM31.1535 29.0801C31.7372 29.9794 32.412 30.9571 33.2653 31.7573L34.6063 30.216C33.9322 29.5838 33.3626 28.7752 32.7888 27.8912L31.1535 29.0801ZM33.2648 31.7568C34.7525 33.154 36.6712 33.1545 38.292 32.4761L37.6249 30.5861C36.5044 31.0551 35.4212 30.9813 34.6068 30.2165L33.2648 31.7568ZM38.2925 32.4759C39.0104 32.175 39.6615 31.766 40.2437 31.3758L39.2314 29.6716C38.6752 30.0444 38.1568 30.3632 37.6244 30.5863L38.2925 32.4759ZM40.244 31.3756C40.8736 30.9534 41.5214 30.5125 42.1519 30.0329L41.0389 28.4007C40.4612 28.8401 39.8574 29.2518 39.2312 29.6718L40.244 31.3756ZM42.151 30.0336C42.6145 29.6819 43.1915 29.2144 43.6521 28.6219C44.1244 28.0146 44.5102 27.2293 44.5062 26.2689L42.5482 26.3581C42.5496 26.7037 42.4201 27.0281 42.1504 27.375C41.8691 27.7367 41.4775 28.0679 41.0398 28.4L42.151 30.0336ZM44.5062 26.2676C44.5012 25.3245 44.1352 24.5068 43.7042 23.8565C43.271 23.2031 42.7268 22.6503 42.2613 22.2248L40.9378 23.7822C41.3547 24.1633 41.7707 24.5958 42.079 25.061C42.3894 25.5292 42.5461 25.9633 42.5482 26.3594L44.5062 26.2676ZM42.2611 22.2246C41.1654 21.2236 39.9022 20.5837 38.7647 20.0022L37.8473 21.8417C39.0186 22.4405 40.0563 22.977 40.938 23.7824L42.2611 22.2246ZM38.7647 20.0022C38.3061 19.7677 37.8671 19.5431 37.4395 19.3011L36.4535 21.1037C36.9206 21.368 37.3944 21.6101 37.8473 21.8417L38.7647 20.0022ZM37.4401 19.3014C37.0206 19.0636 36.6023 18.8086 36.1682 18.5438L35.1303 20.3158C35.56 20.5779 36.0035 20.8485 36.453 21.1034L37.4401 19.3014ZM36.1682 18.5438C35.2591 17.9892 34.2771 17.3881 33.2298 16.944L32.4314 18.8391C33.3332 19.2214 34.2 19.7482 35.1303 20.3158L36.1682 18.5438ZM33.2297 16.944C32.8307 16.7748 32.3227 16.7494 31.9971 16.7637C31.8327 16.771 31.6094 16.7921 31.4064 16.8592C31.3509 16.8775 31.065 16.9663 30.8455 17.2433C30.7023 17.424 30.5745 17.7055 30.6077 18.0439C30.6377 18.3493 30.7853 18.5502 30.8764 18.6495L32.3166 17.2086C32.3895 17.288 32.5275 17.4699 32.5557 17.757C32.5872 18.0773 32.4653 18.3414 32.3352 18.5057C32.222 18.6486 32.1023 18.7207 32.0525 18.7483C31.9942 18.7806 31.9488 18.7966 31.9301 18.8028C31.8785 18.8198 31.8933 18.8078 32.0025 18.803C32.0916 18.7991 32.1958 18.8022 32.2906 18.8133C32.3954 18.8257 32.4383 18.842 32.4315 18.8391L33.2297 16.944ZM27.7131 19.6344L31.7208 18.9354L31.4722 16.9226L27.4645 17.6217L27.7131 19.6344Z" fill="#70686A" mask="url(#path-8-inside-2_404_1404)"/>
<path d="M27.796 19.5487C29.6613 19.7263 31.5697 19.3271 33.2401 18.4133C33.7145 18.1531 34.1761 17.8463 34.5335 17.4207C35.7028 16.0279 35.4274 13.7799 34.5665 12.1468C34.1847 11.4205 33.6953 10.7473 33.0634 10.2701C31.9937 9.46689 30.6359 9.30766 29.3406 9.16898C28.3084 9.05983 27.1976 8.96859 26.3017 9.5356C25.7141 9.90701 25.296 10.5185 24.8964 11.1121C24.3392 11.9427 23.7675 12.8234 23.6649 13.8422C23.5803 14.7043 23.842 15.5604 24.1552 16.3587C24.4787 17.1831 24.8653 17.9937 25.4462 18.6307C26.027 19.2677 27.796 19.5487 27.796 19.5487Z" fill="#70686A"/>
<path d="M28.8771 3.93368C29.616 4.30563 30.0109 5.18045 30.0743 6.02647C30.1463 6.99533 29.8064 7.94173 29.4061 8.7862C29.1736 9.27451 29.9062 9.58748 30.1374 9.1029C30.6239 8.07923 30.979 6.91853 30.8401 5.75178C30.7013 4.58504 30.1184 3.61799 29.1687 3.1396C28.7082 2.90769 28.4166 3.70177 28.8761 3.93107L28.8771 3.93368Z" fill="#70686A"/>
<path d="M36.9658 6.48116C35.0753 6.68028 33.379 8.02675 32.6095 9.90237C32.4031 10.4064 33.1358 10.7193 33.3408 10.2191C34.0002 8.61411 35.4616 7.49723 37.0716 7.32607C37.577 7.27424 37.4677 6.42783 36.9658 6.48116Z" fill="#70686A"/>
</svg>
