<svg width="347" height="325" viewBox="0 0 347 325" fill="none" xmlns="http://www.w3.org/2000/svg">
<path d="M187.476 96.0489C182.85 90.2585 177.611 84.7689 170.337 81.6356C163.37 78.6276 155.818 79.0537 148.851 81.8361C135.056 87.3508 123.602 98.0793 115.019 109.008C98.4928 130.115 82.4407 164.431 101.391 187.768C105.962 196.441 112.483 204.212 120.509 210.629C131.155 219.126 145.423 225.919 159.998 225.393C175.298 224.842 186.975 215.091 197.23 205.841C203.166 200.502 208.824 194.887 214.118 189.046C219.302 183.331 224.848 177.315 227.885 170.372C233.375 157.788 226.381 146.032 218.494 135.78C208.266 122.469 197.955 109.184 187.476 96.0489Z" fill="#E4D47F"/>
<path d="M286.593 77.5679C278.296 77.0802 269.998 77.4387 261.773 78.5432C254.425 79.533 247.192 81.9284 239.8 82.4448C232.596 82.9469 226.398 80.3219 225.276 72.5761C224.198 65.1746 226.815 57.4575 228.08 50.2425C230.611 35.8841 230.899 19.8188 220.387 8.35788C209.774 -3.21776 193.324 -1.2096 180.41 5.00137C156.97 16.2614 139.182 38.6094 131.288 63.3816C130.856 51.1031 128.9 38.925 122.329 28.2817C114.492 15.5729 100.586 7.33945 85.4005 10.2226C69.4529 13.2492 62.2341 28.8412 63.3845 43.845C64.0891 52.9678 67.1808 61.6029 69.5967 70.3528C71.5236 77.367 73.6663 87.3074 65.8291 91.5389C58.9841 95.2397 50.6436 93.0451 43.6118 91.2664C35.3144 89.1865 26.6288 87.3218 18.4177 90.7357C4.92915 96.3442 -1.65696 111.807 0.356262 125.678C2.77213 142.403 14.9521 155.241 27.9805 164.952C35.0412 170.202 42.7921 174.519 49.7665 179.87C55.2884 184.101 62.6367 191.675 57.3017 198.847C52.7144 204.986 43.4823 207.295 36.7812 210.15C29.2604 213.363 21.9409 217.279 16.764 223.777C12.2055 229.5 9.77526 236.658 11.2996 243.944C12.6513 250.37 17.1379 255.506 22.3867 259.206C35.3144 268.315 53.3759 269.376 68.5757 267.856C77.7359 266.938 86.6659 264.858 95.2509 261.587C101.247 259.307 110.077 254.917 116.476 258.03C123.738 261.573 121.063 272.575 121.25 278.958C121.452 286.101 123.436 293.101 126.801 299.398C133.473 311.863 145.912 321.789 160.019 324.214C174.097 326.638 188.506 322.076 199.32 312.939C204.684 308.406 209.027 302.626 211.788 296.185C214.534 289.788 215.57 282.888 217.727 276.304C220.013 269.319 224.083 263.366 232.02 262.678C240.965 261.903 250.197 265.977 258.825 267.755C275.334 271.155 293.438 271.384 307.516 260.87C320.703 251.03 324.643 235.266 318.647 220.061C315.353 211.699 310.191 204.355 304.827 197.197C299.219 189.71 293.438 182.351 287.485 175.136C282.452 169.04 277.289 163.058 272.012 157.177C296.372 145.315 334.033 151.597 345.077 121.116C357.056 88.039 309.127 78.8732 286.593 77.5535V77.5679ZM207.445 173.415C204.957 184.402 196.919 193.037 188.29 199.793C183.833 203.279 179.13 206.478 174.356 209.504C168.906 212.961 163.025 216.232 156.525 217.064C142.777 218.842 136.206 207.08 127.319 199.119C118.403 191.13 108.696 184.374 103.721 173.085C95.9843 155.528 99.1767 133.667 112.248 119.567C116.174 110.846 124.486 104.334 133.632 101.422C147.738 96.9323 163.111 101.25 175.952 107.518C181.632 110.301 187.255 113.686 191.583 118.377C195.696 122.852 198.385 128.26 200.571 133.868C205.302 146.089 210.465 160.189 207.459 173.415H207.445Z" fill="#E4D47F"/>
</svg>
