<svg width="131" height="137" viewBox="0 0 131 137" fill="none" xmlns="http://www.w3.org/2000/svg">
<path d="M8.80884 125.08C8.66468 125.318 8.52053 125.556 8.37637 125.795C14.7953 122.136 21.4679 118.903 28.0953 115.655C34.2317 112.651 40.3595 109.621 46.2476 106.147C48.7107 104.691 51.1827 102.999 53.7531 101.576C55.76 100.468 57.8248 99.5205 59.998 98.9654C60.2088 98.9135 60.4115 98.8846 60.6108 98.8725C60.8163 98.6908 61.0098 98.4999 61.2032 98.309C61.8323 98.8287 62.4368 99.3683 62.9978 99.9522C64.8376 101.872 66.2311 104.263 67.73 106.455C70.6819 110.774 73.621 115.122 76.9258 119.178C81.0174 124.194 85.1747 129.783 90.5258 133.574C92.2699 134.811 94.1422 135.855 96.182 136.631C96.7513 136.843 97.3001 136.847 97.7875 136.706C97.0568 134.405 95.7372 132.128 94.8723 130.102C94.5281 129.297 94.1932 128.479 93.8749 127.665C93.1064 126.109 92.4099 124.522 91.7981 122.873C91.0718 120.914 90.3408 118.961 89.6145 117.002C87.871 113.452 86.341 109.785 84.9523 106.119C82.9497 100.832 81.4395 95.2248 79.0281 90.0996C78.6226 89.2377 78.1957 88.3789 77.7288 87.5476C80.2351 87.4892 82.7626 87.689 85.278 88.0538C88.9561 87.5941 92.7281 88.3292 96.2974 89.0932C101.077 90.1145 105.732 90.9248 110.623 91.3152C114.912 91.6609 119.239 91.8814 123.553 92.218C125.921 92.4024 128.287 92.6144 130.637 92.9103C130.611 92.3099 130.398 91.7308 129.924 91.2814C123.818 85.5189 116.041 82.4766 108.682 78.6889C104.616 76.597 100.652 74.3112 96.5852 72.2086C95.2854 71.5343 93.6842 70.9682 92.1151 70.3106C94.3199 68.1728 96.68 66.1924 98.9655 64.1355C101.901 61.5015 104.794 58.8247 107.63 56.0853C108.023 55.7081 108.404 55.2836 108.795 54.8468C115.288 49.686 122.037 44.8371 128.957 40.2738C121.308 39.7004 113.785 42.0802 106.244 43.2164C97.6853 44.5033 88.9478 45.228 80.3136 46.0413C80.541 43.7176 81.4091 41.3516 81.7598 39.1029C82.0723 37.1154 82.3348 35.1188 82.564 33.116C82.9023 22.2813 81.7917 11.4521 81.7633 0.637081C81.3559 0.635362 80.9258 0.713078 80.4863 0.89009C78.9518 1.51728 77.7877 2.59227 76.8522 3.89042C75.3054 6.03772 74.3817 8.78725 73.4143 11.0968C71.0234 16.8094 68.5131 22.4793 65.9909 28.14C61.6895 37.7934 56.8481 47.2952 54.0252 57.4886C52.722 57.0923 51.4394 56.6441 50.1648 56.173C49.3176 55.864 48.469 55.5443 47.6298 55.2123C33.6901 50.4591 19.6924 45.8937 5.60787 41.5911C5.52876 42.3534 5.70634 43.128 6.23274 43.6951C7.06032 44.5892 7.90659 45.4589 8.7622 46.3164C13.8192 51.4123 19.2999 56.0286 24.5257 60.9535C29.3523 65.5054 33.6178 70.6544 38.724 74.878C38.2598 75.0749 37.8324 75.2611 37.4556 75.4182C36.2058 75.934 34.9706 76.4804 33.7428 77.042C33.1466 77.3122 32.5517 77.593 31.9628 77.8784C28.7796 79.394 25.6369 81.018 22.4916 82.6207C18.5346 84.6385 14.4079 86.2942 10.5534 88.526C6.71436 90.7501 2.07408 93.7362 0.924055 98.1616C7.58646 97.6896 14.2522 97.2008 20.9251 96.9885C23.3276 96.7055 25.7467 96.5126 28.1291 96.3303C30.9302 96.1101 33.7546 95.9465 36.5538 95.6667C32.5791 98.3292 28.6118 101.007 25.0941 104.29C18.6759 110.273 13.3171 117.53 8.80618 125.058L8.80884 125.08Z" fill="#FFB087"/>
</svg>
