<svg width="196" height="214" viewBox="0 0 196 214" fill="none" xmlns="http://www.w3.org/2000/svg">
<path d="M79.6765 212.766C79.7217 213.177 79.7669 213.589 79.8121 214C84.1162 203.886 89.1094 194.047 94.0348 184.23C98.5987 175.145 103.129 166.037 106.97 156.62C108.574 152.678 109.975 148.449 111.737 144.449C113.115 141.33 114.708 138.347 116.787 135.73C116.99 135.478 117.205 135.261 117.431 135.067C117.51 134.667 117.566 134.267 117.623 133.867C118.843 133.913 120.051 134.004 121.249 134.187C125.18 134.793 129.01 136.358 132.783 137.593C140.216 140.027 147.661 142.507 155.275 144.312C164.696 146.541 174.717 149.386 184.522 149.032C187.719 148.918 190.894 148.461 194.023 147.535C194.893 147.272 195.548 146.781 196 146.175C193.04 144.118 189.403 142.621 186.533 141.01C185.392 140.37 184.251 139.707 183.133 139.033C180.806 137.89 178.535 136.644 176.31 135.25C173.666 133.593 171.023 131.947 168.379 130.29C163.081 127.673 157.93 124.725 152.948 121.651C145.763 117.217 138.872 111.96 131.348 108.086C130.083 107.434 128.795 106.806 127.485 106.246C130.411 103.914 133.596 101.869 136.918 100.029C140.871 96.1663 146.023 93.6293 150.96 91.3094C157.568 88.201 163.838 84.9555 170.006 81.0014C175.417 77.5387 180.761 73.8932 186.194 70.3962C189.177 68.4763 192.182 66.5907 195.243 64.8194C194.667 64.1337 193.887 63.6423 192.916 63.5395C180.422 62.2481 168.413 65.6765 156.224 67.8478C149.491 69.0477 142.702 69.9277 135.957 71.1162C133.8 71.4933 131.382 72.2704 128.919 72.9104C129.597 68.3963 130.603 63.928 131.45 59.4368C132.546 53.6771 133.551 47.906 134.432 42.112C134.557 41.3121 134.624 40.4664 134.692 39.5979C137.72 27.6442 141.335 15.8277 145.413 4.19406C135.799 10.4223 129.021 20.0218 121.091 28.1699C112.087 37.4151 102.361 46.1575 92.8373 54.9114C90.996 51.9629 89.8776 48.386 88.2508 45.4147C86.8161 42.7863 85.3137 40.1921 83.766 37.6208C74.3218 24.5244 63.1606 12.7422 53.2984 0C52.8127 0.365695 52.3721 0.845669 52.0106 1.45135C50.7567 3.57695 50.35 5.89683 50.4178 8.27384C50.5307 12.2051 51.9315 16.2848 52.8805 19.8847C55.2302 28.787 57.3992 37.7466 59.5456 46.7061C63.2058 61.9853 66.0865 77.573 71.9947 92.1551C70.0855 92.8636 68.1538 93.4922 66.2107 94.0864C64.9229 94.4864 63.6237 94.8749 62.3246 95.2406C41.4368 102.212 20.6506 109.457 0 117.091C0.598732 118.062 1.51378 118.817 2.65475 119.011C4.45095 119.319 6.24715 119.582 8.04334 119.822C18.685 121.274 29.3944 121.776 40.0812 122.873C49.9546 123.891 59.7037 126.119 69.6111 126.496C69.2383 127.148 68.8994 127.753 68.5944 128.279C67.5776 130.016 66.6061 131.776 65.6572 133.547C65.194 134.404 64.7421 135.273 64.3016 136.141C61.8953 140.804 59.636 145.558 57.354 150.289C54.4846 156.243 51.0843 161.923 48.5312 168.037C45.9894 174.128 43.1878 181.842 45.8425 188.104C53.3323 181.533 60.8108 174.939 68.5492 168.665C71.1474 166.163 73.8474 163.751 76.5134 161.386C79.6427 158.597 82.851 155.855 85.9237 152.998C83.6191 159.729 81.3372 166.471 80.1397 173.522C77.9481 186.379 78.1741 199.784 79.654 212.743L79.6765 212.766Z" fill="#C4C3E2"/>
</svg>
