<svg width="66" height="73" viewBox="0 0 66 73" fill="none" xmlns="http://www.w3.org/2000/svg">
<path d="M26.8299 72.579C26.8451 72.7193 26.8603 72.8597 26.8755 73C28.3248 69.55 30.0062 66.1935 31.6648 62.8449C33.2016 59.7457 34.727 56.6387 36.0204 53.4265C36.5606 52.0816 37.0323 50.6392 37.6257 49.2748C38.0898 48.2106 38.6262 47.1931 39.3261 46.3004C39.3946 46.2146 39.4669 46.1406 39.5429 46.0743C39.5696 45.9378 39.5886 45.8014 39.6076 45.665C40.0184 45.6805 40.4255 45.7117 40.8287 45.7741C42.1525 45.9807 43.4421 46.5148 44.7126 46.9358C47.2157 47.7662 49.7225 48.6121 52.2865 49.228C55.459 49.9882 58.8332 50.9589 62.1351 50.838C63.2116 50.799 64.2806 50.6431 65.3343 50.3274C65.6272 50.2377 65.8478 50.0701 66 49.8635C65.0033 49.1618 63.7784 48.6511 62.8122 48.1014C62.428 47.8831 62.0438 47.657 61.6672 47.427C60.8836 47.0372 60.119 46.6123 59.3696 46.1367C58.4794 45.5714 57.5893 45.01 56.6991 44.4448C54.915 43.5521 53.1804 42.5463 51.5028 41.4977C49.0835 39.9851 46.763 38.1919 44.2295 36.8703C43.8035 36.6481 43.3698 36.4337 42.9285 36.2427C43.9138 35.4475 44.9865 34.7497 46.1049 34.122C47.4363 32.8044 49.1709 31.939 50.8333 31.1476C53.0587 30.0873 55.1699 28.9801 57.2469 27.6313C59.069 26.4501 60.8684 25.2066 62.6981 24.0137C63.7024 23.3588 64.7142 22.7155 65.7451 22.1113C65.5511 21.8774 65.2886 21.7098 64.9615 21.6747C60.7542 21.2342 56.7105 22.4037 52.606 23.1443C50.3388 23.5537 48.0526 23.8538 45.7816 24.2593C45.055 24.3879 44.2409 24.653 43.4116 24.8713C43.6399 23.3315 43.9784 21.8072 44.2637 20.2752C44.6327 18.3104 44.9713 16.3418 45.268 14.3653C45.3099 14.0924 45.3327 13.804 45.3555 13.5077C46.375 9.43004 47.5923 5.39918 48.9655 1.43068C45.7283 3.55527 43.4459 6.82986 40.7754 9.60937C37.7436 12.7631 34.4684 15.7453 31.2616 18.7314C30.6415 17.7257 30.2649 16.5055 29.7171 15.4919C29.234 14.5953 28.7281 13.7104 28.2069 12.8333C25.0267 8.3658 21.2684 4.34663 17.9474 0C17.7839 0.124746 17.6355 0.288476 17.5138 0.495087C17.0915 1.22018 16.9546 2.01153 16.9774 2.82239C17.0154 4.16341 17.4871 5.55511 17.8067 6.78308C18.5979 9.81988 19.3283 12.8762 20.0511 15.9324C21.2836 21.1445 22.2536 26.4618 24.2431 31.4361C23.6002 31.6778 22.9497 31.8922 22.2954 32.0949C21.8618 32.2313 21.4243 32.3639 20.9869 32.4886C13.9532 34.8666 6.95378 37.3381 0 39.9422C0.201614 40.2736 0.509741 40.5309 0.893948 40.5971C1.49879 40.7024 2.10363 40.7921 2.70847 40.8739C6.29187 41.369 9.8981 41.5405 13.4967 41.9148C16.8214 42.2617 20.1043 43.0219 23.4405 43.1505C23.3149 43.3727 23.2008 43.5794 23.0981 43.7587C22.7557 44.3512 22.4286 44.9516 22.109 45.5558C21.9531 45.8482 21.8009 46.1445 21.6526 46.4407C20.8423 48.0312 20.0815 49.6529 19.3131 51.2668C18.3469 53.2979 17.2018 55.2353 16.3421 57.3209C15.4862 59.3987 14.5428 62.0301 15.4368 64.1664C17.9588 61.9249 20.4771 59.6755 23.0829 57.5354C23.9578 56.6816 24.867 55.8591 25.7647 55.0521C26.8184 54.1009 27.8988 53.1653 28.9335 52.1908C28.1575 54.4869 27.389 56.7869 26.9858 59.1921C26.2478 63.5778 26.3239 68.1505 26.8222 72.5712L26.8299 72.579Z" fill="#F9F5EF"/>
</svg>
