<svg width="148" height="148" viewBox="0 0 148 148" fill="none" xmlns="http://www.w3.org/2000/svg">
<path d="M84.0768 19.6788C84.046 18.7782 84.0152 17.8776 83.987 16.9744C83.987 16.9744 83.987 16.9744 83.987 16.977C79.3017 13.4464 74.3599 10.1313 69.2025 7.05225C69.223 7.05225 69.2461 7.05225 69.2666 7.05225C67.6091 7.06251 65.9541 7.06764 64.2966 7.05994C64.5891 7.05994 64.879 7.05994 65.1715 7.05994C71.8479 10.8831 78.1702 15.1013 84.0768 19.6788Z" fill="#231F20"/>
<path d="M62.408 34.715C63.6525 35.4693 64.8841 36.2263 66.1003 36.9781L69.9747 36.9781C67.532 35.436 65.0534 33.8708 62.5209 32.3467C62.4696 33.1344 62.4311 33.9247 62.4054 34.7124L62.408 34.715Z" fill="#231F20"/>
<path d="M62.3642 36.9805L63.6163 36.9805C63.2007 36.7085 62.785 36.434 62.3745 36.1543C62.3719 36.4288 62.3668 36.7034 62.3642 36.9805Z" fill="#231F20"/>
<path d="M75.0063 29.6239C71.1011 27.3274 67.2138 24.9489 63.5087 22.4087C63.4214 23.1759 63.3342 23.9431 63.247 24.7103C66.1746 26.6655 69.1946 28.5283 72.2506 30.3449C76.0275 32.59 79.8147 34.8916 83.7584 36.9776L84.6539 36.9776C84.636 36.3644 84.618 35.7537 84.6 35.1405C81.3286 33.3829 78.17 31.4816 75.0063 29.6213L75.0063 29.6239Z" fill="#231F20"/>
<path d="M84.5153 32.4898C84.487 31.6302 84.4588 30.7707 84.4306 29.9111C81.5594 27.9097 78.6292 25.9622 75.6374 24.0763C71.8604 21.6926 67.9937 19.4013 64.0448 17.2075C63.9807 17.9388 63.9088 18.6675 63.8344 19.3988C65.6716 20.4302 67.4882 21.4822 69.2869 22.5548C74.5366 25.6877 79.6145 29.0053 84.5127 32.4898L84.5153 32.4898Z" fill="#231F20"/>
<path d="M62.5265 32.3486C62.5675 31.7174 62.6137 31.0887 62.6676 30.4575C62.6163 31.0862 62.5675 31.7174 62.5265 32.3486Z" fill="#231F20"/>
<path d="M83.7867 9.64897C82.5422 8.76888 81.3004 7.88623 80.0559 7.00101C78.8012 6.99844 77.5465 7.00101 76.2944 7.00614C78.8397 8.76888 81.3773 10.5368 83.8508 12.3508C83.8277 11.4502 83.8046 10.5496 83.7841 9.64897L83.7867 9.64897Z" fill="#231F20"/>
<path d="M62.4083 34.7148C62.4083 34.7148 62.4083 34.7354 62.4083 34.7456C62.4032 34.9355 62.3955 35.1254 62.3904 35.3153C62.3827 35.5616 62.3775 35.8079 62.375 36.0542C62.375 36.0876 62.375 36.1184 62.375 36.1517C62.7855 36.4288 63.2012 36.7034 63.6168 36.9779L66.1031 36.9779C64.8844 36.2261 63.6553 35.4692 62.4109 34.7148L62.4083 34.7148Z" fill="#C6E1DF"/>
<path d="M83.9864 16.9798C83.9864 16.9798 83.9864 16.9798 83.9864 16.9773C83.9377 15.4352 83.8915 13.8931 83.8505 12.3536C81.377 10.537 78.8393 8.76909 76.294 7.00635C76.294 7.00635 76.2889 7.00635 76.2863 7.00635C75.1111 7.01148 73.936 7.01918 72.7608 7.02944C71.5959 7.03714 70.431 7.04483 69.2661 7.05253C69.2456 7.05253 69.2225 7.05253 69.202 7.05253C74.3593 10.1316 79.3012 13.4467 83.9864 16.9798Z" fill="#C6E1DF"/>
<path d="M63.2499 24.7104C63.1806 25.3211 63.1139 25.9344 63.0472 26.545C63.042 26.5835 63.0395 26.622 63.0343 26.6579C62.9702 27.2583 62.9086 27.8562 62.8496 28.4566C62.847 28.4925 62.8419 28.5259 62.8393 28.5618C62.7803 29.1699 62.7239 29.7806 62.6726 30.3913C62.6726 30.4144 62.67 30.4349 62.6674 30.458C62.6161 31.0866 62.5674 31.7178 62.5263 32.349C65.0588 33.8706 67.5374 35.4383 69.9801 36.9804L83.7614 36.9804C79.8176 34.8943 76.0304 32.5928 72.2535 30.3476C69.1975 28.531 66.175 26.6656 63.2499 24.713L63.2499 24.7104Z" fill="#C6E1DF"/>
<path d="M84.4313 29.9116C84.4184 29.5011 84.403 29.0905 84.3877 28.68C84.3415 27.374 84.2978 26.0654 84.2517 24.7594C84.1926 23.0659 84.1311 21.3699 84.0746 19.6764C78.1706 15.1015 71.8483 10.8832 65.1719 7.06006C64.8794 7.06006 64.5895 7.06006 64.297 7.06006C64.3201 7.4398 64.338 7.81955 64.3509 8.1993C64.356 8.3045 64.3586 8.4097 64.3611 8.51233C64.3714 8.82024 64.3765 9.12814 64.3817 9.43604C64.3817 9.51302 64.3842 9.59256 64.3842 9.66954C64.3868 10.0493 64.3868 10.4316 64.3842 10.8113C64.3842 10.8832 64.3842 10.955 64.3817 11.0243C64.3765 11.3476 64.3714 11.6709 64.3611 11.9942C64.3611 12.0814 64.356 12.1661 64.3534 12.2534C64.3278 13.0334 64.2918 13.816 64.2431 14.596C64.238 14.6601 64.2354 14.7243 64.2303 14.7884C64.2072 15.1579 64.1815 15.5274 64.1533 15.8969C64.1533 15.9174 64.1507 15.9405 64.1482 15.961C64.1174 16.3767 64.0814 16.7924 64.0455 17.208C67.9944 19.4018 71.8586 21.6932 75.6381 24.0768C78.6273 25.9627 81.5575 27.9102 84.4313 29.9116Z" fill="#C6E1DF"/>
<path d="M83.7326 7.13184C83.7326 7.09591 83.7326 7.06256 83.7326 7.02664C83.7249 7.02664 83.7147 7.02664 83.707 7.02664C83.0501 7.01894 82.3907 7.01124 81.7338 7.00867C81.1796 7.00611 80.6254 7.00354 80.0737 7.00098C80.0686 7.00098 80.0634 7.00098 80.0583 7.00098C81.3002 7.88363 82.5446 8.76629 83.7865 9.64894C83.7685 8.80991 83.7506 7.97087 83.7352 7.13184L83.7326 7.13184Z" fill="#C6E1DF"/>
<path d="M75.0065 29.6242C78.1676 31.4845 81.3287 33.3858 84.6002 35.1434C84.5977 35.0408 84.5951 34.9407 84.59 34.8381C84.59 34.797 84.5874 34.756 84.5874 34.7175C84.5643 33.9759 84.5412 33.2344 84.5181 32.4929C79.6199 29.011 74.5421 25.6908 69.2923 22.5579C67.4936 21.4853 65.6744 20.4333 63.8399 19.4019C63.7372 20.4051 63.6269 21.4084 63.5114 22.4116C67.2165 24.9518 71.1038 27.3304 75.009 29.6268L75.0065 29.6242Z" fill="#C6E1DF"/>
<path d="M85.2902 71.6149C78.4393 69.2235 71.9451 66.1624 65.8512 62.6754C64.6632 61.9954 63.4958 61.2975 62.336 60.5894C62.3462 61.3873 62.3591 62.1853 62.3719 62.9833C69.4614 67.2247 77.123 70.9195 85.2696 73.6829C85.2773 72.9927 85.285 72.3051 85.2902 71.6149Z" fill="#231F20"/>
<path d="M85.1463 80.1946C85.1668 79.4531 85.1874 78.7141 85.2028 77.9726C81.4335 76.0662 77.6258 74.2059 73.7821 72.397C70.0437 70.6368 66.2693 68.9279 62.4641 67.2627C62.4846 67.9965 62.5103 68.7329 62.5385 69.4668C63.4648 69.8747 64.3936 70.2827 65.3173 70.6984C72.0348 73.7158 78.6444 76.8821 85.1437 80.1921L85.1463 80.1946Z" fill="#231F20"/>
<path d="M62.9905 112.678C62.9263 113.64 62.8648 114.603 62.8006 115.565C68.9305 118.641 75.2425 121.459 81.8265 123.853C82.3653 124.096 82.9067 124.335 83.4481 124.576C83.4481 124.576 83.4481 124.579 83.4481 124.581C83.4583 123.837 83.4712 123.09 83.484 122.346C83.2403 122.259 82.9965 122.172 82.7527 122.085C76.0712 119.08 69.4821 115.945 62.9879 112.681L62.9905 112.678Z" fill="#231F20"/>
<path d="M84.6309 92.1206C84.6797 91.2226 84.7258 90.3245 84.7772 89.429C84.8028 88.9826 84.8208 88.5361 84.8439 88.0897C81.7802 86.994 78.7577 85.824 75.7838 84.577C74.7806 84.0074 73.7748 83.4429 72.7638 82.881C69.536 81.09 66.2696 79.3427 62.9699 77.6338C63.0366 78.7397 63.1059 79.8456 63.1726 80.9489C66.8854 82.8245 70.688 84.5821 74.5753 86.2115C77.9699 88.1333 81.3209 90.1064 84.6309 92.1181L84.6309 92.1206Z" fill="#231F20"/>
<path d="M63.5935 101.622C63.5473 102.877 63.4909 104.131 63.4268 105.389C69.9979 109.687 76.7179 113.836 83.5816 117.831C83.6021 117.061 83.6226 116.289 83.6457 115.519C78.6218 112.576 73.6722 109.548 68.8048 106.438C73.6389 108.712 78.6269 110.777 83.7355 112.624C83.7586 111.939 83.7817 111.254 83.8048 110.569C79.3967 108.948 75.0809 107.162 70.8806 105.217C68.4097 104.072 65.9823 102.874 63.5961 101.625L63.5935 101.622Z" fill="#231F20"/>
<path d="M84.3122 98.4176C84.3455 97.7326 84.3789 97.0449 84.4122 96.3598C78.1772 94.0018 72.091 91.3846 66.1895 88.5237C65.294 88.0875 64.4011 87.6462 63.5133 87.1997C63.5492 87.9618 63.58 88.7213 63.6057 89.4833C70.282 92.7804 77.1996 95.7645 84.3096 98.4176L84.3122 98.4176Z" fill="#231F20"/>
<path d="M84.9308 46.4354C80.8306 43.8003 76.7047 41.1985 72.5736 38.6121C71.7115 38.0733 70.8468 37.5268 69.977 36.9777L66.1025 36.9777C66.2001 37.0392 66.3027 37.1008 66.4002 37.1598C70.9802 39.9849 75.5218 42.8483 80.03 45.7452C74.2209 43.2666 68.7172 40.3184 63.6162 36.9751L62.3641 36.9751C62.3564 37.5165 62.3538 38.0579 62.3461 38.6019C69.2611 43.1075 76.8971 46.8973 85.0206 49.8095C84.9924 48.6831 84.9616 47.5567 84.9308 46.4329L84.9308 46.4354Z" fill="#231F20"/>
<path d="M85.2697 63.1341C85.2568 61.7871 85.2414 60.44 85.2183 59.0955C82.6884 57.9177 80.256 56.663 77.957 55.4417C72.5815 52.5807 67.3317 49.5556 62.277 46.3354C62.2693 47.7569 62.2667 49.1759 62.2642 50.5973C66.3824 52.7758 70.4929 54.967 74.5726 57.189C78.1597 59.1442 81.7262 61.1225 85.2645 63.1341L85.2697 63.1341Z" fill="#231F20"/>
<path d="M62.4721 120.735C62.4157 121.679 62.3592 122.621 62.3105 123.565C69.2665 126.547 76.297 129.413 83.3993 132.163C83.3993 130.814 83.4044 129.466 83.4147 128.117C76.2841 125.972 69.3127 123.46 62.4721 120.735Z" fill="#231F20"/>
<path d="M62.5619 126.947C62.6056 127.674 62.6363 128.4 62.6517 129.128C69.364 131.92 76.3047 134.358 83.4147 136.421C83.4095 135.741 83.4044 135.063 83.4018 134.383C76.2611 132.282 69.2947 129.798 62.5619 126.945L62.5619 126.947Z" fill="#231F20"/>
<path d="M84.4124 96.3596C84.4842 94.9459 84.5561 93.5346 84.6305 92.1208C81.318 90.1066 77.967 88.1361 74.5749 86.2142C70.6876 84.5824 66.8824 82.8247 63.1722 80.9517C63.2312 81.9421 63.2902 82.9351 63.3467 83.9281C63.3518 84.0102 63.357 84.0948 63.3595 84.1769C63.416 85.1853 63.4673 86.1937 63.5135 87.2021C64.4013 87.6486 65.2916 88.0899 66.1897 88.5261C72.0911 91.3896 78.1774 94.0068 84.4124 96.3622L84.4124 96.3596Z" fill="#C6E1DF"/>
<path d="M63.4264 105.389C63.3648 106.6 63.2955 107.811 63.2211 109.025C63.2211 109.033 63.2211 109.04 63.2211 109.048C63.1467 110.259 63.0697 111.47 62.9902 112.681C69.4818 115.943 76.0735 119.078 82.755 122.085C82.9987 122.172 83.2425 122.26 83.4862 122.347C83.5119 120.841 83.5427 119.337 83.5812 117.831C76.7175 113.839 69.9975 109.687 63.4264 105.389Z" fill="#C6E1DF"/>
<path d="M66.4001 37.1626C66.3026 37.1011 66.2025 37.0395 66.1024 36.9805L63.6161 36.9805C68.717 40.3238 74.2208 43.272 80.0299 45.7506C75.5217 42.8512 70.9801 39.9902 66.4001 37.1652L66.4001 37.1626Z" fill="#C6E1DF"/>
<path d="M85.2183 59.0929C85.1952 57.5636 85.1644 56.0369 85.131 54.5077C85.131 54.4435 85.1285 54.382 85.1259 54.3178C85.0951 52.8809 85.0592 51.4415 85.0233 50.0046C85.0233 49.9405 85.0207 49.8763 85.0181 49.8122C76.8946 46.8999 69.2586 43.1101 62.3436 38.6045C62.3282 39.8181 62.318 41.0318 62.3077 42.2454C62.3077 42.3455 62.3077 42.443 62.3051 42.5431C62.2949 43.6413 62.2897 44.7395 62.282 45.8402C62.282 46.0044 62.282 46.1686 62.2795 46.3329C67.3317 49.5556 72.5814 52.5807 77.9594 55.4391C80.2559 56.6604 82.6883 57.9152 85.2208 59.0929L85.2183 59.0929Z" fill="#C6E1DF"/>
<path d="M83.6453 115.519C83.6735 114.554 83.7018 113.589 83.7325 112.624C78.6239 110.777 73.6385 108.711 68.8018 106.438C73.6692 109.548 78.6188 112.576 83.6427 115.519L83.6453 115.519Z" fill="#C6E1DF"/>
<path d="M81.8291 123.853C75.2451 121.461 68.9305 118.641 62.8032 115.565C62.7493 116.378 62.6954 117.189 62.6441 118.003C62.6364 118.105 62.6313 118.21 62.6236 118.313C62.5774 119.044 62.5312 119.776 62.4876 120.504C62.4825 120.581 62.4773 120.656 62.4722 120.733C69.3128 123.458 76.2842 125.97 83.4148 128.115C83.425 126.937 83.4353 125.759 83.4532 124.579C83.4532 124.579 83.4532 124.576 83.4532 124.574C82.9119 124.332 82.3705 124.094 81.8316 123.85L81.8291 123.853Z" fill="#C6E1DF"/>
<path d="M63.6804 98.682C63.6779 98.8154 63.6753 98.9489 63.6727 99.0823C63.6522 99.929 63.6265 100.776 63.5957 101.622C65.982 102.872 68.4093 104.073 70.8802 105.215C75.0805 107.16 79.3963 108.945 83.8045 110.567C83.9456 106.516 84.1201 102.467 84.3151 98.4177C77.2051 95.7646 70.2875 92.7805 63.6111 89.4834C63.6317 90.0248 63.6471 90.5636 63.6625 91.105C63.6625 91.1743 63.665 91.241 63.6676 91.3103C63.6804 91.7875 63.6907 92.2674 63.701 92.7446C63.7035 92.955 63.7061 93.1654 63.7086 93.3758C63.7138 93.7273 63.7189 94.0789 63.7215 94.4304C63.724 95.0103 63.7266 95.5927 63.7215 96.1726C63.7163 97.0065 63.701 97.843 63.683 98.6769L63.6804 98.682Z" fill="#C6E1DF"/>
<path d="M84.9308 46.4357C84.9308 46.4357 84.9308 46.4357 84.9308 46.4331C84.8487 43.4439 84.7589 40.4521 84.6691 37.4603C84.3637 37.3038 84.0635 37.1421 83.7608 36.9805L69.977 36.9805C70.8468 37.5296 71.7115 38.0761 72.5736 38.6149C76.7046 41.1987 80.8305 43.8031 84.9308 46.4382L84.9308 46.4357Z" fill="#C6E1DF"/>
<path d="M62.3055 123.635C62.4056 124.733 62.4954 125.836 62.5621 126.947C69.2949 129.798 76.2612 132.284 83.402 134.386C83.3994 133.644 83.3968 132.905 83.3968 132.164C76.2945 129.413 69.2641 126.547 62.308 123.565C62.308 123.589 62.3055 123.612 62.3029 123.637L62.3055 123.635Z" fill="#C6E1DF"/>
<path d="M62.6516 129.128C62.6824 130.437 62.6618 131.748 62.5669 133.052C62.5618 133.118 62.5566 133.185 62.5515 133.254C62.5335 133.493 62.5105 133.734 62.4874 133.973C62.4771 134.068 62.4668 134.165 62.4566 134.26C62.4335 134.473 62.4053 134.689 62.377 134.902C62.3642 135.004 62.3488 135.109 62.3334 135.212C62.3026 135.428 62.2667 135.643 62.2308 135.859C62.2154 135.954 62.2 136.046 62.182 136.141C62.1256 136.446 62.0666 136.752 61.9998 137.054C62.0101 137.701 62.0281 138.348 62.0486 138.994C63.234 139.02 64.422 139.074 65.6074 139.148C67.5857 139.271 69.5614 139.456 71.5346 139.677C73.0279 139.695 74.5187 139.715 76.0094 139.746C76.5072 139.756 77.0024 139.766 77.5002 139.779C78.4932 139.805 79.4887 139.833 80.4817 139.869C81.4747 139.905 82.4677 139.949 83.4581 140C83.4376 138.807 83.4248 137.614 83.4145 136.421C76.3045 134.358 69.3639 131.923 62.6516 129.128Z" fill="#C6E1DF"/>
<path d="M85.2903 71.6141C85.298 70.2517 85.3006 68.8892 85.298 67.5267C85.298 67.4138 85.298 67.3009 85.298 67.188C85.2954 65.882 85.2852 64.576 85.2749 63.2699C85.2749 63.2238 85.2749 63.1801 85.2749 63.134C81.7366 61.1223 78.17 59.1415 74.583 57.1889C70.5007 54.9643 66.3927 52.773 62.2745 50.5972C62.2745 51.68 62.2771 52.7628 62.2822 53.8455C62.2822 54.2663 62.2848 54.6846 62.2874 55.1054C62.2925 55.7879 62.2976 56.4704 62.3028 57.1529C62.3105 58.033 62.3207 58.9106 62.331 59.7906C62.3335 60.0575 62.3361 60.3243 62.3412 60.5912C63.4984 61.3019 64.6685 61.9998 65.8565 62.6772C71.9427 66.1642 78.4394 69.2227 85.2903 71.6141Z" fill="#C6E1DF"/>
<path d="M75.7838 84.577C78.7576 85.824 81.7802 86.9941 84.8438 88.0897C84.908 86.7965 84.967 85.5059 85.0157 84.2127C85.0157 84.1665 85.0183 84.1203 85.0209 84.0741C85.0568 83.1376 85.0876 82.201 85.1158 81.2645C85.1209 81.1157 85.1261 80.9669 85.1286 80.818C85.1338 80.6102 85.1415 80.4024 85.1466 80.1945C85.1466 80.1945 85.1466 80.1945 85.144 80.1945C78.6447 76.8846 72.0325 73.7157 65.3176 70.7008C64.3939 70.2852 63.4651 69.8772 62.5388 69.4692C62.5619 70.0722 62.5901 70.6752 62.6184 71.2782C62.6286 71.4757 62.6363 71.6707 62.6466 71.8683C62.6671 72.2891 62.6876 72.7099 62.7107 73.1307C62.721 73.336 62.7313 73.5438 62.7441 73.7491C62.7723 74.2674 62.8005 74.7857 62.8313 75.304C62.8519 75.6478 62.8724 75.9917 62.8929 76.338C62.9083 76.5921 62.9237 76.8461 62.9391 77.0975C62.9494 77.2771 62.9596 77.4568 62.9724 77.6364C66.2696 79.3452 69.5359 81.0926 72.7663 82.8835C73.7773 83.4455 74.7831 84.01 75.7864 84.5796L75.7838 84.577Z" fill="#C6E1DF"/>
<path d="M85.2028 77.9725C85.2233 77.0617 85.2362 76.1533 85.2516 75.2425C85.2567 74.914 85.2618 74.5856 85.2644 74.2572C85.2644 74.0673 85.2695 73.8749 85.2721 73.685C77.1255 70.9216 69.4664 67.2267 62.3769 62.9854C62.3949 64.0374 62.418 65.0868 62.4411 66.1388C62.4436 66.2543 62.4462 66.3697 62.4488 66.4852C62.4513 66.6032 62.4565 66.7212 62.459 66.8393C62.4642 66.983 62.4667 67.1241 62.4719 67.2678C66.277 68.933 70.0514 70.6444 73.7899 72.4021C77.6335 74.211 81.4387 76.0712 85.2105 77.9777L85.2028 77.9725Z" fill="#C6E1DF"/>
<path d="M85.1336 54.5078C85.1669 56.0371 85.1952 57.5638 85.2208 59.093C85.1977 57.5638 85.1669 56.0371 85.1336 54.5078Z" fill="#231F20"/>
<path d="M84.6543 36.9805L83.7588 36.9805C84.0616 37.1396 84.3618 37.3012 84.6671 37.4603C84.662 37.3012 84.6569 37.1421 84.6517 36.9805L84.6543 36.9805Z" fill="#231F20"/>
<path d="M85.0157 84.2129C84.9644 85.5035 84.908 86.7967 84.8438 88.0899C84.908 86.7967 84.967 85.5061 85.0157 84.2129Z" fill="#231F20"/>
</svg>
