<svg width="108" height="112" viewBox="0 0 108 112" fill="none" xmlns="http://www.w3.org/2000/svg">
<g clip-path="url(#clip0_530_496)">
<path d="M68.8426 87.7048C68.9167 85.79 68.3795 83.8942 67.6533 82.1455C66.6473 79.7188 65.4604 77.3553 64.2107 75.0468C62.6099 72.097 60.8545 69.1984 58.927 66.4322C61.4139 65.3238 63.525 63.398 65.0735 61.1041C67.4897 57.5191 69.1289 52.8527 68.8696 48.5157C68.8093 47.5062 68.5918 46.5281 68.2313 45.6314C69.5206 43.2861 70.7513 40.9078 71.9137 38.4979C72.9315 36.3867 74.1937 34.1751 74.4505 31.8109C74.6636 29.844 73.9302 27.8086 71.9415 27.107C71.4439 26.9311 70.936 26.8741 70.4303 26.8957C70.9887 24.8169 71.481 22.7301 71.8582 20.6341C72.2644 18.3772 72.3731 15.8608 71.2334 13.8002C70.1998 11.9325 68.2986 10.8246 66.1978 10.5728C61.3487 9.988 57.4669 13.7429 54.416 17.0083C48.2549 23.6019 43.9455 31.8376 41.9009 40.5881C40.9849 44.5112 40.417 48.646 41.1246 52.6344C37.9982 52.768 35.0105 54.2454 33.2656 57.0153C31.0038 60.6079 31.1292 65.1758 33.7015 68.5348C34.686 69.8192 35.9218 70.8212 37.3044 71.5225C37.3282 71.6847 37.3503 71.8449 37.3763 72.0053C37.7867 74.5873 38.4775 77.1729 39.8801 79.3987C42.0694 82.8771 46.3836 85.2344 50.4841 83.6653C50.9599 83.4831 51.4014 83.2575 51.8124 82.9928C51.8867 83.1072 51.9592 83.2195 52.0356 83.3321C54.3598 86.8169 57.2466 91.0031 61.3571 92.5205C64.9974 93.8636 68.6904 91.7026 68.8465 87.705L68.8426 87.7048ZM65.7162 54.7389C64.5223 58.3194 62.472 61.9173 59.131 63.8981C59.0778 63.9301 59.0188 63.9598 58.9637 63.9897C59.4973 63.1268 59.7865 62.1115 59.7214 61.0037C59.6535 59.8801 58.2681 59.8589 57.7373 60.5984C57.9003 60.2909 58.0611 59.9853 58.2203 59.6736C58.7903 59.2404 59.3294 58.7719 59.8275 58.2734C62.6404 55.4619 64.756 51.9131 66.7066 48.3953C66.8876 50.5592 66.3123 52.9605 65.7183 54.7371L65.7162 54.7389ZM53.1211 67.3996C53.2927 67.4142 53.4663 67.4269 53.6403 67.4357C54.1743 69.8508 54.3465 72.3631 53.9858 74.7816C53.7466 76.394 53.2084 78.1585 52.2424 79.5356C52.0555 79.2084 51.8705 78.8833 51.6915 78.5565C50.3759 76.1812 49.2386 73.6973 48.3086 71.138C50.1191 70.1935 51.7245 68.9011 53.1231 67.3978L53.1211 67.3996ZM56.7242 63.4235C56.6109 63.2773 56.4977 63.1311 56.3826 62.9828C56.8087 62.2799 57.2164 61.5601 57.607 60.8335C57.5497 60.9789 57.5204 61.1437 57.533 61.3269C57.5841 62.1613 57.2574 62.8723 56.7224 63.4214L56.7242 63.4235ZM54.1244 59.5354C53.9468 59.6067 53.7676 59.6721 53.5869 59.7315C53.1527 59.2948 52.694 58.8723 52.2155 58.4819C51.4181 57.3817 50.499 56.3954 49.4618 55.5528C49.5392 55.3165 49.6201 55.0882 49.7121 54.8684C51.0613 51.5878 53.6135 48.3856 56.3174 46.0908C58.0222 44.6418 60.4751 43.098 62.7581 43.4355C61.9539 45.5795 61.1116 47.7054 60.2272 49.817C59.0479 52.6337 57.8479 55.4942 56.4709 58.2497C55.7503 58.7598 54.9722 59.1959 54.1265 59.5336L54.1244 59.5354ZM51.9244 62.3339C52.1208 62.748 52.305 63.1692 52.4708 63.599C52.5738 63.8642 52.6743 64.1351 52.7689 64.4076C52.7192 64.4731 52.6694 64.5387 52.6176 64.606C52.3782 64.552 52.1464 64.4729 51.9361 64.3677C50.9749 63.8945 50.2792 63.1887 49.801 62.3474C50.5118 62.4209 51.2224 62.4139 51.9244 62.3339ZM50.502 59.8873C50.5663 59.9775 50.6303 60.0717 50.6924 60.1638C50.1228 60.1461 49.5618 60.0623 49.0209 59.917C48.9791 59.591 48.9553 59.2601 48.9493 58.9284C49.4932 59.1993 50.0098 59.5235 50.502 59.8873ZM50.5598 66.8625C49.6611 67.7008 48.6753 68.4396 47.5895 69.0388C47.3411 68.249 47.1128 67.4526 46.9043 66.6535C46.6619 65.723 46.4513 64.7865 46.2647 63.8437C47.364 65.2803 48.8683 66.2851 50.5598 66.8625ZM65.805 45.4888C64.7593 47.3571 63.6758 49.2034 62.5453 51.0213C62.1381 51.6783 61.7147 52.3422 61.2744 52.9952C61.6628 52.0763 62.0473 51.1571 62.4256 50.2434C63.2422 48.2865 64.0187 46.3133 64.7667 44.3286C65.1882 44.6664 65.5334 45.0564 65.805 45.4888ZM70.75 29.0956C74.7531 29.4653 69.8125 37.8069 69.0448 39.3474C68.3591 40.7282 67.6507 42.0959 66.9194 43.4543C66.5172 42.9823 66.054 42.5674 65.5403 42.2297C66.3318 40.0458 67.0831 37.8456 67.7884 35.6308C68.4679 33.5046 69.1493 31.351 69.781 29.1787C70.1004 29.1005 70.4263 29.0677 70.75 29.0956ZM66.2883 31.2815C66.51 31.1129 66.7428 30.9274 66.9897 30.7368C66.3261 32.9993 65.6201 35.2513 64.8702 37.4869C64.4337 38.7812 63.9801 40.0686 63.5148 41.3553C62.8816 41.2102 62.1989 41.1561 61.473 41.213C57.64 41.5185 54.3106 44.5882 51.9702 47.4035C50.2639 49.4583 48.5758 51.7572 47.5844 54.2738C47.4919 54.223 47.4014 54.1704 47.3068 54.1214C48.367 50.7679 50.4181 47.7994 52.5438 45.0257C55.2139 41.5407 58.1848 38.2978 61.4317 35.3407C62.9912 33.9199 64.611 32.5636 66.2864 31.2794L66.2883 31.2815ZM43.0585 47.1531C43.5815 39.7316 46.3559 32.2615 50.2991 25.9656C52.3259 22.7289 54.7128 19.7008 57.4401 17.0193C60.0113 14.4927 64.1196 11.1694 67.8595 13.3813C71.6576 15.6302 69.4128 21.7647 68.5631 25.0547C68.344 25.9097 68.1113 26.7618 67.8786 27.6139C67.4214 27.8385 66.9855 28.0957 66.5787 28.3568C62.4365 31.0467 58.7098 34.6877 55.3623 38.2935C52.0717 41.8419 48.8518 45.7242 46.6425 50.0474C46.1303 51.0528 45.66 52.1313 45.2852 53.2471C44.8499 53.1045 44.406 52.9731 43.9462 52.874C43.751 52.8325 43.5555 52.7949 43.3595 52.7651C42.9822 50.9086 42.9351 48.9609 43.0627 47.1494L43.0585 47.1531ZM35.9242 67.7531C33.4905 65.0713 33.1331 61.0947 35.2078 58.0434C36.7203 55.8139 39.147 54.8096 41.6524 54.8315C41.8784 55.5494 42.1566 56.2508 42.488 56.9203C39.5163 58.5045 37.6596 61.8595 37.1677 65.1659C36.9919 66.3528 36.9579 67.5584 37.0186 68.7581C36.6334 68.4617 36.2666 68.1272 35.9263 67.7513L35.9242 67.7531ZM39.2343 69.9678C39.0019 67.6145 39.1534 65.2144 39.9355 63.1338C40.5917 61.3943 41.8092 59.8994 43.3222 59.0286C43.6886 62.7371 44.449 66.3935 45.5805 69.9338C43.4821 70.6507 41.2315 70.6876 39.2364 69.966L39.2343 69.9678ZM48.6012 81.9076C44.4586 82.5429 41.5231 78.7144 40.3723 75.2533C40.073 74.3506 39.8078 73.3813 39.6019 72.3785C41.3928 72.8248 43.3093 72.824 45.1693 72.3452C45.549 72.2472 45.9219 72.1331 46.2878 72.0068C47.4436 75.174 48.8976 78.2304 50.6316 81.1258C50.0452 81.5149 49.3708 81.7867 48.5973 81.9074L48.6012 81.9076ZM58.9553 88.4114C56.8324 86.4977 55.0133 84.0578 53.4478 81.5532C55.1299 79.6185 55.9728 76.8986 56.2528 74.4006C56.5118 72.0895 56.3646 69.669 55.8889 67.3163C56.1625 67.2744 56.4367 67.2248 56.704 67.1629C59.2719 70.7785 61.5616 74.5866 63.5474 78.5581C64.4672 80.3973 65.4255 82.276 66.0779 84.2358C66.5393 85.623 66.9081 87.2927 66.457 88.7391C65.2654 92.5372 60.8088 90.0848 58.9572 88.4134L58.9553 88.4114Z" fill="#231F20"/>
</g>
<defs>
<clipPath id="clip0_530_496">
<rect width="108" height="112" fill="white"/>
</clipPath>
</defs>
</svg>
