<svg width="44" height="83" viewBox="0 0 44 83" fill="none" xmlns="http://www.w3.org/2000/svg">
<path d="M37.8426 77.7048C37.9167 75.79 37.3795 73.8942 36.6533 72.1455C35.6473 69.7188 34.4604 67.3553 33.2107 65.0468C31.6099 62.097 29.8545 59.1984 27.927 56.4322C30.4139 55.3238 32.525 53.398 34.0735 51.1041C36.4897 47.5191 38.1289 42.8527 37.8696 38.5157C37.8093 37.5062 37.5918 36.5281 37.2313 35.6314C38.5206 33.2861 39.7513 30.9078 40.9137 28.4979C41.9315 26.3867 43.1937 24.1751 43.4505 21.8109C43.6636 19.844 42.9302 17.8086 40.9415 17.107C40.4439 16.9311 39.936 16.8741 39.4303 16.8957C39.9887 14.8169 40.481 12.7301 40.8582 10.6341C41.2644 8.37725 41.3731 5.86079 40.2334 3.80023C39.1998 1.93249 37.2986 0.82459 35.1978 0.572827C30.3487 -0.0120008 26.4669 3.74294 23.416 7.00827C17.2549 13.6019 12.9455 21.8376 10.9009 30.5881C9.98493 34.5112 9.41698 38.646 10.1246 42.6344C6.99817 42.768 4.01049 44.2454 2.26563 47.0153C0.00378551 50.6079 0.129154 55.1758 2.7015 58.5348C3.68596 59.8192 4.92179 60.8212 6.30436 61.5225C6.32824 61.6847 6.35029 61.8449 6.37626 62.0053C6.78673 64.5873 7.47746 67.1729 8.8801 69.3987C11.0694 72.8771 15.3836 75.2344 19.4841 73.6653C19.9599 73.4831 20.4014 73.2575 20.8124 72.9928C20.8867 73.1072 20.9592 73.2195 21.0356 73.3321C23.3598 76.8169 26.2466 81.0031 30.3571 82.5205C33.9974 83.8636 37.6904 81.7026 37.8465 77.705L37.8426 77.7048ZM34.7162 44.7389C33.5223 48.3194 31.472 51.9173 28.131 53.8981C28.0778 53.9301 28.0188 53.9598 27.9637 53.9897C28.4973 53.1268 28.7865 52.1115 28.7214 51.0037C28.6535 49.8801 27.2681 49.8589 26.7373 50.5984C26.9003 50.2909 27.0611 49.9853 27.2203 49.6736C27.7903 49.2404 28.3294 48.7719 28.8275 48.2734C31.6404 45.4619 33.756 41.9131 35.7066 38.3953C35.8876 40.5592 35.3123 42.9604 34.7183 44.7371L34.7162 44.7389ZM22.1211 57.3996C22.2927 57.4142 22.4663 57.4269 22.6403 57.4357C23.1743 59.8508 23.3465 62.3631 22.9858 64.7816C22.7466 66.394 22.2084 68.1585 21.2424 69.5356C21.0555 69.2084 20.8705 68.8833 20.6915 68.5565C19.3759 66.1812 18.2386 63.6973 17.3086 61.138C19.1191 60.1935 20.7245 58.9011 22.1231 57.3978L22.1211 57.3996ZM25.7242 53.4235C25.6109 53.2773 25.4977 53.1311 25.3826 52.9828C25.8087 52.2799 26.2164 51.5601 26.607 50.8335C26.5497 50.9789 26.5204 51.1437 26.533 51.3269C26.5841 52.1613 26.2574 52.8723 25.7224 53.4214L25.7242 53.4235ZM23.1244 49.5354C22.9468 49.6067 22.7676 49.6721 22.5869 49.7315C22.1527 49.2948 21.694 48.8723 21.2155 48.4819C20.4181 47.3817 19.499 46.3954 18.4618 45.5528C18.5392 45.3165 18.6201 45.0882 18.7121 44.8684C20.0613 41.5878 22.6135 38.3856 25.3174 36.0908C27.0222 34.6418 29.4751 33.098 31.7581 33.4355C30.9539 35.5795 30.1116 37.7054 29.2272 39.817C28.0479 42.6337 26.8479 45.4942 25.4709 48.2497C24.7503 48.7598 23.9722 49.1959 23.1265 49.5336L23.1244 49.5354ZM20.9244 52.3339C21.1208 52.748 21.305 53.1692 21.4708 53.599C21.5738 53.8642 21.6743 54.1351 21.7689 54.4076C21.7192 54.4731 21.6694 54.5387 21.6176 54.606C21.3782 54.552 21.1464 54.4729 20.9361 54.3677C19.9749 53.8945 19.2792 53.1887 18.801 52.3474C19.5118 52.4209 20.2224 52.4139 20.9244 52.3339ZM19.502 49.8873C19.5663 49.9775 19.6303 50.0717 19.6924 50.1638C19.1228 50.1461 18.5618 50.0623 18.0209 49.917C17.9791 49.591 17.9553 49.2601 17.9493 48.9284C18.4932 49.1993 19.0098 49.5235 19.502 49.8873ZM19.5598 56.8625C18.6611 57.7008 17.6753 58.4396 16.5895 59.0388C16.3411 58.249 16.1128 57.4526 15.9043 56.6535C15.6619 55.723 15.4513 54.7865 15.2647 53.8437C16.364 55.2803 17.8683 56.2851 19.5598 56.8625ZM34.805 35.4888C33.7593 37.3571 32.6758 39.2034 31.5453 41.0213C31.1381 41.6783 30.7147 42.3422 30.2744 42.9952C30.6628 42.0763 31.0473 41.1571 31.4256 40.2434C32.2422 38.2865 33.0187 36.3133 33.7667 34.3286C34.1882 34.6664 34.5334 35.0564 34.805 35.4888ZM39.75 19.0956C43.7531 19.4653 38.8125 27.8069 38.0448 29.3474C37.3591 30.7282 36.6507 32.0959 35.9194 33.4543C35.5172 32.9823 35.054 32.5674 34.5403 32.2297C35.3318 30.0458 36.0831 27.8456 36.7884 25.6308C37.4679 23.5046 38.1493 21.351 38.781 19.1787C39.1004 19.1005 39.4263 19.0677 39.75 19.0956ZM35.2883 21.2815C35.51 21.1129 35.7428 20.9274 35.9897 20.7368C35.3261 22.9993 34.6201 25.2513 33.8702 27.4869C33.4337 28.7812 32.9801 30.0686 32.5148 31.3553C31.8816 31.2102 31.1989 31.1561 30.473 31.213C26.64 31.5185 23.3106 34.5882 20.9702 37.4035C19.2639 39.4583 17.5758 41.7572 16.5844 44.2738C16.4919 44.223 16.4014 44.1704 16.3068 44.1214C17.367 40.7679 19.4181 37.7994 21.5438 35.0257C24.2139 31.5407 27.1848 28.2978 30.4317 25.3407C31.9912 23.9199 33.611 22.5636 35.2864 21.2794L35.2883 21.2815ZM12.0585 37.1531C12.5815 29.7316 15.3559 22.2615 19.2991 15.9656C21.3259 12.7289 23.7128 9.70081 26.4401 7.01926C29.0113 4.49271 33.1196 1.16941 36.8595 3.38134C40.6576 5.6302 38.4128 11.7647 37.5631 15.0547C37.344 15.9097 37.1113 16.7618 36.8786 17.6139C36.4214 17.8385 35.9855 18.0957 35.5787 18.3568C31.4365 21.0467 27.7098 24.6877 24.3623 28.2935C21.0718 31.8419 17.8518 35.7242 15.6425 40.0474C15.1303 41.0528 14.66 42.1313 14.2852 43.2471C13.8499 43.1045 13.406 42.9731 12.9462 42.874C12.751 42.8325 12.5555 42.7949 12.3595 42.7651C11.9822 40.9086 11.9351 38.9609 12.0627 37.1494L12.0585 37.1531ZM4.92417 57.7531C2.49047 55.0713 2.13315 51.0947 4.20777 48.0434C5.72035 45.8139 8.14702 44.8096 10.6524 44.8315C10.8784 45.5494 11.1566 46.2508 11.488 46.9203C8.51633 48.5045 6.65962 51.8595 6.16771 55.1659C5.99188 56.3528 5.95793 57.5584 6.01855 58.7581C5.63339 58.4617 5.26659 58.1272 4.92626 57.7513L4.92417 57.7531ZM8.23428 59.9678C8.0019 57.6145 8.15337 55.2144 8.93554 53.1338C9.59168 51.3943 10.8093 49.8994 12.3222 49.0286C12.6886 52.7371 13.449 56.3935 14.5805 59.9338C12.4821 60.6507 10.2315 60.6876 8.23638 59.966L8.23428 59.9678ZM17.6012 71.9076C13.4586 72.5429 10.5231 68.7144 9.37228 65.2533C9.073 64.3506 8.80782 63.3813 8.6019 62.3785C10.3928 62.8248 12.3093 62.824 14.1693 62.3452C14.549 62.2472 14.9219 62.1331 15.2878 62.0068C16.4436 65.1741 17.8976 68.2304 19.6316 71.1258C19.0452 71.5149 18.3708 71.7867 17.5973 71.9074L17.6012 71.9076ZM27.9553 78.4114C25.8324 76.4977 24.0132 74.0578 22.4478 71.5532C24.1299 69.6185 24.9728 66.8986 25.2528 64.4006C25.5118 62.0895 25.3646 59.669 24.8889 57.3163C25.1625 57.2744 25.4367 57.2248 25.704 57.1629C28.2719 60.7785 30.5616 64.5866 32.5474 68.5581C33.4672 70.3973 34.4255 72.276 35.0779 74.2358C35.5393 75.623 35.9081 77.2927 35.457 78.7391C34.2654 82.5373 29.8088 80.0848 27.9571 78.4134L27.9553 78.4114Z" fill="#231F20"/>
</svg>
