<svg width="44" height="151" viewBox="0 0 44 151" fill="none" xmlns="http://www.w3.org/2000/svg">
<path d="M11.0479 38.1513C10.3412 37.5011 9.64391 36.8321 8.95605 36.1443C11.7075 38.8957 14.6662 41.3456 17.5777 43.7106C19.0194 44.8885 20.4799 46.0286 21.9498 47.1311L43.1225 51.2959C43.2544 51.8141 43.3863 52.3323 43.5182 52.8506L43.5182 41.4304C42.1519 40.4504 40.7857 39.4705 39.4194 38.4999C40.0036 40.3468 40.5689 42.203 41.1154 44.0687L11.0385 38.1513L11.0479 38.1513Z" fill="#C6E1DF"/>
<path d="M1.38087 21.3417C1.39972 24.2344 2.20064 26.8068 3.39731 29.0776C3.48212 28.6442 3.5575 28.2108 3.6423 27.7679C4.25477 24.6584 4.95204 21.8693 5.94142 19.1462C7.17578 19.0425 8.41014 18.9672 9.66335 18.9201C16.6455 18.6562 23.5617 19.2875 30.3648 20.8328C33.2953 20.5879 36.3105 21.0213 39.1185 21.8505C40.6261 22.2934 42.096 22.8964 43.5282 23.6314L43.5282 17.9118C41.9264 17.2805 40.3057 16.6963 38.6756 16.1686C40.2963 16.2723 41.917 16.4042 43.5282 16.5644L43.5282 9.74242C40.2586 9.42205 36.9795 9.22417 33.7099 9.14879C32.5226 7.06639 31.2035 5.14418 29.7241 3.53292C31.6181 3.41985 33.5214 3.3162 35.4154 3.24082C38.1197 3.12775 40.824 3.06179 43.5282 3.03352L43.5282 2.11009C33.7193 -1.1784 23.1848 -0.650735 13.6303 3.89097C8.01439 6.56699 1.31491 12.4373 1.37145 21.3417L1.38087 21.3417ZM21.1495 5.46454C21.1495 5.46454 21.2814 5.49282 21.3474 5.50224C21.4416 5.52109 21.5453 5.54936 21.6395 5.57762C22.3556 5.76608 23.0623 6.0299 23.7407 6.4068C23.7125 6.4068 24.3061 6.7743 24.3815 6.83083C24.6924 7.04755 24.994 7.28311 25.2861 7.5281C25.5405 7.74482 25.7949 7.97096 26.0399 8.20653C26.087 8.24422 26.1152 8.27248 26.1341 8.29133C26.1341 8.29133 26.1341 8.29134 26.1435 8.30076C26.3131 8.47979 26.4827 8.66824 26.6429 8.85669C26.7277 8.95092 26.8125 9.05456 26.8879 9.14879C21.517 9.27128 16.1555 9.65762 10.8035 10.2418C11.3877 9.55397 12.0002 8.93207 12.6409 8.39498C14.9966 6.40681 17.437 5.32322 20.0848 5.38917C20.4334 5.38917 20.782 5.42686 21.1401 5.47398L21.1495 5.46454Z" fill="#C6E1DF"/>
<path d="M2.45546 70.3483C0.684006 73.665 -0.135761 77.6414 1.04207 81.891C1.85241 84.8214 3.4731 87.0923 5.33878 88.9203C4.90534 86.7248 4.50017 84.5199 4.12326 82.315C4.23633 82.3433 4.35883 82.3621 4.4719 82.3904C7.08196 82.9181 9.70145 83.3892 12.3304 83.7944C9.98413 85.3114 7.77924 87.1865 5.79107 89.3537C6.49776 90.0039 7.2233 90.5881 7.95827 91.1252C8.83457 91.7753 9.73914 92.3689 10.6626 92.9343C11.1054 92.5291 11.5483 92.1334 12.01 91.7565C13.2538 90.7388 14.5541 89.8343 15.9015 89.0616C15.9204 89.0522 15.9392 89.0428 15.9581 89.0333C15.9769 89.0239 15.9958 89.0145 16.0335 88.9956C16.1559 88.9297 16.2784 88.8637 16.4009 88.7978C16.7307 88.6282 17.0605 88.4585 17.3903 88.3078C18.097 87.978 18.8131 87.6765 19.5387 87.4126C20.1794 87.1771 20.8296 86.9698 21.4891 86.7907C21.8378 86.6965 22.1864 86.6117 22.5445 86.5269C22.7235 86.4892 22.8931 86.4515 23.0721 86.4138C23.1193 86.4044 23.1664 86.395 23.2041 86.3856C23.2229 86.3856 23.2606 86.3856 23.3266 86.3667C24.7965 86.1406 26.2664 86.0464 27.7458 86.1029C28.4148 86.1312 29.0838 86.1877 29.7434 86.2819C29.9224 86.3102 30.1014 86.329 30.271 86.3573C30.2899 86.3573 30.2993 86.3573 30.3087 86.3573C30.3276 86.3573 30.3464 86.3573 30.3841 86.3762C30.7798 86.461 31.1662 86.5458 31.5619 86.6494C32.5042 86.8944 33.437 87.2148 34.351 87.6011C32.0707 89.1558 30.0072 90.23 27.416 91.2853C25.9932 91.8601 24.5609 92.3595 23.1098 92.7647C22.4314 92.9531 21.7436 93.1322 21.0651 93.2924C20.6976 93.3772 20.3302 93.4525 19.9721 93.5279C19.8213 93.5562 19.6706 93.5845 19.5292 93.6127C19.4916 93.6127 19.0016 93.6975 19.011 93.6975C16.9851 94.0179 14.9404 94.1781 12.8957 94.2063C14.5729 95.1392 16.269 95.9872 17.9557 96.8258C19.8779 97.7869 21.8189 98.6915 23.7788 99.5395C26.86 98.7292 29.8941 97.5514 32.8622 95.9495C35.2839 94.6398 37.6301 93.0945 39.8633 91.3042C40.6076 92.0203 41.2013 92.7364 42.021 93.8671C42.4733 94.489 42.9068 95.1392 43.3025 95.8176C43.3213 95.8647 43.4438 96.0814 43.4533 96.1003C43.491 96.1663 43.5192 96.2322 43.5569 96.2982L43.5569 87.3561C43.0387 87.2053 42.511 87.064 41.9739 86.9415C39.4863 86.3762 36.9799 86.0935 34.4735 85.6883C32.3534 85.3397 28.9707 85.3302 27.3689 83.2007C26.2193 81.6743 26.6904 79.9028 27.6327 78.5177C19.4162 78.1785 11.2091 76.9818 3.0962 75.2103C2.87948 73.5897 2.6816 71.9595 2.50257 70.3389L2.45546 70.3483Z" fill="#C6E1DF"/>
<path d="M33.7945 119.402C33.1255 119.798 32.4565 120.194 31.7969 120.599C32.4565 120.194 33.1255 119.789 33.7945 119.402Z" fill="#E4D47F"/>
<path d="M14.5159 124.867C13.0366 119.902 11.6044 114.908 10.2663 109.876C10.0402 109.019 9.81405 108.152 9.58791 107.285C7.99549 108.293 6.47845 109.471 5.11217 110.856C6.35595 115.586 7.68454 120.279 9.06024 124.943C9.17332 125.31 9.27697 125.687 9.39004 126.055C8.08972 126.394 6.78939 126.771 5.49849 127.176C5.34773 126.658 5.19697 126.13 5.04621 125.612C4.01914 121.956 3.06746 118.262 2.19116 114.54C0.297209 117.65 -0.49429 121.654 0.316055 125.565C1.09813 129.334 3.15226 132.415 5.39485 134.827C7.34533 136.928 9.55964 138.568 11.8211 140.028C12.4524 140.132 13.0837 140.198 13.715 140.217C13.8375 140.622 13.9694 141.027 14.0919 141.432C16.2685 142.742 18.5017 143.911 20.7631 144.928C20.471 144.099 20.1978 143.27 19.9245 142.431C19.5947 141.423 19.6136 141.461 19.2461 140.292C19.1519 139.991 19.0576 139.68 18.9634 139.378C22.7607 137.984 26.2754 134.808 28.2541 130.276C26.9161 129.306 25.2577 127.807 25.9456 125.734C26.2565 124.802 26.8501 124.067 27.538 123.463C27.2836 123.35 27.0103 123.294 26.7465 123.303C22.6477 123.529 18.5677 124.048 14.5159 124.858L14.5159 124.867ZM10.3323 132.707C10.6621 132.622 10.9919 132.537 11.3217 132.453C11.3876 132.679 11.463 132.896 11.529 133.122C11.1238 133.009 10.728 132.867 10.3323 132.707ZM20.6972 131.011C20.2449 131.388 19.7643 131.718 19.2838 132.019C19.2084 132.066 19.1236 132.113 19.0482 132.161C19.0011 132.189 18.9351 132.217 18.9069 132.236C18.5959 132.377 18.2944 132.528 17.9835 132.66C17.6537 132.792 17.3239 132.914 16.9941 133.018C16.8245 132.453 16.6455 131.887 16.4758 131.322C18.0306 131.039 19.5947 130.804 21.1683 130.606C21.0175 130.747 20.8668 130.879 20.7066 131.011L20.6972 131.011Z" fill="#C6E1DF"/>
<path d="M2.45459 70.3477C2.85976 69.5844 3.31205 68.8589 3.81145 68.1805C3.32147 68.8683 2.85976 69.5938 2.45459 70.3477Z" fill="#E4D47F"/>
<path d="M10.8223 10.2324C16.1743 9.64822 21.5358 9.26189 26.9067 9.13939C26.8219 9.04517 26.7465 8.94152 26.6617 8.8473C26.5015 8.65884 26.3319 8.47038 26.1623 8.29135C26.1623 8.29135 26.1623 8.29136 26.1529 8.28193C26.134 8.26309 26.1058 8.23482 26.0586 8.19713C25.8137 7.96157 25.5592 7.73542 25.3048 7.5187C25.0127 7.27371 24.7112 7.03814 24.4003 6.82142C24.3155 6.76489 23.7313 6.39741 23.7595 6.39741C23.0811 6.02993 22.3744 5.75667 21.6583 5.56821C21.564 5.53995 21.4604 5.52111 21.3662 5.49285C21.3002 5.474 21.1966 5.45515 21.1683 5.45515C20.8197 5.41746 20.471 5.37977 20.113 5.37035C17.4746 5.31381 15.0342 6.38799 12.6691 8.37617C12.0284 8.92268 11.4159 9.54456 10.8317 10.223L10.8223 10.2324Z" fill="#E4D47F"/>
<path d="M11.8209 140.029C12.1413 140.236 12.4617 140.434 12.7726 140.632C13.093 140.83 13.4134 141.028 13.7243 141.216C13.8374 141.291 13.9599 141.357 14.0824 141.423C13.9599 141.018 13.828 140.613 13.7055 140.208C13.0647 140.189 12.4334 140.123 11.8115 140.019L11.8209 140.029Z" fill="#E4D47F"/>
<path d="M21.95 47.14C22.44 47.5075 22.9394 47.8749 23.4293 48.233C23.4953 48.2801 23.5707 48.3366 23.6366 48.3838C24.6354 49.1093 25.6342 49.8066 26.6424 50.5038C26.7273 50.5604 26.8121 50.6263 26.9063 50.6829C27.4057 51.0221 27.9145 51.3613 28.4233 51.7005C28.9133 52.0209 29.4033 52.3413 29.8933 52.6522C29.9969 52.7182 30.11 52.7935 30.2136 52.8595C30.713 53.1799 31.2124 53.4908 31.7118 53.8018C31.7212 53.8018 31.7307 53.8112 31.7401 53.8206C32.2206 54.1221 32.7106 54.4142 33.1912 54.7063C33.3137 54.7817 33.4362 54.8571 33.5586 54.9325C34.058 55.2246 34.548 55.5167 35.0474 55.8088C34.6422 55.7994 34.2371 55.7899 33.8225 55.7899C30.9674 55.7899 28.1124 56.0538 25.295 56.6003C24.1549 56.817 23.0053 57.0714 21.8558 57.3729C19.1703 58.0702 16.4566 58.9936 13.8654 60.2468C11.6416 61.321 9.50271 62.6308 7.52396 64.2326C7.39204 64.3362 7.26012 64.4493 7.12821 64.5624C7.08109 64.6001 7.0434 64.6378 6.99629 64.6755C6.91149 64.7508 6.82668 64.8262 6.74188 64.9016C6.68534 64.9487 6.62881 65.0052 6.5817 65.0524C6.50632 65.1183 6.44036 65.1843 6.36498 65.2597C6.30844 65.3162 6.24248 65.3727 6.18595 65.4293C6.11999 65.4952 6.05403 65.5518 5.99749 65.6177C5.93154 65.6837 5.86558 65.7496 5.80904 65.8156C5.75251 65.8721 5.70539 65.9287 5.64886 65.9852C5.57348 66.0606 5.50752 66.136 5.43214 66.2113C5.42271 66.2208 5.41329 66.2302 5.40387 66.2396C5.19657 66.4658 4.98927 66.7013 4.7914 66.9369C4.7914 66.9369 4.78198 66.9557 4.77255 66.9652C4.67833 67.0782 4.59352 67.1819 4.4993 67.2949C4.48045 67.3232 4.46161 67.3421 4.43334 67.3703C4.34854 67.4834 4.25431 67.5965 4.16951 67.7095C4.15066 67.7378 4.13182 67.7567 4.11297 67.7849C4.01874 67.9074 3.93394 68.0299 3.83971 68.1524C3.83971 68.1618 3.82087 68.1807 3.81145 68.1901C3.32147 68.8779 2.85976 69.6035 2.45459 70.3573C2.63362 71.9874 2.83149 73.6081 3.04821 75.2288C11.1611 77.0002 19.3682 78.1969 27.5847 78.5361C27.6601 78.4325 27.7355 78.3194 27.8109 78.2252C27.8297 78.2063 27.8391 78.1875 27.858 78.1686C27.9333 78.0744 28.0087 77.9708 28.0935 77.8765C28.103 77.8577 28.1218 77.8483 28.1312 77.8294C28.2066 77.7446 28.282 77.6598 28.3668 77.575C28.3668 77.5656 28.3856 77.5562 28.3951 77.5468C28.4799 77.462 28.5647 77.3771 28.6495 77.3018C28.6683 77.2829 28.6872 77.2735 28.6966 77.2547C28.7814 77.1793 28.8662 77.1039 28.951 77.0285C28.951 77.0285 28.9698 77.0097 28.9793 77.0097C29.0641 76.9437 29.1394 76.8778 29.2148 76.8212C29.2337 76.8118 29.2431 76.8024 29.2619 76.7929C29.3467 76.7364 29.4315 76.6799 29.5069 76.6233C29.5258 76.6139 29.5446 76.6045 29.554 76.5951C29.6388 76.5385 29.7142 76.4914 29.799 76.4537C31.2313 75.6811 32.7954 75.2099 34.3596 74.8236C35.2265 74.6069 36.1028 74.4184 36.9602 74.2111C37.2994 74.1263 37.6386 74.0415 37.9779 73.9567C39.8247 73.4668 41.6621 72.9674 43.5089 72.4774L43.5089 52.8783C43.377 52.3601 43.2451 51.8419 43.1132 51.3236L21.9406 47.1588L21.95 47.14Z" fill="#E4D47F"/>
<path d="M18.9639 139.378C19.0581 139.68 19.1523 139.991 19.2465 140.292C19.614 141.461 19.5952 141.423 19.925 142.431C20.1982 143.27 20.4715 144.099 20.7636 144.928C21.2065 145.136 21.6587 145.324 22.111 145.522C22.1299 145.522 22.1487 145.541 22.1581 145.541C22.6198 145.739 23.0816 145.927 23.5433 146.116C23.9484 146.276 24.3536 146.436 24.7682 146.587C25.588 146.888 26.3983 147.18 27.2275 147.444C28.0473 147.708 28.8765 147.962 29.6962 148.198C34.2379 149.47 38.855 150.205 43.5004 150.403L43.5004 136.231C42.935 136.175 42.3696 136.109 41.8043 136.014C37.6772 135.374 33.6443 133.828 29.8847 131.397C29.602 131.209 29.3193 131.021 29.0366 130.832C28.9895 130.804 28.9424 130.766 28.8859 130.728C28.6974 130.596 28.4807 130.446 28.2546 130.286C26.2758 134.818 22.7518 137.984 18.9639 139.388L18.9639 139.378Z" fill="#E4D47F"/>
<path d="M10.3325 132.717C10.7283 132.877 11.124 133.018 11.5292 133.131C11.4632 132.905 11.3879 132.688 11.3219 132.462C10.9921 132.547 10.6623 132.632 10.3325 132.717Z" fill="#E4D47F"/>
<path d="M16.9847 133.028C17.3145 132.924 17.6537 132.802 17.9741 132.67C18.285 132.538 18.5865 132.387 18.8975 132.246C18.9258 132.227 18.9917 132.199 19.0388 132.17C19.1142 132.123 19.199 132.076 19.2744 132.029C19.7644 131.728 20.2355 131.388 20.6878 131.021C20.848 130.889 20.9987 130.757 21.1495 130.616C19.5759 130.804 18.0118 131.04 16.457 131.332C16.6266 131.897 16.8057 132.462 16.9753 133.028L16.9847 133.028Z" fill="#E4D47F"/>
<path d="M19.4907 93.6225C19.6415 93.5943 19.7922 93.566 19.9336 93.5377C20.3011 93.4624 20.6685 93.387 21.0266 93.3022C21.7144 93.142 22.3929 92.9724 23.0713 92.7745C24.5224 92.3599 25.964 91.8699 27.3774 91.2952C29.9687 90.2398 32.0322 89.1656 34.3125 87.6109C33.3985 87.2246 32.4657 86.9042 31.5234 86.6592C31.1371 86.5556 30.7413 86.4708 30.3456 86.386C30.3173 86.386 30.289 86.3765 30.2702 86.3671C30.2608 86.3671 30.2513 86.3671 30.2325 86.3671C30.0535 86.3389 29.8839 86.3106 29.7048 86.2917C29.0358 86.1975 28.3762 86.141 27.7072 86.1127C26.2279 86.0562 24.7579 86.1504 23.288 86.3765C23.2221 86.386 23.1844 86.3954 23.1655 86.3954C23.1278 86.3954 23.0807 86.4142 23.0336 86.4237C22.8546 86.4613 22.6756 86.499 22.5059 86.5367C22.1573 86.6121 21.7992 86.7063 21.4506 86.8006C20.8005 86.9796 20.1503 87.1869 19.5001 87.4225C18.7746 87.6863 18.0585 87.9878 17.3518 88.3176C17.022 88.4778 16.6828 88.638 16.3624 88.8076C16.2399 88.8735 16.1174 88.9395 15.9949 89.0055C15.9666 89.0243 15.9384 89.0337 15.9195 89.0431C15.9007 89.0431 15.8913 89.062 15.863 89.0714C14.525 89.8535 13.2247 90.7486 11.9715 91.7663C11.5192 92.1432 11.0669 92.5389 10.624 92.9441C10.9821 93.1703 11.3401 93.3775 11.7076 93.5943C11.7076 93.5943 11.7265 93.5943 11.7265 93.6037C12.0845 93.811 12.452 94.0183 12.8101 94.2256C14.8548 94.1973 16.8995 94.0371 18.9254 93.7168C18.9159 93.7168 19.4059 93.632 19.4436 93.632L19.4907 93.6225Z" fill="#E4D47F"/>
<path d="M43.2548 95.8181C42.859 95.1302 42.4256 94.4895 41.9733 93.8676C41.1629 92.7369 40.5599 92.0208 39.8155 91.3047C37.5823 93.095 35.2361 94.6497 32.8145 95.95C29.8558 97.5518 26.8217 98.7297 23.7311 99.54C24.1363 99.7096 24.532 99.8887 24.9372 100.058C24.9372 100.058 24.9372 100.058 24.9466 100.058C25.3329 100.218 25.7287 100.388 26.1244 100.548C26.2092 100.586 26.294 100.614 26.3788 100.652C26.6992 100.784 27.0102 100.906 27.3305 101.038C27.7451 101.208 28.1691 101.368 28.5837 101.528C25.9643 101.707 23.3448 102.084 20.763 102.725C20.5462 102.781 20.3295 102.829 20.1222 102.885C20.0563 102.904 19.9903 102.923 19.9244 102.942C19.7736 102.979 19.6228 103.026 19.4626 103.064C19.3873 103.083 19.3119 103.111 19.2365 103.13C19.0952 103.168 18.9444 103.215 18.8031 103.253C18.7277 103.271 18.6523 103.3 18.5769 103.318C18.4262 103.366 18.2754 103.413 18.1246 103.46C18.0493 103.479 17.9833 103.507 17.9079 103.526C17.7477 103.573 17.5781 103.629 17.4179 103.686C17.3614 103.705 17.3049 103.724 17.2483 103.743C17.0505 103.808 16.8526 103.874 16.6453 103.95C16.6264 103.95 16.5982 103.969 16.5793 103.969C16.3061 104.063 16.0234 104.167 15.7501 104.27C15.3261 104.43 14.9021 104.6 14.4781 104.77C14.4592 104.77 14.4404 104.788 14.4215 104.788C14.2048 104.873 13.9975 104.967 13.7808 105.062C13.7525 105.071 13.7243 105.09 13.696 105.099C13.4887 105.194 13.2814 105.288 13.0835 105.382C13.0553 105.391 13.0364 105.41 13.0082 105.42C12.7914 105.523 12.5747 105.627 12.3674 105.731C12.358 105.731 12.3486 105.74 12.3297 105.75C12.113 105.853 11.8963 105.966 11.6796 106.079C11.6136 106.117 11.5476 106.145 11.4911 106.183C11.3404 106.268 11.1896 106.343 11.0388 106.428C10.9634 106.466 10.8881 106.513 10.8127 106.56C10.6713 106.635 10.53 106.72 10.3981 106.805C10.3227 106.852 10.2379 106.899 10.1625 106.946C10.0212 107.031 9.88927 107.116 9.74793 107.201C9.70082 107.229 9.64428 107.267 9.59717 107.295C9.82331 108.162 10.0495 109.029 10.2756 109.886C11.6136 114.918 13.0458 119.912 14.5252 124.877C18.5769 124.067 22.6569 123.539 26.7558 123.323C27.029 123.304 27.2928 123.37 27.5473 123.483C28.3199 122.795 29.1962 122.267 29.9218 121.806C30.5531 121.4 31.1844 121.005 31.8157 120.618C32.4753 120.213 33.1443 119.808 33.8133 119.422C34.4446 119.054 35.0853 118.687 35.7261 118.329C37.5446 117.311 39.3915 116.369 41.2477 115.483C41.3891 115.417 41.521 115.351 41.6623 115.285C42.2842 114.993 42.8967 114.71 43.5186 114.437L43.5186 96.3269C43.4903 96.261 43.4526 96.195 43.4149 96.129C43.4055 96.1102 43.283 95.884 43.2642 95.8464L43.2548 95.8181Z" fill="#E4D47F"/>
<path d="M29.7236 3.5322C31.203 5.14346 32.5221 7.06567 33.7094 9.14807C36.979 9.22345 40.2581 9.42133 43.5278 9.7417L43.5278 3.02337C40.8235 3.05164 38.1192 3.11759 35.4149 3.23067C33.5115 3.30605 31.6176 3.40969 29.7236 3.52277L29.7236 3.5322Z" fill="#E4D47F"/>
<path d="M5.48947 127.176C6.78037 126.771 8.08069 126.404 9.38101 126.055C9.26794 125.687 9.15487 125.311 9.05122 124.943C7.67551 120.279 6.34693 115.586 5.10314 110.856C4.98065 110.979 4.85815 111.111 4.73566 111.233C4.6697 111.299 4.61316 111.365 4.54721 111.431C4.4624 111.516 4.38702 111.61 4.30222 111.704C4.24568 111.77 4.18915 111.827 4.13261 111.893C4.00069 112.044 3.86878 112.194 3.74628 112.354C3.73686 112.373 3.71802 112.392 3.70859 112.402C3.52956 112.618 3.35053 112.854 3.18093 113.08C3.13381 113.137 3.09612 113.193 3.04901 113.259C2.86056 113.513 2.68153 113.768 2.5025 114.032C2.38943 114.201 2.28578 114.362 2.18213 114.541C3.05843 118.262 4.01012 121.956 5.03718 125.612C5.18794 126.13 5.33871 126.658 5.48947 127.176Z" fill="#E4D47F"/>
<path d="M12.3399 83.785C9.72043 83.3799 7.10094 82.9182 4.48145 82.3811C4.36838 82.3528 4.24588 82.334 4.13281 82.3057C4.50972 84.52 4.91489 86.7155 5.34833 88.9109C5.35775 88.9204 5.3766 88.9298 5.38602 88.9486C5.52736 89.0805 5.65928 89.2125 5.80062 89.335C7.78879 87.1583 9.99368 85.2927 12.3399 83.7756L12.3399 83.785Z" fill="#E4D47F"/>
<path d="M9.66301 18.9295C8.4098 18.9766 7.17544 19.052 5.94108 19.1557C4.9517 21.8788 4.26385 24.6679 3.64196 27.7773C3.55716 28.2108 3.47235 28.6442 3.39697 29.0871C3.51004 29.3132 3.63254 29.5299 3.76445 29.7467C3.76445 29.7467 3.77388 29.7655 3.7833 29.7749C3.90579 29.9917 4.03771 30.199 4.1602 30.4063C4.1602 30.4063 4.1602 30.4157 4.16963 30.4251C4.30154 30.6324 4.43346 30.8397 4.5748 31.047C4.84806 31.4522 5.13073 31.8479 5.42284 32.2342C5.43226 32.2531 5.4511 32.2719 5.46053 32.2908C5.59244 32.4698 5.73378 32.6394 5.87512 32.809C5.89397 32.8373 5.91281 32.8561 5.93166 32.8844C6.073 33.054 6.20491 33.2236 6.34625 33.3838C6.3651 33.4026 6.38394 33.4215 6.40279 33.4403C6.54413 33.6099 6.69489 33.7795 6.84565 33.9397C7.14717 34.2789 7.45812 34.6087 7.76907 34.9385C7.8256 34.9951 7.88214 35.0516 7.93867 35.1176C8.24962 35.4474 8.56057 35.7677 8.88094 36.0881C8.9092 36.1164 8.92805 36.1352 8.95632 36.1635C9.64417 36.8513 10.3414 37.5109 11.0481 38.1705L41.1251 44.0879C40.5786 42.2222 40.0133 40.366 39.4291 38.5191C35.7825 35.9091 32.136 33.299 28.4894 30.6889C28.169 30.4534 27.7356 30.1895 27.255 29.8786C27.1137 29.7938 26.9818 29.6996 26.831 29.6053C26.6897 29.5111 26.5389 29.4169 26.3976 29.3132C26.3222 29.2661 26.2562 29.2096 26.1809 29.1625C26.0395 29.0588 25.8888 28.9552 25.7474 28.8421C25.5307 28.6725 25.3234 28.5029 25.1161 28.3144C24.9842 28.1919 24.8523 28.0694 24.7204 27.9375C24.5979 27.8056 24.4754 27.6737 24.3623 27.5418C24.0796 27.2026 23.8441 26.8351 23.6744 26.4487C23.4671 25.987 23.3635 25.4876 23.4012 24.9506C23.5519 22.7645 25.8793 21.7751 27.2079 21.4077C27.4623 21.3417 27.7167 21.2757 27.9712 21.2192C28.0088 21.2192 28.0465 21.2004 28.0842 21.2004C28.3104 21.1532 28.5271 21.1061 28.7532 21.0684C28.7721 21.0684 28.7909 21.0684 28.8098 21.0684C29.0548 21.0307 29.2997 20.9931 29.5542 20.9554C29.818 20.9177 30.0818 20.8988 30.3457 20.8706C23.5331 19.3252 16.6169 18.6845 9.64417 18.9578L9.66301 18.9295Z" fill="#E4D47F"/>
<path d="M43.5382 17.9204L43.5382 16.573C41.9269 16.4128 40.3062 16.2809 38.6855 16.1772C40.3157 16.7049 41.9363 17.2891 43.5382 17.9204Z" fill="#E4D47F"/>
</svg>
