<svg width="194" height="206" viewBox="0 0 194 206" fill="none" xmlns="http://www.w3.org/2000/svg">
<path d="M86.0479 66.1512C85.3412 65.501 84.6439 64.832 83.9561 64.1442C86.7075 66.8956 89.6662 69.3454 92.5777 71.7105C94.0194 72.8883 95.4799 74.0285 96.9498 75.1309L118.122 79.2957C118.254 79.814 118.386 80.3322 118.518 80.8505L118.518 69.4302C117.152 68.4503 115.786 67.4703 114.419 66.4998C115.004 68.3466 115.569 70.2029 116.115 72.0686L86.0385 66.1512L86.0479 66.1512Z" fill="#C6E1DF"/>
<path d="M76.3809 49.3415C76.3997 52.2343 77.2006 54.8067 78.3973 57.0775C78.4821 56.6441 78.5575 56.2106 78.6423 55.7678C79.2548 52.6583 79.952 49.8692 80.9414 47.1461C82.1758 47.0424 83.4101 46.967 84.6634 46.9199C91.6455 46.6561 98.5617 47.2874 105.365 48.8327C108.295 48.5877 111.311 49.0212 114.118 49.8504C115.626 50.2932 117.096 50.8963 118.528 51.6312L118.528 45.9117C116.926 45.2804 115.306 44.6962 113.676 44.1685C115.296 44.2722 116.917 44.4041 118.528 44.5643L118.528 37.7423C115.259 37.4219 111.98 37.224 108.71 37.1487C107.523 35.0663 106.203 33.1441 104.724 31.5328C106.618 31.4197 108.521 31.3161 110.415 31.2407C113.12 31.1276 115.824 31.0617 118.528 31.0334L118.528 30.11C108.719 26.8215 98.1848 27.3491 88.6303 31.8908C83.0144 34.5669 76.3149 40.4372 76.3714 49.3415L76.3809 49.3415ZM96.1495 33.4644C96.1495 33.4644 96.2814 33.4927 96.3474 33.5021C96.4416 33.521 96.5453 33.5492 96.6395 33.5775C97.3556 33.766 98.0623 34.0298 98.7407 34.4067C98.7125 34.4067 99.3061 34.7742 99.3815 34.8307C99.6924 35.0474 99.994 35.283 100.286 35.528C100.54 35.7447 100.795 35.9708 101.04 36.2064C101.087 36.2441 101.115 36.2724 101.134 36.2912C101.134 36.2912 101.134 36.2912 101.144 36.3006C101.313 36.4797 101.483 36.6681 101.643 36.8566C101.728 36.9508 101.813 37.0544 101.888 37.1487C96.517 37.2712 91.1555 37.6575 85.8035 38.2417C86.3877 37.5538 87.0002 36.9319 87.6409 36.3949C89.9966 34.4067 92.437 33.3231 95.0848 33.3891C95.4334 33.3891 95.782 33.4267 96.1401 33.4739L96.1495 33.4644Z" fill="#C6E1DF"/>
<path d="M77.4555 98.3482C75.684 101.665 74.8642 105.641 76.0421 109.891C76.8524 112.821 78.4731 115.092 80.3388 116.92C79.9053 114.725 79.5002 112.52 79.1233 110.315C79.2363 110.343 79.3588 110.362 79.4719 110.39C82.082 110.918 84.7015 111.389 87.3304 111.794C84.9841 113.311 82.7792 115.186 80.7911 117.354C81.4978 118.004 82.2233 118.588 82.9583 119.125C83.8346 119.775 84.7391 120.369 85.6626 120.934C86.1054 120.529 86.5483 120.133 87.01 119.756C88.2538 118.739 89.5541 117.834 90.9015 117.061C90.9204 117.052 90.9392 117.043 90.9581 117.033C90.9769 117.024 90.9958 117.014 91.0335 116.996C91.1559 116.93 91.2784 116.864 91.4009 116.798C91.7307 116.628 92.0605 116.458 92.3903 116.308C93.097 115.978 93.8131 115.676 94.5387 115.413C95.1794 115.177 95.8296 114.97 96.4891 114.791C96.8378 114.696 97.1864 114.612 97.5445 114.527C97.7235 114.489 97.8931 114.451 98.0721 114.414C98.1193 114.404 98.1664 114.395 98.2041 114.385C98.2229 114.385 98.2606 114.385 98.3266 114.367C99.7965 114.14 101.266 114.046 102.746 114.103C103.415 114.131 104.084 114.188 104.743 114.282C104.922 114.31 105.101 114.329 105.271 114.357C105.29 114.357 105.299 114.357 105.309 114.357C105.328 114.357 105.346 114.357 105.384 114.376C105.78 114.461 106.166 114.546 106.562 114.649C107.504 114.894 108.437 115.215 109.351 115.601C107.071 117.156 105.007 118.23 102.416 119.285C100.993 119.86 99.5609 120.359 98.1098 120.765C97.4314 120.953 96.7436 121.132 96.0651 121.292C95.6976 121.377 95.3302 121.452 94.9721 121.528C94.8213 121.556 94.6706 121.584 94.5292 121.613C94.4916 121.613 94.0016 121.697 94.011 121.697C91.9851 122.018 89.9404 122.178 87.8957 122.206C89.5729 123.139 91.269 123.987 92.9557 124.826C94.8779 125.787 96.8189 126.691 98.7788 127.539C101.86 126.729 104.894 125.551 107.862 123.949C110.284 122.64 112.63 121.094 114.863 119.304C115.608 120.02 116.201 120.736 117.021 121.867C117.473 122.489 117.907 123.139 118.303 123.817C118.321 123.865 118.444 124.081 118.453 124.1C118.491 124.166 118.519 124.232 118.557 124.298L118.557 115.356C118.039 115.205 117.511 115.064 116.974 114.941C114.486 114.376 111.98 114.093 109.474 113.688C107.353 113.34 103.971 113.33 102.369 111.201C101.219 109.674 101.69 107.903 102.633 106.518C94.4162 106.178 86.2091 104.982 78.0962 103.21C77.8795 101.59 77.6816 99.9594 77.5026 98.3387L77.4555 98.3482Z" fill="#C6E1DF"/>
<path d="M108.794 147.402C108.125 147.798 107.456 148.194 106.797 148.599C107.456 148.194 108.125 147.789 108.794 147.402Z" fill="#E4D47F"/>
<path d="M89.5159 152.867C88.0366 147.902 86.6044 142.908 85.2663 137.876C85.0402 137.019 84.8141 136.152 84.5879 135.285C82.9955 136.293 81.4784 137.471 80.1122 138.856C81.356 143.586 82.6845 148.279 84.0602 152.943C84.1733 153.31 84.277 153.687 84.39 154.055C83.0897 154.394 81.7894 154.771 80.4985 155.176C80.3477 154.658 80.197 154.13 80.0462 153.612C79.0191 149.956 78.0675 146.262 77.1912 142.54C75.2972 145.65 74.5057 149.654 75.3161 153.565C76.0981 157.334 78.1523 160.415 80.3948 162.827C82.3453 164.928 84.5596 166.568 86.8211 168.028C87.4524 168.132 88.0837 168.198 88.715 168.217C88.8375 168.622 88.9694 169.027 89.0919 169.432C91.2685 170.742 93.5017 171.91 95.7631 172.928C95.471 172.099 95.1978 171.27 94.9245 170.431C94.5947 169.423 94.6136 169.461 94.2461 168.292C94.1519 167.991 94.0576 167.68 93.9634 167.378C97.7607 165.984 101.275 162.808 103.254 158.276C101.916 157.305 100.258 155.807 100.946 153.734C101.257 152.801 101.85 152.066 102.538 151.463C102.284 151.35 102.01 151.294 101.746 151.303C97.6477 151.529 93.5677 152.048 89.5159 152.858L89.5159 152.867ZM85.3323 160.707C85.6621 160.622 85.9919 160.537 86.3217 160.453C86.3876 160.679 86.463 160.895 86.529 161.122C86.1238 161.008 85.728 160.867 85.3323 160.707ZM95.6972 159.011C95.2449 159.388 94.7643 159.718 94.2838 160.019C94.2084 160.066 94.1236 160.113 94.0482 160.16C94.0011 160.189 93.9351 160.217 93.9069 160.236C93.5959 160.377 93.2944 160.528 92.9835 160.66C92.6537 160.792 92.3239 160.914 91.9941 161.018C91.8245 160.453 91.6455 159.887 91.4758 159.322C93.0306 159.039 94.5947 158.804 96.1683 158.606C96.0175 158.747 95.8668 158.879 95.7066 159.011L95.6972 159.011Z" fill="#C6E1DF"/>
<path d="M77.4546 98.3475C77.8598 97.5843 78.312 96.8588 78.8114 96.1803C78.3215 96.8682 77.8598 97.5937 77.4546 98.3475Z" fill="#E4D47F"/>
<path d="M85.8223 38.2323C91.1743 37.6481 96.5358 37.2618 101.907 37.1393C101.822 37.045 101.746 36.9414 101.662 36.8472C101.502 36.6587 101.332 36.4703 101.162 36.2912C101.162 36.2912 101.162 36.2912 101.153 36.2818C101.134 36.263 101.106 36.2347 101.059 36.197C100.814 35.9614 100.559 35.7353 100.305 35.5186C100.013 35.2736 99.7112 35.038 99.4003 34.8213C99.3155 34.7648 98.7313 34.3973 98.7595 34.3973C98.0811 34.0298 97.3744 33.7565 96.6583 33.5681C96.564 33.5398 96.4604 33.521 96.3662 33.4927C96.3002 33.4739 96.1966 33.455 96.1683 33.455C95.8197 33.4173 95.471 33.3796 95.113 33.3702C92.4746 33.3137 90.0342 34.3879 87.6691 36.376C87.0284 36.9226 86.4159 37.5444 85.8317 38.2229L85.8223 38.2323Z" fill="#E4D47F"/>
<path d="M86.8209 168.029C87.1413 168.236 87.4617 168.434 87.7726 168.632C88.093 168.83 88.4134 169.027 88.7243 169.216C88.8374 169.291 88.9599 169.357 89.0824 169.423C88.9599 169.018 88.828 168.613 88.7055 168.208C88.0647 168.189 87.4334 168.123 86.8115 168.019L86.8209 168.029Z" fill="#E4D47F"/>
<path d="M96.95 75.1398C97.44 75.5073 97.9394 75.8748 98.4293 76.2329C98.4953 76.28 98.5707 76.3365 98.6366 76.3836C99.6354 77.1092 100.634 77.8064 101.642 78.5037C101.727 78.5603 101.812 78.6262 101.906 78.6827C102.406 79.022 102.915 79.3612 103.423 79.7004C103.913 80.0208 104.403 80.3411 104.893 80.6521C104.997 80.718 105.11 80.7934 105.214 80.8594C105.713 81.1797 106.212 81.4907 106.712 81.8016C106.721 81.8016 106.731 81.8111 106.74 81.8205C107.221 82.122 107.711 82.4141 108.191 82.7062C108.314 82.7816 108.436 82.857 108.559 82.9323C109.058 83.2245 109.548 83.5166 110.047 83.8087C109.642 83.7992 109.237 83.7898 108.822 83.7898C105.967 83.7898 103.112 84.0536 100.295 84.6002C99.1549 84.8169 98.0053 85.0713 96.8558 85.3728C94.1703 86.0701 91.4566 86.9935 88.8654 88.2467C86.6416 89.3209 84.5027 90.6306 82.524 92.2325C82.392 92.3361 82.2601 92.4492 82.1282 92.5623C82.0811 92.6 82.0434 92.6376 81.9963 92.6753C81.9115 92.7507 81.8267 92.8261 81.7419 92.9015C81.6853 92.9486 81.6288 93.0051 81.5817 93.0522C81.5063 93.1182 81.4404 93.1842 81.365 93.2595C81.3084 93.3161 81.2425 93.3726 81.1859 93.4291C81.12 93.4951 81.054 93.5516 80.9975 93.6176C80.9315 93.6836 80.8656 93.7495 80.809 93.8155C80.7525 93.872 80.7054 93.9285 80.6489 93.9851C80.5735 94.0605 80.5075 94.1358 80.4321 94.2112C80.4227 94.2206 80.4133 94.2301 80.4039 94.2395C80.1966 94.4656 79.9893 94.7012 79.7914 94.9368C79.7914 94.9368 79.782 94.9556 79.7726 94.965C79.6783 95.0781 79.5935 95.1818 79.4993 95.2948C79.4805 95.3231 79.4616 95.3419 79.4333 95.3702C79.3485 95.4833 79.2543 95.5963 79.1695 95.7094C79.1507 95.7377 79.1318 95.7565 79.113 95.7848C79.0187 95.9073 78.9339 96.0298 78.8397 96.1523C78.8397 96.1617 78.8209 96.1806 78.8114 96.19C78.3215 96.8778 77.8598 97.6034 77.4546 98.3572C77.6336 99.9873 77.8315 101.608 78.0482 103.229C86.1611 105 94.3682 106.197 102.585 106.536C102.66 106.432 102.735 106.319 102.811 106.225C102.83 106.206 102.839 106.187 102.858 106.169C102.933 106.074 103.009 105.971 103.094 105.876C103.103 105.858 103.122 105.848 103.131 105.829C103.207 105.745 103.282 105.66 103.367 105.575C103.367 105.565 103.386 105.556 103.395 105.547C103.48 105.462 103.565 105.377 103.649 105.302C103.668 105.283 103.687 105.273 103.697 105.255C103.781 105.179 103.866 105.104 103.951 105.028C103.951 105.028 103.97 105.01 103.979 105.01C104.064 104.944 104.139 104.878 104.215 104.821C104.234 104.812 104.243 104.802 104.262 104.793C104.347 104.736 104.432 104.68 104.507 104.623C104.526 104.614 104.545 104.604 104.554 104.595C104.639 104.538 104.714 104.491 104.799 104.454C106.231 103.681 107.795 103.21 109.36 102.823C110.226 102.607 111.103 102.418 111.96 102.211C112.299 102.126 112.639 102.041 112.978 101.957C114.825 101.467 116.662 100.967 118.509 100.477L118.509 80.8782C118.377 80.36 118.245 79.8417 118.113 79.3235L96.9406 75.1587L96.95 75.1398Z" fill="#E4D47F"/>
<path d="M93.9639 167.378C94.0581 167.68 94.1523 167.991 94.2465 168.292C94.614 169.461 94.5952 169.423 94.925 170.431C95.1982 171.27 95.4715 172.099 95.7636 172.928C96.2065 173.135 96.6587 173.324 97.111 173.522C97.1299 173.522 97.1487 173.541 97.1581 173.541C97.6198 173.739 98.0816 173.927 98.5433 174.115C98.9484 174.276 99.3536 174.436 99.7682 174.587C100.588 174.888 101.398 175.18 102.228 175.444C103.047 175.708 103.876 175.962 104.696 176.198C109.238 177.47 113.855 178.205 118.5 178.403L118.5 164.231C117.935 164.175 117.37 164.109 116.804 164.014C112.677 163.374 108.644 161.828 104.885 159.397C104.602 159.209 104.319 159.02 104.037 158.832C103.99 158.804 103.942 158.766 103.886 158.728C103.697 158.596 103.481 158.446 103.255 158.285C101.276 162.818 97.7518 165.984 93.9639 167.388L93.9639 167.378Z" fill="#E4D47F"/>
<path d="M85.3325 160.717C85.7283 160.877 86.124 161.018 86.5292 161.131C86.4632 160.905 86.3879 160.688 86.3219 160.462C85.9921 160.547 85.6623 160.632 85.3325 160.717Z" fill="#E4D47F"/>
<path d="M91.9847 161.028C92.3145 160.924 92.6537 160.802 92.9741 160.67C93.285 160.538 93.5865 160.387 93.8975 160.246C93.9258 160.227 93.9917 160.199 94.0388 160.17C94.1142 160.123 94.199 160.076 94.2744 160.029C94.7644 159.727 95.2355 159.388 95.6878 159.021C95.848 158.889 95.9987 158.757 96.1495 158.616C94.5759 158.804 93.0118 159.04 91.457 159.332C91.6266 159.897 91.8057 160.462 91.9753 161.028L91.9847 161.028Z" fill="#E4D47F"/>
<path d="M94.4907 121.622C94.6415 121.594 94.7922 121.566 94.9336 121.538C95.3011 121.462 95.6685 121.387 96.0266 121.302C96.7144 121.142 97.3929 120.972 98.0713 120.774C99.5224 120.36 100.964 119.87 102.377 119.295C104.969 118.24 107.032 117.166 109.312 115.611C108.398 115.224 107.466 114.904 106.523 114.659C106.137 114.555 105.741 114.471 105.346 114.386C105.317 114.386 105.289 114.376 105.27 114.367C105.261 114.367 105.251 114.367 105.232 114.367C105.053 114.339 104.884 114.31 104.705 114.292C104.036 114.197 103.376 114.141 102.707 114.113C101.228 114.056 99.7579 114.15 98.288 114.376C98.2221 114.386 98.1844 114.395 98.1655 114.395C98.1278 114.395 98.0807 114.414 98.0336 114.424C97.8546 114.461 97.6756 114.499 97.5059 114.537C97.1573 114.612 96.7992 114.706 96.4506 114.8C95.8005 114.979 95.1503 115.187 94.5001 115.422C93.7746 115.686 93.0585 115.988 92.3518 116.317C92.022 116.478 91.6828 116.638 91.3624 116.807C91.2399 116.873 91.1174 116.939 90.9949 117.005C90.9666 117.024 90.9384 117.034 90.9195 117.043C90.9007 117.043 90.8913 117.062 90.863 117.071C89.525 117.853 88.2247 118.749 86.9715 119.766C86.5192 120.143 86.0669 120.539 85.624 120.944C85.9821 121.17 86.3401 121.377 86.7076 121.594C86.7076 121.594 86.7265 121.594 86.7265 121.604C87.0845 121.811 87.452 122.018 87.8101 122.225C89.8548 122.197 91.8995 122.037 93.9254 121.717C93.9159 121.717 94.4059 121.632 94.4436 121.632L94.4907 121.622Z" fill="#E4D47F"/>
<path d="M118.255 123.818C117.859 123.13 117.426 122.489 116.973 121.867C116.163 120.737 115.56 120.021 114.815 119.305C112.582 121.095 110.236 122.65 107.814 123.95C104.856 125.552 101.822 126.73 98.7311 127.54C99.1363 127.71 99.532 127.889 99.9372 128.058C99.9372 128.058 99.9372 128.058 99.9466 128.058C100.333 128.218 100.729 128.388 101.124 128.548C101.209 128.586 101.294 128.614 101.379 128.652C101.699 128.784 102.01 128.906 102.331 129.038C102.745 129.208 103.169 129.368 103.584 129.528C100.964 129.707 98.3448 130.084 95.763 130.725C95.5462 130.781 95.3295 130.828 95.1222 130.885C95.0563 130.904 94.9903 130.923 94.9244 130.941C94.7736 130.979 94.6228 131.026 94.4626 131.064C94.3873 131.083 94.3119 131.111 94.2365 131.13C94.0952 131.168 93.9444 131.215 93.8031 131.252C93.7277 131.271 93.6523 131.3 93.5769 131.318C93.4262 131.365 93.2754 131.413 93.1246 131.46C93.0493 131.479 92.9833 131.507 92.9079 131.526C92.7477 131.573 92.5781 131.629 92.4179 131.686C92.3614 131.705 92.3049 131.724 92.2483 131.742C92.0505 131.808 91.8526 131.874 91.6453 131.95C91.6264 131.95 91.5982 131.969 91.5793 131.969C91.3061 132.063 91.0234 132.166 90.7501 132.27C90.3261 132.43 89.9021 132.6 89.4781 132.769C89.4592 132.769 89.4404 132.788 89.4215 132.788C89.2048 132.873 88.9975 132.967 88.7808 133.062C88.7525 133.071 88.7243 133.09 88.696 133.099C88.4887 133.193 88.2814 133.288 88.0835 133.382C88.0553 133.391 88.0364 133.41 88.0082 133.42C87.7914 133.523 87.5747 133.627 87.3674 133.731C87.358 133.731 87.3486 133.74 87.3297 133.749C87.113 133.853 86.8963 133.966 86.6796 134.079C86.6136 134.117 86.5476 134.145 86.4911 134.183C86.3404 134.268 86.1896 134.343 86.0388 134.428C85.9634 134.466 85.8881 134.513 85.8127 134.56C85.6713 134.635 85.53 134.72 85.3981 134.805C85.3227 134.852 85.2379 134.899 85.1625 134.946C85.0212 135.031 84.8893 135.116 84.7479 135.2C84.7008 135.229 84.6443 135.266 84.5972 135.295C84.8233 136.162 85.0495 137.028 85.2756 137.886C86.6136 142.918 88.0458 147.912 89.5252 152.877C93.5769 152.067 97.6569 151.539 101.756 151.323C102.029 151.304 102.293 151.37 102.547 151.483C103.32 150.795 104.196 150.267 104.922 149.806C105.553 149.4 106.184 149.005 106.816 148.618C107.475 148.213 108.144 147.808 108.813 147.422C109.445 147.054 110.085 146.687 110.726 146.329C112.545 145.311 114.391 144.369 116.248 143.483C116.389 143.417 116.521 143.351 116.662 143.285C117.284 142.993 117.897 142.71 118.519 142.437L118.519 124.327C118.49 124.261 118.453 124.195 118.415 124.129C118.406 124.11 118.283 123.884 118.264 123.846L118.255 123.818Z" fill="#E4D47F"/>
<path d="M104.724 31.5321C106.203 33.1433 107.522 35.0655 108.709 37.1479C111.979 37.2233 115.258 37.4212 118.528 37.7416L118.528 31.0232C115.823 31.0515 113.119 31.1175 110.415 31.2305C108.512 31.3059 106.618 31.4096 104.724 31.5226L104.724 31.5321Z" fill="#E4D47F"/>
<path d="M80.4895 155.176C81.7804 154.771 83.0807 154.403 84.381 154.055C84.2679 153.687 84.1549 153.31 84.0512 152.943C82.6755 148.279 81.3469 143.586 80.1031 138.856C79.9806 138.979 79.8582 139.111 79.7357 139.233C79.6697 139.299 79.6132 139.365 79.5472 139.431C79.4624 139.516 79.387 139.61 79.3022 139.704C79.2457 139.77 79.1891 139.827 79.1326 139.893C79.0007 140.043 78.8688 140.194 78.7463 140.354C78.7369 140.373 78.718 140.392 78.7086 140.401C78.5296 140.618 78.3505 140.854 78.1809 141.08C78.1338 141.136 78.0961 141.193 78.049 141.259C77.8606 141.513 77.6815 141.768 77.5025 142.032C77.3894 142.201 77.2858 142.361 77.1821 142.54C78.0584 146.262 79.0101 149.956 80.0372 153.612C80.1879 154.13 80.3387 154.658 80.4895 155.176Z" fill="#E4D47F"/>
<path d="M87.3399 111.785C84.7204 111.38 82.1009 110.918 79.4814 110.381C79.3684 110.353 79.2459 110.334 79.1328 110.306C79.5097 112.52 79.9149 114.715 80.3483 116.911C80.3578 116.92 80.3766 116.93 80.386 116.949C80.5274 117.08 80.6593 117.212 80.8006 117.335C82.7888 115.158 84.9937 113.293 87.3399 111.775L87.3399 111.785Z" fill="#E4D47F"/>
<path d="M84.663 46.9294C83.4098 46.9765 82.1754 47.0519 80.9411 47.1555C79.9517 49.8787 79.2639 52.6678 78.642 55.7772C78.5572 56.2107 78.4724 56.6441 78.397 57.087C78.51 57.3131 78.6325 57.5298 78.7645 57.7465C78.7645 57.7465 78.7739 57.7654 78.7833 57.7748C78.9058 57.9915 79.0377 58.1988 79.1602 58.4061C79.1602 58.4061 79.1602 58.4155 79.1696 58.425C79.3015 58.6323 79.4335 58.8396 79.5748 59.0469C79.8481 59.452 80.1307 59.8478 80.4228 60.2341C80.4323 60.253 80.4511 60.2718 80.4605 60.2907C80.5924 60.4697 80.7338 60.6393 80.8751 60.8089C80.894 60.8372 80.9128 60.856 80.9317 60.8843C81.073 61.0539 81.2049 61.2235 81.3463 61.3837C81.3651 61.4025 81.3839 61.4214 81.4028 61.4402C81.5441 61.6098 81.6949 61.7794 81.8457 61.9396C82.1472 62.2788 82.4581 62.6086 82.7691 62.9384C82.8256 62.9949 82.8821 63.0515 82.9387 63.1174C83.2496 63.4472 83.5606 63.7676 83.8809 64.088C83.9092 64.1162 83.928 64.1351 83.9563 64.1634C84.6442 64.8512 85.3414 65.5108 86.0481 66.1704L116.125 72.0878C115.579 70.2221 115.013 68.3658 114.429 66.519C110.783 63.9089 107.136 61.2989 103.489 58.6888C103.169 58.4532 102.736 58.1894 102.255 57.8785C102.114 57.7937 101.982 57.6994 101.831 57.6052C101.69 57.511 101.539 57.4168 101.398 57.3131C101.322 57.266 101.256 57.2095 101.181 57.1623C101.04 57.0587 100.889 56.955 100.747 56.842C100.531 56.6724 100.323 56.5028 100.116 56.3143C99.9842 56.1918 99.8523 56.0693 99.7204 55.9374C99.5979 55.8055 99.4754 55.6736 99.3623 55.5417C99.0796 55.2024 98.8441 54.835 98.6744 54.4486C98.4671 53.9869 98.3635 53.4875 98.4012 52.9504C98.552 50.7644 100.879 49.775 102.208 49.4075C102.462 49.3416 102.717 49.2756 102.971 49.2191C103.009 49.2191 103.047 49.2002 103.084 49.2002C103.31 49.1531 103.527 49.106 103.753 49.0683C103.772 49.0683 103.791 49.0683 103.81 49.0683C104.055 49.0306 104.3 48.9929 104.554 48.9552C104.818 48.9175 105.082 48.8987 105.346 48.8704C98.5331 47.3251 91.6169 46.6844 84.6442 46.9576L84.663 46.9294Z" fill="#E4D47F"/>
<path d="M118.538 45.9203L118.538 44.5729C116.927 44.4127 115.306 44.2808 113.686 44.1771C115.316 44.7048 116.936 45.289 118.538 45.9203Z" fill="#E4D47F"/>
</svg>
