<svg width="24" height="133" viewBox="0 0 24 133" fill="none" xmlns="http://www.w3.org/2000/svg">
<path d="M22.0767 12.6788C22.0459 11.7782 22.0151 10.8776 21.9869 9.97442C21.9869 9.97442 21.9869 9.97442 21.9869 9.97699C17.3016 6.44637 12.3597 3.13128 7.20237 0.0522454C7.2229 0.0522454 7.24599 0.0522454 7.26652 0.0522454C5.60897 0.0625088 3.95399 0.0676405 2.29645 0.0599428C2.58896 0.0599428 2.8789 0.0599428 3.17141 0.0599428C9.84777 3.88307 16.1701 8.10135 22.0767 12.6788Z" fill="#231F20"/>
<path d="M0.407891 27.715C1.65233 28.4693 2.88394 29.2263 4.10016 29.9781L7.97461 29.9781C5.53191 28.436 3.05329 26.8708 0.52079 25.3467C0.469472 26.1344 0.430983 26.9247 0.405324 27.7124L0.407891 27.715Z" fill="#231F20"/>
<path d="M0.364072 29.9805L1.61621 29.9805C1.20054 29.7085 0.784873 29.434 0.374336 29.1543C0.37177 29.4288 0.366638 29.7034 0.364072 29.9805Z" fill="#231F20"/>
<path d="M13.0062 22.6239C9.10094 20.3274 5.21366 17.9489 1.50856 15.4087C1.42132 16.1759 1.33408 16.9431 1.24684 17.7103C4.17449 19.6655 7.1945 21.5283 10.2504 23.3449C14.0274 25.59 17.8146 27.8916 21.7583 29.9776L22.6538 29.9776C22.6358 29.3644 22.6179 28.7537 22.5999 28.1405C19.3285 26.3829 16.1699 24.4816 13.0062 22.6213L13.0062 22.6239Z" fill="#231F20"/>
<path d="M22.5151 25.4898C22.4869 24.6302 22.4587 23.7707 22.4305 22.9111C19.5593 20.9097 16.6291 18.9622 13.6373 17.0763C9.86032 14.6926 5.99357 12.4013 2.04471 10.2075C1.98057 10.9388 1.90872 11.6675 1.83431 12.3988C3.67147 13.4302 5.48809 14.4822 7.28676 15.5548C12.5365 18.6877 17.6143 22.0053 22.5126 25.4898L22.5151 25.4898Z" fill="#231F20"/>
<path d="M0.526357 25.3486C0.567411 24.7174 0.613597 24.0887 0.66748 23.4575C0.616163 24.0862 0.567411 24.7174 0.526357 25.3486Z" fill="#231F20"/>
<path d="M21.7866 2.64897C20.5421 1.76888 19.3002 0.886228 18.0558 0.00100644C16.8011 -0.00155948 15.5464 0.00100633 14.2943 0.00613799C16.8396 1.76888 19.3772 3.53676 21.8507 5.35082C21.8276 4.45021 21.8045 3.54959 21.784 2.64897L21.7866 2.64897Z" fill="#231F20"/>
<path d="M0.40819 27.7148C0.40819 27.7148 0.40819 27.7354 0.40819 27.7456C0.403058 27.9355 0.39536 28.1254 0.390229 28.3153C0.382531 28.5616 0.3774 28.8079 0.374834 29.0542C0.374834 29.0876 0.374834 29.1184 0.374834 29.1517C0.785371 29.4288 1.20104 29.7034 1.61671 29.9779L4.10303 29.9779C2.88424 29.2261 1.6552 28.4692 0.410756 27.7148L0.40819 27.7148Z" fill="#C6E1DF"/>
<path d="M21.9863 9.97984C21.9863 9.97984 21.9863 9.97984 21.9863 9.97728C21.9376 8.4352 21.8914 6.89311 21.8503 5.3536C19.3768 3.53697 16.8392 1.76909 14.2939 0.00634732C14.2939 0.00634732 14.2887 0.00634732 14.2862 0.00634732C13.111 0.011479 11.9359 0.0191765 10.7607 0.0294399C9.59579 0.0371374 8.43089 0.044835 7.26599 0.0525325C7.24547 0.0525325 7.22237 0.0525325 7.20185 0.0525325C12.3592 3.13156 17.3011 6.44665 21.9863 9.97984Z" fill="#C6E1DF"/>
<path d="M1.24975 17.7104C1.18047 18.3211 1.11376 18.9344 1.04704 19.545C1.04191 19.5835 1.03935 19.622 1.03422 19.6579C0.97007 20.2583 0.908489 20.8562 0.849476 21.4566C0.846908 21.4925 0.841778 21.5259 0.83921 21.5618C0.780197 22.1699 0.723747 22.7806 0.67243 23.3913C0.67243 23.4144 0.669864 23.4349 0.667299 23.458C0.615982 24.0866 0.56723 24.7178 0.526176 25.349C3.05868 26.8706 5.5373 28.4383 7.98 29.9804L21.7612 29.9804C17.8175 27.8943 14.0303 25.5928 10.2534 23.3476C7.19741 21.531 4.17483 19.6656 1.24975 17.713L1.24975 17.7104Z" fill="#C6E1DF"/>
<path d="M22.4312 22.9116C22.4183 22.5011 22.4029 22.0905 22.3875 21.68C22.3413 20.374 22.2977 19.0654 22.2515 17.7594C22.1925 16.0659 22.1309 14.3699 22.0745 12.6764C16.1705 8.10146 9.84818 3.88319 3.17181 0.0600578C2.8793 0.0600577 2.58936 0.0600577 2.29685 0.0600577C2.31995 0.439805 2.33791 0.819552 2.35074 1.1993C2.35587 1.3045 2.35843 1.4097 2.361 1.51233C2.37126 1.82024 2.3764 2.12814 2.38153 2.43604C2.38153 2.51302 2.38409 2.59256 2.38409 2.66954C2.38666 3.04928 2.38666 3.4316 2.38409 3.81134C2.38409 3.88319 2.38409 3.95503 2.38153 4.02431C2.3764 4.34761 2.37126 4.67091 2.361 4.99421C2.361 5.08144 2.35587 5.16612 2.3533 5.25336C2.32764 6.03338 2.29172 6.81597 2.24297 7.59599C2.23784 7.66013 2.23527 7.72428 2.23014 7.78843C2.20705 8.15791 2.18139 8.52739 2.15317 8.89688C2.15317 8.9174 2.1506 8.9405 2.14803 8.96102C2.11724 9.37669 2.08132 9.79236 2.0454 10.208C5.99426 12.4018 9.85844 14.6932 13.638 17.0768C16.6272 18.9627 19.5574 20.9102 22.4312 22.9116Z" fill="#C6E1DF"/>
<path d="M21.7325 0.131835C21.7325 0.0959134 21.7325 0.0625572 21.7325 0.0266352C21.7248 0.0266352 21.7145 0.0266352 21.7068 0.0266352C21.05 0.0189375 20.3905 0.0112399 19.7337 0.00867405C19.1795 0.00610817 18.6252 0.00354229 18.0736 0.000976403C18.0684 0.000976403 18.0633 0.000976403 18.0582 0.000976402C19.3001 0.883632 20.5445 1.76629 21.7864 2.64894C21.7684 1.80991 21.7505 0.970871 21.7351 0.131835L21.7325 0.131835Z" fill="#C6E1DF"/>
<path d="M13.0064 22.6242C16.1675 24.4845 19.3286 26.3858 22.6001 28.1434C22.5975 28.0408 22.595 27.9407 22.5898 27.8381C22.5898 27.797 22.5873 27.756 22.5873 27.7175C22.5642 26.9759 22.5411 26.2344 22.518 25.4929C17.6198 22.011 12.5419 18.6908 7.29218 15.5579C5.49351 14.4853 3.67432 13.4333 1.83973 12.4019C1.7371 13.4051 1.62676 14.4084 1.5113 15.4116C5.2164 17.9518 9.10368 20.3304 13.0089 22.6268L13.0064 22.6242Z" fill="#C6E1DF"/>
<path d="M23.29 64.6149C16.4392 62.2235 9.945 59.1624 3.85109 55.6754C2.6631 54.9954 1.49563 54.2975 0.335863 53.5894C0.346127 54.3873 0.358955 55.1853 0.371784 55.9833C7.46125 60.2247 15.1229 63.9195 23.2695 66.6829C23.2772 65.9927 23.2849 65.3051 23.29 64.6149Z" fill="#231F20"/>
<path d="M23.1462 73.1946C23.1667 72.4531 23.1872 71.7141 23.2026 70.9726C19.4334 69.0662 15.6257 67.2059 11.782 65.397C8.04354 63.6368 4.26916 61.9279 0.463993 60.2627C0.48452 60.9965 0.510179 61.7329 0.538402 62.4668C1.46468 62.8747 2.39352 63.2827 3.31723 63.6984C10.0346 66.7158 16.6443 69.8821 23.1436 73.1921L23.1462 73.1946Z" fill="#231F20"/>
<path d="M0.990368 105.678C0.926222 106.64 0.864641 107.603 0.800495 108.565C6.93033 111.641 13.2423 114.459 19.8263 116.853C20.3652 117.096 20.9066 117.335 21.448 117.576C21.448 117.576 21.448 117.579 21.448 117.581C21.4582 116.837 21.4711 116.09 21.4839 115.346C21.2401 115.259 20.9964 115.172 20.7526 115.085C14.0711 112.08 7.48199 108.945 0.987804 105.681L0.990368 105.678Z" fill="#231F20"/>
<path d="M22.6308 85.1206C22.6795 84.2226 22.7257 83.3245 22.777 82.429C22.8027 81.9826 22.8207 81.5361 22.8437 81.0897C19.7801 79.994 16.7575 78.824 13.7837 77.577C12.7804 77.0074 11.7746 76.4429 10.7637 75.881C7.53583 74.09 4.26949 72.3427 0.969797 70.6338C1.03651 71.7397 1.10579 72.8456 1.1725 73.9489C4.8853 75.8245 8.6879 77.5821 12.5752 79.2115C15.9698 81.1333 19.3208 83.1064 22.6308 85.1181L22.6308 85.1206Z" fill="#231F20"/>
<path d="M1.59341 94.6221C1.54723 95.8768 1.49078 97.1315 1.42663 98.3888C7.9978 102.687 14.7178 106.836 21.5815 110.831C21.602 110.061 21.6225 109.289 21.6456 108.519C16.6217 105.576 11.6721 102.548 6.80467 99.4382C11.6388 101.712 16.6268 103.777 21.7354 105.624C21.7585 104.939 21.7816 104.254 21.8047 103.569C17.3965 101.948 13.0808 100.162 8.88045 98.2168C6.40953 97.0725 3.98223 95.8742 1.59598 94.6246L1.59341 94.6221Z" fill="#231F20"/>
<path d="M22.312 91.4176C22.3454 90.7326 22.3788 90.0449 22.4121 89.3598C16.1771 87.0018 10.0909 84.3846 4.18937 81.5237C3.29389 81.0875 2.40097 80.6462 1.51318 80.1997C1.54911 80.9618 1.5799 81.7213 1.60556 82.4833C8.28192 85.7804 15.1995 88.7645 22.3095 91.4176L22.312 91.4176Z" fill="#231F20"/>
<path d="M22.9307 39.4354C18.8305 36.8003 14.7046 34.1985 10.5735 31.6121C9.71139 31.0733 8.8467 30.5268 7.97687 29.9777L4.10243 29.9777C4.19993 30.0392 4.30256 30.1008 4.40006 30.1598C8.98012 32.9849 13.5217 35.8483 18.0299 38.7452C12.2208 36.2666 6.71704 33.3184 1.61611 29.9751L0.36397 29.9751C0.356272 30.5165 0.353706 31.0579 0.346008 31.6019C7.261 36.1075 14.897 39.8973 23.0205 42.8095C22.9923 41.6831 22.9615 40.5567 22.9307 39.4329L22.9307 39.4354Z" fill="#231F20"/>
<path d="M23.2695 56.1341C23.2567 54.7871 23.2413 53.44 23.2182 52.0955C20.6883 50.9177 18.2558 49.663 15.9568 48.4417C10.5814 45.5807 5.33161 42.5556 0.276867 39.3354C0.269169 40.7569 0.266603 42.1759 0.264038 43.5973C4.38224 45.7758 8.49275 47.967 12.5725 50.189C16.1595 52.1442 19.7261 54.1225 23.2644 56.1341L23.2695 56.1341Z" fill="#231F20"/>
<path d="M0.47201 113.735C0.41556 114.679 0.35911 115.621 0.310358 116.565C7.2664 119.547 14.2969 122.413 21.3992 125.163C21.3992 123.814 21.4043 122.466 21.4146 121.117C14.284 118.972 7.31259 116.46 0.47201 113.735Z" fill="#231F20"/>
<path d="M0.56181 119.947C0.605429 120.674 0.636221 121.4 0.651615 122.128C7.3639 124.92 14.3046 127.358 21.4146 129.421C21.4094 128.741 21.4043 128.063 21.4017 127.383C14.2609 125.282 7.29462 122.798 0.56181 119.945L0.56181 119.947Z" fill="#231F20"/>
<path d="M22.4123 89.3596C22.4841 87.9459 22.556 86.5346 22.6304 85.1208C19.3178 83.1066 15.9668 81.1361 12.5748 79.2142C8.68749 77.5824 4.88232 75.8247 1.17209 73.9517C1.2311 74.9421 1.29012 75.9351 1.34657 76.9281C1.3517 77.0102 1.35683 77.0948 1.3594 77.1769C1.41585 78.1853 1.46716 79.1937 1.51335 80.2021C2.40114 80.6486 3.29149 81.0899 4.18954 81.5261C10.091 84.3896 16.1772 87.0068 22.4123 89.3622L22.4123 89.3596Z" fill="#C6E1DF"/>
<path d="M1.42623 98.3892C1.36465 99.6002 1.29537 100.811 1.22096 102.025C1.22096 102.033 1.22096 102.04 1.22096 102.048C1.14655 103.259 1.06957 104.47 0.990032 105.681C7.48166 108.943 14.0733 112.078 20.7548 115.085C20.9986 115.172 21.2424 115.26 21.4861 115.347C21.5118 113.841 21.5426 112.337 21.5811 110.831C14.7174 106.839 7.9974 102.687 1.42623 98.3892Z" fill="#C6E1DF"/>
<path d="M4.39994 30.1626C4.30244 30.1011 4.20237 30.0395 4.1023 29.9805L1.61598 29.9805C6.71691 33.3238 12.2207 36.272 18.0298 38.7506C13.5216 35.8512 8.98 32.9902 4.39994 30.1652L4.39994 30.1626Z" fill="#C6E1DF"/>
<path d="M23.2181 52.0929C23.195 50.5636 23.1643 49.0369 23.1309 47.5077C23.1309 47.4435 23.1283 47.382 23.1258 47.3178C23.095 45.8809 23.0591 44.4415 23.0231 43.0046C23.0231 42.9405 23.0206 42.8763 23.018 42.8122C14.8945 39.8999 7.25849 36.1101 0.343502 31.6045C0.328108 32.8181 0.317844 34.0318 0.307581 35.2454C0.307581 35.3455 0.307581 35.443 0.305015 35.5431C0.294752 36.6413 0.289621 37.7395 0.281923 38.8402C0.281923 39.0044 0.281923 39.1686 0.279356 39.3329C5.33153 42.5556 10.5813 45.5807 15.9593 48.4391C18.2558 49.6604 20.6882 50.9151 23.2207 52.0929L23.2181 52.0929Z" fill="#C6E1DF"/>
<path d="M21.6452 108.519C21.6734 107.554 21.7016 106.589 21.7324 105.624C16.6238 103.777 11.6383 101.711 6.80168 99.438C11.6691 102.548 16.6187 105.576 21.6426 108.519L21.6452 108.519Z" fill="#C6E1DF"/>
<path d="M19.8289 116.853C13.2449 114.461 6.93036 111.641 0.803091 108.565C0.749208 109.378 0.695324 110.189 0.644007 111.003C0.636309 111.105 0.631178 111.21 0.62348 111.313C0.577293 112.044 0.531109 112.776 0.487489 113.504C0.482357 113.581 0.477226 113.656 0.472095 113.733C7.31268 116.458 14.2841 118.97 21.4146 121.115C21.4249 119.937 21.4352 118.759 21.4531 117.579C21.4531 117.579 21.4531 117.576 21.4531 117.574C20.9117 117.332 20.3703 117.094 19.8315 116.85L19.8289 116.853Z" fill="#C6E1DF"/>
<path d="M1.6803 91.682C1.67774 91.8154 1.67517 91.9489 1.6726 92.0823C1.65208 92.929 1.62642 93.7757 1.59563 94.6225C3.98188 95.8721 6.40918 97.0729 8.8801 98.2147C13.0804 100.16 17.3962 101.945 21.8043 103.567C21.9455 99.5156 22.1199 95.4666 22.3149 91.4177C15.2049 88.7646 8.28739 85.7805 1.61102 82.4834C1.63155 83.0248 1.64695 83.5636 1.66234 84.105C1.66234 84.1743 1.66491 84.241 1.66747 84.3103C1.6803 84.7875 1.69056 85.2674 1.70083 85.7446C1.7034 85.955 1.70596 86.1654 1.70853 86.3758C1.71366 86.7273 1.71879 87.0789 1.72136 87.4304C1.72392 88.0103 1.72649 88.5927 1.72136 89.1726C1.71622 90.0065 1.70083 90.843 1.68287 91.6769L1.6803 91.682Z" fill="#C6E1DF"/>
<path d="M22.9307 39.4357C22.9307 39.4357 22.9307 39.4357 22.9307 39.4331C22.8486 36.4439 22.7588 33.4521 22.6689 30.4603C22.3636 30.3038 22.0634 30.1421 21.7606 29.9805L7.97684 29.9805C8.84666 30.5296 9.71136 31.0761 10.5735 31.6149C14.7045 34.1987 18.8304 36.8031 22.9307 39.4382L22.9307 39.4357Z" fill="#C6E1DF"/>
<path d="M0.305361 116.635C0.405428 117.733 0.495233 118.836 0.561947 119.947C7.29476 122.798 14.2611 125.284 21.4019 127.386C21.3993 126.644 21.3967 125.905 21.3967 125.164C14.2944 122.413 7.26397 119.547 0.307926 116.565C0.307926 116.589 0.305359 116.612 0.302793 116.637L0.305361 116.635Z" fill="#C6E1DF"/>
<path d="M0.651455 122.128C0.682245 123.437 0.661718 124.748 0.566782 126.052C0.561651 126.118 0.556516 126.185 0.551386 126.254C0.533424 126.493 0.510332 126.734 0.48724 126.973C0.476976 127.068 0.466713 127.165 0.456449 127.26C0.433357 127.473 0.405132 127.689 0.376907 127.902C0.364078 128.004 0.348682 128.109 0.333288 128.212C0.302498 128.428 0.266575 128.643 0.230653 128.859C0.215257 128.954 0.199863 129.046 0.181904 129.141C0.125454 129.446 0.0664383 129.752 -0.000275005 130.054C0.00998841 130.701 0.0279499 131.348 0.0484767 131.994C1.2339 132.02 2.4219 132.074 3.60732 132.148C5.5856 132.271 7.56131 132.456 9.53446 132.677C11.0278 132.695 12.5186 132.715 14.0093 132.746C14.5071 132.756 15.0023 132.766 15.5001 132.779C16.4931 132.805 17.4886 132.833 18.4816 132.869C19.4746 132.905 20.4676 132.949 21.458 133C21.4375 131.807 21.4247 130.614 21.4144 129.421C14.3044 127.358 7.36374 124.923 0.651455 122.128Z" fill="#C6E1DF"/>
<path d="M23.2902 64.6141C23.2979 63.2517 23.3004 61.8892 23.2979 60.5267C23.2979 60.4138 23.2979 60.3009 23.2979 60.188C23.2953 58.882 23.285 57.576 23.2748 56.2699C23.2748 56.2238 23.2748 56.1801 23.2748 56.134C19.7365 54.1223 16.1699 52.1415 12.5828 50.1889C8.50056 47.9643 4.39261 45.773 0.274408 43.5972C0.274408 44.68 0.276976 45.7628 0.282108 46.8455C0.282108 47.2663 0.284674 47.6846 0.287239 48.1054C0.292372 48.7879 0.297502 49.4704 0.302633 50.1529C0.310331 51.033 0.320594 51.9106 0.330858 52.7906C0.333423 53.0575 0.33599 53.3243 0.341121 53.5912C1.49832 54.3019 2.66836 54.9998 3.85635 55.6772C9.94257 59.1642 16.4393 62.2227 23.2902 64.6141Z" fill="#C6E1DF"/>
<path d="M13.7837 77.577C16.7575 78.824 19.7801 79.9941 22.8437 81.0897C22.9079 79.7965 22.9669 78.5059 23.0156 77.2127C23.0156 77.1665 23.0182 77.1203 23.0208 77.0741C23.0567 76.1376 23.0875 75.201 23.1157 74.2645C23.1208 74.1157 23.126 73.9669 23.1285 73.818C23.1337 73.6102 23.1414 73.4024 23.1465 73.1945C23.1465 73.1945 23.1465 73.1945 23.1439 73.1945C16.6446 69.8846 10.0324 66.7157 3.31752 63.7008C2.39381 63.2852 1.46497 62.8772 0.538696 62.4692C0.561789 63.0722 0.590012 63.6752 0.618236 64.2782C0.6285 64.4757 0.636198 64.6707 0.646461 64.8683C0.666988 65.2891 0.687515 65.7099 0.710607 66.1307C0.720871 66.336 0.731134 66.5438 0.743963 66.7491C0.772188 67.2674 0.800413 67.7857 0.831203 68.304C0.85173 68.6478 0.872257 68.9917 0.892784 69.338C0.908178 69.5921 0.923574 69.8461 0.938968 70.0975C0.949232 70.2771 0.959495 70.4568 0.972324 70.6364C4.26945 72.3452 7.53579 74.0926 10.7662 75.8835C11.7772 76.4455 12.783 77.01 13.7862 77.5796L13.7837 77.577Z" fill="#C6E1DF"/>
<path d="M23.2027 70.9725C23.2232 70.0617 23.2361 69.1533 23.2514 68.2425C23.2566 67.914 23.2617 67.5856 23.2643 67.2572C23.2643 67.0673 23.2694 66.8749 23.272 66.685C15.1254 63.9216 7.46628 60.2267 0.376806 55.9854C0.394768 57.0374 0.41786 58.0868 0.440954 59.1388C0.443519 59.2543 0.446085 59.3697 0.44865 59.4852C0.451216 59.6032 0.456348 59.7212 0.458914 59.8393C0.464046 59.983 0.466612 60.1241 0.471744 60.2678C4.27691 61.933 8.05129 63.6444 11.7898 65.4021C15.6334 67.211 19.4386 69.0712 23.2104 70.9777L23.2027 70.9725Z" fill="#C6E1DF"/>
<path d="M23.1335 47.5078C23.1668 49.0371 23.195 50.5638 23.2207 52.093C23.1976 50.5638 23.1668 49.0371 23.1335 47.5078Z" fill="#231F20"/>
<path d="M22.6542 29.9805L21.7587 29.9805C22.0614 30.1396 22.3617 30.3012 22.667 30.4603C22.6619 30.3012 22.6567 30.1421 22.6516 29.9805L22.6542 29.9805Z" fill="#231F20"/>
<path d="M23.0156 77.2129C22.9643 78.5035 22.9079 79.7967 22.8437 81.0899C22.9079 79.7967 22.9669 78.5061 23.0156 77.2129Z" fill="#231F20"/>
</svg>
