<svg width="48" height="54" viewBox="0 0 48 54" fill="none" xmlns="http://www.w3.org/2000/svg">
<path d="M18.4773 0.739609C18.4236 0.654544 18.3699 0.569479 18.3163 0.484418C18.4563 3.15123 18.417 5.83138 18.39 8.49934C18.3638 10.9691 18.3475 13.4403 18.5142 15.9055C18.5848 16.9373 18.7303 18.0099 18.7726 19.0709C18.8048 19.8989 18.7756 20.7198 18.6016 21.5125C18.5841 21.589 18.5604 21.6592 18.5319 21.7257C18.5573 21.8215 18.5876 21.9149 18.618 22.0082C18.3472 22.1279 18.0741 22.2365 17.7937 22.3238C16.8726 22.6095 15.8713 22.6746 14.9176 22.8061C13.0385 23.0646 11.1521 23.3143 9.30067 23.7293C7.01031 24.2441 4.52372 24.6877 2.42492 25.8075C1.7405 26.1724 1.09754 26.6097 0.514369 27.1446C0.352849 27.2944 0.262455 27.4714 0.22855 27.6518C1.09268 27.7865 2.04483 27.7268 2.84177 27.7737C3.15859 27.7922 3.47783 27.8157 3.79338 27.8441C4.42223 27.8464 5.04975 27.8771 5.68325 27.945C6.43583 28.026 7.1872 28.1044 7.93979 28.1854C9.37313 28.1938 10.8098 28.2902 12.2229 28.4321C14.261 28.6369 16.3227 29.0527 18.375 29.0991C18.7201 29.1069 19.0677 29.1073 19.4129 29.0903C19.0238 29.9106 18.5477 30.6961 18.0201 31.4511C17.5702 32.7152 16.7182 33.817 15.8898 34.8485C14.7811 36.2301 13.7609 37.6056 12.8383 39.125C12.0283 40.4566 11.2526 41.821 10.4413 43.1625C9.99609 43.899 9.5423 44.6303 9.06403 45.3427C9.26264 45.4312 9.48485 45.4557 9.7075 45.3749C12.5675 44.3287 14.8187 42.3032 17.2432 40.5331C18.5823 39.5553 19.9679 38.6413 21.3107 37.6647C21.7407 37.3529 22.1846 36.9262 22.653 36.5246C22.9864 37.5827 23.2436 38.6657 23.5376 39.7368C23.9127 41.1114 24.3087 42.479 24.7342 43.8383C24.7924 44.0262 24.8677 44.2182 24.9455 44.4151C25.5598 47.3481 26.0315 50.3136 26.3828 53.2884C27.8137 50.9059 28.2675 48.0884 29.1271 45.4655C30.1035 42.4888 31.2911 39.5451 32.4332 36.6205C33.1487 37.0688 33.7736 37.7313 34.4447 38.2074C35.0374 38.629 35.6413 39.036 36.2525 39.4331C39.7061 41.2899 43.3937 42.6771 46.9006 44.4121C46.9675 44.2806 47.0123 44.1289 47.0265 43.9582C47.0732 43.3606 46.9146 42.8106 46.6465 42.2985C46.2029 41.4518 45.4628 40.7095 44.8724 40.0241C43.4117 38.3292 41.9842 36.6027 40.5616 34.8737C38.1357 31.9252 35.8468 28.8265 33.0053 26.2693C33.3458 25.9115 33.6997 25.5689 34.0598 25.2325C34.2978 25.0082 34.5394 24.7852 34.7835 24.5672C38.5918 20.8239 42.3487 17.0315 46.0347 13.1687C45.8007 13.0201 45.521 12.9527 45.2517 13.0315C44.8274 13.1551 44.408 13.2886 43.9911 13.4271C41.5177 14.2414 39.1306 15.27 36.6851 16.1665C34.4254 16.9939 32.0637 17.5435 29.8648 18.5144C29.8766 18.3325 29.8859 18.1641 29.8963 18.0169C29.9327 17.5293 29.9568 17.0416 29.9748 16.5538C29.9844 16.3173 29.9903 16.0796 29.9937 15.843C30.0211 14.5687 30.0067 13.2901 29.9997 12.014C29.9904 10.4084 30.126 8.80622 30.0306 7.19927C29.9353 5.59851 29.7236 3.61565 28.4778 2.52988C27.5461 4.76149 26.6194 6.9969 25.6019 9.19003C25.3025 10.0129 24.9712 10.8267 24.6424 11.6268C24.2578 12.5686 23.851 13.5088 23.486 14.4595C23.2708 12.7442 23.0494 11.0288 22.5588 9.36125C21.6662 6.31989 20.1883 3.41571 18.4847 0.742196L18.4773 0.739609Z" fill="#E4D47F"/>
</svg>
