<svg width="39" height="83" viewBox="0 0 39 83" fill="none" xmlns="http://www.w3.org/2000/svg">
<path d="M0.169629 40.5224C0.804364 39.4365 1.65155 37.8235 3.12036 37.8654C3.57412 37.8786 3.95181 38.0281 4.24032 38.2641C4.36884 38.3166 4.49474 38.3926 4.61277 38.5028C5.78519 39.586 6.02388 41.3565 6.29403 42.8541C6.58517 44.462 6.89205 46.2403 6.61402 47.8691C6.38059 49.2435 5.53078 50.5733 4.11967 50.9693C2.66922 51.3785 1.34205 50.4998 0.42667 49.4375C0.431916 49.5031 0.439785 49.5687 0.445031 49.6369C0.476505 50.0329 0.513225 50.4264 0.547322 50.8198C0.560437 50.9746 0.573551 51.1293 0.589288 51.2814C0.641746 51.8296 0.694203 52.3778 0.754529 52.9233C0.754529 52.9286 0.754529 52.9312 0.754529 52.9365C0.814855 53.5082 0.880427 54.08 0.948622 54.6492C0.948622 54.6597 0.948622 54.6676 0.951244 54.678C1.01944 55.2446 1.09026 55.8111 1.16632 56.375C1.20304 56.6426 1.23714 56.9127 1.27386 57.1855C1.28173 57.238 1.28697 57.293 1.29484 57.3455C1.32631 57.5789 1.35779 57.815 1.38926 58.0484C1.39451 58.0904 1.39976 58.1324 1.40762 58.1743C2.89217 60.8365 3.33806 63.9787 3.27511 67.0187C3.32757 67.1603 3.38002 67.2993 3.43248 67.4357C3.43773 67.4514 3.44559 67.4672 3.45084 67.4829C3.49543 67.5957 3.54002 67.7058 3.58723 67.816C3.60297 67.8501 3.61608 67.8842 3.63182 67.9183C3.67116 68.0101 3.71313 68.1019 3.75509 68.1937C3.77083 68.2278 3.78657 68.2619 3.8023 68.296C3.85739 68.414 3.91509 68.5321 3.97279 68.6475C4.37147 69.4264 4.7885 70.1871 5.21865 70.9294C5.54127 71.4854 5.86913 72.031 6.20485 72.5634C6.4278 72.9175 6.65337 73.269 6.88155 73.6125C7.22253 74.1293 7.56612 74.6302 7.91497 75.1207C8.37659 75.7712 8.84346 76.398 9.30771 76.996C11.3772 79.6556 13.5699 81.211 15.8439 82.0687C16.6963 82.3913 17.5593 82.6142 18.4301 82.7611C18.7212 82.811 19.0123 82.8503 19.3035 82.8844C19.4503 82.9001 19.5972 82.9159 19.7415 82.929C20.329 82.9788 20.9165 83.0024 21.5093 82.9998C21.9526 82.9998 22.3985 82.9841 22.847 82.9605C22.9807 82.9526 23.1145 82.9473 23.2483 82.9395C23.382 82.9316 23.5158 82.9237 23.6522 82.9159C25.0685 82.8293 26.5111 82.6746 27.8829 81.969C28.014 81.9008 28.1425 81.83 28.2737 81.7513C28.4022 81.6726 28.5307 81.5913 28.6592 81.5021C28.8507 81.3684 29.0422 81.2241 29.2284 81.0615C29.2966 81.0038 29.3622 80.9435 29.4304 80.8831C29.4514 80.8622 29.475 80.8412 29.4959 80.8202C29.5405 80.7782 29.5851 80.7336 29.6297 80.689C29.6559 80.6628 29.6795 80.6366 29.7058 80.6104C29.7451 80.5684 29.7871 80.5264 29.8264 80.4818C29.8527 80.453 29.8789 80.4241 29.9051 80.3953C29.9445 80.3533 29.9812 80.3087 30.0205 80.2641C30.0467 80.2353 30.0704 80.2038 30.0966 80.175C30.1359 80.1278 30.1726 80.0832 30.212 80.036C30.2356 80.0071 30.2592 79.9756 30.2854 79.9442C30.3248 79.8943 30.3641 79.8419 30.4035 79.792C30.4244 79.7632 30.448 79.7343 30.469 79.7029C30.511 79.6451 30.553 79.5874 30.5949 79.5297C30.6133 79.5035 30.6316 79.4799 30.65 79.4537C30.6998 79.3829 30.7497 79.3094 30.7995 79.2334C30.8074 79.2202 30.8179 79.2071 30.8257 79.194C30.9464 79.013 31.0644 78.8242 31.1798 78.6327C31.1851 78.6248 31.1903 78.6144 31.1956 78.6065C31.248 78.5199 31.2979 78.4334 31.3503 78.3442C31.3608 78.3259 31.3713 78.3075 31.3818 78.2865C31.4264 78.2078 31.4736 78.1265 31.5182 78.0452C31.5313 78.0242 31.5418 78.0006 31.5549 77.9796C31.5995 77.9009 31.6415 77.8196 31.686 77.7383C31.6965 77.7173 31.7096 77.6937 31.7201 77.6727C31.7647 77.5888 31.8067 77.5049 31.8513 77.421C31.8618 77.4 31.8723 77.3816 31.8828 77.3606C31.93 77.2688 31.9746 77.1796 32.0191 77.0852C32.027 77.0721 32.0323 77.0564 32.0401 77.0433C32.0926 76.9383 32.1424 76.8308 32.1949 76.7233C31.9142 76.9672 31.5575 77.1482 31.1038 77.2426C29.7241 77.5285 27.7098 76.8256 26.6265 75.9653C25.1236 74.7745 25.26 72.8677 25.1971 71.1208C25.121 69.0251 25.1498 66.919 25.538 64.8495C25.8292 63.3047 26.3957 61.3165 28.355 61.3821C29.3832 61.4162 30.1333 62.0562 30.4454 62.9007C30.4638 62.9217 30.4821 62.9427 30.5005 62.9663C32.7431 65.9328 33.3516 69.7359 33.2519 73.3712C33.2414 73.7358 33.223 74.1135 33.1758 74.4833C33.1837 74.465 33.1889 74.4466 33.1968 74.4283C33.3463 74.0611 33.4958 73.6886 33.6401 73.3162C33.6427 73.3083 33.6479 73.2978 33.6506 73.2899C33.8027 72.9017 33.9522 72.5109 34.1017 72.1228C34.1883 71.8972 34.2722 71.6716 34.3561 71.4434C34.6892 70.5333 34.9961 69.5995 35.2636 68.616C35.4656 67.879 35.6466 67.1131 35.8013 66.3105C35.9639 65.4633 36.0977 64.5977 36.2131 63.7217C36.2892 63.1368 36.36 62.5467 36.4229 61.9565C36.52 61.07 36.6092 60.1756 36.6983 59.2891C36.9239 57.078 37.1626 54.859 37.3829 52.6322C37.4144 52.3148 37.4459 51.9948 37.4747 51.6775C37.5665 50.7228 37.6504 49.7654 37.7291 48.8054C37.7554 48.4854 37.7816 48.1655 37.8052 47.8455C37.8288 47.5255 37.8524 47.2055 37.876 46.8855C37.9442 45.9229 38.0019 44.9603 38.0491 43.9951C38.0622 43.6987 38.0754 43.4049 38.0858 43.1112C38.0885 43.0141 38.0911 42.9145 38.0937 42.8174C38.099 42.6233 38.1042 42.4292 38.1094 42.2351C38.1094 42.1171 38.1147 41.9991 38.1147 41.8811C38.1147 41.7079 38.1199 41.5375 38.1199 41.3644C38.1199 41.2385 38.1199 41.1126 38.1199 40.9867C38.1199 40.824 38.1199 40.6614 38.1199 40.4988C38.1199 40.3703 38.1199 40.2391 38.1173 40.1106C38.1173 39.9506 38.1121 39.7933 38.1068 39.6333C38.1016 39.3605 38.0937 39.0877 38.0832 38.8175C38.078 38.7074 38.0754 38.5946 38.0701 38.4844C38.0622 38.3087 38.0544 38.1356 38.0439 37.9599C38.0386 37.8602 38.0334 37.7632 38.0281 37.6635C38.0177 37.4825 38.0072 37.2989 37.994 37.1179C37.9888 37.0314 37.9836 36.9474 37.9757 36.8609C37.9626 36.6668 37.9468 36.4753 37.9311 36.2839C37.9258 36.2262 37.9206 36.1684 37.9154 36.1081C37.8603 35.4655 37.7921 34.8282 37.7134 34.1908C37.6741 33.8787 37.6347 33.5639 37.5901 33.2544C37.5901 33.2439 37.5875 33.2308 37.5849 33.2203C37.5508 32.9869 37.5167 32.7561 37.48 32.5227C37.4773 32.4991 37.4721 32.4754 37.4695 32.4545C37.4328 32.2184 37.3934 31.985 37.3541 31.7489C37.3016 32.5331 37.2387 33.3148 37.16 34.0911C37.0236 35.4235 36.6852 36.9238 35.379 37.5796C34.0729 38.2326 32.1713 37.6399 30.9752 36.9422C29.4618 36.0583 29.1707 34.461 29.176 32.8374C29.1943 28.8952 29.0238 24.7747 29.8028 20.8928C30.1254 19.2824 30.6421 17.1631 32.41 16.5677C32.9608 16.3841 33.4565 16.3736 33.8945 16.4943C33.8158 16.2399 33.7345 15.9855 33.6532 15.7337C33.6296 15.6576 33.6034 15.5815 33.5771 15.5055C33.5168 15.3219 33.4565 15.1383 33.3935 14.9547C33.3673 14.8786 33.3411 14.8025 33.3175 14.7291C33.2335 14.4852 33.1496 14.2439 33.063 14.0026C33.063 13.9973 33.0604 13.9947 33.0578 13.9895C32.9686 13.7455 32.8794 13.5042 32.7876 13.2655C32.7614 13.1947 32.7326 13.1239 32.7063 13.0531C32.6381 12.8774 32.57 12.7016 32.4991 12.5259C32.4703 12.4551 32.444 12.3869 32.4152 12.3161C32.3208 12.0826 32.2237 11.8492 32.1267 11.6184C31.9614 11.2328 31.7936 10.8473 31.6205 10.4696C31.4474 10.0919 31.269 9.71942 31.088 9.35222C30.9962 9.16862 30.9044 8.98764 30.8126 8.80666C30.6264 8.44733 30.4376 8.09586 30.2435 7.75227C30.0494 7.40867 29.8527 7.07557 29.6507 6.75295C29.4487 6.43034 29.2441 6.11822 29.0369 5.81659C28.8297 5.51496 28.6173 5.22907 28.4022 4.95367C28.3209 4.85137 28.2396 4.74908 28.1583 4.64941C27.9144 4.35303 27.6652 4.07238 27.416 3.81534C27.2298 3.62387 27.0409 3.45076 26.8521 3.29339C26.7891 3.24093 26.7262 3.1911 26.6632 3.14126C26.5793 3.07569 26.4928 3.01536 26.4088 2.95504C26.2042 2.8134 25.9997 2.68751 25.7925 2.57734C25.7243 2.54062 25.6534 2.5039 25.5852 2.46981C24.822 2.09474 24.0456 1.88753 23.2614 1.70917C22.6214 1.56492 21.9762 1.43902 21.3336 1.25542C21.1185 1.19509 20.906 1.1269 20.691 1.05083C20.4785 0.974771 20.2661 0.898708 20.0536 0.822644C19.912 0.77281 19.773 0.725598 19.6313 0.678387C19.4897 0.631175 19.3507 0.583963 19.2117 0.541997C17.8111 0.0987322 16.4262 -0.176669 15.0125 0.130207C14.8708 0.161681 14.7292 0.198401 14.5875 0.240367C14.5167 0.26135 14.4459 0.284956 14.3751 0.308562C14.2335 0.358396 14.0892 0.413477 13.9476 0.476426C13.8138 0.534129 13.6774 0.599701 13.5436 0.665272C13.2079 0.835759 12.8774 1.03247 12.5496 1.2528C12.3529 1.38656 12.1561 1.52557 11.9621 1.67508C10.5378 2.77144 9.18443 4.29795 7.91234 5.98708C7.44547 6.60607 6.98385 7.24605 6.53271 7.91489C5.17669 9.924 3.92033 12.2111 2.96036 15.0622C2.42005 16.6648 1.97941 18.4037 1.62008 20.2162C1.36304 21.5118 1.14534 22.8443 0.959113 24.1924C0.885673 24.7301 0.814855 25.273 0.751906 25.816C0.720432 26.0861 0.688957 26.3589 0.660106 26.6291C0.631254 26.8992 0.602403 27.172 0.573551 27.4422C0.521094 27.9589 0.471259 28.4756 0.42667 28.9949C0.421425 29.0421 0.418802 29.0919 0.413556 29.1392C0.37159 29.6375 0.332247 30.1358 0.295527 30.6342C0.290281 30.6998 0.285035 30.7653 0.282413 30.8283C0.248315 31.324 0.216841 31.8197 0.187989 32.3181C0.185366 32.381 0.180121 32.444 0.177498 32.5043C0.148646 33.0105 0.12504 33.5167 0.104057 34.0256C0.104057 34.0701 0.101434 34.1147 0.0988116 34.162C0.0778286 34.6891 0.0594685 35.219 0.0437313 35.7488C0.0437313 35.7567 0.0437313 35.7645 0.0437313 35.7724C-0.000857476 37.4405 -0.011349 39.1139 0.0122569 40.7873H0.0148797C0.0647143 40.6955 0.117172 40.6063 0.169629 40.5145V40.5224ZM30.1543 46.6704C30.789 45.5846 31.6362 43.9715 33.105 44.0135C33.5588 44.0266 33.9365 44.1761 34.225 44.4121C34.3535 44.462 34.4794 44.5407 34.5974 44.6508C35.7698 45.7341 36.0085 47.5045 36.2787 49.0022C36.5698 50.61 36.8767 52.3883 36.5987 54.0171C36.3652 55.3915 35.5154 56.7213 34.1043 57.1173C32.5516 57.5527 31.1405 56.5167 30.2251 55.36C28.1347 52.7135 28.536 49.4349 30.1517 46.6704H30.1543ZM21.1028 62.1454C21.0687 64.0417 20.9585 65.9511 20.767 67.837C20.6306 69.1694 20.2923 70.6697 18.9861 71.3254C17.6799 71.9785 15.7783 71.3857 14.5823 70.688C13.0689 69.8041 12.7778 68.2068 12.783 66.5833C12.8014 62.6411 12.6309 58.5205 13.4099 54.6387C13.7325 53.0283 14.2492 50.9064 16.017 50.3136C17.0373 49.97 17.8792 50.227 18.4799 50.8172C18.8104 50.8198 19.1251 50.9982 19.3061 51.4204C20.7513 54.8354 21.1736 58.4576 21.1054 62.1454H21.1028ZM16.5678 6.77918C17.2025 5.69332 18.0497 4.08025 19.5185 4.12222C19.9723 4.13533 20.35 4.28483 20.6385 4.52089C20.767 4.57335 20.8929 4.64941 21.011 4.75957C22.1834 5.84282 22.4221 7.61326 22.6922 9.11092C22.9834 10.7187 23.2902 12.497 23.0122 14.1258C22.7788 15.5002 21.929 16.83 20.5179 17.2261C18.9651 17.6615 17.554 16.6254 16.6386 15.4688C14.5482 12.8223 14.9495 9.54369 16.5652 6.77918H16.5678ZM11.9542 24.9531C12.2453 23.4082 12.8119 21.42 14.7711 21.4856C15.7993 21.5197 16.5495 22.1597 16.8616 23.0043C16.8799 23.0252 16.8983 23.0462 16.9167 23.0698C19.1566 26.0363 19.7677 29.8395 19.668 33.4748C19.6235 35.0826 19.3953 36.9579 17.5173 37.3461C16.1377 37.632 14.1233 36.9291 13.0401 36.0688C11.5371 34.878 11.6735 32.9712 11.6106 31.2243C11.5345 29.1287 11.5634 27.0225 11.9516 24.9531H11.9542Z" fill="#FFB087"/>
</svg>
