<svg width="249" height="37" viewBox="0 0 249 37" fill="none" xmlns="http://www.w3.org/2000/svg">
<g clip-path="url(#clip0_48_82)">
<path d="M226.406 26.9174C226.773 26.3247 227.097 25.6753 227.379 24.9695C227.662 24.2357 227.888 23.4877 228.057 22.7253C228.226 21.935 228.354 21.1445 228.438 20.354C228.551 19.5635 228.622 18.8014 228.65 18.0675C227.859 17.2488 227.069 16.4302 226.279 15.6115C225.517 14.7647 224.726 14.1013 223.907 13.6214C223.907 12.2946 223.653 10.8267 223.145 9.21759C222.637 7.58027 221.945 5.9853 221.07 4.4327C220.223 2.85184 219.25 1.39804 218.149 0.0712471C217.048 -1.28376 215.904 -2.34235 214.719 -3.10455C216.074 -3.10455 217.161 -3.04809 217.979 -2.93518C218.798 -2.85048 219.461 -2.70935 219.969 -2.51173C220.477 -2.34235 220.873 -2.13064 221.155 -1.87658C221.437 -1.65074 221.72 -1.39667 222.002 -1.11439C222.397 -1.82011 223.06 -2.34235 223.992 -2.6811C224.924 -3.01986 225.94 -3.21747 227.041 -3.27393C226.702 -2.79404 226.406 -2.25766 226.152 -1.66485C225.926 -1.10028 225.813 -0.521569 225.813 0.0712471C225.813 0.212402 225.813 0.339446 225.813 0.452355C225.841 0.565265 225.869 0.692309 225.898 0.83344L230.386 11.3348L231.995 12.9862L233.562 11.3771L237.881 0.83344C237.909 0.692309 237.924 0.565265 237.924 0.452355C237.924 0.339446 237.924 0.212402 237.924 0.0712471C237.924 -0.549791 237.74 -1.14261 237.374 -1.7072C237.034 -2.27177 236.68 -2.79404 236.314 -3.27393C236.765 -3.04809 237.246 -2.8646 237.754 -2.72346C238.261 -2.58231 238.771 -2.4694 239.278 -2.38471C239.785 -2.32824 240.267 -2.28591 240.717 -2.25766C241.171 -2.22944 241.565 -2.21533 241.904 -2.21533C242.497 -2.21533 243.018 -2.27177 243.471 -2.38471C243.95 -2.49762 244.429 -2.61053 244.911 -2.72346C245.418 -2.8646 245.954 -2.99164 246.52 -3.10455C247.084 -3.21747 247.775 -3.27393 248.594 -3.27393C247.832 -2.79404 247.055 -2.13064 246.265 -1.28376C245.475 -0.436882 244.712 0.508822 243.978 1.5533C243.245 2.59778 242.539 3.69872 241.862 4.85614C241.213 5.98533 240.633 7.08627 240.125 8.15897C239.646 9.2317 239.264 10.2338 238.981 11.1654C238.7 12.0688 238.558 12.8168 238.558 13.4097C237.711 13.946 236.992 14.6658 236.399 15.5692C235.806 16.4443 235.199 17.263 234.578 18.0251C234.606 18.8719 234.677 19.7471 234.79 20.6504C234.931 21.5256 235.1 22.3725 235.298 23.1911C235.524 24.0099 235.764 24.7579 236.018 25.4353C236.3 26.0847 236.597 26.5786 236.907 26.9174C235.637 27.736 234.62 28.5406 233.858 29.3311C233.096 30.1214 232.489 31.1096 232.037 32.2951C231.755 31.1377 231.064 30.1074 229.963 29.2039C228.89 28.329 227.704 27.5668 226.406 26.9174Z" fill="white"/>
<path d="M216.239 -2.80903C215.562 -2.21622 214.814 -1.65165 213.995 -1.11527C213.205 -0.578921 212.372 -0.113125 211.497 0.282071C210.622 0.677289 209.718 1.00193 208.787 1.256C207.855 1.48184 206.924 1.59475 205.992 1.59475C205.682 1.59475 205.385 1.59475 205.103 1.59475C204.821 1.59475 204.538 1.58064 204.256 1.55239C204.171 2.39927 204.129 3.26029 204.129 4.13539C204.129 6.53488 204.143 8.9485 204.171 11.3762C204.2 13.804 204.214 16.3869 204.214 19.1252C204.214 20.5932 204.468 22.0186 204.976 23.4019C205.512 24.757 206.274 25.745 207.262 26.3661C206.077 26.9307 205.075 27.5235 204.256 28.1446C203.465 28.7937 202.76 29.7111 202.139 30.8969C201.659 29.7394 200.911 28.8078 199.895 28.1021C198.878 27.4246 197.735 26.846 196.465 26.3661C197.029 25.5475 197.453 24.4887 197.735 23.1902C198.017 21.8634 198.158 20.579 198.158 19.3369C198.158 18.1231 198.158 17.0503 198.158 16.1188C198.158 15.159 198.158 14.2697 198.158 13.4511C198.187 12.6324 198.201 11.842 198.201 11.0798C198.229 10.3176 198.243 9.49899 198.243 8.62386C198.271 7.74876 198.286 6.78897 198.286 5.74446C198.286 4.69999 198.286 3.472 198.286 2.06052C198.286 1.8347 198.286 1.62297 198.286 1.42537C198.286 1.22777 198.257 1.01604 198.201 0.790199C196.338 0.451446 194.559 0.112694 192.865 -0.226058C191.2 -0.593032 189.675 -0.776519 188.292 -0.776519C187.671 -0.776519 187.008 -0.705966 186.302 -0.564811L186.26 -0.691831C187.784 -1.14352 189.026 -1.69398 189.986 -2.34326C190.974 -2.99253 191.962 -3.76884 192.95 -4.67219C194.418 -4.24874 195.66 -3.90999 196.676 -3.65592C197.721 -3.40186 198.681 -3.20425 199.556 -3.06311C200.459 -2.92196 201.334 -2.82317 202.181 -2.7667C203.056 -2.73848 204.044 -2.72435 205.145 -2.72435C204.863 -3.20426 204.665 -3.6277 204.552 -3.99468C204.44 -4.38989 204.369 -4.79922 204.341 -5.22266C205.272 -4.62984 206.133 -4.16405 206.924 -3.8253C207.742 -3.51478 208.519 -3.27483 209.253 -3.10545C209.987 -2.9643 210.72 -2.87962 211.455 -2.85139C212.188 -2.82317 212.951 -2.80903 213.741 -2.80903C214.193 -2.80903 214.602 -2.82317 214.969 -2.85139C215.364 -2.87962 215.759 -2.92196 216.155 -2.97842L216.239 -2.80903Z" fill="white"/>
<path d="M185.095 -3.23158C184.502 -2.83637 183.994 -2.30002 183.57 -1.62251C183.175 -0.973231 182.85 -0.253394 182.596 0.537044C182.37 1.29924 182.201 2.10376 182.088 2.95064C181.975 3.7693 181.919 4.55974 181.919 5.32193C181.919 5.85828 181.933 6.43699 181.961 7.05803C182.018 7.65085 182.088 8.27188 182.173 8.92117C182.286 9.54223 182.413 10.1633 182.554 10.7843C182.723 11.3771 182.921 11.9276 183.147 12.4357C182.695 13.1979 182.384 14.1154 182.215 15.1881C182.074 16.2608 182.003 17.3335 182.003 18.4061C182.003 20.2129 182.229 21.935 182.681 23.5721C183.133 25.1812 184.078 26.7622 185.518 28.3148C183.994 28.1171 182.653 27.9901 181.495 27.9337C180.366 27.849 179.336 27.8065 178.404 27.8065C177.134 27.8065 176.033 27.849 175.101 27.9337C174.17 28.0184 173.238 28.1312 172.307 28.2723C172.899 27.9054 173.45 27.4255 173.958 26.8327C174.466 26.2117 174.904 25.5342 175.271 24.8001C175.638 24.0663 175.92 23.2899 176.118 22.4714C176.344 21.6526 176.456 20.8482 176.456 20.0577C176.456 18.618 176.287 17.2206 175.948 15.8656C175.609 14.4824 175.073 13.3391 174.339 12.4357C175.13 10.9678 175.652 9.62692 175.906 8.41304C176.16 7.19918 176.287 5.94297 176.287 4.64443C176.287 3.85399 176.245 3.00711 176.16 2.10376C175.059 1.6521 174.311 0.946374 173.916 -0.0134406C173.52 -1.00145 173.267 -2.08829 173.154 -3.27393C174.085 -3.01986 174.946 -2.83637 175.737 -2.72346C176.555 -2.61053 177.332 -2.55408 178.065 -2.55408C179.364 -2.55408 180.564 -2.62466 181.665 -2.76579C182.766 -2.93518 183.909 -3.09044 185.095 -3.23158Z" fill="white"/>
<path d="M145.919 28.0599C146.343 27.8057 146.71 27.326 147.02 26.6202C147.359 25.9145 147.641 25.1098 147.867 24.2065C148.121 23.3033 148.305 22.3717 148.418 21.4118C148.531 20.4238 148.587 19.5205 148.587 18.7019C148.587 17.4315 148.446 16.2177 148.164 15.0603C147.91 13.9028 147.543 13.0277 147.063 12.4349C147.514 11.9832 147.881 11.3904 148.164 10.6565C148.474 9.89428 148.714 9.08973 148.883 8.24285C149.053 7.36775 149.166 6.47851 149.222 5.57516C149.279 4.67184 149.307 3.82496 149.307 3.03452C149.307 2.38526 149.293 1.82067 149.264 1.34076C149.236 0.860875 149.208 0.493877 149.18 0.239812C148.531 0.0139933 147.853 -0.451803 147.147 -1.15753C146.47 -1.86328 145.962 -2.62547 145.623 -3.44412C147.43 -3.24651 149.138 -3.10537 150.747 -3.02068C152.384 -2.96422 153.922 -2.93599 155.362 -2.93599C158.439 -2.93599 160.923 -3.03479 162.815 -3.2324C164.706 -3.43 166.202 -3.52881 167.303 -3.52881C167.529 -3.52881 167.727 -3.51469 167.896 -3.48646C168.065 -3.48646 168.221 -3.47235 168.362 -3.44412C168.192 -3.10537 168.009 -2.47021 167.811 -1.53864C167.642 -0.607069 167.473 0.409189 167.303 1.51013C167.134 2.61108 166.978 3.6838 166.837 4.72828C166.725 5.77279 166.64 6.5632 166.583 7.09957L166.287 7.22659C165.299 6.49262 164.579 5.6881 164.127 4.81297C163.704 3.90965 163.379 2.8087 163.153 1.51013C162.758 1.19963 162.264 1.00201 161.671 0.917317C161.079 0.832629 160.331 0.790297 159.427 0.790297C158.693 0.790297 157.987 0.804408 157.31 0.832629C156.633 0.860874 156.096 0.874985 155.701 0.874985C155.56 1.69362 155.433 2.63932 155.32 3.71203C155.235 4.78475 155.15 5.92805 155.066 7.14191C155.009 8.35576 154.953 9.62608 154.896 10.9529C154.868 12.2514 154.854 13.55 154.854 14.8485C154.854 16.627 154.868 18.3208 154.896 19.9299C154.953 21.5106 155.037 22.8939 155.15 24.0796L162.307 24.7993C162.702 23.0491 163.393 21.4965 164.381 20.1416C165.398 18.7866 166.485 17.4739 167.642 16.2036L167.896 16.2882C167.811 16.9375 167.755 17.5868 167.727 18.2361C167.698 18.8572 167.684 19.4641 167.684 20.0569C167.684 21.5248 167.755 22.8516 167.896 24.0371C168.037 25.2229 168.206 26.112 168.404 26.705C167.924 26.7613 167.444 26.8461 166.964 26.9589C166.513 27.0436 166.019 27.1988 165.482 27.4246C164.946 27.6505 164.367 27.961 163.746 28.3562C163.153 28.7515 162.49 29.2598 161.756 29.8806C159.385 29.175 157.042 28.6387 154.727 28.2715C152.412 27.9329 150.323 27.7635 148.46 27.7635C147.557 27.7635 146.724 27.9046 145.962 28.1868L145.919 28.0599Z" fill="white"/>
<path d="M114.3 33.8498C112.155 34.9225 110.151 35.5999 108.287 35.8824C106.424 36.1646 104.731 36.3057 103.206 36.3057C101.654 36.3057 100.27 36.1082 99.0565 35.713C97.8427 35.3177 96.7275 34.8097 95.7112 34.1886C94.7232 33.5957 93.8058 32.9465 92.9589 32.2407C92.112 31.535 91.2793 30.8717 90.4605 30.2506C89.6419 29.6579 88.8092 29.1637 87.9623 28.7685C87.1438 28.3733 86.2402 28.1758 85.2523 28.1758C84.349 28.1758 83.4315 28.2605 82.4999 28.4299C83.629 27.0747 84.4618 25.4798 84.9981 23.645C85.5345 21.7818 85.8028 19.8339 85.8028 17.8014C85.8028 17.2086 85.7744 16.6017 85.718 15.9806C85.6617 15.3313 85.5486 14.7103 85.3792 14.1175C85.2381 13.4964 85.0123 12.9177 84.7017 12.3814C84.4195 11.8168 84.0384 11.3228 83.5585 10.8993C84.349 9.43139 84.8853 8.09052 85.1675 6.87664C85.4781 5.66278 85.6333 4.40657 85.6333 3.10801C85.6333 1.78124 85.5486 0.764985 85.3792 0.0592346C85.2381 -0.674713 84.9981 -1.25342 84.6595 -1.67686C84.3207 -2.1003 83.8832 -2.45319 83.3468 -2.73547C82.8386 -3.04599 82.2036 -3.45532 81.4414 -3.96345C81.9778 -3.90699 82.4858 -3.86465 82.9658 -3.83642C83.4738 -3.80819 83.9679 -3.79407 84.4478 -3.79407C85.5769 -3.79407 86.6213 -3.85053 87.5812 -3.96345C88.5409 -4.07637 89.4444 -4.2034 90.2913 -4.34454C91.1382 -4.48569 91.9567 -4.61272 92.7472 -4.72564C93.5375 -4.83856 94.3421 -4.89502 95.1607 -4.89502C95.7254 -4.89502 96.3323 -4.85268 96.9816 -4.76799C96.2759 -4.76799 95.5984 -4.49981 94.949 -3.96345C94.328 -3.42709 93.7635 -2.73547 93.2553 -1.88859C92.7753 -1.06993 92.3803 -0.152473 92.0698 0.863783C91.7873 1.85182 91.6462 2.82572 91.6462 3.78551V14.4986C91.6462 15.4302 91.6745 16.3194 91.7309 17.1663C91.8156 17.9849 91.9145 18.7329 92.0273 19.4106C92.1684 20.0597 92.3237 20.6244 92.4931 21.1043C92.6625 21.5841 92.8459 21.9229 93.0436 22.1204C92.5637 22.3181 91.999 22.5862 91.3498 22.925C90.7288 23.2356 90.2488 23.7155 89.9102 24.3647C90.0794 24.9293 90.5735 25.6351 91.3921 26.482C92.239 27.3006 93.213 28.1194 94.3138 28.9379C95.4148 29.7848 96.5439 30.547 97.7013 31.2244C98.8871 31.9019 99.8892 32.3677 100.708 32.6218C100.341 32.1419 99.9739 31.5774 99.607 30.9281C99.2682 30.307 98.9859 29.7565 98.7601 29.2768C100.059 30.067 101.258 30.7306 102.359 31.2669C103.46 31.8033 104.491 32.2407 105.45 32.5796C106.438 32.9182 107.384 33.1582 108.287 33.2993C109.191 33.4406 110.108 33.5112 111.04 33.5112C111.52 33.5112 112.014 33.4829 112.522 33.4265C113.03 33.3982 113.566 33.3559 114.131 33.2993L114.3 33.8498Z" fill="#FF0909"/>
<path d="M91.8885 33.8498C89.7431 34.9225 87.7388 35.5999 85.8756 35.8824C84.0124 36.1646 82.3186 36.3057 80.7943 36.3057C79.2416 36.3057 77.8584 36.1082 76.6446 35.713C75.4306 35.3177 74.3156 34.8097 73.2993 34.1886C72.3113 33.5957 71.3939 32.9465 70.547 32.2407C69.7001 31.535 68.8674 30.8717 68.0486 30.2506C67.2301 29.6579 66.3973 29.1637 65.5504 28.7685C64.7316 28.3733 63.8284 28.1758 62.8404 28.1758C61.9371 28.1758 61.0194 28.2605 60.0881 28.4299C61.2172 27.0747 62.0499 25.4798 62.5862 23.645C63.1226 21.7818 63.3909 19.8339 63.3909 17.8014C63.3909 17.2086 63.3626 16.6017 63.3062 15.9806C63.2495 15.3313 63.1367 14.7103 62.9673 14.1175C62.8262 13.4964 62.6004 12.9177 62.2899 12.3814C62.0077 11.8168 61.6266 11.3228 61.1466 10.8993C61.9371 9.43139 62.4735 8.09052 62.7557 6.87664C63.0662 5.66278 63.2215 4.40657 63.2215 3.10801C63.2215 1.78124 63.1367 0.764985 62.9673 0.0592346C62.8262 -0.674713 62.5862 -1.25342 62.2476 -1.67686C61.9088 -2.1003 61.4713 -2.45319 60.935 -2.73547C60.4267 -3.04599 59.7915 -3.45532 59.0293 -3.96345C59.5656 -3.90699 60.0739 -3.86465 60.5536 -3.83642C61.0619 -3.80819 61.5558 -3.79407 62.0357 -3.79407C63.1651 -3.79407 64.2094 -3.85053 65.1694 -3.96345C66.129 -4.07637 67.0323 -4.2034 67.8792 -4.34454C68.7261 -4.48569 69.5449 -4.61272 70.3351 -4.72564C71.1256 -4.83856 71.9302 -4.89502 72.7488 -4.89502C73.3135 -4.89502 73.9204 -4.85268 74.5698 -4.76799C73.864 -4.76799 73.1863 -4.49981 72.5372 -3.96345C71.9161 -3.42709 71.3514 -2.73547 70.8434 -1.88859C70.3634 -1.06993 69.9682 -0.152473 69.6577 0.863783C69.3755 1.85182 69.2343 2.82572 69.2343 3.78551V14.4986C69.2343 15.4302 69.2624 16.3194 69.319 17.1663C69.4038 17.9849 69.5024 18.7329 69.6154 19.4106C69.7565 20.0597 69.9118 20.6244 70.0812 21.1043C70.2506 21.5841 70.434 21.9229 70.6317 22.1204C70.1518 22.3181 69.5871 22.5862 68.938 22.925C68.3169 23.2356 67.837 23.7155 67.4981 24.3647C67.6675 24.9293 68.1616 25.6351 68.9802 26.482C69.8271 27.3006 70.8009 28.1194 71.9019 28.9379C73.003 29.7848 74.132 30.547 75.2895 31.2244C76.4752 31.9019 77.4773 32.3677 78.2959 32.6218C77.929 32.1419 77.562 31.5774 77.1949 30.9281C76.8563 30.307 76.5738 29.7565 76.348 29.2768C77.6468 30.067 78.8464 30.7306 79.9474 31.2669C81.0482 31.8033 82.0787 32.2407 83.0386 32.5796C84.0266 32.9182 84.9721 33.1582 85.8756 33.2993C86.7789 33.4406 87.6963 33.5112 88.6279 33.5112C89.1078 33.5112 89.6017 33.4829 90.11 33.4265C90.618 33.3982 91.1544 33.3559 91.719 33.2993L91.8885 33.8498Z" fill="#FF0909"/>
<path d="M33.6206 26.5243C34.0441 26.2702 34.4111 25.7902 34.7216 25.0844C35.0602 24.3789 35.3427 23.5743 35.5685 22.671C35.8226 21.7677 36.006 20.8361 36.119 19.8762C36.2318 18.8882 36.2882 17.9848 36.2882 17.1662C36.2882 15.8959 36.1471 14.682 35.8649 13.5246C35.6107 12.3672 35.2438 11.4921 34.7638 10.8993C35.2155 10.4476 35.5826 9.85479 35.8649 9.12082C36.1754 8.35862 36.4154 7.5541 36.5848 6.70722C36.754 5.83209 36.867 4.94288 36.9234 4.03953C36.9798 3.13618 37.0081 2.2893 37.0081 1.49889C37.0081 0.849604 36.994 0.285009 36.9659 -0.194875C36.9376 -0.674782 36.9092 -1.04176 36.8812 -1.29582C36.2318 -1.52166 35.5543 -1.98746 34.8486 -2.69319C34.1711 -3.39892 33.6631 -4.16111 33.3242 -4.97976C35.1308 -4.78216 36.8387 -4.64101 38.4477 -4.55632C40.0851 -4.49986 41.6236 -4.47164 43.0632 -4.47164C46.1405 -4.47164 48.6245 -4.57044 50.516 -4.76804C52.4072 -4.96565 53.9035 -5.06445 55.0043 -5.06445C55.2303 -5.06445 55.4278 -5.05034 55.5973 -5.02211C55.7667 -5.02211 55.922 -5.00799 56.0631 -4.97976C55.8936 -4.66924 55.7101 -4.10465 55.5125 -3.286C55.3431 -2.46734 55.1737 -1.564 55.0043 -0.575983C54.8351 0.383831 54.6798 1.32951 54.5385 2.26108C54.4257 3.16443 54.341 3.84193 54.2846 4.2936L53.9882 4.42062C53 3.85604 52.2803 3.22087 51.8287 2.51514C51.4051 1.80942 51.0804 0.962514 50.8546 -0.0254984C50.4593 -0.33603 49.9655 -0.533628 49.3727 -0.618315C48.7797 -0.703003 48.0317 -0.745359 47.1284 -0.745359C46.3944 -0.745359 45.6886 -0.731249 45.0111 -0.703003C44.3337 -0.674782 43.7973 -0.660671 43.4021 -0.660671C43.1763 0.440274 43.0068 1.78117 42.894 3.36203C42.781 4.94288 42.6963 6.62253 42.6399 8.40098C43.0352 8.45742 43.4304 8.49978 43.8256 8.528C44.249 8.528 44.5736 8.528 44.7995 8.528C45.3922 8.528 45.971 8.30218 46.5355 7.8505C47.1285 7.37059 47.6929 6.76366 48.2292 6.02971C48.3706 6.36847 48.5117 6.76366 48.6528 7.21535C48.7939 7.63879 48.9492 8.07634 49.1186 8.528C49.3161 8.95144 49.528 9.36077 49.7538 9.75599C49.9796 10.1512 50.2477 10.4476 50.5582 10.6452C50.3041 10.8993 50.0502 11.2239 49.796 11.6191C49.5702 12.0143 49.3444 12.4378 49.1186 12.8895C48.9208 13.3411 48.7233 13.7928 48.5258 14.2445C48.3564 14.6961 48.2012 15.1055 48.06 15.4725C47.8906 15.1619 47.6929 14.8232 47.4671 14.4562C47.2412 14.0892 47.0013 13.7504 46.7474 13.4399C46.4932 13.1294 46.211 12.8753 45.9005 12.6777C45.618 12.4519 45.3075 12.339 44.9689 12.339C44.7148 12.339 44.3478 12.3531 43.8679 12.3813C43.3879 12.4095 42.9504 12.466 42.5552 12.5507V13.3129C42.5552 15.0913 42.5694 16.7851 42.5977 18.3941C42.6541 19.9751 42.7388 21.3583 42.8516 22.5438L50.0077 23.2637C50.4029 21.5136 51.0946 19.9609 52.0826 18.606C53.0989 17.2509 54.1857 15.9382 55.3431 14.6679L55.5973 14.7526C55.5126 15.4019 55.4562 16.0511 55.4278 16.7004C55.3995 17.3215 55.3856 17.9284 55.3856 18.5213C55.3856 19.9892 55.4562 21.3158 55.5973 22.5016C55.7384 23.6873 55.9078 24.5764 56.1053 25.1692C55.6253 25.2258 55.1456 25.3105 54.6657 25.4233C54.214 25.508 53.7199 25.6633 53.1836 25.8891C52.6472 26.1149 52.0686 26.4254 51.4476 26.8207C50.8546 27.2159 50.1913 27.724 49.4572 28.345C47.086 27.6392 44.7431 27.1029 42.4282 26.736C40.1134 26.3971 38.0244 26.2279 36.1612 26.2279C35.258 26.2279 34.4252 26.369 33.6631 26.6513L33.6206 26.5243Z" fill="#FF0909"/>
<path d="M12.7465 -4.76771C12.3231 -4.3725 11.9561 -3.83615 11.6456 -3.15864C11.3633 -2.50937 11.1233 -1.78951 10.9257 -0.999099C10.7563 -0.236906 10.6293 0.567643 10.5446 1.41452C10.4599 2.23318 10.4176 3.0236 10.4176 3.78579V9.1635C11.3491 9.27641 12.3231 9.34698 13.3393 9.37521C14.3556 9.37521 15.4001 9.37521 16.4728 9.37521C17.235 9.37521 17.9407 9.36109 18.59 9.33287C19.2393 9.30465 19.9732 9.2623 20.7919 9.20583V3.10829C20.7919 1.72505 20.6931 0.482955 20.4955 -0.61799C20.2979 -1.74718 19.9168 -2.98926 19.3522 -4.34427C20.3684 -4.1749 21.427 -4.09021 22.528 -4.09021C23.7136 -4.09021 24.9275 -4.16078 26.1696 -4.30193C27.4398 -4.44308 28.7244 -4.59834 30.0229 -4.76771C29.2608 -4.31605 28.6678 -3.72323 28.2445 -2.98926C27.8209 -2.28353 27.4964 -1.50723 27.2706 -0.660347C27.0729 0.186535 26.9459 1.04755 26.8895 1.92265C26.8612 2.79775 26.8471 3.61642 26.8471 4.37861C26.8471 5.02789 26.8754 5.67717 26.9318 6.32643C26.9882 6.9475 27.087 7.55442 27.2281 8.14724C27.3976 8.71183 27.6092 9.23407 27.8634 9.71396C28.1456 10.1939 28.4986 10.5891 28.9219 10.8996C28.4139 11.8029 27.9481 12.9321 27.5245 14.2871C27.1293 15.6421 26.9318 16.9972 26.9318 18.3522C26.9318 19.086 26.9459 19.806 26.974 20.5117C27.0306 21.1892 27.1293 21.8386 27.2706 22.4596C27.4398 23.0524 27.6656 23.6029 27.9481 24.1109C28.2586 24.5909 28.6539 24.9861 29.1336 25.2967C27.807 25.7764 26.8048 26.3974 26.1271 27.1598C25.4497 27.922 24.8852 28.67 24.4334 29.4039C24.2923 29.037 24.0524 28.6417 23.7136 28.2184C23.3749 27.8231 22.9797 27.4421 22.528 27.0751C22.0763 26.708 21.5682 26.3694 21.0036 26.0588C20.4673 25.7483 19.9027 25.4942 19.3098 25.2967C19.6768 24.9014 19.9591 24.3932 20.1567 23.7723C20.3543 23.1229 20.4955 22.403 20.5802 21.6128C20.6931 20.8223 20.7495 19.9754 20.7495 19.0721C20.7778 18.1687 20.7919 17.2512 20.7919 16.3197V14.5412C19.9732 14.4565 19.2534 14.4 18.6323 14.3718C18.0395 14.3154 17.4044 14.2871 16.7268 14.2871C15.4565 14.2871 14.3132 14.3154 13.297 14.3718C12.309 14.4283 11.3774 14.513 10.5023 14.6259V16.8701C10.5023 18.6769 10.6716 20.3987 11.0104 22.0361C11.3491 23.6451 12.069 25.2261 13.1699 26.7785C11.8996 26.581 10.7563 26.4541 9.74007 26.3974C8.75205 26.313 7.87693 26.2705 7.11473 26.2705C5.84441 26.2705 4.74347 26.313 3.8119 26.3974C2.88033 26.4822 1.94876 26.5952 1.01719 26.7363C1.61001 26.3694 2.16048 25.8894 2.66861 25.2967C3.17675 24.7037 3.6143 24.0404 3.98127 23.3065C4.34827 22.5724 4.63056 21.7961 4.82816 20.9775C5.054 20.1587 5.16691 19.3402 5.16691 18.5216C5.16691 17.0818 4.99753 15.6845 4.65878 14.3295C4.32003 12.9462 3.78368 11.8029 3.04971 10.8996C3.84012 9.43167 4.37649 8.09077 4.65878 6.87692C4.96931 5.66304 5.12458 4.40685 5.12458 3.10829C5.12458 2.31787 5.08222 1.47099 4.99753 0.567643C3.98127 0.313579 3.03559 -0.236906 2.16048 -1.08379C1.3136 -1.93067 0.791356 -3.17275 0.59375 -4.81006C1.77939 -4.55599 2.88033 -4.3725 3.89659 -4.25959C4.91284 -4.14667 5.87266 -4.09021 6.77598 -4.09021C7.84871 -4.09021 8.85085 -4.16078 9.78242 -4.30193C10.7422 -4.47131 11.7302 -4.62657 12.7465 -4.76771Z" fill="#FF0909"/>
<path d="M111.775 26.2816C112.046 29.3414 116.063 30.4443 118.084 28.4318L120.851 25.6986C121.944 24.741 122.568 24.7118 123.447 25.6986L126.218 28.4129C128.169 30.4448 132.627 29.9804 132.833 26.6967C132.852 26.4917 132.863 26.284 132.863 26.0738L133.878 14.2062C133.878 10.621 130.944 7.6875 127.359 7.6875H117.175C113.59 7.6875 110.656 10.621 110.656 14.2062L111.772 26.0738C111.772 26.1434 111.774 26.213 111.776 26.2821L111.775 26.2816Z" fill="#FF0808"/>
<path d="M132.851 25.975C132.846 26.0578 132.84 26.1409 132.832 26.2235C132.626 29.5072 128.168 29.9716 126.217 27.9397L123.446 25.2254C122.568 24.2385 121.944 24.2676 120.85 25.2254L118.083 27.9585C116.1 29.9343 112.193 28.9071 111.794 25.9745H111.762L111.771 26.0737C111.771 26.1433 111.772 26.2129 111.775 26.282C112.046 29.3415 116.063 30.4444 118.083 28.4321L120.85 25.6989C121.943 24.7412 122.568 24.7119 123.446 25.6989L126.217 28.413C128.168 30.4449 132.626 29.9808 132.832 26.6971C132.852 26.492 132.862 26.2844 132.862 26.0741L132.871 25.975H132.851Z" fill="#FF0808"/>
<path d="M111.57 23.9448C111.608 23.7296 113.535 16.2634 113.535 16.2634C113.535 16.2634 119.166 16.2972 121.769 13.6656L119.844 17.6904C119.844 17.6904 129.016 17.3227 130.738 13.462C130.738 13.462 133.046 24.2768 133.043 23.9444C133.04 23.6117 131.725 11.8461 131.725 11.8461L117.598 11.188L112.49 13.8586L111.948 15.9874L111.57 23.9444V23.9448Z" fill="#B61F24"/>
<path d="M114.953 25.544C116.673 26.2236 118.77 24.993 119.638 22.7966L113.41 20.3369C112.542 22.5335 113.233 24.8651 114.953 25.544Z" fill="#B61F24"/>
<path d="M115.191 24.9366C116.911 25.6159 118.901 24.6577 119.636 22.7966L113.408 20.3369C112.673 22.1982 113.471 24.2575 115.191 24.9371V24.9366Z" fill="#8E191C"/>
<path d="M115.293 24.6806C117.013 25.3599 118.957 24.5163 119.637 22.7966L113.409 20.3369C112.729 22.0569 113.573 24.0015 115.293 24.681V24.6806Z" fill="white"/>
<path d="M129.536 25.544C127.817 26.2236 125.719 24.993 124.852 22.7966L131.079 20.3369C131.947 22.5335 131.256 24.8651 129.536 25.544Z" fill="#B61F24"/>
<path d="M129.297 24.9366C127.577 25.6159 125.587 24.6577 124.852 22.7966L131.079 20.3369C131.815 22.1982 131.016 24.2575 129.297 24.9368V24.9366Z" fill="#8E191C"/>
<path d="M129.195 24.6806C127.476 25.3599 125.531 24.5163 124.852 22.7966L131.079 20.3369C131.759 22.0569 130.915 24.0015 129.195 24.681V24.6806Z" fill="white"/>
<path d="M113.034 15.6572H112.033V21.3282L113.034 15.6572Z" fill="#181A18"/>
<path d="M130.74 13.4619L131.64 14.3232L132.54 21.7927L130.74 13.4619Z" fill="#181A18"/>
<path d="M133.878 14.2062C133.878 10.621 130.944 7.6875 127.359 7.6875H117.175C113.59 7.6875 110.656 10.621 110.656 14.2062L111.572 23.9461L113.034 15.6588C113.034 15.6588 118.461 15.7274 121.77 13.6668C121.537 14.8648 120.636 15.9691 119.448 17.034C119.448 17.034 127.546 16.8308 130.74 13.4637L133.045 23.9461L133.878 14.2062Z" fill="#272823"/>
<path d="M117.175 8.89708H127.359C130.698 8.89708 133.472 11.442 133.836 14.6881L133.878 14.2062C133.878 10.621 130.944 7.6875 127.359 7.6875H117.175C113.59 7.6875 110.656 10.621 110.656 14.2062L110.7 14.6686C111.074 11.4322 113.842 8.89756 117.175 8.89756L117.175 8.89708Z" fill="#181A18"/>
<path d="M128.154 7.73633C127.188 9.93149 124.297 11.5246 120.879 11.5246C119.131 11.5246 117.522 11.1077 116.236 10.4073C117.623 11.7487 119.862 12.6197 122.389 12.6197C126.126 12.6197 129.235 10.7135 129.884 8.1992C129.34 7.96916 128.76 7.81054 128.154 7.73633Z" fill="#303232"/>
<path d="M133.25 13.2867C133.768 15.524 133.68 17.4553 133.053 17.6C132.426 17.7447 131.499 16.0486 130.982 13.8117C130.464 11.5748 130.552 9.64305 131.179 9.49836C131.805 9.35366 132.732 11.0498 133.25 13.2867Z" fill="#181A18"/>
<path d="M131.338 9.8413C131.338 9.8413 133.727 8.92996 134.433 8.31357C135.14 7.69718 135.601 6.88831 134.781 5.52844C133.961 4.16904 133.626 3.59673 134.096 3.03598C134.564 2.47526 135.782 0.837584 136.528 -0.889143C137.274 -2.61632 137.649 -4.85693 137.649 -4.85693C137.649 -4.85693 139.305 -0.789873 138.952 0.694282C138.6 2.17888 137.098 3.88289 137.265 4.59482C137.432 5.30675 138.47 6.31458 138.682 7.21574C138.893 8.11736 139.219 10.1432 138.146 11.5467C137.074 12.9497 136.111 14.1774 135.044 15.1787C133.977 16.1801 132.794 17.1086 132.794 17.1086C132.794 17.1086 130.438 13.2562 131.338 9.84086V9.8413Z" fill="#FF0808"/>
<path d="M135.739 0.649298C135.696 0.722117 135.654 0.795857 135.611 0.866812C135.731 1.12144 136.043 1.13768 136.39 0.994823C136.954 0.761996 137.829 -0.0375977 137.829 -0.0375977C137.829 -0.0375977 136.59 0.647434 136.068 0.770349C135.899 0.810227 135.8 0.747153 135.739 0.64977V0.649298Z" fill="#FF0808"/>
<path d="M135.125 1.63178C134.994 1.82888 134.868 2.00977 134.748 2.17766C134.748 2.17766 134.748 2.17861 134.749 2.17906C134.877 2.49723 135.529 2.74861 135.967 2.44574C136.405 2.14288 137.687 1.06641 137.687 1.06641C137.687 1.06641 136.202 1.87527 135.738 2.03389C135.493 2.11785 135.23 1.94392 135.125 1.63131V1.63178Z" fill="#FF0808"/>
<path d="M135.096 3.75183C134.682 3.84924 134.219 3.70176 133.891 3.55612C133.886 3.70825 133.919 3.87614 133.991 4.06675C134.472 4.11267 135.056 4.13865 135.368 4.03846C135.959 3.84971 136.802 2.75049 136.802 2.75049C136.802 2.75049 135.827 3.58024 135.096 3.75183Z" fill="#FF0808"/>
<path d="M135.561 4.79453C135.22 4.92764 134.747 4.89517 134.373 4.83583C134.438 4.94897 134.507 5.06863 134.584 5.19664C135.109 5.20731 135.662 5.12569 135.829 5.08208C136.22 4.98052 136.769 4.01025 136.769 4.01025C136.769 4.01025 136.203 4.54363 135.561 4.79453H135.561Z" fill="#FF0808"/>
<path d="M136.26 6.28246C135.962 6.3525 135.48 6.27366 135.086 6.18274C135.146 6.35759 135.183 6.52225 135.199 6.67669C135.55 6.70359 135.94 6.70824 136.243 6.63681C136.955 6.46984 136.85 5.81494 136.85 5.81494C136.85 5.81494 136.829 6.14888 136.26 6.28246Z" fill="#FF0808"/>
<path d="M136.502 8.37855C136.219 8.44488 135.544 7.96577 135.043 7.56689C134.992 7.66801 134.932 7.76402 134.863 7.85586C135.251 8.2691 135.906 8.86879 136.361 8.76211C137.045 8.60163 137.726 8.09147 137.726 8.09147C137.726 8.09147 136.976 8.26724 136.502 8.37902L136.502 8.37855Z" fill="#FF0808"/>
<path d="M134.004 8.61168C134.238 9.24013 134.552 10.0509 134.689 10.2554C134.92 10.6014 135.118 10.8055 135.319 10.8082C135.52 10.811 136.501 10.2804 136.501 10.2804C136.501 10.2804 135.623 10.51 135.152 10.0968C134.952 9.92146 134.583 9.02262 134.339 8.38721C134.245 8.45955 134.131 8.53471 134.004 8.61168Z" fill="#FF0808"/>
<path d="M134.107 12.0444C133.888 11.8023 133.901 11.5922 133.802 11.1706C133.733 10.877 133.542 9.64701 133.431 8.92578C133.298 8.9935 133.16 9.05983 133.021 9.12477C133.212 9.93409 133.528 11.2847 133.605 11.6116C133.717 12.0861 133.856 12.2536 134.037 12.3612C134.218 12.4688 134.744 12.1951 134.744 12.1951C134.744 12.1951 134.338 12.2999 134.107 12.0439V12.0444Z" fill="#FF0808"/>
<path d="M132.377 9.41553C132.191 9.49625 132.019 9.56765 131.869 9.62981C131.883 10.1108 131.911 10.6771 131.969 11.0286C132.085 11.7355 132.768 12.7266 132.768 12.7266C132.768 12.7266 132.639 12.3899 132.564 11.8565C132.508 11.4567 132.419 10.0797 132.378 9.41553H132.377Z" fill="#FF0808"/>
<path d="M137.266 4.59654C137.157 4.13506 137.75 3.25616 138.277 2.29102C137.791 3.06045 137.09 3.85865 137.019 4.50426C136.924 5.37759 137.882 6.65629 138.324 7.85613C138.766 9.05596 137.911 10.753 136.831 12.233C135.93 13.4685 133.222 15.5955 132.35 16.2662C132.602 16.7912 132.795 17.1108 132.795 17.1108C132.795 17.1108 133.978 16.1822 135.045 15.1809C136.112 14.1796 137.075 12.9523 138.148 11.5489C139.22 10.1459 138.894 8.11956 138.683 7.21793C138.471 6.31631 137.433 5.30847 137.266 4.59654H137.266Z" fill="#FF0808"/>
<path d="M138.68 1.47684C138.714 1.39845 138.747 1.31962 138.778 1.2417C138.749 1.28667 138.716 1.36459 138.68 1.47684Z" fill="#D09A2D"/>
<path d="M111.324 13.2867C110.806 15.524 110.894 17.4553 111.521 17.6C112.147 17.7447 113.074 16.0486 113.592 13.8117C114.11 11.5743 114.021 9.64305 113.395 9.49836C112.768 9.35366 111.841 11.0498 111.324 13.2867Z" fill="#181A18"/>
<path d="M113.236 9.8413C113.236 9.8413 110.847 8.92996 110.141 8.31357C109.434 7.69718 108.973 6.88831 109.793 5.52844C110.613 4.16904 110.948 3.59673 110.478 3.03598C110.01 2.47526 108.792 0.837584 108.046 -0.889143C107.3 -2.61632 106.925 -4.85693 106.925 -4.85693C106.925 -4.85693 105.269 -0.789873 105.622 0.694282C105.974 2.17888 107.476 3.88289 107.309 4.59482C107.142 5.30675 106.104 6.31458 105.892 7.21574C105.681 8.11736 105.355 10.1432 106.428 11.5467C107.5 12.9497 108.463 14.1774 109.53 15.1787C110.597 16.1801 111.78 17.1086 111.78 17.1086C111.78 17.1086 114.136 13.2562 113.236 9.84086V9.8413Z" fill="#FF0808"/>
<path d="M108.836 0.649298C108.879 0.722117 108.921 0.795857 108.963 0.866812C108.844 1.12144 108.532 1.13768 108.185 0.994823C107.62 0.761996 106.746 -0.0375977 106.746 -0.0375977C106.746 -0.0375977 107.985 0.647434 108.507 0.770349C108.676 0.810227 108.775 0.747153 108.836 0.64977V0.649298Z" fill="#FF0808"/>
<path d="M109.449 1.63178C109.58 1.82888 109.706 2.00977 109.826 2.17766C109.826 2.17766 109.826 2.17861 109.825 2.17906C109.696 2.49723 109.045 2.74861 108.607 2.44574C108.169 2.14288 106.887 1.06641 106.887 1.06641C106.887 1.06641 108.425 1.93325 108.888 2.09187C109.133 2.17582 109.344 1.94392 109.449 1.63131L109.449 1.63178Z" fill="#FF0808"/>
<path d="M109.478 3.75183C109.892 3.84924 110.355 3.70176 110.683 3.55612C110.688 3.70825 110.655 3.87614 110.583 4.06675C110.102 4.11267 109.518 4.13865 109.206 4.03846C108.615 3.84971 107.771 2.75049 107.771 2.75049C107.771 2.75049 108.747 3.58024 109.478 3.75183Z" fill="#FF0808"/>
<path d="M109.013 4.79453C109.353 4.92764 109.827 4.89517 110.201 4.83583C110.136 4.94897 110.067 5.06863 109.99 5.19664C109.465 5.20731 108.878 5.19247 108.745 5.08208C108.493 4.87292 107.805 4.01025 107.805 4.01025C107.805 4.01025 108.371 4.54363 109.013 4.79453Z" fill="#FF0808"/>
<path d="M108.313 6.28293C108.612 6.35296 109.094 6.27412 109.487 6.18321C109.427 6.35806 109.39 6.52271 109.375 6.67715C109.023 6.70405 108.633 6.7087 108.33 6.63728C107.618 6.47031 107.772 5.81543 107.772 5.81543C107.772 5.81543 107.744 6.14935 108.313 6.28293H108.313Z" fill="#FF0808"/>
<path d="M108.072 8.37855C108.404 8.36788 109.029 7.96577 109.531 7.56689C109.582 7.66801 109.641 7.76402 109.71 7.85586C109.322 8.2691 108.605 8.89382 108.15 8.78717C107.467 8.62669 106.848 8.09147 106.848 8.09147C106.848 8.09147 107.585 8.39478 108.072 8.37902L108.072 8.37855Z" fill="#FF0808"/>
<path d="M110.57 8.61168C110.336 9.24013 110.022 10.0509 109.885 10.2554C109.653 10.6014 109.507 10.7132 109.321 10.7493C109.124 10.7878 108.072 10.2804 108.072 10.2804C108.072 10.2804 109.044 10.4084 109.422 10.0968C109.627 9.9275 109.991 9.02262 110.235 8.38721C110.329 8.45955 110.442 8.53471 110.57 8.61168Z" fill="#FF0808"/>
<path d="M110.394 12.01C110.687 11.8287 110.671 11.5922 110.77 11.1706C110.839 10.877 111.03 9.64701 111.141 8.92578C111.274 8.9935 111.412 9.05983 111.55 9.12477C111.36 9.93409 111.043 11.2847 110.966 11.6116C110.855 12.0861 110.715 12.2536 110.535 12.3612C110.354 12.4688 109.828 12.1951 109.828 12.1951C109.828 12.1951 110.101 12.1914 110.394 12.0096V12.01Z" fill="#FF0808"/>
<path d="M112.197 9.41553C112.384 9.49625 112.555 9.56765 112.706 9.62981C112.692 10.1108 112.664 10.6771 112.606 11.0286C112.49 11.7355 111.807 12.7266 111.807 12.7266C111.807 12.7266 111.936 12.3899 112.011 11.8565C112.067 11.4567 112.156 10.0797 112.197 9.41553H112.197Z" fill="#FF0808"/>
<path d="M107.307 4.59654C107.416 4.13506 106.823 3.25616 106.296 2.29102C106.783 3.06045 107.484 3.85865 107.554 4.50426C107.65 5.37759 106.718 6.84968 106.277 8.04952C105.835 9.24939 106.663 10.753 107.743 12.233C108.644 13.4685 111.352 15.5955 112.224 16.2662C111.972 16.7912 111.779 17.1108 111.779 17.1108C111.779 17.1108 110.595 16.1822 109.529 15.1809C108.462 14.1796 107.499 12.9523 106.426 11.5489C105.354 10.1459 105.68 8.11956 105.891 7.21793C106.103 6.31631 107.14 5.30847 107.307 4.59654Z" fill="#FF0808"/>
<path d="M105.893 1.47684C105.858 1.39845 105.825 1.31962 105.795 1.2417C105.824 1.28667 105.857 1.36459 105.893 1.47684Z" fill="#FF0808"/>
<path d="M120.342 22.0917L111.81 18.7216C111.598 18.6381 111.493 18.3964 111.577 18.1846L111.242 19.0352C111.158 19.2471 111.263 19.4887 111.474 19.5723L120.006 22.9423C120.218 23.0256 120.46 22.9209 120.543 22.7094L120.879 21.8588C120.796 22.0707 120.554 22.1757 120.342 22.0917Z" fill="#181A18"/>
<path d="M124.144 22.0917L132.677 18.7216C132.888 18.6381 132.993 18.3964 132.909 18.1846L133.245 19.0352C133.329 19.2471 133.224 19.4887 133.012 19.5723L124.48 22.9423C124.268 23.0256 124.026 22.9209 123.943 22.7094L123.607 21.8588C123.691 22.0707 123.932 22.1757 124.144 22.0917Z" fill="#181A18"/>
</g>
<defs>
<clipPath id="clip0_48_82">
<rect width="248" height="41.53" fill="white" transform="translate(0.59375 -5.22266)"/>
</clipPath>
</defs>
</svg>
