<svg width="194" height="206" viewBox="0 0 194 206" fill="none" xmlns="http://www.w3.org/2000/svg">
<path d="M140.85 90.3586C141.623 89.5185 142.418 88.6897 143.236 87.8721C139.965 91.1426 137.053 94.6595 134.242 98.1204C132.842 99.8341 131.486 101.57 130.176 103.317L125.225 128.485C124.609 128.642 123.993 128.798 123.377 128.955H136.952C138.117 127.331 139.282 125.707 140.435 124.083C138.24 124.777 136.034 125.449 133.816 126.099L140.85 90.3474V90.3586Z" fill="#C4C3E2"/>
<path d="M160.831 78.8668C157.393 78.8892 154.335 79.8413 151.636 81.2637C152.151 81.3645 152.666 81.4541 153.193 81.5549C156.889 82.283 160.204 83.1118 163.441 84.2878C163.564 85.7551 163.654 87.2224 163.71 88.712C164.023 97.0115 163.273 105.233 161.436 113.319C161.727 116.803 161.212 120.387 160.227 123.725C159.7 125.517 158.983 127.264 158.11 128.966H164.908C165.659 127.062 166.353 125.136 166.98 123.198C166.857 125.125 166.7 127.051 166.51 128.966H174.619C175 125.08 175.235 121.182 175.325 117.295C177.8 115.884 180.085 114.316 182 112.558C182.135 114.809 182.258 117.071 182.347 119.323C182.482 122.537 182.56 125.752 182.594 128.966H183.691C187.6 117.307 186.973 104.785 181.575 93.4274C178.394 86.7519 171.416 78.7884 160.831 78.8556V78.8668ZM179.704 102.365C179.704 102.365 179.67 102.522 179.659 102.601C179.637 102.713 179.603 102.836 179.57 102.948C179.346 103.799 179.032 104.639 178.584 105.445C178.584 105.412 178.147 106.117 178.08 106.207C177.822 106.577 177.542 106.935 177.251 107.282C176.994 107.585 176.725 107.887 176.445 108.178C176.4 108.234 176.366 108.268 176.344 108.29C176.344 108.29 176.344 108.29 176.333 108.302C176.12 108.503 175.896 108.705 175.672 108.895C175.56 108.996 175.437 109.097 175.325 109.186C175.179 102.802 174.72 96.4291 174.025 90.0673C174.843 90.7617 175.582 91.4897 176.221 92.2513C178.584 95.0514 179.872 97.9524 179.794 101.1C179.794 101.514 179.749 101.928 179.693 102.354L179.704 102.365Z" fill="#C4C3E2"/>
<path d="M102.578 80.144C98.6357 78.0383 93.9092 77.0639 88.8578 78.464C85.3744 79.4272 82.6751 81.3537 80.5023 83.5714C83.112 83.0561 85.7329 82.5745 88.3538 82.1265C88.3202 82.2609 88.2977 82.4065 88.2641 82.5409C87.6369 85.6434 87.0769 88.7571 86.5953 91.8821C84.792 89.0932 82.5631 86.4723 79.987 84.109C79.2142 84.949 78.5198 85.8114 77.8814 86.6851C77.1085 87.7267 76.4029 88.8019 75.7309 89.8996C76.2125 90.426 76.6829 90.9524 77.1309 91.5012C78.3406 92.9797 79.4158 94.5254 80.3343 96.127C80.3455 96.1494 80.3567 96.1718 80.3679 96.1942C80.3791 96.2166 80.3903 96.239 80.4127 96.2838C80.4911 96.4294 80.5695 96.575 80.6479 96.7206C80.8495 97.1127 81.0511 97.5047 81.2303 97.8967C81.6223 98.7367 81.9807 99.5879 82.2943 100.45C82.5743 101.212 82.8207 101.985 83.0336 102.769C83.1456 103.183 83.2464 103.598 83.3472 104.023C83.392 104.236 83.4368 104.438 83.4816 104.651C83.4928 104.707 83.504 104.763 83.5152 104.807C83.5152 104.83 83.5152 104.875 83.5376 104.953C83.8064 106.7 83.9184 108.447 83.8512 110.206C83.8176 111.001 83.7504 111.796 83.6384 112.58C83.6048 112.793 83.5824 113.006 83.5488 113.208C83.5488 113.23 83.5488 113.241 83.5488 113.252C83.5488 113.275 83.5488 113.297 83.5264 113.342C83.4256 113.812 83.3248 114.272 83.2016 114.742C82.9104 115.862 82.5295 116.971 82.0703 118.057C80.2223 115.347 78.9454 112.894 77.691 109.814C77.0077 108.123 76.4141 106.42 75.9325 104.695C75.7085 103.889 75.4957 103.071 75.3053 102.265C75.2045 101.828 75.1149 101.391 75.0253 100.966C74.9917 100.786 74.9581 100.607 74.9245 100.439C74.9245 100.394 74.8237 99.812 74.8237 99.8232C74.4428 97.4151 74.2524 94.9846 74.2188 92.5541C73.11 94.5478 72.102 96.5638 71.1051 98.5687C69.9627 100.854 68.8874 103.161 67.8794 105.491C68.8426 109.153 70.2427 112.76 72.1468 116.288C73.7036 119.166 75.5405 121.955 77.6686 124.61C76.8173 125.495 75.9661 126.2 74.622 127.175C73.8828 127.712 73.11 128.227 72.3036 128.698C72.2476 128.72 71.9899 128.866 71.9675 128.877C71.8891 128.922 71.8107 128.955 71.7323 129H82.3615C82.5407 128.384 82.7087 127.757 82.8543 127.119C83.5264 124.162 83.8624 121.182 84.344 118.203C84.7584 115.683 84.7696 111.662 87.3009 109.758C89.1154 108.391 91.2211 108.951 92.8675 110.072C93.2707 100.305 94.6932 90.5492 96.7989 80.9057C98.7253 80.648 100.663 80.4128 102.589 80.2L102.578 80.144Z" fill="#C4C3E2"/>
<path d="M44.2688 117.396C43.7984 116.601 43.3279 115.806 42.8463 115.022C43.3279 115.806 43.8096 116.601 44.2688 117.396Z" fill="#F9F5EF"/>
<path d="M37.7727 94.4803C43.6754 92.7218 49.6116 91.0194 55.5926 89.4289C56.6118 89.1601 57.6423 88.8913 58.6727 88.6225C57.4743 86.7296 56.0742 84.9263 54.4278 83.3023C48.8052 84.7807 43.2273 86.36 37.6831 87.9953C37.2463 88.1297 36.7983 88.2529 36.3615 88.3873C35.9583 86.8416 35.5103 85.296 35.0286 83.7615C35.6447 83.5823 36.2719 83.4031 36.8879 83.2239C41.2337 82.003 45.6242 80.8718 50.0484 79.8302C46.3523 77.5789 41.5921 76.638 36.9439 77.6013C32.4637 78.5309 28.8012 80.9726 25.9339 83.6383C23.4362 85.9568 21.4873 88.5889 19.7513 91.277C19.6281 92.0274 19.5497 92.7778 19.5273 93.5283C19.0457 93.6739 18.564 93.8307 18.0824 93.9763C16.5256 96.5636 15.1367 99.2181 13.9271 101.906C14.9127 101.559 15.8983 101.234 16.8952 100.909C18.0936 100.517 18.0488 100.54 19.4377 100.103C19.7961 99.9909 20.1657 99.8789 20.5241 99.7669C22.1818 104.281 25.9563 108.458 31.3437 110.81C32.4974 109.22 34.2782 107.249 36.7423 108.066C37.8511 108.436 38.7248 109.142 39.4416 109.959C39.576 109.657 39.6432 109.332 39.632 109.018C39.3632 104.146 38.7472 99.2965 37.7839 94.4803H37.7727ZM28.454 89.5073C28.5548 89.8993 28.6556 90.2913 28.7564 90.6834C28.4876 90.7618 28.23 90.8514 27.9612 90.9298C28.0956 90.4481 28.2636 89.9777 28.454 89.5073ZM30.4701 101.828C30.0221 101.29 29.63 100.719 29.2716 100.148C29.2156 100.058 29.1596 99.9573 29.1036 99.8677C29.07 99.8117 29.0364 99.7333 29.014 99.6997C28.846 99.3301 28.6668 98.9717 28.51 98.602C28.3532 98.21 28.2076 97.818 28.0844 97.426C28.7564 97.2244 29.4284 97.0116 30.1005 96.81C30.4365 98.658 30.7165 100.517 30.9517 102.388C30.7837 102.209 30.6269 102.029 30.4701 101.839V101.828Z" fill="#C4C3E2"/>
<path d="M102.578 80.1438C103.485 80.6254 104.348 81.163 105.154 81.7567C104.337 81.1742 103.474 80.6254 102.578 80.1438Z" fill="#F9F5EF"/>
<path d="M174.037 90.0896C174.731 96.4514 175.19 102.824 175.336 109.209C175.448 109.108 175.571 109.018 175.683 108.917C175.907 108.727 176.131 108.525 176.344 108.324C176.344 108.324 176.344 108.324 176.355 108.313C176.378 108.29 176.411 108.257 176.456 108.201C176.736 107.909 177.005 107.607 177.262 107.305C177.554 106.957 177.834 106.599 178.091 106.229C178.158 106.129 178.595 105.434 178.595 105.468C179.032 104.661 179.357 103.821 179.581 102.97C179.614 102.858 179.637 102.735 179.67 102.623C179.693 102.544 179.715 102.421 179.715 102.388C179.76 101.973 179.805 101.559 179.816 101.133C179.883 97.9971 178.606 95.0962 176.243 92.2849C175.593 91.5233 174.854 90.7952 174.048 90.1008L174.037 90.0896Z" fill="#F9F5EF"/>
<path d="M19.751 91.2773C19.5046 91.6581 19.2694 92.0389 19.0342 92.4086C18.7989 92.7894 18.5637 93.1702 18.3397 93.5398C18.2501 93.6742 18.1717 93.8198 18.0933 93.9654C18.5749 93.8198 19.0566 93.663 19.5382 93.5174C19.5606 92.7558 19.639 92.0053 19.7622 91.2661L19.751 91.2773Z" fill="#F9F5EF"/>
<path d="M130.165 103.317C129.728 103.9 129.291 104.493 128.866 105.076C128.81 105.154 128.742 105.244 128.686 105.322C127.824 106.51 126.995 107.697 126.166 108.895C126.099 108.996 126.021 109.097 125.954 109.209C125.55 109.802 125.147 110.407 124.744 111.012C124.363 111.595 123.982 112.177 123.613 112.759C123.534 112.883 123.445 113.017 123.366 113.14C122.985 113.734 122.616 114.327 122.246 114.921C122.246 114.932 122.235 114.943 122.224 114.955C121.865 115.526 121.518 116.108 121.171 116.68C121.081 116.825 120.992 116.971 120.902 117.116C120.555 117.71 120.208 118.292 119.861 118.886C119.872 118.404 119.883 117.923 119.883 117.43C119.883 114.036 119.569 110.643 118.92 107.294C118.662 105.938 118.36 104.572 118.001 103.205C117.172 100.013 116.075 96.7876 114.585 93.7075C113.308 91.0642 111.751 88.5217 109.847 86.1696C109.724 86.0128 109.59 85.856 109.455 85.6992C109.411 85.6432 109.366 85.5984 109.321 85.5424C109.231 85.4416 109.142 85.3408 109.052 85.24C108.996 85.1728 108.929 85.1056 108.873 85.0496C108.795 84.96 108.716 84.8816 108.627 84.792C108.559 84.7248 108.492 84.6464 108.425 84.5792C108.347 84.5008 108.279 84.4224 108.201 84.3552C108.123 84.2768 108.044 84.1983 107.966 84.1311C107.899 84.0639 107.831 84.0079 107.764 83.9407C107.675 83.8511 107.585 83.7727 107.495 83.6831C107.484 83.6719 107.473 83.6607 107.462 83.6495C107.193 83.4031 106.913 83.1567 106.633 82.9215C106.633 82.9215 106.61 82.9103 106.599 82.8991C106.465 82.7871 106.342 82.6863 106.207 82.5743C106.174 82.5519 106.151 82.5295 106.118 82.4959C105.983 82.3951 105.849 82.2831 105.714 82.1823C105.681 82.1599 105.658 82.1375 105.625 82.1151C105.479 82.0031 105.334 81.9023 105.188 81.7903C105.177 81.7903 105.154 81.7679 105.143 81.7567C104.326 81.1742 103.463 80.6254 102.567 80.1438C100.629 80.3566 98.703 80.5918 96.7765 80.8494C94.6708 90.493 93.2484 100.249 92.8452 110.015C92.9684 110.105 93.1028 110.195 93.2148 110.284C93.2372 110.307 93.2596 110.318 93.282 110.34C93.394 110.43 93.5172 110.519 93.6292 110.62C93.6516 110.631 93.6628 110.654 93.6852 110.665C93.786 110.755 93.8868 110.844 93.9876 110.945C93.9988 110.945 94.01 110.967 94.0212 110.979C94.122 111.079 94.2228 111.18 94.3124 111.281C94.3348 111.303 94.346 111.326 94.3684 111.337C94.458 111.438 94.5476 111.539 94.6372 111.639C94.6372 111.639 94.6596 111.662 94.6596 111.673C94.738 111.774 94.8164 111.863 94.8836 111.953C94.8948 111.975 94.906 111.987 94.9172 112.009C94.9844 112.11 95.0516 112.211 95.1188 112.3C95.13 112.323 95.1412 112.345 95.1524 112.356C95.2196 112.457 95.2757 112.547 95.3205 112.647C96.2389 114.35 96.7989 116.209 97.2581 118.068C97.5157 119.099 97.7397 120.14 97.9861 121.16C98.087 121.563 98.1878 121.966 98.2886 122.369C98.871 124.565 99.4646 126.749 100.047 128.944H123.344C123.96 128.787 124.576 128.63 125.192 128.474L130.143 103.306L130.165 103.317Z" fill="#F9F5EF"/>
<path d="M20.524 99.7668C20.1656 99.8788 19.796 99.9909 19.4376 100.103C18.0487 100.54 18.0936 100.517 16.8951 100.909C15.8983 101.234 14.9126 101.559 13.927 101.906C13.6806 102.433 13.4566 102.97 13.2214 103.508C13.2214 103.53 13.199 103.553 13.199 103.564C12.9638 104.113 12.7398 104.661 12.5157 105.21C12.3253 105.692 12.1349 106.173 11.9557 106.666C11.5973 107.641 11.2501 108.604 10.9365 109.59C10.6229 110.564 10.3205 111.55 10.0405 112.524C8.5284 117.923 7.65476 123.411 7.41956 128.933H24.265C24.3322 128.261 24.4106 127.589 24.5226 126.917C25.2842 122.011 27.1211 117.217 30.0108 112.748C30.2348 112.412 30.4588 112.076 30.6828 111.74C30.7164 111.684 30.7612 111.628 30.806 111.561C30.9628 111.337 31.142 111.079 31.3324 110.81C25.945 108.458 22.1817 104.269 20.5128 99.7668H20.524Z" fill="#F9F5EF"/>
<path d="M28.4428 89.5073C28.2524 89.9777 28.0844 90.4482 27.95 90.9298C28.2188 90.8514 28.4764 90.7618 28.7452 90.6834C28.6444 90.2914 28.5436 89.8993 28.4428 89.5073Z" fill="#F9F5EF"/>
<path d="M28.0731 97.4148C28.1963 97.8068 28.3419 98.2101 28.4987 98.5909C28.6555 98.9605 28.8347 99.3189 29.0027 99.6885C29.0251 99.7221 29.0587 99.8005 29.0923 99.8565C29.1483 99.9461 29.2043 100.047 29.2603 100.137C29.6187 100.719 30.0219 101.279 30.4587 101.817C30.6156 102.007 30.7724 102.186 30.9404 102.365C30.7164 100.495 30.4363 98.6357 30.0891 96.7876C29.4171 96.9892 28.7451 97.202 28.0731 97.4036V97.4148Z" fill="#F9F5EF"/>
<path d="M74.9134 100.394C74.947 100.573 74.9806 100.752 75.0142 100.921C75.1038 101.357 75.1934 101.794 75.2942 102.22C75.4846 103.037 75.6862 103.844 75.9214 104.65C76.4142 106.375 76.9966 108.089 77.6799 109.769C78.9343 112.849 80.2112 115.302 82.0592 118.012C82.5184 116.926 82.8993 115.817 83.1905 114.697C83.3137 114.238 83.4145 113.767 83.5153 113.297C83.5153 113.263 83.5265 113.23 83.5377 113.207C83.5377 113.196 83.5377 113.185 83.5377 113.163C83.5713 112.95 83.6049 112.748 83.6273 112.535C83.7393 111.74 83.8065 110.956 83.8401 110.161C83.9073 108.402 83.7953 106.655 83.5265 104.908C83.5153 104.829 83.5041 104.785 83.5041 104.762C83.5041 104.717 83.4817 104.661 83.4705 104.605C83.4257 104.393 83.3809 104.18 83.3361 103.978C83.2465 103.564 83.1345 103.138 83.0225 102.724C82.8097 101.951 82.5632 101.178 82.2832 100.405C81.9696 99.5429 81.6112 98.6916 81.2192 97.8516C81.0288 97.4596 80.8384 97.0564 80.6368 96.6755C80.5584 96.5299 80.48 96.3843 80.4016 96.2387C80.3792 96.2051 80.368 96.1715 80.3568 96.1491C80.3568 96.1267 80.3344 96.1155 80.3232 96.0819C79.3935 94.4915 78.3295 92.9458 77.1198 91.4562C76.6718 90.9185 76.2014 90.3809 75.7198 89.8545C75.451 90.2801 75.2046 90.7057 74.947 91.1425C74.947 91.1425 74.947 91.1649 74.9358 91.1649C74.6894 91.5906 74.4429 92.0274 74.1965 92.453C74.2301 94.8835 74.4205 97.314 74.8014 99.7221C74.8014 99.7109 74.9022 100.293 74.9022 100.338L74.9134 100.394Z" fill="#F9F5EF"/>
<path d="M72.3034 128.642C73.121 128.171 73.8826 127.656 74.6219 127.118C75.9659 126.155 76.8171 125.438 77.6684 124.554C75.5403 121.899 73.6922 119.11 72.1466 116.232C70.2425 112.715 68.8424 109.108 67.8792 105.434C67.6776 105.916 67.4648 106.386 67.2632 106.868C67.2632 106.868 67.2632 106.868 67.2632 106.879C67.0728 107.338 66.8712 107.809 66.6808 108.279C66.636 108.38 66.6024 108.481 66.5576 108.582C66.4007 108.963 66.2551 109.332 66.0983 109.713C65.8967 110.206 65.7063 110.71 65.5159 111.203C65.3031 108.089 64.8551 104.975 64.0935 101.906C64.0263 101.649 63.9703 101.391 63.9031 101.145C63.8807 101.066 63.8583 100.988 63.8359 100.909C63.7911 100.73 63.7351 100.551 63.6903 100.361C63.6679 100.271 63.6342 100.181 63.6118 100.092C63.567 99.9238 63.511 99.7446 63.4662 99.5766C63.4438 99.487 63.4102 99.3974 63.3878 99.3078C63.3318 99.1286 63.2758 98.9494 63.2198 98.7702C63.1974 98.6806 63.1638 98.6022 63.1414 98.5126C63.0854 98.3221 63.0182 98.1205 62.951 97.9301C62.9286 97.8629 62.9062 97.7957 62.8838 97.7285C62.8054 97.4933 62.727 97.2581 62.6374 97.0117C62.6374 96.9893 62.615 96.9557 62.615 96.9333C62.503 96.6085 62.3798 96.2725 62.2566 95.9477C62.0662 95.4436 61.8646 94.9396 61.663 94.4356C61.663 94.4132 61.6406 94.3908 61.6406 94.3684C61.5398 94.1108 61.4278 93.8644 61.3158 93.6068C61.3046 93.5732 61.2822 93.5396 61.271 93.506C61.159 93.2596 61.047 93.0132 60.9349 92.7779C60.9237 92.7443 60.9013 92.7219 60.8901 92.6883C60.7669 92.4307 60.6437 92.1731 60.5205 91.9267C60.5205 91.9155 60.5093 91.9043 60.4981 91.8819C60.3749 91.6243 60.2405 91.3667 60.1061 91.1091C60.0613 91.0307 60.0277 90.9523 59.9829 90.8851C59.8821 90.7059 59.7925 90.5267 59.6917 90.3475C59.6469 90.2578 59.5909 90.1682 59.5349 90.0786C59.4453 89.9106 59.3445 89.7426 59.2437 89.5858C59.1877 89.4962 59.1317 89.3954 59.0757 89.3058C58.9749 89.1378 58.8741 88.981 58.7733 88.813C58.7397 88.757 58.6949 88.6898 58.6613 88.6338C57.6308 88.9026 56.6004 89.1714 55.5811 89.4402C49.6001 91.0307 43.6639 92.7331 37.7613 94.4916C38.7245 99.3078 39.3517 104.158 39.6094 109.03C39.6318 109.355 39.5534 109.668 39.419 109.971C40.2366 110.889 40.8638 111.931 41.4126 112.793C41.8942 113.544 42.3647 114.294 42.8239 115.044C43.3055 115.828 43.7871 116.624 44.2463 117.419C44.6831 118.169 45.12 118.931 45.5456 119.693C46.7552 121.854 47.8753 124.049 48.9281 126.256C49.0065 126.424 49.0849 126.581 49.1633 126.749C49.5105 127.488 49.8465 128.216 50.1713 128.955H71.6985C71.7769 128.922 71.8553 128.877 71.9338 128.832C71.9562 128.821 72.225 128.675 72.2698 128.653L72.3034 128.642Z" fill="#F9F5EF"/>
<path d="M182 112.558C180.085 114.316 177.8 115.884 175.325 117.296C175.235 121.182 175 125.08 174.619 128.966H182.605C182.571 125.752 182.493 122.537 182.359 119.323C182.269 117.06 182.146 114.809 182.011 112.558H182Z" fill="#F9F5EF"/>
<path d="M35.0284 83.7502C35.5101 85.2846 35.9469 86.8303 36.3613 88.376C36.7981 88.2416 37.2461 88.1072 37.6829 87.9839C43.2271 86.3487 48.805 84.7694 54.4276 83.291C54.282 83.1454 54.1251 82.9998 53.9795 82.8542C53.9011 82.7758 53.8227 82.7086 53.7443 82.6302C53.6435 82.5293 53.5315 82.4397 53.4195 82.3389C53.3411 82.2717 53.2739 82.2045 53.1955 82.1373C53.0163 81.9805 52.8371 81.8237 52.6467 81.6781C52.6243 81.6669 52.6019 81.6445 52.5907 81.6333C52.3331 81.4205 52.0531 81.2077 51.7843 81.0061C51.7171 80.9501 51.6499 80.9053 51.5715 80.8493C51.269 80.6253 50.9666 80.4125 50.653 80.1997C50.4514 80.0653 50.261 79.9421 50.0482 79.8188C45.624 80.8605 41.2335 81.9917 36.8877 83.2126C36.2717 83.3918 35.6445 83.571 35.0284 83.7502Z" fill="#F9F5EF"/>
<path d="M86.6066 91.893C87.0882 88.7793 87.637 85.6656 88.2754 82.5519C88.309 82.4175 88.3314 82.2719 88.365 82.1375C85.7329 82.5855 83.1232 83.0671 80.5135 83.5823C80.5023 83.5935 80.4911 83.6159 80.4687 83.6271C80.3119 83.7951 80.1551 83.9519 80.0095 84.1199C82.5968 86.4832 84.8145 89.1041 86.6178 91.893H86.6066Z" fill="#F9F5EF"/>
<path d="M163.699 88.7122C163.643 87.2225 163.553 85.7553 163.43 84.288C160.193 83.112 156.878 82.2944 153.182 81.5551C152.667 81.4543 152.151 81.3535 151.625 81.2639C151.356 81.3983 151.099 81.5439 150.841 81.7007C150.841 81.7007 150.819 81.7119 150.807 81.7231C150.55 81.8687 150.303 82.0255 150.057 82.1711C150.057 82.1711 150.046 82.1711 150.034 82.1823C149.788 82.3392 149.542 82.496 149.295 82.664C148.814 82.9888 148.343 83.3248 147.884 83.672C147.862 83.6832 147.839 83.7056 147.817 83.7168C147.604 83.8736 147.402 84.0416 147.201 84.2096C147.167 84.232 147.145 84.2544 147.111 84.2768C146.91 84.4448 146.708 84.6016 146.518 84.7696C146.495 84.792 146.473 84.8144 146.45 84.8368C146.249 85.0049 146.047 85.1841 145.857 85.3633C145.454 85.7217 145.061 86.0913 144.669 86.4609C144.602 86.5281 144.535 86.5953 144.457 86.6625C144.065 87.0321 143.684 87.4017 143.303 87.7826C143.269 87.8162 143.247 87.8386 143.213 87.8722C142.396 88.6898 141.612 89.5186 140.828 90.3587L133.794 126.11C136.012 125.461 138.218 124.789 140.413 124.094C143.516 119.76 146.618 115.425 149.721 111.091C150.001 110.71 150.314 110.195 150.684 109.623C150.785 109.455 150.897 109.299 151.009 109.119C151.121 108.951 151.233 108.772 151.356 108.604C151.412 108.515 151.479 108.436 151.535 108.347C151.659 108.179 151.782 107.999 151.916 107.831C152.118 107.574 152.319 107.327 152.543 107.081C152.689 106.924 152.835 106.767 152.991 106.61C153.148 106.465 153.305 106.319 153.462 106.185C153.865 105.849 154.302 105.569 154.761 105.367C155.31 105.121 155.903 104.998 156.542 105.042C159.14 105.222 160.316 107.988 160.753 109.567C160.832 109.87 160.91 110.172 160.977 110.475C160.977 110.519 161 110.564 161 110.609C161.056 110.878 161.112 111.135 161.156 111.404C161.156 111.427 161.156 111.449 161.156 111.471C161.201 111.763 161.246 112.054 161.291 112.356C161.336 112.67 161.358 112.983 161.392 113.297C163.229 105.199 163.99 96.9781 163.665 88.6898L163.699 88.7122Z" fill="#F9F5EF"/>
<path d="M164.897 128.978H166.499C166.69 127.063 166.846 125.136 166.97 123.21C166.342 125.147 165.648 127.074 164.897 128.978Z" fill="#F9F5EF"/>
</svg>
