<svg width="194" height="206" viewBox="0 0 194 206" fill="none" xmlns="http://www.w3.org/2000/svg">
<g clip-path="url(#clip0_530_496)">
<g clip-path="url(#clip1_530_496)">
<path d="M66.8451 156.985C74.6222 156.609 82.4086 156.224 90.1857 155.848C89.5997 147.525 88.9764 139.201 88.288 130.886C86.874 113.835 84.5576 96.8677 83.4505 79.7973C82.7714 69.3502 82.4551 58.8562 82.1481 48.3528C76.2874 49.3768 70.5755 50.9645 65.1985 53.1066C63.8124 53.6609 62.4635 54.2433 61.1518 54.8634C61.7751 67.5464 62.2774 80.2389 62.7426 92.9313C63.524 114.342 65.0776 135.668 66.8451 156.995V156.985Z" fill="#F9F5EF"/>
<path d="M110.549 154.881C117.629 154.561 124.718 154.251 131.806 153.97C132.513 153.941 133.211 153.913 133.918 153.894C133.369 146.181 132.792 138.468 132.151 130.764C130.737 113.713 128.42 96.7456 127.313 79.6751C126.718 70.4212 126.392 61.1203 126.113 51.8194C124.969 51.4061 123.806 51.0209 122.634 50.6545C116.838 48.8695 110.773 47.7515 104.633 47.2817C105.424 62.4544 106.047 77.6365 106.605 92.8091C107.359 113.562 108.847 134.231 110.549 154.9V154.881Z" fill="#F9F5EF"/>
<path d="M39.6252 157.981C39.0763 150.174 38.4809 142.367 37.839 134.569C36.425 117.527 34.1086 100.55 33.0016 83.4801C32.8714 81.5259 32.7597 79.5718 32.6574 77.6177C28.7967 82.2869 25.271 87.2756 21.9313 92.4427C18.6102 97.5817 15.5403 102.862 12.7867 108.264C13.5867 124.77 14.7961 141.24 16.1543 157.709C24.0058 157.897 31.8108 158.047 39.6252 157.981Z" fill="#F9F5EF"/>
<path d="M149.128 153.35C156.775 153.105 164.422 152.908 172.069 152.739C171.083 136.881 170.003 121.013 168.682 105.182C167.92 95.9754 166.887 86.7872 165.938 77.5991C161.194 73.1929 155.9 69.1719 150.877 65.4422C148.272 63.5068 145.612 61.6748 142.867 59.9744C142.96 62.3888 143.053 64.8033 143.137 67.2178C144.179 96.0224 146.635 124.658 149.128 153.359V153.35Z" fill="#F9F5EF"/>
<path d="M132.16 130.755C132.802 138.459 133.388 146.172 133.927 153.885C136.458 153.791 138.997 153.697 141.528 153.603C144.058 153.519 146.588 153.434 149.119 153.35C146.626 124.658 144.17 96.0129 143.128 67.2083C143.044 64.7938 142.951 62.3794 142.858 59.9649C141.565 59.1663 140.244 58.3866 138.914 57.6444C138.848 57.6068 138.783 57.5786 138.718 57.541C138.132 57.2216 137.546 56.9022 136.951 56.5921C136.839 56.5358 136.727 56.4794 136.616 56.4136C136.058 56.1224 135.49 55.8406 134.923 55.5587C134.811 55.5023 134.699 55.446 134.588 55.3896C133.983 55.0984 133.378 54.8071 132.774 54.5253C132.709 54.4971 132.644 54.4595 132.569 54.4313C130.467 53.4731 128.318 52.5899 126.104 51.8008C126.383 61.1111 126.708 70.4026 127.304 79.6565C128.411 96.7269 130.718 113.694 132.141 130.746L132.16 130.755Z" fill="#C6E1DF"/>
<path d="M37.8391 134.569C38.4903 142.367 39.0763 150.174 39.6252 157.981C40.1183 157.981 40.602 157.972 41.095 157.962C41.2067 157.962 41.309 157.962 41.4206 157.962C42.5649 157.944 43.7184 157.925 44.8627 157.906C45.6999 157.887 46.5372 157.869 47.3651 157.85C47.8861 157.831 48.3977 157.822 48.9187 157.803C50.3048 157.756 51.7002 157.709 53.0863 157.643C53.1142 157.643 53.1514 157.643 53.1793 157.643C57.7284 157.427 62.2775 157.211 66.8265 156.995C65.059 135.669 63.4961 114.342 62.724 92.9314C62.2681 80.2484 61.7565 67.5559 61.1332 54.8635C60.4355 55.1923 59.7471 55.5306 59.0587 55.8782C58.9936 55.9157 58.9191 55.9533 58.854 55.9815C58.2028 56.3103 57.5609 56.6485 56.9284 56.9962C56.8911 57.0149 56.8539 57.0337 56.8167 57.0525C55.8027 57.6162 54.8073 58.1893 53.8305 58.7906C52.8537 59.3918 51.9049 60.0025 50.9653 60.6414C50.8909 60.6883 50.8257 60.7353 50.7513 60.7823C50.2025 61.1581 49.6536 61.5433 49.114 61.9378C49.0489 61.9848 48.9745 62.0318 48.9094 62.0882C48.2768 62.5485 47.6535 63.0276 47.0395 63.4974C45.9139 64.3711 44.8162 65.2636 43.7463 66.1843C43.6533 66.2689 43.551 66.3534 43.458 66.438C43.0114 66.8232 42.5742 67.2177 42.137 67.6123C42.0253 67.7157 41.923 67.8096 41.8114 67.913C41.3462 68.3451 40.8811 68.7773 40.4252 69.2094C40.3694 69.2658 40.3136 69.3128 40.2578 69.3692C39.7275 69.8765 39.2066 70.3932 38.6949 70.9099C38.6763 70.9287 38.667 70.9381 38.6484 70.9569C38.174 71.436 37.7088 71.9152 37.253 72.4037C37.1321 72.5352 37.0018 72.6667 36.8809 72.7983C36.5274 73.1835 36.1646 73.5686 35.8204 73.9538C35.6808 74.1042 35.5506 74.2545 35.4111 74.4048C35.0482 74.8088 34.6947 75.2127 34.3412 75.6167C34.2389 75.7389 34.1273 75.861 34.0249 75.9831C33.5598 76.5186 33.104 77.0635 32.6481 77.6084C32.7505 79.5626 32.8621 81.5167 32.9923 83.4708C34.0994 100.541 36.4065 117.508 37.8298 134.56L37.8391 134.569Z" fill="#C6E1DF"/>
<path d="M88.2879 130.877C88.9763 139.191 89.6089 147.515 90.1857 155.839C96.9767 155.51 103.768 155.181 110.559 154.871C108.856 134.203 107.368 113.534 106.614 92.7809C106.066 77.6083 105.442 62.4262 104.642 47.2536C103.796 47.1878 102.958 47.1408 102.112 47.0938C101.935 47.0938 101.749 47.0751 101.572 47.0657C100.726 47.0281 99.8699 46.9999 99.0233 46.9905C98.9861 46.9905 98.9582 46.9905 98.921 46.9905C98.0837 46.9811 97.2465 46.9905 96.4092 46.9905C96.2697 46.9905 96.1395 46.9905 95.9999 46.9905C95.1161 47.0093 94.2417 47.0375 93.3579 47.0751C93.3393 47.0751 93.3207 47.0751 93.3021 47.0751C92.4184 47.122 91.5346 47.1784 90.6508 47.2442C90.5857 47.2442 90.5113 47.2536 90.4462 47.263C89.2368 47.3569 88.0367 47.479 86.8274 47.6294C86.1948 47.7045 85.5622 47.7891 84.9296 47.8736C84.9296 47.8736 84.9203 47.8736 84.911 47.8736C84.1203 47.9864 83.3295 48.1085 82.5388 48.2494C82.4458 48.2682 82.3621 48.2776 82.269 48.2964C82.2225 48.2964 82.1853 48.3152 82.1388 48.3152C82.4458 58.8186 82.7714 69.322 83.4412 79.7597C84.5482 96.8301 86.8553 113.797 88.2786 130.849L88.2879 130.877Z" fill="#C6E1DF"/>
<path d="M172.069 152.739C175.511 152.664 178.953 152.598 182.404 152.532C183.139 152.523 183.874 152.504 184.609 152.495C188.06 152.438 191.511 152.382 194.963 152.335C194.972 152.335 194.991 152.335 195 152.335C193.344 133.545 189.167 112.773 179.669 95.3927C179.334 94.7726 178.981 94.1526 178.627 93.5419C177.92 92.3206 177.185 91.1086 176.422 89.9249C176.041 89.333 175.65 88.7411 175.26 88.1587C174.971 87.7265 174.664 87.3037 174.357 86.881C174.311 86.8152 174.255 86.7494 174.208 86.6743C173.911 86.2703 173.604 85.8663 173.287 85.4717C173.232 85.406 173.176 85.3308 173.12 85.2651C172.794 84.8517 172.469 84.4477 172.125 84.0437C172.106 84.0155 172.078 83.9968 172.059 83.9686C171.706 83.5552 171.352 83.1418 170.99 82.7378C170.971 82.7191 170.952 82.6909 170.934 82.6721C170.562 82.2587 170.19 81.8547 169.808 81.4414C169.771 81.4038 169.734 81.3662 169.696 81.3192C169.315 80.9059 168.924 80.5019 168.524 80.0979C168.515 80.0885 168.496 80.0697 168.487 80.0603C167.659 79.2148 166.803 78.388 165.92 77.5801C166.878 86.7682 167.901 95.9564 168.664 105.163C169.985 121.003 171.064 136.862 172.05 152.72L172.069 152.739Z" fill="#C6E1DF"/>
<path d="M4.97235 157.746C6.30265 157.709 7.62364 157.681 8.95393 157.662C10.247 157.643 11.5308 157.634 12.8239 157.643C13.5216 157.643 14.2193 157.662 14.917 157.671C15.1589 157.671 15.4008 157.681 15.6333 157.69C15.8101 157.69 15.9775 157.69 16.1543 157.699C14.8054 141.24 13.596 124.771 12.7867 108.254C12.7867 108.254 12.7867 108.264 12.7867 108.273C12.3308 109.166 11.8936 110.058 11.4564 110.951C11.4099 111.054 11.354 111.157 11.3075 111.261C11.1122 111.665 10.9261 112.059 10.7308 112.463C10.6563 112.623 10.5819 112.783 10.5075 112.942C10.3214 113.346 10.1261 113.75 9.94933 114.154C9.94933 114.173 9.94003 114.183 9.93072 114.201C9.54001 115.047 9.1679 115.902 8.79579 116.757C8.72136 116.935 8.64694 117.104 8.57252 117.283C8.41437 117.659 8.25623 118.025 8.09808 118.401C8.01435 118.608 7.92133 118.814 7.8376 119.03C7.68876 119.397 7.53061 119.772 7.38177 120.139C7.33525 120.261 7.27944 120.393 7.23292 120.515C6.94454 121.229 6.66545 121.943 6.39567 122.666C6.30265 122.92 6.20962 123.164 6.11659 123.418C5.99565 123.756 5.86542 124.094 5.74448 124.423C5.64215 124.695 5.54912 124.968 5.45609 125.24C5.34446 125.56 5.22353 125.889 5.11189 126.208C4.92584 126.734 4.74908 127.27 4.57233 127.796C4.4793 128.087 4.37697 128.388 4.28395 128.679C4.18162 128.998 4.07928 129.318 3.97695 129.637C3.88393 129.938 3.7909 130.238 3.69787 130.53C3.59554 130.868 3.49321 131.215 3.39088 131.563C3.31646 131.826 3.23273 132.098 3.15831 132.362C3.00016 132.925 2.84202 133.489 2.68387 134.053C2.61875 134.306 2.55363 134.551 2.48851 134.804C2.38618 135.18 2.29315 135.565 2.19082 135.941C2.1257 136.204 2.06058 136.467 1.99547 136.73C1.89313 137.153 1.7908 137.576 1.69778 137.998C1.65126 138.205 1.60475 138.402 1.55824 138.609C1.41869 139.21 1.28846 139.802 1.16752 140.404C1.12101 140.62 1.07449 140.836 1.03728 141.061C0.953556 141.493 0.860528 141.916 0.786106 142.348C0.739592 142.574 0.702381 142.809 0.655867 143.034C0.562839 143.532 0.479114 144.039 0.386087 144.537C0.367481 144.669 0.339573 144.81 0.311665 144.941C0.209334 145.571 0.116307 146.191 0.0232789 146.82C-0.00462939 147.017 -0.0325377 147.215 -0.060446 147.412C-0.125565 147.882 -0.190685 148.342 -0.246501 148.812C-0.27441 149.019 -0.302318 149.225 -0.320923 149.432C-0.395346 150.014 -0.460465 150.597 -0.516282 151.179C-0.516282 151.245 -0.534887 151.311 -0.534887 151.377C-0.600006 152.025 -0.655823 152.673 -0.71164 153.321C-0.730245 153.509 -0.739548 153.697 -0.758154 153.885C-0.795365 154.374 -0.832576 154.862 -0.860484 155.351C-0.869787 155.539 -0.888392 155.736 -0.897695 155.924C-0.934906 156.581 -0.962814 157.239 -0.990723 157.897C0.311665 157.869 1.61405 157.84 2.92574 157.803C3.61415 157.784 4.30255 157.765 4.98165 157.746H4.97235Z" fill="#C6E1DF"/>
</g>
</g>
<defs>
<clipPath id="clip0_530_496">
<rect width="194" height="206" fill="white"/>
</clipPath>
<clipPath id="clip1_530_496">
<rect width="196" height="111" fill="white" transform="translate(-1 47)"/>
</clipPath>
</defs>
</svg>
