<svg width="194" height="206" viewBox="0 0 194 206" fill="none" xmlns="http://www.w3.org/2000/svg">
<path d="M33.6356 79.415C31.6289 79.415 29.7025 80.5128 28.6055 83.0834C19.8297 103.889 17.2612 125.953 17.6893 148.391C17.9033 159.932 18.5722 171.553 19.7227 183.04C20.5521 191.153 22.6123 200.284 30.5587 204.274C38.5051 208.264 50.0634 204.649 57.3409 200.391C66.5448 195.009 68.3374 185.289 68.2839 175.409C68.1769 151.417 69.1936 126.327 64.4579 102.684C62.5047 92.8836 59.3476 79.9773 48.6186 76.3625C42.4114 74.2739 37.3011 75.8269 33.6356 79.4418V79.415Z" fill="#231F20"/>
<path d="M143.2 115.51C143.2 115.51 142.986 115.751 142.879 115.912C129.233 133.959 125.541 157.121 126.156 179.265C126.424 189.065 127.815 200.472 139.24 202.828C147.641 204.569 159.868 200.285 166.477 195.063C175.627 187.807 174.798 176.186 175.172 165.556C175.627 152.783 175.467 139.984 173.086 127.372C171.32 117.974 167.868 105.844 155.935 106.246C149.674 106.46 145.099 110.342 143.226 115.483L143.2 115.51Z" fill="#231F20"/>
<path d="M120.966 80.3523C130.41 83.0032 138.999 76.7107 144.564 69.6417C157.299 53.5222 154.838 33.5737 144.992 16.7313C141.139 10.1443 136.002 0.317316 127.066 0.558304C124.31 0.638634 122.009 1.54904 120.243 2.96819C119.467 3.28951 118.691 3.74471 117.969 4.41412C110.852 11.0279 109.38 21.7921 107.748 30.8961C105.982 40.6963 104.11 51.514 105.795 61.4213C107.213 69.7756 112.404 77.8889 120.966 80.2987V80.3523Z" fill="#231F20"/>
</svg>
