<svg width="160" height="47" viewBox="0 0 160 47" fill="none" xmlns="http://www.w3.org/2000/svg">
<path d="M119.13 11.7303C119.82 10.9803 120.53 10.2403 121.26 9.51025C118.34 12.4303 115.74 15.5703 113.23 18.6603C111.98 20.1903 110.77 21.7403 109.6 23.3003L105.18 45.7703C104.63 45.9103 104.08 46.0503 103.53 46.1903H115.65C116.69 44.7403 117.73 43.2903 118.76 41.8403C116.8 42.4603 114.83 43.0602 112.85 43.6403L119.13 11.7203V11.7303Z" fill="#C4C3E2"/>
<path d="M136.97 1.47009C133.9 1.49009 131.17 2.34009 128.76 3.61009C129.22 3.70009 129.68 3.78009 130.15 3.87009C133.45 4.52009 136.41 5.26009 139.3 6.31009C139.41 7.62009 139.49 8.93009 139.54 10.2601C139.82 17.6701 139.15 25.0101 137.51 32.2301C137.77 35.3401 137.31 38.5401 136.43 41.5201C135.96 43.1201 135.32 44.6801 134.54 46.2001H140.61C141.28 44.5001 141.9 42.7801 142.46 41.0501C142.35 42.7701 142.21 44.4901 142.04 46.2001H149.28C149.62 42.7301 149.83 39.2501 149.91 35.7801C152.12 34.5201 154.16 33.1201 155.87 31.5501C155.99 33.5601 156.1 35.5801 156.18 37.5901C156.3 40.4601 156.37 43.3301 156.4 46.2001H157.38C160.87 35.7901 160.31 24.6101 155.49 14.4701C152.65 8.51009 146.42 1.40009 136.97 1.46009V1.47009ZM153.82 22.4501C153.82 22.4501 153.79 22.5901 153.78 22.6601C153.76 22.7601 153.73 22.8701 153.7 22.9701C153.5 23.7301 153.22 24.4801 152.82 25.2001C152.82 25.1701 152.43 25.8001 152.37 25.8801C152.14 26.2101 151.89 26.5301 151.63 26.8401C151.4 27.1101 151.16 27.3801 150.91 27.6401C150.87 27.6901 150.84 27.7201 150.82 27.7401C150.82 27.7401 150.82 27.7401 150.81 27.7501C150.62 27.9301 150.42 28.1101 150.22 28.2801C150.12 28.3701 150.01 28.4601 149.91 28.5401C149.78 22.8401 149.37 17.1501 148.75 11.4701C149.48 12.0901 150.14 12.7401 150.71 13.4201C152.82 15.9201 153.97 18.5101 153.9 21.3201C153.9 21.6901 153.86 22.0601 153.81 22.4401L153.82 22.4501Z" fill="#C4C3E2"/>
<path d="M84.96 2.61003C81.44 0.730031 77.22 -0.139969 72.71 1.11003C69.6 1.97003 67.19 3.69003 65.25 5.67003C67.58 5.21003 69.92 4.78003 72.26 4.38003C72.23 4.50003 72.21 4.63003 72.18 4.75003C71.62 7.52003 71.12 10.3 70.69 13.09C69.08 10.6 67.09 8.26003 64.79 6.15003C64.1 6.90003 63.48 7.67003 62.91 8.45003C62.22 9.38003 61.59 10.34 60.99 11.32C61.42 11.79 61.84 12.26 62.24 12.75C63.32 14.07 64.28 15.45 65.1 16.88C65.11 16.9 65.12 16.92 65.13 16.94C65.14 16.96 65.15 16.98 65.17 17.02C65.24 17.15 65.31 17.28 65.38 17.41C65.56 17.76 65.74 18.11 65.9 18.46C66.25 19.21 66.57 19.97 66.85 20.74C67.1 21.42 67.32 22.11 67.51 22.81C67.61 23.18 67.7 23.55 67.79 23.93C67.83 24.12 67.87 24.3 67.91 24.49C67.92 24.54 67.93 24.59 67.94 24.63C67.94 24.65 67.94 24.69 67.96 24.76C68.2 26.32 68.3 27.88 68.24 29.45C68.21 30.16 68.15 30.87 68.05 31.57C68.02 31.76 68 31.95 67.97 32.13C67.97 32.15 67.97 32.16 67.97 32.17C67.97 32.19 67.97 32.21 67.95 32.25C67.86 32.67 67.77 33.08 67.66 33.5C67.4 34.5 67.06 35.49 66.65 36.46C65 34.04 63.86 31.85 62.74 29.1C62.13 27.59 61.6 26.07 61.17 24.53C60.97 23.81 60.78 23.08 60.61 22.36C60.52 21.97 60.44 21.58 60.36 21.2C60.33 21.04 60.3 20.88 60.27 20.73C60.27 20.69 60.18 20.17 60.18 20.18C59.84 18.03 59.67 15.86 59.64 13.69C58.65 15.47 57.75 17.27 56.86 19.06C55.84 21.1 54.88 23.16 53.98 25.24C54.84 28.51 56.09 31.73 57.79 34.88C59.18 37.45 60.82 39.94 62.72 42.31C61.96 43.1 61.2 43.73 60 44.6C59.34 45.08 58.65 45.54 57.93 45.96C57.88 45.98 57.65 46.11 57.63 46.12C57.56 46.16 57.49 46.19 57.42 46.23H66.91C67.07 45.68 67.22 45.12 67.35 44.55C67.95 41.91 68.25 39.25 68.68 36.59C69.05 34.34 69.06 30.75 71.32 29.05C72.94 27.83 74.82 28.33 76.29 29.33C76.65 20.61 77.92 11.9 79.8 3.29003C81.52 3.06003 83.25 2.85003 84.97 2.66003L84.96 2.61003Z" fill="#C4C3E2"/>
<path d="M32.8999 35.87C32.4799 35.16 32.0599 34.45 31.6299 33.75C32.0599 34.45 32.4899 35.16 32.8999 35.87Z" fill="#F9F5EF"/>
<path d="M27.1001 15.4101C32.3701 13.8401 37.6701 12.3201 43.0101 10.9001C43.9201 10.6601 44.8401 10.4201 45.7601 10.1801C44.6901 8.49006 43.4401 6.88006 41.9701 5.43006C36.9501 6.75006 31.9701 8.16006 27.0201 9.62006C26.6301 9.74006 26.2301 9.85006 25.8401 9.97006C25.4801 8.59006 25.0801 7.21006 24.6501 5.84006C25.2001 5.68006 25.7601 5.52006 26.3101 5.36006C30.1901 4.27006 34.1101 3.26006 38.0601 2.33006C34.7601 0.320061 30.5101 -0.519939 26.3601 0.340061C22.3601 1.17006 19.0901 3.35006 16.5301 5.73006C14.3001 7.80006 12.5601 10.1501 11.0101 12.5501C10.9001 13.2201 10.8301 13.8901 10.8101 14.5601C10.3801 14.6901 9.95006 14.8301 9.52006 14.9601C8.13006 17.2701 6.89006 19.6401 5.81006 22.0401C6.69006 21.7301 7.57006 21.4401 8.46006 21.1501C9.53006 20.8001 9.49006 20.8201 10.7301 20.4301C11.0501 20.3301 11.3801 20.2301 11.7001 20.1301C13.1801 24.1601 16.5501 27.8901 21.3601 29.9901C22.3901 28.5701 23.9801 26.8101 26.1801 27.5401C27.1701 27.8701 27.9501 28.5001 28.5901 29.2301C28.7101 28.9601 28.7701 28.6701 28.7601 28.3901C28.5201 24.0401 27.9701 19.7101 27.1101 15.4101H27.1001ZM18.7801 10.9701C18.8701 11.3201 18.9601 11.6701 19.0501 12.0201C18.8101 12.0901 18.5801 12.1701 18.3401 12.2401C18.4601 11.8101 18.6101 11.3901 18.7801 10.9701ZM20.5801 21.9701C20.1801 21.4901 19.8301 20.9801 19.5101 20.4701C19.4601 20.3901 19.4101 20.3001 19.3601 20.2201C19.3301 20.1701 19.3001 20.1001 19.2801 20.0701C19.1301 19.7401 18.9701 19.4201 18.8301 19.0901C18.6901 18.7401 18.5601 18.3901 18.4501 18.0401C19.0501 17.8601 19.6501 17.6701 20.2501 17.4901C20.5501 19.1401 20.8001 20.8001 21.0101 22.4701C20.8601 22.3101 20.7201 22.1501 20.5801 21.9801V21.9701Z" fill="#C4C3E2"/>
<path d="M84.96 2.61011C85.77 3.04011 86.54 3.52011 87.26 4.05011C86.53 3.53011 85.76 3.04011 84.96 2.61011Z" fill="#F9F5EF"/>
<path d="M148.76 11.4902C149.38 17.1702 149.79 22.8602 149.92 28.5602C150.02 28.4702 150.13 28.3902 150.23 28.3002C150.43 28.1302 150.63 27.9502 150.82 27.7702C150.82 27.7702 150.82 27.7702 150.83 27.7602C150.85 27.7402 150.88 27.7102 150.92 27.6602C151.17 27.4002 151.41 27.1302 151.64 26.8602C151.9 26.5502 152.15 26.2302 152.38 25.9002C152.44 25.8102 152.83 25.1902 152.83 25.2202C153.22 24.5002 153.51 23.7502 153.71 22.9902C153.74 22.8902 153.76 22.7802 153.79 22.6802C153.81 22.6102 153.83 22.5002 153.83 22.4702C153.87 22.1002 153.91 21.7302 153.92 21.3502C153.98 18.5502 152.84 15.9602 150.73 13.4502C150.15 12.7702 149.49 12.1202 148.77 11.5002L148.76 11.4902Z" fill="#F9F5EF"/>
<path d="M11.0098 12.55C10.7898 12.89 10.5798 13.23 10.3698 13.56C10.1598 13.9 9.94979 14.24 9.74979 14.57C9.66979 14.69 9.59979 14.82 9.52979 14.95C9.95979 14.82 10.3898 14.68 10.8198 14.55C10.8398 13.87 10.9098 13.2 11.0198 12.54L11.0098 12.55Z" fill="#F9F5EF"/>
<path d="M109.59 23.3001C109.2 23.8201 108.81 24.3501 108.43 24.8701C108.38 24.9401 108.32 25.0201 108.27 25.0901C107.5 26.1501 106.76 27.2101 106.02 28.2801C105.96 28.3701 105.89 28.4601 105.83 28.5601C105.47 29.0901 105.11 29.6301 104.75 30.1701C104.41 30.6901 104.07 31.2101 103.74 31.7301C103.67 31.8401 103.59 31.9601 103.52 32.0701C103.18 32.6001 102.85 33.1301 102.52 33.6601C102.52 33.6701 102.51 33.6801 102.5 33.6901C102.18 34.2001 101.87 34.7201 101.56 35.2301C101.48 35.3601 101.4 35.4901 101.32 35.6201C101.01 36.1501 100.7 36.6701 100.39 37.2001C100.4 36.7701 100.41 36.3401 100.41 35.9001C100.41 32.8701 100.13 29.8401 99.55 26.8501C99.32 25.6401 99.05 24.4201 98.73 23.2001C97.99 20.3501 97.01 17.4701 95.68 14.7201C94.54 12.3601 93.15 10.0901 91.45 7.99011C91.34 7.85011 91.22 7.71011 91.1 7.57011C91.06 7.52011 91.02 7.48011 90.98 7.43011C90.9 7.34011 90.82 7.25011 90.74 7.16011C90.69 7.10011 90.63 7.04011 90.58 6.99011C90.51 6.91011 90.44 6.84011 90.36 6.76011C90.3 6.70011 90.24 6.63011 90.18 6.57011C90.11 6.50011 90.05 6.43011 89.98 6.37011C89.91 6.30011 89.84 6.23011 89.77 6.17011C89.71 6.11011 89.65 6.06011 89.59 6.00011C89.51 5.92011 89.43 5.85011 89.35 5.77011C89.34 5.76011 89.33 5.75011 89.32 5.74011C89.08 5.52011 88.83 5.30011 88.58 5.09011C88.58 5.09011 88.56 5.08011 88.55 5.07011C88.43 4.97011 88.32 4.88011 88.2 4.78011C88.17 4.76011 88.15 4.74011 88.12 4.71011C88 4.62011 87.88 4.52011 87.76 4.43011C87.73 4.41011 87.71 4.39011 87.68 4.37011C87.55 4.27011 87.42 4.18011 87.29 4.08011C87.28 4.08011 87.26 4.06011 87.25 4.05011C86.52 3.53011 85.75 3.04011 84.95 2.61011C83.22 2.80011 81.5 3.01011 79.78 3.24011C77.9 11.8501 76.63 20.5601 76.27 29.2801C76.38 29.3601 76.5 29.4401 76.6 29.5201C76.62 29.5401 76.64 29.5501 76.66 29.5701C76.76 29.6501 76.87 29.7301 76.97 29.8201C76.99 29.8301 77 29.8501 77.02 29.8601C77.11 29.9401 77.2 30.0201 77.29 30.1101C77.3 30.1101 77.31 30.1301 77.32 30.1401C77.41 30.2301 77.5 30.3201 77.58 30.4101C77.6 30.4301 77.61 30.4501 77.63 30.4601C77.71 30.5501 77.79 30.6401 77.87 30.7301C77.87 30.7301 77.89 30.7501 77.89 30.7601C77.96 30.8501 78.03 30.9301 78.09 31.0101C78.1 31.0301 78.11 31.0401 78.12 31.0601C78.18 31.1501 78.24 31.2401 78.3 31.3201C78.31 31.3401 78.32 31.3601 78.33 31.3701C78.39 31.4601 78.44 31.5401 78.48 31.6301C79.3 33.1501 79.8 34.8101 80.21 36.4701C80.44 37.3901 80.64 38.3201 80.86 39.2301C80.95 39.5901 81.04 39.9501 81.13 40.3101C81.65 42.2701 82.18 44.2201 82.7 46.1801H103.5C104.05 46.0401 104.6 45.9001 105.15 45.7601L109.57 23.2901L109.59 23.3001Z" fill="#F9F5EF"/>
<path d="M11.7 20.1301C11.38 20.2301 11.05 20.3301 10.73 20.4301C9.49 20.8201 9.53 20.8001 8.46 21.1501C7.57 21.4401 6.69 21.7301 5.81 22.0401C5.59 22.5101 5.39 22.9901 5.18 23.4701C5.18 23.4901 5.16 23.5101 5.16 23.5201C4.95 24.0101 4.75 24.5001 4.55 24.9901C4.38 25.4201 4.21 25.8501 4.05 26.2901C3.73 27.1601 3.42 28.0201 3.14 28.9001C2.86 29.7701 2.59 30.6501 2.34 31.5201C0.99 36.3401 0.21 41.2401 0 46.1701H15.04C15.1 45.5701 15.17 44.9701 15.27 44.3701C15.95 39.9901 17.59 35.7101 20.17 31.7201C20.37 31.4201 20.57 31.1201 20.77 30.8201C20.8 30.7701 20.84 30.7201 20.88 30.6601C21.02 30.4601 21.18 30.2301 21.35 29.9901C16.54 27.8901 13.18 24.1501 11.69 20.1301H11.7Z" fill="#F9F5EF"/>
<path d="M18.7701 10.9702C18.6001 11.3902 18.4501 11.8102 18.3301 12.2402C18.5701 12.1702 18.8001 12.0902 19.0401 12.0202C18.9501 11.6702 18.8601 11.3202 18.7701 10.9702Z" fill="#F9F5EF"/>
<path d="M18.4399 18.0302C18.5499 18.3802 18.6799 18.7402 18.8199 19.0802C18.9599 19.4102 19.1199 19.7302 19.2699 20.0602C19.2899 20.0902 19.3199 20.1602 19.3499 20.2102C19.3999 20.2902 19.4499 20.3802 19.4999 20.4602C19.8199 20.9802 20.1799 21.4802 20.5699 21.9602C20.7099 22.1302 20.8499 22.2902 20.9999 22.4502C20.7999 20.7802 20.5499 19.1202 20.2399 17.4702C19.6399 17.6502 19.0399 17.8402 18.4399 18.0202V18.0302Z" fill="#F9F5EF"/>
<path d="M60.2601 20.6903C60.2901 20.8503 60.3201 21.0103 60.3501 21.1603C60.4301 21.5503 60.5101 21.9403 60.6001 22.3203C60.7701 23.0503 60.9501 23.7703 61.1601 24.4903C61.6001 26.0303 62.1201 27.5603 62.7301 29.0603C63.8501 31.8103 64.9901 34.0003 66.6401 36.4203C67.0501 35.4503 67.3901 34.4603 67.6501 33.4603C67.7601 33.0503 67.8501 32.6303 67.9401 32.2103C67.9401 32.1803 67.9501 32.1503 67.9601 32.1303C67.9601 32.1203 67.9601 32.1103 67.9601 32.0903C67.9901 31.9003 68.0201 31.7203 68.0401 31.5303C68.1401 30.8203 68.2001 30.1203 68.2301 29.4103C68.2901 27.8403 68.1901 26.2803 67.9501 24.7203C67.9401 24.6503 67.9301 24.6103 67.9301 24.5903C67.9301 24.5503 67.9101 24.5003 67.9001 24.4503C67.8601 24.2603 67.8201 24.0703 67.7801 23.8903C67.7001 23.5203 67.6001 23.1403 67.5001 22.7703C67.3101 22.0803 67.0901 21.3903 66.8401 20.7003C66.5601 19.9303 66.2401 19.1703 65.8901 18.4203C65.7201 18.0703 65.5501 17.7103 65.3701 17.3703C65.3001 17.2403 65.2301 17.1103 65.1601 16.9803C65.1401 16.9503 65.1301 16.9203 65.1201 16.9003C65.1201 16.8803 65.1001 16.8703 65.0901 16.8403C64.2601 15.4203 63.3101 14.0403 62.2301 12.7103C61.8301 12.2303 61.4101 11.7503 60.9801 11.2803C60.7401 11.6603 60.5201 12.0403 60.2901 12.4303C60.2901 12.4303 60.2901 12.4503 60.2801 12.4503C60.0601 12.8303 59.8401 13.2203 59.6201 13.6003C59.6501 15.7703 59.8201 17.9403 60.1601 20.0903C60.1601 20.0803 60.2501 20.6003 60.2501 20.6403L60.2601 20.6903Z" fill="#F9F5EF"/>
<path d="M57.9298 45.9099C58.6598 45.4899 59.3398 45.0299 59.9998 44.5499C61.1998 43.6899 61.9598 43.0499 62.7198 42.2599C60.8198 39.8899 59.1698 37.3999 57.7898 34.8299C56.0898 31.6899 54.8398 28.4699 53.9798 25.1899C53.7998 25.6199 53.6098 26.0399 53.4298 26.4699C53.4298 26.4699 53.4298 26.4699 53.4298 26.4799C53.2598 26.8899 53.0798 27.3099 52.9098 27.7299C52.8698 27.8199 52.8398 27.9099 52.7998 27.9999C52.6598 28.3399 52.5298 28.6699 52.3898 29.0099C52.2098 29.4499 52.0398 29.8999 51.8698 30.3399C51.6798 27.5599 51.2798 24.7799 50.5998 22.0399C50.5398 21.8099 50.4898 21.5799 50.4298 21.3599C50.4098 21.2899 50.3898 21.2199 50.3698 21.1499C50.3298 20.9899 50.2798 20.8299 50.2398 20.6599C50.2198 20.5799 50.1898 20.4999 50.1698 20.4199C50.1298 20.2699 50.0798 20.1099 50.0398 19.9599C50.0198 19.8799 49.9898 19.7999 49.9698 19.7199C49.9198 19.5599 49.8698 19.3999 49.8198 19.2399C49.7998 19.1599 49.7698 19.0899 49.7498 19.0099C49.6998 18.8399 49.6398 18.6599 49.5798 18.4899C49.5598 18.4299 49.5398 18.3699 49.5198 18.3099C49.4498 18.0999 49.3798 17.8899 49.2998 17.6699C49.2998 17.6499 49.2798 17.6199 49.2798 17.5999C49.1798 17.3099 49.0698 17.0099 48.9598 16.7199C48.7898 16.2699 48.6098 15.8199 48.4298 15.3699C48.4298 15.3499 48.4098 15.3299 48.4098 15.3099C48.3198 15.0799 48.2198 14.8599 48.1198 14.6299C48.1098 14.5999 48.0898 14.5699 48.0798 14.5399C47.9798 14.3199 47.8798 14.0999 47.7798 13.8899C47.7698 13.8599 47.7498 13.8399 47.7398 13.8099C47.6298 13.5799 47.5198 13.3499 47.4098 13.1299C47.4098 13.1199 47.3998 13.1099 47.3898 13.0899C47.2798 12.8599 47.1598 12.6299 47.0398 12.3999C46.9998 12.3299 46.9698 12.2599 46.9298 12.1999C46.8398 12.0399 46.7598 11.8799 46.6698 11.7199C46.6298 11.6399 46.5798 11.5599 46.5298 11.4799C46.4498 11.3299 46.3598 11.1799 46.2698 11.0399C46.2198 10.9599 46.1698 10.8699 46.1198 10.7899C46.0298 10.6399 45.9398 10.4999 45.8498 10.3499C45.8198 10.2999 45.7798 10.2399 45.7498 10.1899C44.8298 10.4299 43.9098 10.6699 42.9998 10.9099C37.6598 12.3299 32.3598 13.8499 27.0898 15.4199C27.9498 19.7199 28.5098 24.0499 28.7398 28.3999C28.7598 28.6899 28.6898 28.9699 28.5698 29.2399C29.2998 30.0599 29.8598 30.9899 30.3498 31.7599C30.7798 32.4299 31.1998 33.0999 31.6098 33.7699C32.0398 34.4699 32.4698 35.1799 32.8798 35.8899C33.2698 36.5599 33.6598 37.2399 34.0398 37.9199C35.1198 39.8499 36.1198 41.8099 37.0598 43.7799C37.1298 43.9299 37.1998 44.0699 37.2698 44.2199C37.5798 44.8799 37.8798 45.5299 38.1698 46.1899H57.3898C57.4598 46.1599 57.5298 46.1199 57.5998 46.0799C57.6198 46.0699 57.8598 45.9399 57.8998 45.9199L57.9298 45.9099Z" fill="#F9F5EF"/>
<path d="M155.87 31.5503C154.16 33.1203 152.12 34.5203 149.91 35.7803C149.83 39.2503 149.62 42.7303 149.28 46.2003H156.41C156.38 43.3303 156.31 40.4603 156.19 37.5903C156.11 35.5703 156 33.5603 155.88 31.5503H155.87Z" fill="#F9F5EF"/>
<path d="M24.6499 5.83007C25.0799 7.20007 25.4699 8.58007 25.8399 9.96007C26.2299 9.84007 26.6299 9.72007 27.0199 9.61007C31.9699 8.15007 36.9499 6.74007 41.9699 5.42007C41.8399 5.29007 41.6999 5.16007 41.5699 5.03007C41.4999 4.96007 41.4299 4.90007 41.3599 4.83007C41.2699 4.74007 41.1699 4.66007 41.0699 4.57007C40.9999 4.51007 40.9399 4.45007 40.8699 4.39007C40.7099 4.25007 40.5499 4.11007 40.3799 3.98007C40.3599 3.97007 40.3399 3.95007 40.3299 3.94007C40.0999 3.75007 39.8499 3.56007 39.6099 3.38007C39.5499 3.33007 39.4899 3.29007 39.4199 3.24007C39.1499 3.04007 38.8799 2.85007 38.5999 2.66007C38.4199 2.54007 38.2499 2.43007 38.0599 2.32007C34.1099 3.25007 30.1899 4.26007 26.3099 5.35007C25.7599 5.51007 25.1999 5.67007 24.6499 5.83007Z" fill="#F9F5EF"/>
<path d="M70.7001 13.1001C71.1301 10.3201 71.6201 7.54014 72.1901 4.76014C72.2201 4.64014 72.2401 4.51014 72.2701 4.39014C69.9201 4.79014 67.5901 5.22014 65.2601 5.68014C65.2501 5.69014 65.2401 5.71014 65.2201 5.72014C65.0801 5.87014 64.9401 6.01014 64.8101 6.16014C67.1201 8.27014 69.1001 10.6101 70.7101 13.1001H70.7001Z" fill="#F9F5EF"/>
<path d="M139.53 10.2601C139.48 8.93011 139.4 7.62011 139.29 6.31011C136.4 5.26011 133.44 4.53011 130.14 3.87011C129.68 3.78011 129.22 3.69011 128.75 3.61011C128.51 3.73011 128.28 3.86011 128.05 4.00011C128.05 4.00011 128.03 4.01011 128.02 4.02011C127.79 4.15011 127.57 4.29011 127.35 4.42011C127.35 4.42011 127.34 4.42011 127.33 4.43011C127.11 4.57011 126.89 4.71011 126.67 4.86011C126.24 5.15011 125.82 5.45011 125.41 5.76011C125.39 5.77011 125.37 5.79011 125.35 5.80011C125.16 5.94011 124.98 6.09011 124.8 6.24011C124.77 6.26011 124.75 6.28011 124.72 6.30011C124.54 6.45011 124.36 6.59011 124.19 6.74011C124.17 6.76011 124.15 6.78011 124.13 6.80011C123.95 6.95011 123.77 7.11011 123.6 7.27011C123.24 7.59011 122.89 7.92011 122.54 8.25011C122.48 8.31011 122.42 8.37011 122.35 8.43011C122 8.76011 121.66 9.09011 121.32 9.43011C121.29 9.46011 121.27 9.48011 121.24 9.51011C120.51 10.2401 119.81 10.9801 119.11 11.7301L112.83 43.6501C114.81 43.0701 116.78 42.4701 118.74 41.8501C121.51 37.9801 124.28 34.1101 127.05 30.2401C127.3 29.9001 127.58 29.4401 127.91 28.9301C128 28.7801 128.1 28.6401 128.2 28.4801C128.3 28.3301 128.4 28.1701 128.51 28.0201C128.56 27.9401 128.62 27.8701 128.67 27.7901C128.78 27.6401 128.89 27.4801 129.01 27.3301C129.19 27.1001 129.37 26.8801 129.57 26.6601C129.7 26.5201 129.83 26.3801 129.97 26.2401C130.11 26.1101 130.25 25.9801 130.39 25.8601C130.75 25.5601 131.14 25.3101 131.55 25.1301C132.04 24.9101 132.57 24.8001 133.14 24.8401C135.46 25.0001 136.51 27.4701 136.9 28.8801C136.97 29.1501 137.04 29.4201 137.1 29.6901C137.1 29.7301 137.12 29.7701 137.12 29.8101C137.17 30.0501 137.22 30.2801 137.26 30.5201C137.26 30.5401 137.26 30.5601 137.26 30.5801C137.3 30.8401 137.34 31.1001 137.38 31.3701C137.42 31.6501 137.44 31.9301 137.47 32.2101C139.11 24.9801 139.79 17.6401 139.5 10.2401L139.53 10.2601Z" fill="#F9F5EF"/>
<path d="M140.6 46.2101H142.03C142.2 44.5001 142.34 42.7801 142.45 41.0601C141.89 42.7901 141.27 44.5101 140.6 46.2101Z" fill="#F9F5EF"/>
</svg>
