<svg width="92" height="119" viewBox="0 0 92 119" fill="none" xmlns="http://www.w3.org/2000/svg">
<path d="M9.22773 45.5049C8.06977 45.5049 6.95813 46.1384 6.32512 47.6217C1.26098 59.6276 -0.221202 72.3597 0.0258284 85.3081C0.149344 91.9677 0.53533 98.6737 1.19923 105.302C1.67785 109.984 2.86668 115.253 7.45219 117.555C12.0377 119.858 18.7075 117.772 22.9071 115.315C28.2182 112.209 29.2527 106.6 29.2218 100.899C29.16 87.0541 29.7467 72.576 27.014 58.9323C25.8869 53.277 24.065 45.8294 17.8738 43.7434C14.2919 42.5382 11.3429 43.4344 9.22773 45.5203V45.5049Z" fill="#231F20"/>
<path d="M72.4524 66.3338C72.4524 66.3338 72.3289 66.4728 72.2671 66.5656C64.393 76.9799 62.2624 90.3455 62.6175 103.124C62.7719 108.779 63.5747 115.362 70.1674 116.721C75.0154 117.726 82.0712 115.253 85.8847 112.24C91.165 108.053 90.6864 101.347 90.9025 95.2127C91.165 87.8423 91.0724 80.4565 89.6983 73.1788C88.6793 67.7553 86.6876 60.7558 79.8016 60.9875C76.1888 61.1112 73.5486 63.3516 72.4679 66.3183L72.4524 66.3338Z" fill="#231F20"/>
<path d="M59.622 46.0457C65.0722 47.5754 70.0282 43.9443 73.2396 39.8651C80.5888 30.5633 79.1684 19.0518 73.4867 9.33281C71.2634 5.53173 68.299 -0.138996 63.1422 6.84124e-05C61.552 0.0464231 60.2242 0.571776 59.2052 1.39071C58.7574 1.57613 58.3097 1.8388 57.8928 2.22509C53.7859 6.04163 52.9368 12.2532 51.995 17.5067C50.976 23.162 49.8952 29.4044 50.8679 35.1215C51.6862 39.9423 54.6814 44.6242 59.622 46.0148V46.0457Z" fill="#231F20"/>
</svg>
