<svg width="194" height="206" viewBox="0 0 194 206" fill="none" xmlns="http://www.w3.org/2000/svg">
<path d="M104.818 67.164C102.306 64.0192 99.4602 61.0378 95.5099 59.336C91.7261 57.7024 87.6244 57.9338 83.8405 59.445C76.3485 62.44 70.1279 68.2667 65.4662 74.2023C56.4909 85.6651 47.773 104.302 58.065 116.977C60.5472 121.687 64.0889 125.908 68.4479 129.393C74.2296 134.008 81.9789 137.697 89.8947 137.411C98.204 137.112 104.546 131.816 110.116 126.792C113.339 123.893 116.412 120.843 119.288 117.671C122.103 114.567 125.115 111.3 126.764 107.529C129.746 100.695 125.947 94.3099 121.664 88.7418C116.109 81.5129 110.509 74.2976 104.818 67.164Z" fill="#C6E1DF"/>
<path d="M158.65 57.1273C154.143 56.8625 149.637 57.0572 145.17 57.6571C141.179 58.1946 137.25 59.4956 133.236 59.776C129.323 60.0487 125.957 58.6231 125.348 54.4163C124.762 50.3965 126.184 46.2053 126.871 42.2868C128.246 34.4888 128.402 25.7636 122.693 19.5392C116.929 13.2524 107.995 14.3431 100.981 17.7163C88.2511 23.8316 78.5903 35.9689 74.3026 49.4227C74.0684 42.7542 73.0062 36.1403 69.4371 30.3599C65.1807 23.4577 57.6285 18.9861 49.3812 20.5519C40.7201 22.1957 36.7995 30.6637 37.4243 38.8124C37.807 43.767 39.4861 48.4567 40.7982 53.2088C41.8447 57.0183 43.0084 62.4169 38.752 64.7151C35.0345 66.725 30.5047 65.5331 26.6857 64.5671C22.1794 63.4375 17.4622 62.4247 13.0027 64.2788C5.67704 67.3248 2.1001 75.7227 3.19349 83.256C4.50555 92.3394 11.1205 99.3117 18.1963 104.586C22.031 107.437 26.2405 109.782 30.0283 112.688C33.0273 114.986 37.0182 119.099 34.1207 122.994C31.6293 126.328 26.6154 127.583 22.976 129.133C18.8914 130.878 14.9161 133.005 12.1046 136.534C9.62885 139.642 8.30897 143.529 9.13682 147.487C9.87095 150.977 12.3076 153.766 15.1583 155.776C22.1794 160.723 31.9886 161.299 40.2437 160.473C45.2186 159.975 50.0685 158.845 54.731 157.069C57.9878 155.83 62.783 153.446 66.2584 155.137C70.2024 157.061 68.7498 163.036 68.8513 166.503C68.9607 170.383 70.0384 174.184 71.866 177.604C75.4898 184.374 82.2453 189.765 89.9068 191.081C97.5527 192.398 105.378 189.921 111.251 184.958C114.164 182.496 116.523 179.357 118.022 175.859C119.514 172.385 120.076 168.638 121.248 165.062C122.49 161.268 124.7 158.035 129.011 157.661C133.869 157.24 138.883 159.453 143.569 160.419C152.534 162.265 162.367 162.39 170.013 156.679C177.175 151.335 179.315 142.774 176.058 134.516C174.269 129.974 171.466 125.986 168.553 122.098C165.507 118.032 162.367 114.035 159.134 110.117C156.4 106.806 153.597 103.557 150.73 100.363C163.96 93.9209 184.414 97.333 190.412 80.7786C196.918 62.8142 170.888 57.8362 158.65 57.1195V57.1273ZM115.664 109.182C114.313 115.149 109.947 119.839 105.261 123.508C102.84 125.401 100.286 127.139 97.6933 128.782C94.7333 130.66 91.5391 132.436 88.009 132.888C80.5428 133.854 76.9736 127.466 72.1471 123.142C67.305 118.803 62.0333 115.134 59.3311 109.003C55.1293 99.4675 56.8631 87.5951 63.9623 79.9373C66.0944 75.2008 70.6086 71.664 75.5757 70.0826C83.2372 67.6442 91.586 69.9891 98.5602 73.3935C101.645 74.9048 104.699 76.7433 107.05 79.2907C109.283 81.7213 110.744 84.6582 111.931 87.7042C114.5 94.3415 117.304 101.999 115.672 109.182H115.664Z" fill="#FFB087"/>
</svg>
