<svg width="150" height="85" viewBox="0 0 150 85" fill="none" xmlns="http://www.w3.org/2000/svg">
<g clip-path="url(#clip0_404_1134)">
<path d="M51.9223 84.2229C57.8742 83.9352 63.8332 83.6402 69.785 83.3524C69.3365 76.9783 68.8595 70.6042 68.3327 64.2373C67.2505 51.1798 65.4778 38.187 64.6305 25.115C64.1108 17.115 63.8688 9.07905 63.6338 1.03589C59.1486 1.82006 54.7772 3.03589 50.6622 4.67618C49.6014 5.10064 48.569 5.54668 47.5652 6.0215C48.0422 15.7337 48.4266 25.4532 48.7826 35.1726C49.3806 51.5683 50.5696 67.8992 51.9223 84.2301V84.2229Z" fill="#F9F5EF"/>
<path d="M85.3695 82.6115C90.7874 82.3669 96.2125 82.1295 101.638 81.9137C102.179 81.8921 102.713 81.8705 103.254 81.8561C102.834 75.9496 102.392 70.0432 101.901 64.1439C100.819 51.0863 99.046 38.0935 98.1988 25.0216C97.7432 17.9352 97.494 10.8129 97.2804 3.69064C96.4047 3.37409 95.5148 3.07913 94.6177 2.79855C90.1823 1.43165 85.5404 0.575533 80.8416 0.21582C81.4467 11.8345 81.9237 23.4604 82.3509 35.0791C82.9276 50.9712 84.0667 66.7985 85.3695 82.6259V82.6115Z" fill="#F9F5EF"/>
<path d="M31.0907 84.9856C30.6706 79.0072 30.215 73.0288 29.7237 67.0576C28.6416 54.0072 26.8688 41.0072 26.0216 27.9353C25.9219 26.4389 25.8365 24.9424 25.7582 23.446C22.8036 27.0216 20.1053 30.8417 17.5495 34.7986C15.0078 38.7338 12.6584 42.777 10.551 46.9137C11.1633 59.554 12.0888 72.1655 13.1283 84.777C19.1371 84.9209 25.1103 85.036 31.0907 84.9856Z" fill="#F9F5EF"/>
<path d="M114.894 81.4389C120.746 81.2518 126.598 81.1008 132.451 80.9713C131.696 68.8274 130.87 56.6763 129.859 44.554C129.275 37.5036 128.485 30.4677 127.759 23.4317C124.128 20.0576 120.077 16.9785 116.232 14.1224C114.239 12.6403 112.203 11.2375 110.103 9.9353C110.174 11.7842 110.245 13.6331 110.309 15.4821C111.106 37.5396 112.986 59.4677 114.894 81.4461V81.4389Z" fill="#F9F5EF"/>
<path d="M101.908 64.1367C102.399 70.036 102.848 75.9425 103.261 81.8489C105.197 81.777 107.141 81.705 109.077 81.6331C111.014 81.5684 112.95 81.5036 114.887 81.4389C112.979 59.4676 111.099 37.5324 110.302 15.4748C110.238 13.6259 110.167 11.777 110.095 9.92807C109.106 9.31656 108.095 8.71944 107.077 8.15109C107.027 8.12231 106.977 8.10073 106.927 8.07195C106.479 7.82735 106.03 7.58274 105.574 7.34533C105.489 7.30217 105.404 7.259 105.318 7.20864C104.891 6.98562 104.457 6.76979 104.022 6.55397C103.937 6.5108 103.852 6.46764 103.766 6.42447C103.303 6.20145 102.841 5.97843 102.378 5.7626C102.328 5.74102 102.278 5.71224 102.221 5.69066C100.612 4.95684 98.9676 4.28059 97.2732 3.67627C97.4868 10.8058 97.736 17.9209 98.1916 25.0072C99.0388 38.0791 100.804 51.072 101.894 64.1295L101.908 64.1367Z" fill="#C6E1DF"/>
<path d="M29.7238 67.0574C30.2221 73.0287 30.6706 79.0071 31.0907 84.9855C31.468 84.9855 31.8382 84.9783 32.2156 84.9711C32.301 84.9711 32.3793 84.9711 32.4648 84.9711C33.3404 84.9567 34.2233 84.9423 35.099 84.928C35.7397 84.9136 36.3805 84.8992 37.0141 84.8848C37.4128 84.8704 37.8044 84.8632 38.203 84.8488C39.2638 84.8129 40.3318 84.7769 41.3926 84.7265C41.4139 84.7265 41.4424 84.7265 41.4638 84.7265C44.9452 84.561 48.4266 84.3956 51.908 84.2301C50.5553 67.8992 49.3592 51.5682 48.7683 35.1726C48.4195 25.4603 48.0279 15.7409 47.5509 6.02148C47.0169 6.27328 46.4901 6.53228 45.9633 6.79846C45.9134 6.82724 45.8565 6.85602 45.8066 6.8776C45.3083 7.1294 44.817 7.38839 44.3329 7.65458C44.3044 7.66897 44.2759 7.68335 44.2475 7.69774C43.4714 8.1294 42.7097 8.56825 41.9621 9.02868C41.2146 9.48911 40.4884 9.95674 39.7693 10.4459C39.7124 10.4819 39.6625 10.5179 39.6056 10.5539C39.1855 10.8416 38.7655 11.1366 38.3526 11.4388C38.3027 11.4747 38.2458 11.5107 38.1959 11.5539C37.7118 11.9064 37.2348 12.2733 36.7649 12.633C35.9035 13.3021 35.0634 13.9855 34.2446 14.6905C34.1734 14.7553 34.0951 14.82 34.0239 14.8848C33.6822 15.1798 33.3476 15.4819 33.013 15.7841C32.9275 15.8632 32.8492 15.9352 32.7638 16.0143C32.4078 16.3452 32.0518 16.6762 31.703 17.0071C31.6603 17.0503 31.6175 17.0862 31.5748 17.1294C31.169 17.5179 30.7703 17.9136 30.3788 18.3093C30.3645 18.3236 30.3574 18.3308 30.3432 18.3452C29.9801 18.7121 29.6241 19.079 29.2752 19.4531C29.1827 19.5539 29.083 19.6546 28.9905 19.7553C28.7199 20.0503 28.4423 20.3452 28.1788 20.6402C28.072 20.7553 27.9724 20.8704 27.8656 20.9855C27.5879 21.2949 27.3174 21.6042 27.0468 21.9136C26.9685 22.0071 26.8831 22.1006 26.8048 22.1941C26.4488 22.6042 26.1 23.0215 25.7511 23.4388C25.8294 24.9352 25.9148 26.4316 26.0145 27.928C26.8617 40.9999 28.6274 53.9927 29.7166 67.0503L29.7238 67.0574Z" fill="#C6E1DF"/>
<path d="M68.3327 64.2301C68.8595 70.597 69.3436 76.9711 69.785 83.3452C74.9823 83.0934 80.1795 82.8416 85.3767 82.6042C84.0738 66.7769 82.9347 50.9495 82.358 35.0574C81.938 23.4387 81.461 11.8128 80.8487 0.194138C80.2008 0.143779 79.5601 0.107807 78.9122 0.0718361C78.7769 0.0718361 78.6345 0.0574476 78.4993 0.0502534C77.8514 0.0214764 77.1964 -0.00010636 76.5485 -0.0073006C76.5201 -0.0073006 76.4987 -0.0073006 76.4702 -0.0073006C75.8295 -0.0144948 75.1887 -0.0073006 74.548 -0.0073006C74.4412 -0.0073006 74.3415 -0.0073006 74.2347 -0.0073006C73.5584 0.00708788 72.8891 0.0286706 72.2128 0.0574476C72.1985 0.0574476 72.1843 0.0574476 72.1701 0.0574476C71.4937 0.0934188 70.8174 0.136584 70.141 0.186944C70.0912 0.186944 70.0342 0.194138 69.9844 0.201332C69.0589 0.273275 68.1405 0.3668 67.2149 0.481908C66.7308 0.539462 66.2467 0.60421 65.7625 0.668958C65.7625 0.668958 65.7554 0.668958 65.7483 0.668958C65.1432 0.755289 64.538 0.848815 63.9328 0.956728C63.8617 0.971117 63.7976 0.978311 63.7264 0.9927C63.6908 0.9927 63.6623 1.00709 63.6267 1.00709C63.8617 9.05025 64.1108 17.0934 64.6234 25.0862C65.4706 38.1582 67.2363 51.151 68.3256 64.2085L68.3327 64.2301Z" fill="#C6E1DF"/>
<path d="M132.45 80.9712C135.085 80.9136 137.719 80.8633 140.36 80.8129C140.923 80.8057 141.485 80.7913 142.048 80.7841C144.689 80.741 147.33 80.6978 149.971 80.6618C149.979 80.6618 149.993 80.6618 150 80.6618C148.733 66.2734 145.536 50.3669 138.267 37.0575C138.011 36.5827 137.74 36.1079 137.47 35.6403C136.929 34.705 136.366 33.7769 135.782 32.8705C135.49 32.4172 135.191 31.964 134.892 31.518C134.672 31.187 134.437 30.8633 134.202 30.5395C134.166 30.4892 134.124 30.4388 134.088 30.3813C133.86 30.0719 133.625 29.7626 133.383 29.4604C133.34 29.41 133.298 29.3525 133.255 29.3021C133.006 28.9856 132.757 28.6762 132.493 28.3669C132.479 28.3453 132.458 28.3309 132.443 28.3093C132.173 27.9928 131.902 27.6762 131.625 27.3669C131.61 27.3525 131.596 27.3309 131.582 27.3165C131.297 27 131.012 26.6906 130.72 26.3741C130.692 26.3453 130.663 26.3165 130.635 26.2805C130.343 25.964 130.044 25.6546 129.738 25.3453C129.731 25.3381 129.717 25.3237 129.709 25.3165C129.076 24.669 128.421 24.0359 127.745 23.4172C128.478 30.4532 129.261 37.4892 129.845 44.5395C130.856 56.669 131.682 68.8129 132.436 80.9568L132.45 80.9712Z" fill="#C6E1DF"/>
<path d="M4.57066 84.8058C5.58874 84.777 6.5997 84.7554 7.61779 84.741C8.60739 84.7266 9.58988 84.7194 10.5795 84.7266C11.1134 84.7266 11.6474 84.741 12.1814 84.7482C12.3665 84.7482 12.5516 84.7554 12.7296 84.7626C12.8648 84.7626 12.993 84.7626 13.1283 84.7698C12.0959 72.1655 11.1704 59.554 10.551 46.9065C10.551 46.9065 10.551 46.9137 10.551 46.9209C10.2022 47.6043 9.86754 48.2878 9.53292 48.9712C9.49733 49.0504 9.45461 49.1295 9.41901 49.2087C9.2695 49.518 9.12711 49.8202 8.9776 50.1295C8.92065 50.2518 8.86369 50.3741 8.80674 50.4964C8.66435 50.8058 8.51484 51.1151 8.37957 51.4245C8.37957 51.4389 8.37245 51.4461 8.36533 51.4605C8.06631 52.1079 7.78153 52.7626 7.49676 53.4173C7.4398 53.554 7.38284 53.6835 7.32589 53.8202C7.20486 54.1079 7.08383 54.3885 6.9628 54.6763C6.89872 54.8346 6.82753 54.9928 6.76345 55.1583C6.64954 55.4389 6.52851 55.7266 6.4146 56.0072C6.379 56.1007 6.33628 56.2015 6.30069 56.295C6.07998 56.8417 5.8664 57.3885 5.65993 57.9425C5.58874 58.1367 5.51755 58.3238 5.44635 58.518C5.3538 58.777 5.25413 59.036 5.16157 59.2878C5.08326 59.4964 5.01206 59.7051 4.94087 59.9137C4.85543 60.1583 4.76288 60.4101 4.67745 60.6547C4.53506 61.0576 4.39979 61.4676 4.26452 61.8705C4.19332 62.0935 4.11501 62.3238 4.04382 62.5468C3.9655 62.7914 3.88719 63.036 3.80887 63.2806C3.73768 63.5108 3.66648 63.741 3.59529 63.9641C3.51698 64.223 3.43866 64.4892 3.36035 64.7554C3.30339 64.9569 3.23932 65.1655 3.18236 65.3669C3.06133 65.7986 2.9403 66.2302 2.81927 66.6619C2.76943 66.8561 2.7196 67.0432 2.66976 67.2374C2.59145 67.5252 2.52025 67.8202 2.44194 68.1079C2.3921 68.3094 2.34226 68.5108 2.29243 68.7123C2.21411 69.036 2.1358 69.3597 2.06461 69.6835C2.02901 69.8417 1.99341 69.9928 1.95781 70.1511C1.85102 70.6115 1.75135 71.0648 1.6588 71.5252C1.6232 71.6907 1.5876 71.8561 1.55912 72.0288C1.49505 72.3597 1.42385 72.6835 1.3669 73.0144C1.3313 73.1871 1.30282 73.3669 1.26723 73.5396C1.19603 73.9209 1.13196 74.3094 1.06076 74.6907C1.04652 74.7914 1.02516 74.8993 1.00381 75C0.925491 75.482 0.854296 75.9569 0.783102 76.4389C0.761743 76.5899 0.740385 76.741 0.719027 76.8921C0.66919 77.2518 0.619354 77.6043 0.576637 77.9641C0.555279 78.1223 0.53392 78.2806 0.519682 78.4389C0.462726 78.8849 0.41289 79.331 0.370173 79.777C0.370173 79.8274 0.355934 79.8777 0.355934 79.9281C0.306098 80.4245 0.263381 80.9209 0.220664 81.4173C0.206425 81.5612 0.199306 81.7051 0.185067 81.8489C0.156589 82.223 0.128111 82.5971 0.106753 82.9712C0.0996331 83.1151 0.0853942 83.2662 0.0782747 83.4101C0.0497969 83.9137 0.0284385 84.4173 0.00708008 84.9209C1.00381 84.8993 2.00053 84.8777 3.00437 84.8489C3.53121 84.8346 4.05805 84.8202 4.57778 84.8058H4.57066Z" fill="#C6E1DF"/>
</g>
<defs>
<clipPath id="clip0_404_1134">
<rect width="150" height="85" fill="white"/>
</clipPath>
</defs>
</svg>
