<svg width="111" height="104" viewBox="0 0 111 104" fill="none" xmlns="http://www.w3.org/2000/svg">
<path d="M59.9757 30.727C58.4957 28.8746 56.8196 27.1184 54.4927 26.116C52.2638 25.1537 49.8478 25.2901 47.6189 26.1802C43.2058 27.9444 39.5415 31.3766 36.7956 34.8729C31.5087 41.6251 26.3734 52.6033 32.4359 60.0691C33.898 62.8438 35.9843 65.3297 38.5519 67.3826C41.9576 70.1011 46.5223 72.2743 51.1851 72.1059C56.0797 71.9295 59.8152 68.81 63.0961 65.851C64.9951 64.1429 66.8049 62.3466 68.4989 60.4781C70.1571 58.6497 71.9313 56.7252 72.9031 54.5038C74.6594 50.4782 72.4216 46.7172 69.8986 43.4374C66.6266 39.1792 63.3279 34.9291 59.9757 30.727Z" fill="#C6E1DF"/>
<path d="M91.6848 24.815C89.0304 24.6589 86.376 24.7737 83.7445 25.127C81.3937 25.4436 79.0798 26.21 76.7151 26.3752C74.4103 26.5358 72.4276 25.696 72.0687 23.218C71.7237 20.8502 72.561 18.3814 72.9658 16.0732C73.7755 11.4798 73.8675 6.34028 70.5046 2.67379C67.1095 -1.0294 61.8467 -0.386965 57.7155 1.6C50.2169 5.20224 44.5262 12.3517 42.0006 20.2766C41.8626 16.3485 41.2369 12.4526 39.1345 9.04769C36.6273 4.98198 32.1787 2.34798 27.3207 3.27034C22.2189 4.23859 19.9095 9.22666 20.2775 14.0266C20.5029 16.9451 21.492 19.7076 22.2649 22.5068C22.8813 24.7507 23.5668 27.9308 21.0596 29.2845C18.8698 30.4684 16.2016 29.7663 13.952 29.1973C11.2975 28.5319 8.51889 27.9354 5.89207 29.0275C1.5769 30.8217 -0.530083 35.7685 0.113973 40.2059C0.886839 45.5565 4.78337 49.6635 8.95133 52.7702C11.2101 54.4497 13.6897 55.8309 15.9209 57.5426C17.6875 58.8963 20.0383 61.3192 18.3315 63.6136C16.864 65.5776 13.9106 66.3164 11.7668 67.2296C9.36077 68.2575 7.01917 69.5103 5.36302 71.589C3.9047 73.42 3.12723 75.7098 3.61487 78.0409C4.04731 80.0967 5.48263 81.7395 7.16178 82.9235C11.2975 85.8374 17.0756 86.1769 21.9382 85.6905C24.8687 85.3968 27.7255 84.7315 30.472 83.6852C32.3903 82.9556 35.215 81.5514 37.2622 82.5472C39.5854 83.6806 38.7297 87.2002 38.7895 89.2423C38.8539 91.5275 39.4888 93.7669 40.5652 95.7814C42.6998 99.7691 46.6792 102.945 51.1922 103.72C55.6959 104.496 60.3055 103.036 63.765 100.113C65.481 98.6632 66.8703 96.8139 67.7536 94.7535C68.6323 92.7069 68.9635 90.4996 69.6535 88.3933C70.385 86.1586 71.6869 84.2542 74.2263 84.034C77.0878 83.7862 80.0412 85.0894 82.8015 85.6584C88.0827 86.746 93.8746 86.8194 98.3784 83.4557C102.597 80.3078 103.857 75.2647 101.939 70.4005C100.886 67.7252 99.2341 65.3757 97.5181 63.0859C95.724 60.6905 93.8746 58.3364 91.9701 56.0283C90.3599 54.078 88.7084 52.1644 87.02 50.283C94.8131 46.4881 106.862 48.498 110.395 38.7467C114.227 28.1648 98.8937 25.2325 91.6848 24.8104V24.815ZM66.3643 55.4776C65.5684 58.9926 62.9968 61.7551 60.2365 63.9165C58.8104 65.0316 57.3061 66.0549 55.7788 67.0231C54.0352 68.129 52.1536 69.1753 50.0743 69.4414C45.6763 70.0105 43.5739 66.2476 40.7309 63.7008C37.8786 61.1448 34.7733 58.9835 33.1816 55.372C30.7066 49.7553 31.7279 42.7619 35.9096 38.2511C37.1656 35.4611 39.8246 33.3777 42.7504 32.4462C47.2634 31.0099 52.1812 32.3911 56.2894 34.3965C58.1066 35.2867 59.9053 36.3697 61.29 37.8702C62.6057 39.3019 63.466 41.0319 64.1653 42.8262C65.6788 46.7359 67.3303 51.2467 66.3689 55.4776H66.3643Z" fill="#FFB087"/>
</svg>
