<svg width="109" height="95" viewBox="0 0 109 95" fill="none" xmlns="http://www.w3.org/2000/svg">
<path d="M56.4518 0.510197C44.6686 1.65791 34.3138 7.38907 26.9521 14.6446C23.6748 17.8702 20.859 21.5218 18.5777 25.4424C17.3063 26.7522 16.0842 28.1029 14.928 29.4863C8.63355 36.9912 4.09251 45.7225 1.82546 54.9684C-0.377548 63.9418 -0.541835 73.8598 4.74015 82.7572C10.287 92.09 22.512 96.4959 33.4324 93.589C35.5772 93.0161 37.6144 92.279 39.5607 91.4022C40.7789 92.236 42.2796 92.3016 43.5233 91.8658C55.9755 94.4156 67.6005 90.0043 76.9058 84.2627C95.6389 72.6963 116.36 53.3201 105.022 30.6908C101.697 24.0491 96.0721 18.3192 88.8305 15.0964C88.5984 14.6526 88.3498 14.2088 88.0849 13.7652C85.2538 9.04145 80.4506 4.98851 74.7725 2.76244C74.7314 2.74619 74.6821 2.72999 74.641 2.71374C73.689 1.1282 71.6269 0.389904 69.6524 0.632086C69.0871 0.701287 68.53 0.778685 67.9648 0.85613C64.1567 0.185581 60.2948 0.125367 56.4435 0.502001L56.4518 0.510197ZM16.797 85.0125C9.82687 80.5186 8.39783 71.5414 8.71213 64.8952C8.93863 60.0879 10.108 55.2917 11.8937 50.7309C12.0386 57.3827 13.6432 64.1002 16.9592 70.4534C20.126 76.5107 24.8825 82.4187 31.0883 86.5955C26.4228 87.9413 21.3807 87.9621 16.797 85.0043L16.797 85.0125ZM99.8262 45.2376C98.866 55.0365 91.6324 63.1816 83.8888 69.6149C76.6267 75.658 68.0707 81.9559 57.9601 84.5366C55.1603 85.2534 52.2519 85.6411 49.2999 85.5592C53.9205 82.095 58.046 78.0896 61.976 74.2997C66.5908 69.8463 70.9504 65.1966 75.0878 60.408C79.16 55.694 83.166 50.8649 86.3334 45.6285C90.0938 39.4407 92.4148 32.445 91.8493 25.367C97.6606 30.7826 100.492 38.4246 99.8262 45.2376ZM82.5056 20.1531C83.8556 23.9539 84.0022 28.0583 83.1869 31.6985C82.0039 36.9894 79.2108 41.7208 75.998 46.1826C72.8258 50.5782 69.3082 54.8026 65.6341 58.8879C61.8215 63.1223 57.7949 67.226 53.5789 71.1742C49.9418 74.575 46.2393 77.9927 42.0996 80.9677C35.8885 67.3191 36.9399 51.9965 44.1751 39.8615C48.3977 32.7807 54.7245 26.6193 62.9172 22.7224C68.6733 19.9854 75.8713 18.4766 82.4974 20.1532L82.5056 20.1531ZM73.4192 9.80201C74.8418 10.5275 76.1011 11.3858 77.2052 12.344C65.3301 11.7611 54.3602 17.4463 46.7572 24.0932C31.6492 37.3039 26.1999 57.7463 31.9991 76.7474C32.208 77.4304 32.4416 78.1215 32.6832 78.7961C32.197 78.3702 31.719 77.9361 31.2655 77.4935C17.4389 64.0536 17.8381 43.665 25.7103 29.655C34.1872 21.0082 45.2984 14.2257 58.0012 10.4678C61.4716 9.44209 65.0416 8.63016 68.6866 8.04038C70.3123 8.45145 71.898 9.02762 73.4192 9.81025L73.4192 9.80201Z" fill="#FFB087"/>
</svg>
