<svg width="194" height="206" viewBox="0 0 194 206" fill="none" xmlns="http://www.w3.org/2000/svg">
<g clip-path="url(#clip0_530_496)">
<path d="M101.172 19.5957C80.0947 21.6487 61.5728 31.9001 48.4047 44.8782C42.5424 50.648 37.5058 57.1797 33.4252 64.1926C31.1509 66.5355 28.965 68.9516 26.8968 71.426C15.6378 84.8502 7.51509 100.468 3.45998 117.007C-0.480617 133.058 -0.774487 150.798 8.67354 166.713C18.5953 183.407 40.4626 191.288 59.9962 186.088C63.8326 185.064 67.4767 183.745 70.958 182.177C73.137 183.668 75.8215 183.786 78.0461 183.006C100.32 187.567 121.114 179.676 137.758 169.406C171.267 148.717 208.332 114.058 188.051 73.5805C182.102 61.7004 172.042 51.4511 159.088 45.6864C158.673 44.8926 158.229 44.0989 157.755 43.3053C152.691 34.8558 144.099 27.6062 133.942 23.6244C133.869 23.5953 133.781 23.5663 133.707 23.5372C132.004 20.7012 128.316 19.3805 124.784 19.8137C123.773 19.9375 122.776 20.076 121.765 20.2145C114.954 19.0151 108.046 18.9074 101.157 19.581L101.172 19.5957ZM30.2401 170.747C17.7723 162.709 15.2161 146.651 15.7783 134.763C16.1835 126.164 18.2753 117.585 21.4693 109.427C21.7285 121.325 24.5987 133.341 30.5302 144.705C36.1946 155.54 44.7027 166.108 55.8033 173.579C47.4579 175.986 38.439 176.023 30.24 170.733L30.2401 170.747ZM178.757 99.6009C177.039 117.128 164.1 131.698 150.249 143.205C137.259 154.015 121.955 165.28 103.87 169.896C98.8614 171.178 93.6592 171.872 88.3789 171.725C96.6438 165.529 104.023 158.364 111.053 151.585C119.308 143.619 127.106 135.302 134.506 126.737C141.79 118.304 148.956 109.667 154.622 100.3C161.348 89.2317 165.5 76.7184 164.488 64.0578C174.883 73.7447 179.948 87.4142 178.757 99.6009ZM147.775 54.7316C150.19 61.5301 150.452 68.8719 148.993 75.383C146.877 84.8471 141.881 93.3103 136.134 101.291C130.46 109.154 124.168 116.71 117.596 124.017C110.776 131.592 103.574 138.932 96.0328 145.994C89.527 152.077 82.9042 158.191 75.4995 163.512C64.3894 139.099 66.2702 111.691 79.212 89.9845C86.7651 77.3189 98.0819 66.2978 112.736 59.3273C123.033 54.4316 135.908 51.7328 147.76 54.7316L147.775 54.7316ZM131.522 36.2162C134.066 37.5139 136.319 39.0493 138.294 40.7631C117.053 39.7204 97.4302 49.8898 83.8306 61.7792C56.8065 85.4096 47.0591 121.976 57.4324 155.963C57.8061 157.185 58.2238 158.421 58.6561 159.628C57.7864 158.866 56.9314 158.09 56.1202 157.298C31.3882 133.258 32.1023 96.7878 46.1834 71.7279C61.3463 56.2611 81.2213 44.1291 103.943 37.4071C110.151 35.5724 116.536 34.1201 123.056 33.0652C125.964 33.8004 128.801 34.8311 131.522 36.231L131.522 36.2162Z" fill="#FFB087"/>
</g>
<defs>
<clipPath id="clip0_530_496">
<rect width="194" height="206" fill="white"/>
</clipPath>
</defs>
</svg>
