<svg width="207" height="180" viewBox="0 0 207 180" fill="none" xmlns="http://www.w3.org/2000/svg">
<path d="M107.383 0.960547C84.9693 3.14148 65.2731 14.0415 51.2709 27.8416C45.0373 33.9769 39.6818 40.9225 35.343 48.3799C32.9247 50.8712 30.6003 53.4404 28.4011 56.0716C16.4292 70.3464 7.79273 86.9546 3.48213 104.542C-0.706762 121.611 -1.01733 140.477 9.03199 157.403C19.5852 175.157 42.841 183.541 63.6135 178.013C67.6932 176.924 71.5684 175.522 75.2704 173.855C77.5879 175.441 80.4427 175.566 82.8084 174.737C106.496 179.59 128.608 171.201 146.308 160.281C181.941 138.283 221.354 101.429 199.782 58.3802C193.454 45.7456 182.754 34.8449 168.978 28.7131C168.536 27.8688 168.064 27.0247 167.56 26.1807C162.173 17.1945 153.036 9.48396 142.234 5.24837C142.156 5.21745 142.062 5.18662 141.984 5.1557C140.173 2.13947 136.25 0.734655 132.494 1.19496C131.419 1.32649 130.359 1.47361 129.284 1.62081C122.04 0.344542 114.694 0.229254 107.368 0.944954L107.383 0.960547ZM31.9675 161.696C18.7077 153.146 15.9876 136.069 16.5841 123.426C17.014 114.282 19.2376 105.158 22.6335 96.4832C22.9103 109.136 25.964 121.915 32.2731 134.001C38.2982 145.524 47.3473 156.763 59.1531 164.71C50.2785 167.269 40.6873 167.307 31.9674 161.68L31.9675 161.696ZM189.9 86.0507C188.076 104.69 174.317 120.183 159.589 132.419C145.776 143.913 129.501 155.891 110.269 160.798C104.943 162.161 99.4111 162.898 93.7956 162.742C102.584 156.153 110.431 148.535 117.906 141.326C126.684 132.856 134.976 124.012 142.845 114.903C150.591 105.937 158.21 96.7519 164.234 86.7916C171.386 75.0217 175.8 61.7148 174.723 48.2507C185.778 58.5535 191.166 73.0909 189.9 86.0507ZM156.948 38.3309C159.516 45.5611 159.796 53.3688 158.246 60.2929C155.997 70.3573 150.684 79.3569 144.574 87.8436C138.54 96.2044 131.85 104.24 124.862 112.01C117.61 120.064 109.951 127.87 101.932 135.379C95.0145 141.847 87.9721 148.348 80.0981 154.006C68.2803 128.042 70.2774 98.8954 84.0381 75.8134C92.0691 62.3449 104.103 50.6257 119.686 43.2145C130.635 38.0092 144.327 35.1406 156.932 38.331L156.948 38.3309ZM139.661 18.639C142.367 20.0193 144.763 21.6523 146.864 23.4751C124.274 22.364 103.408 33.1765 88.9467 45.8189C60.2103 70.9457 49.8485 109.831 60.8837 145.976C61.2812 147.276 61.7256 148.59 62.1854 149.874C61.2605 149.063 60.3511 148.237 59.4884 147.396C33.1844 121.827 33.9397 83.0433 48.9116 56.3947C65.035 39.9481 86.1698 27.0485 110.333 19.9024C116.934 17.952 123.725 16.4082 130.658 15.287C133.751 16.0693 136.767 17.1656 139.661 18.6546L139.661 18.639Z" fill="#F9F5EF"/>
<ellipse cx="110.17" cy="87.1007" rx="81.291" ry="79.2066" fill="#F9F5EF"/>
</svg>
