<svg width="214" height="197" viewBox="0 0 214 197" fill="none" xmlns="http://www.w3.org/2000/svg">
<g clip-path="url(#clip0_527_811)">
<path d="M105.677 22.4491C104.246 22.2591 102.977 21.2317 103.044 19.7233C103.094 18.5126 103.783 17.1689 104.373 16.1701C104.815 15.4275 105.536 14.6314 106.398 14.0439C105.438 13.4093 104.48 12.7826 103.52 12.1609C97.0347 7.98719 90.0114 3.9916 82.647 1.90897C82.2602 2.81087 81.5485 3.62566 80.8234 4.23175C80.0492 4.87647 79.1522 4.66661 78.5519 4.10556C77.8638 4.00961 77.2089 3.57782 76.9448 2.95643C76.465 2.29089 76.3603 1.44 76.6371 0.682214C76.1805 0.626172 75.7289 0.573032 75.2737 0.537861C72.5537 0.306743 69.9873 0.459084 67.5492 0.8998C66.6142 2.87841 65.0334 4.49073 62.4837 4.15031C61.6899 4.04021 60.9476 3.67853 60.4587 3.12159C55.451 5.36726 51.0343 8.80492 46.9816 12.5867C44.9057 14.5227 42.9079 16.5439 40.9846 18.6216C42.1584 18.0737 43.4725 18.002 44.6236 18.9548C45.7776 19.9026 45.787 20.9998 45.2722 22.0421C45.2611 22.096 45.2501 22.15 45.2362 22.2089C44.5107 24.9381 42.8342 27.9688 39.4289 27.5094C37.998 27.3194 36.7292 26.292 36.7965 24.7836C36.8254 24.1304 37.0386 23.4364 37.3251 22.7779C33.9664 26.7729 30.87 30.9865 28.0584 35.3912C28.2492 35.2 28.4435 35.0375 28.6254 34.9081C29.5003 34.2747 30.6083 33.7826 31.7506 33.8461C33.0532 33.9218 34.2314 34.7697 34.4685 36.0989C34.8362 38.1532 32.5779 40.4862 30.646 40.6767C30.6093 40.6823 30.5704 40.68 30.5366 40.6806C29.5252 41.1213 28.4259 41.2501 27.4787 40.7098C26.3377 40.0643 26.1661 39.0274 26.4493 37.992C24.6224 41.0162 22.9262 44.1159 21.3677 47.3018C17.7933 52.9809 14.6214 58.9258 11.9912 65.197C8.77839 72.8598 6.40051 81.0718 5.14237 89.5487C5.24905 89.5031 5.35575 89.4576 5.46166 89.4249C5.67525 89.2871 5.89599 89.16 6.13392 89.0496C7.07927 88.5841 8.07419 89.239 8.57628 90.0514C8.97408 90.6964 9.05012 91.3767 8.92269 92.0265C8.95648 93.4527 7.88823 94.8385 6.79698 95.7423C6.02277 96.387 5.12582 96.1771 4.52546 95.6161C4.49957 95.6145 4.47155 95.605 4.44566 95.6035C3.61509 105.613 4.39779 115.892 7.26567 125.981C8.308 129.651 9.63058 133.241 11.1961 136.724C11.3051 136.64 11.4113 136.56 11.5195 136.489C11.7497 136.334 11.9985 136.216 12.2528 136.135C12.4664 135.997 12.6872 135.87 12.9251 135.76C13.8704 135.294 14.8654 135.949 15.3674 136.762C15.7653 137.407 15.8413 138.087 15.7139 138.737C15.7425 140.033 14.864 141.287 13.8901 142.185C15.3141 144.823 16.8774 147.393 18.5726 149.886C18.879 149.587 19.2069 149.321 19.5158 149.111C19.746 148.956 19.9947 148.838 20.2491 148.758C20.4627 148.62 20.6834 148.493 20.9213 148.382C21.8667 147.917 22.8616 148.572 23.3637 149.384C23.7615 150.029 23.8375 150.709 23.7101 151.359C23.7376 152.587 22.9516 153.774 22.0431 154.663C25.4006 158.987 29.1587 163.046 33.2426 166.784C33.4097 166.901 33.5552 167.032 33.684 167.18C34.4306 167.859 35.1938 168.52 35.9628 169.172L39.7774 162.567C39.0903 162.887 38.2896 163.021 37.3642 162.895C35.9333 162.705 34.6645 161.677 34.7319 160.169C34.7813 158.958 35.4702 157.615 36.0604 156.616C37.1994 154.701 40.2165 152.411 42.5589 154.34C43.2177 154.881 43.4992 155.473 43.5281 156.072L52.0042 141.395C51.9162 141.129 51.8736 140.844 51.8844 140.535C51.9338 139.324 52.6227 137.981 53.2129 136.982C53.7907 136.016 54.8445 134.957 56.0458 134.384L78.9098 94.7925C78.2683 95.0449 77.5347 95.1438 76.6941 95.0335C75.2633 94.8435 73.9945 93.816 74.0618 92.3076C74.1112 91.097 74.8001 89.7532 75.3903 88.7544C76.5293 86.8401 79.5464 84.5501 81.8889 86.4789C82.4659 86.9527 82.7571 87.4692 82.8374 87.9912L115.086 32.1495C114.853 31.9614 114.659 31.7288 114.543 31.4542C114 30.7121 113.937 29.7312 114.35 28.9114C114.754 28.1067 115.607 27.2796 116.355 26.7736C116.585 26.6186 116.834 26.501 117.088 26.4201C117.302 26.2822 117.522 26.1552 117.76 26.0447C118.068 25.8943 118.387 25.8641 118.685 25.9159L120.115 23.4395C117.236 21.4082 114.348 19.392 111.437 17.4161C110.676 20.0782 109.006 22.9118 105.704 22.4716L105.677 22.4491ZM88.3744 40.5096C89.5377 41.0006 90.1972 42.3058 90.0257 43.4727C89.9277 44.1529 89.5958 44.6579 89.1421 45.0724C88.3272 45.9616 87.0832 46.5962 86.0634 46.8312C85.0039 47.0767 83.6914 45.8699 83.8934 44.801C84.2627 42.8508 85.688 39.3736 88.3744 40.5096ZM72.0283 64.5813C72.3959 66.6357 70.1377 68.9687 68.2057 69.1592C68.169 69.1648 68.1302 69.1625 68.0964 69.163C67.0849 69.6038 65.9857 69.7326 65.0385 69.1922C62.5254 67.7677 64.7017 64.4631 66.188 63.3856C67.0629 62.7521 68.171 62.26 69.3132 62.3235C70.6159 62.3992 71.7941 63.2471 72.0312 64.5763L72.0283 64.5813ZM71.3411 53.2328C70.653 53.1369 69.9981 52.7051 69.734 52.0837C69.1913 51.3416 69.1282 50.3607 69.5413 49.5409C69.9457 48.7363 70.7985 47.9092 71.5461 47.4032C71.7764 47.2481 72.0251 47.1305 72.2794 47.0497C72.493 46.9118 72.7138 46.7847 72.9517 46.6743C73.8971 46.2088 74.892 46.8637 75.3941 47.6761C75.7919 48.3211 75.8679 49.0014 75.7405 49.6512C75.7743 51.0774 74.706 52.4632 73.6148 53.367C72.8406 54.0117 71.9436 53.8018 71.3433 53.2408L71.3411 53.2328ZM92.4673 25.3841C92.835 27.4384 90.5767 29.7715 88.6448 29.9619C88.608 29.9675 88.5692 29.9652 88.5354 29.9658C87.524 30.4065 86.4247 30.5353 85.4775 29.995C82.9644 28.5705 85.1408 25.2658 86.6271 24.1883C87.502 23.5549 88.61 23.0628 89.7523 23.1262C91.0549 23.202 92.2331 24.0498 92.4702 25.3791L92.4673 25.3841ZM91.8604 9.84862C92.6513 9.0126 93.6477 8.38904 94.8696 8.33777C96.5549 8.27279 98.067 9.74885 97.5082 11.4356C97.3908 11.7898 97.215 12.1638 97.0003 12.5355C96.9347 12.7187 96.8411 12.8924 96.7303 13.0494C96.6311 13.1864 96.514 13.3197 96.3817 13.4443C96.0524 13.8637 95.6846 14.234 95.3099 14.4999C94.8537 14.8259 94.2745 14.9938 93.6975 14.9955C93.6975 14.9955 93.6896 14.9976 93.6816 14.9997C92.1065 15.5235 90.1867 14.4751 90.3144 12.6533C90.3912 11.5924 91.1642 10.5786 91.8583 9.8407L91.8604 9.84862ZM73.7787 30.1985C74.1765 30.8435 74.2525 31.5238 74.1251 32.1736C74.1589 33.5998 73.0906 34.9856 71.9994 35.8894C71.2251 36.5341 70.3282 36.3242 69.7278 35.7632C69.0397 35.6672 68.3848 35.2354 68.1207 34.614C67.578 33.8719 67.5149 32.891 67.928 32.0713C68.3324 31.2666 69.1852 30.4395 69.9328 29.9335C70.1631 29.7784 70.4118 29.6608 70.6662 29.58C70.8797 29.4421 71.1005 29.315 71.3384 29.2046C72.2838 28.7391 73.2787 29.394 73.7808 30.2064L73.7787 30.1985ZM53.182 55.6805C52.7063 54.1264 54.394 52.1203 55.4429 51.1854C56.2361 50.4847 57.4487 50.1132 58.5192 50.5908C59.8634 51.1862 60.3076 52.7019 59.8896 53.9476C59.2434 55.8786 57.297 57.1727 55.2886 57.4262C54.0525 57.5831 53.2826 56.6429 53.1791 55.6855L53.182 55.6805ZM36.772 90.1512C37.1698 90.7962 37.2458 91.4764 37.1184 92.1263C37.1522 93.5524 36.0839 94.9383 34.9927 95.842C34.2185 96.4867 33.3215 96.2769 32.7212 95.7158C32.0331 95.6199 31.3782 95.1881 31.1141 94.5667C30.5743 93.8196 30.5082 92.8437 30.9213 92.0239C31.3257 91.2192 32.1785 90.3921 32.9262 89.8861C33.1564 89.7311 33.4051 89.6135 33.6595 89.5326C33.8731 89.3947 34.0938 89.2677 34.3317 89.1572C35.2771 88.6917 36.272 89.3467 36.7741 90.1591L36.772 90.1512ZM75.879 11.9932C76.6722 11.2924 77.8848 10.921 78.9553 11.3985C80.2995 11.9939 80.7437 13.5097 80.3257 14.7554C79.6795 16.6864 77.7332 17.9805 75.7247 18.2339C74.4886 18.3909 73.7188 17.4506 73.6152 16.4932C73.1395 14.9392 74.8272 12.9331 75.8761 11.9982L75.879 11.9932ZM57.6559 26.7421C58.9585 26.8178 60.1368 27.6657 60.3739 28.9949C60.7415 31.0492 58.4833 33.3823 56.5513 33.5727C56.5146 33.5783 56.4758 33.576 56.4419 33.5766C55.4305 34.0173 54.3313 34.1461 53.384 33.6058C50.8709 32.1813 53.0473 28.8766 54.5336 27.7991C55.4085 27.1657 56.5166 26.6736 57.6588 26.737L57.6559 26.7421ZM41.5388 45.1051C41.9081 43.1549 43.3334 39.6777 46.0198 40.8137C47.1831 41.3047 47.8426 42.6099 47.6711 43.7768C47.573 44.457 47.2412 44.962 46.7875 45.3765C45.9726 46.2657 44.7286 46.9003 43.7088 47.1353C42.6493 47.3808 41.3367 46.174 41.5388 45.1051ZM23.182 85.8465C23.084 86.5267 22.7522 87.0317 22.2984 87.4462C21.4835 88.3353 20.2396 88.97 19.2197 89.2049C18.1602 89.4505 16.8477 88.2437 17.0497 87.1747C17.419 85.2245 18.8443 81.7473 21.5307 82.8834C22.694 83.3743 23.3536 84.6796 23.182 85.8465ZM23.4707 55.027C23.5475 53.9661 24.3205 52.9523 25.0196 52.2173C25.8105 51.3813 26.807 50.7578 28.0289 50.7065C29.7142 50.6415 31.2262 52.1176 30.6674 53.8043C30.55 54.1585 30.3742 54.5325 30.1595 54.9043C30.0939 55.0874 30.0003 55.2611 29.8895 55.4182C29.7903 55.5551 29.6732 55.6884 29.5409 55.813C29.2117 56.2324 28.8438 56.6027 28.4691 56.8686C28.013 57.1946 27.4337 57.3625 26.8567 57.3642C26.8567 57.3642 26.8488 57.3663 26.8409 57.3684C25.2657 57.8922 23.3459 56.8438 23.4736 55.022L23.4707 55.027ZM21.799 72.3278C21.7622 72.3333 21.7234 72.331 21.6896 72.3316C20.6781 72.7723 19.5789 72.9011 18.6317 72.3608C16.1186 70.9363 18.2949 67.6316 19.7812 66.5541C20.6561 65.9207 21.7642 65.4286 22.9064 65.4921C24.2091 65.5678 25.3873 66.4157 25.6294 67.7478C25.9971 69.8021 23.7388 72.1351 21.8069 72.3256L21.799 72.3278ZM56.3555 16.0843C56.7248 14.1341 58.1501 10.6569 60.8365 11.793C61.9998 12.2839 62.6594 13.5892 62.4878 14.7561C62.3898 15.4363 62.058 15.9413 61.6042 16.3558C60.7893 17.2449 59.5454 17.8796 58.5255 18.1145C57.466 18.3601 56.1535 17.1533 56.3555 16.0843ZM10.0283 107.696C9.99161 107.702 9.95277 107.699 9.91895 107.7C8.90752 108.14 7.8083 108.269 6.86106 107.729C4.34796 106.304 6.52432 103 8.01062 101.922C8.88551 101.289 9.99358 100.797 11.1358 100.86C12.4384 100.936 13.6167 101.784 13.8538 103.113C14.2214 105.167 11.9632 107.5 10.0312 107.691L10.0283 107.696ZM36.1984 62.0891C36.2478 60.8784 36.9367 59.5347 37.5269 58.5359C38.6659 56.6216 41.683 54.3316 44.0255 56.2604C45.1795 57.2081 45.1889 58.3054 44.6741 59.3477C44.663 59.4016 44.652 59.4555 44.638 59.5144C43.9126 62.2437 42.2361 65.2744 38.8308 64.815C37.3999 64.625 36.1311 63.5975 36.1984 62.0891ZM32.7176 76.7577C33.087 74.8074 34.5123 71.3302 37.1986 72.4663C38.362 72.9572 39.0215 74.2625 38.85 75.4294C38.7519 76.1096 38.4201 76.6146 37.9664 77.0291C37.1515 77.9183 35.9075 78.5529 34.8877 78.7879C33.8282 79.0334 32.5156 77.8266 32.7176 76.7577ZM16.5317 123.622C15.7168 124.511 14.4728 125.146 13.453 125.381C12.3935 125.627 11.081 124.42 11.283 123.351C11.6523 121.401 13.0776 117.923 15.764 119.06C16.9273 119.55 17.5869 120.856 17.4153 122.023C17.3173 122.703 16.9854 123.208 16.5317 123.622ZM24.3141 114.345C22.8832 114.155 21.6144 113.128 21.6817 111.619C21.7311 110.408 22.4201 109.065 23.0103 108.066C24.1493 106.152 27.1664 103.862 29.5088 105.79C30.6629 106.738 30.6723 107.835 30.1574 108.878C30.1464 108.932 30.1353 108.985 30.1214 109.044C29.3959 111.774 27.7194 114.804 24.3141 114.345ZM51.5553 75.0837C50.7811 75.7284 49.8842 75.5186 49.2838 74.9575C48.5957 74.8616 47.9408 74.4298 47.6767 73.8084C47.134 73.0663 47.0708 72.0854 47.4839 71.2656C47.8884 70.4609 48.7411 69.6338 49.4888 69.1278C49.719 68.9728 49.9678 68.8552 50.2221 68.7743C50.4357 68.6364 50.6564 68.5094 50.8944 68.3989C51.8397 67.9334 52.8346 68.5884 53.3367 69.4008C53.7345 70.0458 53.8106 70.7261 53.6832 71.3759C53.7169 72.802 52.6487 74.1879 51.5574 75.0916L51.5553 75.0837ZM44.6056 89.0551C44.1299 87.5011 45.8175 85.495 46.8665 84.5601C47.6597 83.8594 48.8722 83.4879 49.9428 83.9655C51.2869 84.5608 51.7311 86.0766 51.3132 87.3223C50.6669 89.2533 48.7206 90.5474 46.7121 90.8008C45.4761 90.9578 44.7062 90.0175 44.6026 89.0602L44.6056 89.0551ZM38.9075 104.64C39.3119 103.836 40.1647 103.009 40.9124 102.503C41.1426 102.347 41.3913 102.23 41.6457 102.149C41.8593 102.011 42.08 101.884 42.3179 101.774C43.2633 101.308 44.2582 101.963 44.7603 102.775C45.1581 103.42 45.2341 104.101 45.1067 104.751C45.1405 106.177 44.0722 107.563 42.981 108.466C42.2068 109.111 41.3098 108.901 40.7095 108.34C40.0214 108.244 39.3665 107.812 39.1024 107.191C38.5597 106.449 38.4965 105.468 38.9096 104.648L38.9075 104.64ZM25.2724 137.391C24.0364 137.548 23.2665 136.608 23.163 135.65C22.6873 134.096 24.375 132.09 25.4239 131.155C26.2171 130.455 27.4296 130.083 28.5002 130.561C29.8443 131.156 30.2885 132.672 29.8706 133.918C29.2243 135.849 27.278 137.143 25.2695 137.396L25.2724 137.391ZM37.0032 124.037C35.7671 124.194 34.9972 123.254 34.8937 122.297C34.418 120.742 36.1057 118.736 37.1546 117.802C37.9478 117.101 39.1604 116.729 40.2309 117.207C41.5751 117.802 42.0192 119.318 41.6013 120.564C40.9551 122.495 39.0087 123.789 37.0003 124.042L37.0032 124.037ZM61.2961 85.2302C61.3728 84.1694 62.1459 83.1555 62.8399 82.4177C63.6308 81.5816 64.6273 80.9581 65.8492 80.9068C67.5345 80.8418 69.0465 82.3179 68.4877 84.0047C68.3703 84.3588 68.1945 84.7329 67.9798 85.1046C67.9142 85.2877 67.8206 85.4614 67.7098 85.6185C67.6106 85.7555 67.4935 85.8887 67.3612 86.0133C67.032 86.4327 66.6641 86.803 66.2895 87.0689C65.8333 87.3949 65.254 87.5628 64.677 87.5645C64.677 87.5645 64.6691 87.5666 64.6612 87.5687C63.086 88.0925 61.1662 87.0441 61.2939 85.2223L61.2961 85.2302ZM57.6037 96.7624C58.4786 96.1289 59.5866 95.6368 60.7289 95.7003C62.0315 95.776 63.2097 96.6239 63.4519 97.956C63.8195 100.01 61.5612 102.343 59.6293 102.534C59.5926 102.539 59.5537 102.537 59.5199 102.538C58.5085 102.978 57.4093 103.107 56.462 102.567C53.9489 101.142 56.1253 97.8377 57.6116 96.7603L57.6037 96.7624ZM40.168 134.633C40.5374 132.683 41.9627 129.206 44.649 130.342C45.8123 130.833 46.4719 132.138 46.3004 133.305C46.2023 133.985 45.8705 134.49 45.4168 134.904C44.6019 135.794 43.3579 136.428 42.3381 136.663C41.2786 136.909 39.966 135.702 40.168 134.633ZM38.1896 149.124C38.1529 149.13 38.1141 149.127 38.0802 149.128C37.0688 149.569 35.9696 149.698 35.0223 149.157C32.5092 147.733 34.6856 144.428 36.1719 143.351C37.0468 142.717 38.1549 142.225 39.2971 142.288C40.5997 142.364 41.778 143.212 42.0151 144.541C42.3827 146.596 40.1244 148.929 38.1925 149.119L38.1896 149.124ZM50.9795 126.757C49.7434 126.913 48.9736 125.973 48.87 125.016C48.3943 123.462 50.082 121.456 51.1309 120.521C51.927 119.815 53.1367 119.449 54.2072 119.926C55.5514 120.522 55.9956 122.037 55.5776 123.283C54.9314 125.214 52.9851 126.508 50.9766 126.762L50.9795 126.757ZM64.602 110.811C64.591 110.865 64.5799 110.919 64.566 110.978C63.8405 113.707 62.164 116.738 58.7587 116.278C57.3278 116.088 56.059 115.061 56.1263 113.552C56.1757 112.342 56.8646 110.998 57.4549 109.999C58.5939 108.085 61.611 105.795 63.9534 107.724C65.1075 108.671 65.1168 109.769 64.602 110.811ZM84.3682 73.8576C83.5533 74.7468 82.3093 75.3815 81.2894 75.6164C80.23 75.8619 78.9174 74.6552 79.1194 73.5862C79.4887 71.636 80.914 68.1588 83.6004 69.2948C84.7637 69.7858 85.4233 71.091 85.2518 72.258C85.1537 72.9381 84.8219 73.4431 84.3682 73.8576ZM99.7548 47.5037C99.985 47.3486 100.234 47.231 100.488 47.1502C100.702 47.0123 100.922 46.8852 101.16 46.7748C102.106 46.3093 103.101 46.9642 103.603 47.7766C104.001 48.4217 104.077 49.1019 103.949 49.7517C103.983 51.1779 102.915 52.5638 101.823 53.4675C101.049 54.1122 100.152 53.9023 99.5519 53.3413C98.8638 53.2453 98.2089 52.8135 97.9448 52.1922C97.4021 51.4501 97.3389 50.4691 97.7521 49.6494C98.1565 48.8447 99.0092 48.0176 99.7569 47.5116L99.7548 47.5037ZM94.9256 57.9306C96.0797 58.8784 96.089 59.9756 95.5742 61.0179C95.5632 61.0718 95.5521 61.1257 95.5382 61.1847C94.8127 63.9139 93.1362 66.9446 89.7309 66.4852C88.3 66.2952 87.0312 65.2678 87.0985 63.7593C87.1479 62.5487 87.8368 61.205 88.4271 60.2062C89.5661 58.2918 92.5832 56.0018 94.9256 57.9306ZM105.691 33.0607C105.593 33.7409 105.261 34.2459 104.807 34.6604C103.992 35.5495 102.748 36.1842 101.728 36.4191C100.669 36.6647 99.3564 35.4579 99.5584 34.389C99.9278 32.4387 101.353 28.9615 104.039 30.0976C105.203 30.5885 105.862 31.8938 105.691 33.0607Z" fill="#F9F5EF"/>
<path d="M62.474 4.14462C65.0287 4.48794 66.6045 2.87271 67.5395 0.894105C65.0409 1.34678 62.6847 2.10947 60.444 3.11299C60.9379 3.67284 61.6802 4.03452 62.4689 4.14172L62.474 4.14462Z" fill="#F9F5EF"/>
<path d="M39.4182 27.5037C42.8265 27.9582 44.5001 24.9325 45.2255 22.2032C45.2395 22.1443 45.2505 22.0904 45.2615 22.0365C45.7735 20.9992 45.7641 19.9019 44.613 18.9491C43.459 18.0014 42.1449 18.0731 40.974 18.616C39.7231 19.9701 38.5016 21.3545 37.3124 22.7643C37.0259 23.4228 36.8126 24.1168 36.7838 24.77C36.7215 26.2813 37.9852 27.3058 39.4161 27.4958L39.4182 27.5037Z" fill="#F9F5EF"/>
<path d="M53.3839 33.606C54.334 34.1413 55.4333 34.0125 56.4418 33.5768C56.4756 33.5762 56.5173 33.5735 56.5512 33.573C58.4831 33.3825 60.7464 31.0524 60.3737 28.9951C60.1366 27.6659 58.9613 26.813 57.6557 26.7423C56.5135 26.6788 55.4105 27.1738 54.5306 27.8044C53.0392 28.879 50.8629 32.1837 53.381 33.6111L53.3839 33.606Z" fill="#F9F5EF"/>
<path d="M58.5305 18.118C59.5533 17.8781 60.7994 17.2513 61.6093 16.3593C62.055 15.9469 62.3898 15.4369 62.4929 14.7596C62.6644 13.5927 62.0048 12.2874 60.8415 11.7965C58.1551 10.6604 56.7298 14.1376 56.3605 16.0879C56.1556 17.1618 57.4711 18.3636 58.5305 18.118Z" fill="#F9F5EF"/>
<path d="M103.044 19.724C102.982 21.2354 104.245 22.2599 105.676 22.4499C108.984 22.8931 110.649 20.0566 111.409 17.3944C109.744 16.2651 108.072 15.1459 106.392 14.0418C105.536 14.6322 104.81 15.4253 104.367 16.168C103.772 17.1639 103.088 18.5105 103.039 19.7211L103.044 19.724Z" fill="#F9F5EF"/>
<path d="M86.6243 24.1934C85.1329 25.268 82.9566 28.5727 85.4747 30.0001C86.4249 30.5354 87.5241 30.4066 88.5326 29.9708C88.5664 29.9703 88.6082 29.9676 88.642 29.967C90.5739 29.7765 92.8372 27.4464 92.4645 25.3892C92.2274 24.06 91.0521 23.2071 89.7466 23.1364C88.6043 23.0729 87.5013 23.5679 86.6214 24.1984L86.6243 24.1934Z" fill="#F9F5EF"/>
<path d="M93.6788 15.0052C93.6788 15.0052 93.6867 15.0031 93.6947 15.0009C94.2717 14.9992 94.8459 14.8285 95.3071 14.5054C95.6817 14.2394 96.0496 13.8691 96.3789 13.4498C96.509 13.3172 96.6312 13.1869 96.7275 13.0549C96.8383 12.8979 96.924 12.7263 96.9975 12.541C97.2121 12.1693 97.3879 11.7952 97.5054 11.4411C98.0642 9.75431 96.5571 8.28115 94.8668 8.34324C93.6478 8.38948 92.6535 9.02096 91.8576 9.85408C91.1585 10.5891 90.3905 11.6058 90.3137 12.6667C90.1809 14.4856 92.1058 15.5369 93.6809 15.0131L93.6788 15.0052Z" fill="#F9F5EF"/>
<path d="M75.7272 18.229C77.7357 17.9756 79.687 16.6844 80.3282 14.7505C80.7462 13.5048 80.297 11.9861 78.9578 11.3937C77.8894 10.924 76.6747 11.2876 75.8815 11.9883C74.8276 12.9203 73.1449 14.9293 73.6206 16.4834C73.7242 17.4407 74.494 18.381 75.7301 18.224L75.7272 18.229Z" fill="#F9F5EF"/>
<path d="M71.3332 29.2017C71.1002 29.315 70.8745 29.4392 70.6609 29.577C70.4015 29.655 70.1528 29.7726 69.9276 29.9306C69.177 30.4416 68.3271 31.2636 67.9227 32.0683C67.5096 32.8881 67.5778 33.8719 68.1155 34.6111C68.3846 35.2354 69.0395 35.6672 69.7226 35.7602C70.3258 36.3163 71.2228 36.5261 71.9941 35.8864C73.0824 34.9877 74.1507 33.6019 74.1198 32.1707C74.2472 31.5209 74.1712 30.8406 73.7734 30.1956C73.2713 29.3832 72.2785 28.7362 71.331 29.1937L71.3332 29.2017Z" fill="#F9F5EF"/>
<path d="M104.044 30.1012C101.358 28.9651 99.9325 32.4423 99.5631 34.3925C99.3582 35.4665 100.674 36.6683 101.733 36.4227C102.756 36.1828 104.002 35.556 104.812 34.664C105.258 34.2516 105.592 33.7416 105.695 33.0643C105.867 31.8974 105.207 30.5921 104.044 30.1012Z" fill="#F9F5EF"/>
<path d="M76.9396 2.95378C77.2088 3.57807 77.8637 4.00986 78.5467 4.10291C79.15 4.65893 80.0469 4.86879 80.8183 4.2291C81.5405 3.62803 82.255 2.80821 82.6419 1.90632C80.6616 1.34545 78.6548 0.923329 76.632 0.679561C76.3551 1.43734 76.4599 2.28824 76.9396 2.95378Z" fill="#F9F5EF"/>
<path d="M117.735 26.0308C117.502 26.1441 117.276 26.2683 117.063 26.4062C116.803 26.4841 116.555 26.6017 116.329 26.7597C115.582 27.2657 114.729 28.0928 114.325 28.8975C113.912 29.7172 113.98 30.7011 114.517 31.4403C114.633 31.7149 114.827 31.9475 115.06 32.1356L118.66 25.9019C118.357 25.8473 118.043 25.8804 117.735 26.0308Z" fill="#F9F5EF"/>
<path d="M87.1003 63.7678C87.0409 65.2741 88.3018 66.3037 89.7326 66.4937C93.1409 66.9481 94.8145 63.9224 95.5399 61.1932C95.5539 61.1342 95.5649 61.0803 95.5759 61.0264C96.0879 59.9891 96.0785 58.8919 94.9274 57.9391C92.5849 56.0103 89.5678 58.3003 88.4288 60.2146C87.8336 61.2105 87.1497 62.5572 87.1003 63.7678Z" fill="#F9F5EF"/>
<path d="M73.608 53.3566C74.6913 52.455 75.7646 51.072 75.7337 49.6409C75.8612 48.991 75.7851 48.3108 75.3873 47.6658C74.8852 46.8534 73.8924 46.2063 72.9449 46.6639C72.712 46.7773 72.4863 46.9014 72.2727 47.0393C72.0133 47.1173 71.7646 47.2348 71.5394 47.3928C70.7888 47.9038 69.9389 48.7259 69.5345 49.5306C69.1214 50.3503 69.1896 51.3342 69.7273 52.0734C69.9964 52.6977 70.6513 53.1294 71.3344 53.2225C71.9376 53.7785 72.8346 53.9884 73.6059 53.3487L73.608 53.3566Z" fill="#F9F5EF"/>
<path d="M86.0632 46.8319C87.086 46.5919 88.3321 45.9652 89.142 45.0732C89.5878 44.6608 89.9225 44.1507 90.0256 43.4735C90.1971 42.3065 89.5375 41.0013 88.3742 40.5104C85.6879 39.3743 84.2626 42.8515 83.8932 44.8017C83.6883 45.8757 85.0038 47.0774 86.0632 46.8319Z" fill="#F9F5EF"/>
<path d="M97.9491 52.1955C98.2182 52.8198 98.8731 53.2516 99.5562 53.3447C100.159 53.9007 101.056 54.1106 101.828 53.4709C102.911 52.5693 103.984 51.1863 103.953 49.7551C104.081 49.1053 104.005 48.4251 103.607 47.78C103.105 46.9676 102.112 46.3206 101.165 46.7782C100.932 46.8915 100.706 47.0157 100.492 47.1536C100.233 47.2315 99.9843 47.3491 99.7591 47.5071C99.0114 48.0131 98.1587 48.8402 97.7542 49.6448C97.3411 50.4646 97.4093 51.4484 97.947 52.1876L97.9491 52.1955Z" fill="#F9F5EF"/>
<path d="M57.4649 110.005C56.8697 111.001 56.1858 112.348 56.1364 113.558C56.0741 115.07 57.3379 116.094 58.7688 116.284C62.177 116.739 63.8506 113.713 64.5761 110.984C64.59 110.925 64.601 110.871 64.6121 110.817C65.124 109.78 65.1146 108.682 63.9635 107.73C61.6211 105.801 58.6039 108.091 57.4649 110.005Z" fill="#F9F5EF"/>
<path d="M44.6434 59.5174C44.6574 59.4584 44.6684 59.4045 44.6795 59.3506C45.1914 58.3133 45.182 57.2161 44.0309 56.2633C41.6884 54.3345 38.6713 56.6245 37.5323 58.5389C36.9371 59.5348 36.2532 60.8814 36.2038 62.092C36.1444 63.5983 37.4053 64.6279 38.8362 64.8179C42.2444 65.2723 43.918 62.2466 44.6434 59.5174Z" fill="#F9F5EF"/>
<path d="M22.9086 65.501C21.7664 65.4375 20.6634 65.9325 19.7835 66.563C18.2921 67.6376 16.1158 70.9423 18.6339 72.3697C19.584 72.905 20.6833 72.7762 21.6918 72.3405C21.7256 72.3399 21.7673 72.3372 21.8012 72.3367C23.7331 72.1462 25.9964 69.816 25.6237 67.7588C25.3866 66.4296 24.2113 65.5767 22.9007 65.5031L22.9086 65.501Z" fill="#F9F5EF"/>
<path d="M26.8427 57.3769C26.8427 57.3769 26.8506 57.3748 26.8586 57.3726C27.4356 57.371 28.0098 57.2002 28.471 56.8771C28.8456 56.6111 29.2135 56.2409 29.5428 55.8215C29.67 55.694 29.7951 55.5586 29.8914 55.4266C30.0022 55.2696 30.0878 55.098 30.1614 54.9127C30.376 54.541 30.5518 54.167 30.6693 53.8128C31.2281 52.126 29.721 50.6529 28.0307 50.7149C26.8117 50.7612 25.8174 51.3927 25.0215 52.2258C24.3224 52.9608 23.5494 53.9746 23.4726 55.0355C23.3398 56.8544 25.2646 57.9057 26.8398 57.3819L26.8427 57.3769Z" fill="#F9F5EF"/>
<path d="M38.8566 75.4408C39.0281 74.2738 38.3686 72.9686 37.2053 72.4776C34.5189 71.3416 33.0936 74.8188 32.7243 76.769C32.5194 77.843 33.8348 79.0447 34.8943 78.7992C35.917 78.5592 37.1631 77.9325 37.973 77.0404C38.4188 76.628 38.7535 76.118 38.8566 75.4408Z" fill="#F9F5EF"/>
<path d="M27.4527 40.7087C28.4028 41.244 29.502 41.1152 30.5106 40.6795C30.5444 40.6789 30.5861 40.6762 30.6199 40.6756C32.5519 40.4851 34.8152 38.155 34.4425 36.0978C34.2054 34.7686 33.03 33.9157 31.7245 33.845C30.5823 33.7815 29.4792 34.2765 28.5993 34.907C28.4174 35.0364 28.2282 35.2018 28.0323 35.3901C27.3638 36.049 26.6867 37.0244 26.4153 37.993C26.1243 39.0306 26.2987 40.0624 27.4447 40.7108L27.4527 40.7087Z" fill="#F9F5EF"/>
<path d="M47.6789 43.7752C47.8504 42.6083 47.1909 41.3031 46.0275 40.8121C43.3412 39.676 41.9159 43.1532 41.5465 45.1035C41.3416 46.1774 42.6571 47.3792 43.7166 47.1337C44.7393 46.8937 45.9854 46.267 46.7953 45.3749C47.2411 44.9625 47.5758 44.4525 47.6789 43.7752Z" fill="#F9F5EF"/>
<path d="M69.3051 62.3262C68.1629 62.2627 67.0599 62.7577 66.1799 63.3882C64.6886 64.4628 62.5123 67.7675 65.0304 69.1949C65.9805 69.7302 67.0797 69.6014 68.0883 69.1657C68.1221 69.1651 68.1638 69.1624 68.1976 69.1619C70.1296 68.9714 72.3929 66.6412 72.0202 64.584C71.7831 63.2548 70.6078 62.4019 69.3022 62.3312L69.3051 62.3262Z" fill="#F9F5EF"/>
<path d="M59.8893 53.9482C60.3044 52.7076 59.858 51.1838 58.5189 50.5914C57.4505 50.1217 56.2358 50.4853 55.4426 51.186C54.3887 52.118 52.706 54.127 53.1817 55.6811C53.2852 56.6384 54.0551 57.5787 55.2912 57.4217C57.2996 57.1683 59.251 55.8771 59.8922 53.9432L59.8893 53.9482Z" fill="#F9F5EF"/>
<path d="M53.6859 71.3713C53.8133 70.7215 53.7373 70.0413 53.3394 69.3962C52.8374 68.5838 51.8446 67.9368 50.8971 68.3944C50.6642 68.5077 50.4384 68.6319 50.2248 68.7698C49.9655 68.8477 49.7167 68.9653 49.4915 69.1233C48.7438 69.6293 47.8911 70.4564 47.4867 71.2611C47.0736 72.0808 47.1417 73.0646 47.6794 73.8038C47.9485 74.4281 48.6034 74.8599 49.2865 74.953C49.8898 75.509 50.7867 75.7188 51.558 75.0791C52.6464 74.1804 53.7146 72.7946 53.6837 71.3634L53.6859 71.3713Z" fill="#F9F5EF"/>
<path d="M83.6052 69.2979C80.9188 68.1619 79.4935 71.6391 79.1242 73.5893C78.9193 74.6633 80.2347 75.865 81.2942 75.6195C82.322 75.3824 83.563 74.7528 84.3729 73.8607C84.8187 73.4484 85.1534 72.9383 85.2565 72.2611C85.428 71.0941 84.7685 69.7889 83.6052 69.2979Z" fill="#F9F5EF"/>
<path d="M81.861 86.4698C79.5185 84.541 76.5014 86.831 75.3624 88.7454C74.7672 89.7413 74.0833 91.0879 74.0339 92.2986C73.9716 93.8099 75.2353 94.8344 76.6662 95.0244C77.5068 95.1347 78.2404 95.0359 78.8819 94.7834L82.8095 87.9822C82.7292 87.4602 82.4351 86.9487 81.861 86.4698Z" fill="#F9F5EF"/>
<path d="M59.5196 102.538C59.5534 102.537 59.5951 102.534 59.6289 102.534C61.5609 102.343 63.8242 100.013 63.4515 97.956C63.2144 96.6268 62.039 95.7739 60.7285 95.7003C59.5863 95.6368 58.4832 96.1318 57.6033 96.7624C56.112 97.837 53.9356 101.142 56.4537 102.569C57.4039 103.104 58.5031 102.976 59.5116 102.54L59.5196 102.538Z" fill="#F9F5EF"/>
<path d="M64.671 87.575C64.671 87.575 64.6789 87.5729 64.6869 87.5708C65.2639 87.5691 65.8381 87.3983 66.2993 87.0752C66.6739 86.8093 67.0418 86.439 67.3711 86.0196C67.5012 85.8871 67.6234 85.7567 67.7197 85.6247C67.8305 85.4677 67.9161 85.2961 67.9897 85.1108C68.2043 84.7391 68.3801 84.3651 68.4976 84.0109C69.0564 82.3241 67.5493 80.851 65.859 80.9131C64.64 80.9593 63.6457 81.5908 62.8498 82.4239C62.1507 83.1589 61.3827 84.1756 61.3059 85.2365C61.1731 87.0554 63.098 88.1067 64.6731 87.5829L64.671 87.575Z" fill="#F9F5EF"/>
<path d="M51.3263 87.3233C51.7442 86.0776 51.295 84.5589 49.9559 83.9664C48.8875 83.4968 47.6728 83.8603 46.8796 84.5611C45.8256 85.493 44.143 87.502 44.6187 89.0561C44.7222 90.0135 45.4921 90.9537 46.7281 90.7968C48.7366 90.5433 50.688 89.2521 51.3292 87.3182L51.3263 87.3233Z" fill="#F9F5EF"/>
<path d="M40.7173 108.338C41.3206 108.894 42.2176 109.104 42.9889 108.465C44.0722 107.563 45.1455 106.18 45.1146 104.749C45.242 104.099 45.166 103.419 44.7682 102.774C44.2661 101.961 43.2733 101.314 42.3258 101.772C42.0929 101.885 41.8671 102.009 41.6535 102.147C41.3942 102.225 41.1454 102.343 40.9202 102.501C40.1725 103.007 39.3198 103.834 38.9154 104.639C38.5023 105.458 38.5704 106.442 39.1081 107.181C39.3772 107.806 40.0322 108.237 40.7152 108.33L40.7173 108.338Z" fill="#F9F5EF"/>
<path d="M30.1619 108.881C30.6738 107.844 30.6644 106.746 29.5133 105.794C27.1709 103.865 24.1538 106.155 23.0147 108.069C22.4195 109.065 21.7356 110.412 21.6862 111.622C21.6239 113.134 22.8877 114.158 24.3186 114.348C27.7268 114.803 29.4004 111.777 30.1259 109.048C30.1398 108.989 30.1508 108.935 30.1619 108.881Z" fill="#F9F5EF"/>
<path d="M6.77114 95.7285C7.85446 94.8269 8.92774 93.4439 8.89685 92.0128C9.02428 91.3629 8.94824 90.6827 8.55043 90.0377C8.04835 89.2252 7.05554 88.5782 6.10807 89.0358C5.87516 89.1492 5.6494 89.2733 5.43581 89.4112C5.3299 89.4438 5.22321 89.4894 5.11652 89.5349C4.81672 91.5387 4.58378 93.5544 4.41769 95.5818C4.44358 95.5833 4.4716 95.5928 4.49749 95.5944C5.10075 96.1504 5.9977 96.3603 6.76901 95.7206L6.77114 95.7285Z" fill="#F9F5EF"/>
<path d="M17.0524 87.1699C16.8475 88.2438 18.163 89.4456 19.2224 89.2001C20.2452 88.9601 21.4913 88.3334 22.3011 87.4413C22.7469 87.0289 23.0817 86.5189 23.1848 85.8416C23.3563 84.6747 22.6967 83.3695 21.5334 82.8785C18.847 81.7425 17.4217 85.2196 17.0524 87.1699Z" fill="#F9F5EF"/>
<path d="M54.2201 119.927C53.1516 119.458 51.937 119.821 51.1438 120.522C50.0898 121.454 48.4072 123.463 48.8829 125.017C48.9864 125.975 49.7563 126.915 50.9923 126.758C53.0008 126.504 54.9522 125.213 55.5934 123.279C56.0113 122.034 55.5621 120.515 54.223 119.922L54.2201 119.927Z" fill="#F9F5EF"/>
<path d="M40.247 117.203C39.1785 116.734 37.9638 117.097 37.1707 117.798C36.1167 118.73 34.4341 120.739 34.9097 122.293C35.0133 123.25 35.7832 124.191 37.0192 124.034C39.0277 123.78 40.979 122.489 41.6203 120.555C42.0353 119.314 41.589 117.791 40.2499 117.198L40.247 117.203Z" fill="#F9F5EF"/>
<path d="M34.3268 89.1543C34.0939 89.2676 33.8681 89.3918 33.6545 89.5297C33.3952 89.6076 33.1464 89.7252 32.9212 89.8832C32.1735 90.3892 31.3208 91.2163 30.9164 92.021C30.5033 92.8407 30.5715 93.8246 31.1091 94.5637C31.3782 95.188 32.0332 95.6198 32.7162 95.7129C33.3195 96.2689 34.2164 96.4788 34.9877 95.8391C36.0711 94.9375 37.1443 93.5545 37.1135 92.1233C37.2409 91.4735 37.1648 90.7932 36.767 90.1482C36.265 89.3358 35.2722 88.6888 34.3247 89.1464L34.3268 89.1543Z" fill="#F9F5EF"/>
<path d="M42.5255 154.328C40.1831 152.399 37.166 154.689 36.0269 156.604C35.4317 157.6 34.7478 158.946 34.6984 160.157C34.6361 161.668 35.8999 162.693 37.3308 162.883C38.2562 163.009 39.0597 162.87 39.744 162.555L43.4918 156.065C43.4629 155.466 43.1814 154.874 42.5226 154.333L42.5255 154.328Z" fill="#F9F5EF"/>
<path d="M51.8513 140.522C51.8405 140.831 51.8831 141.117 51.9711 141.382L56.0148 134.38C54.8115 134.944 53.7547 136.008 53.1819 136.977C52.5867 137.973 51.9028 139.32 51.8534 140.53L51.8513 140.522Z" fill="#F9F5EF"/>
<path d="M11.143 100.872C10.0008 100.808 8.89774 101.303 8.01783 101.934C6.5265 103.008 4.35014 106.313 6.86826 107.74C7.81841 108.276 8.91763 108.147 9.92616 107.711C9.95998 107.711 10.0017 107.708 10.0355 107.707C11.9675 107.517 14.2308 105.187 13.8581 103.129C13.621 101.8 12.4456 100.947 11.1401 100.877L11.143 100.872Z" fill="#F9F5EF"/>
<path d="M15.7712 119.071C13.0848 117.935 11.6595 121.412 11.2902 123.362C11.0853 124.436 12.4008 125.638 13.4602 125.392C14.483 125.152 15.7291 124.526 16.5389 123.634C16.9847 123.221 17.3195 122.711 17.4226 122.034C17.5941 120.867 16.9345 119.562 15.7712 119.071Z" fill="#F9F5EF"/>
<path d="M39.2988 142.297C38.1566 142.233 37.0535 142.728 36.1736 143.359C34.6823 144.434 32.5059 147.738 35.024 149.166C35.9742 149.701 37.0734 149.572 38.0819 149.136C38.1157 149.136 38.1575 149.133 38.1913 149.133C40.1232 148.942 42.3865 146.612 42.0139 144.555C41.7767 143.225 40.6014 142.373 39.2959 142.302L39.2988 142.297Z" fill="#F9F5EF"/>
<path d="M28.513 130.562C27.4446 130.092 26.2299 130.456 25.4367 131.156C24.3828 132.088 22.7001 134.097 23.1758 135.651C23.2794 136.609 24.0492 137.549 25.2853 137.392C27.2938 137.139 29.2451 135.847 29.8864 133.914C30.3043 132.668 29.8551 131.149 28.516 130.557L28.513 130.562Z" fill="#F9F5EF"/>
<path d="M23.6797 151.342C23.8072 150.693 23.7311 150.012 23.3333 149.367C22.8312 148.555 21.8384 147.908 20.8909 148.365C20.658 148.479 20.4323 148.603 20.2187 148.741C19.9593 148.819 19.7106 148.936 19.4854 149.094C19.1765 149.304 18.8486 149.571 18.5422 149.869C19.6478 151.492 20.8047 153.085 22.0156 154.642C22.9262 153.761 23.7101 152.566 23.6826 151.337L23.6797 151.342Z" fill="#F9F5EF"/>
<path d="M33.6535 167.163C33.5247 167.015 33.3793 166.884 33.2122 166.768C33.3576 166.899 33.5081 167.033 33.6535 167.163Z" fill="#F9F5EF"/>
<path d="M15.6806 138.725C15.808 138.075 15.732 137.395 15.3342 136.75C14.8321 135.938 13.8393 135.291 12.8918 135.748C12.6589 135.861 12.4332 135.986 12.2196 136.124C11.9602 136.201 11.7114 136.319 11.4862 136.477C11.378 136.548 11.2719 136.628 11.1628 136.712C11.9926 138.558 12.8887 140.382 13.8518 142.17C14.8258 141.272 15.7042 140.018 15.6756 138.722L15.6806 138.725Z" fill="#F9F5EF"/>
<path d="M42.3474 136.669C43.3702 136.429 44.6163 135.803 45.4261 134.911C45.8719 134.498 46.2067 133.988 46.3098 133.311C46.4813 132.144 45.8217 130.839 44.6584 130.348C41.972 129.212 40.5467 132.689 40.1774 134.639C39.9725 135.713 41.288 136.915 42.3474 136.669Z" fill="#F9F5EF"/>
<path d="M211.172 103.32C210.108 102.913 209.294 102.014 209.346 100.798C209.358 100.511 209.404 100.222 209.482 99.9256C207.364 96.1703 204.56 92.6285 201.555 89.3995C194.343 81.6582 186.393 74.4546 178.263 67.5624C178.217 67.8845 178.12 68.2035 177.963 68.5215C177.952 68.5754 177.941 68.6293 177.927 68.6883C177.202 71.4175 175.525 74.4482 172.12 73.9888C170.689 73.7988 169.42 72.7713 169.488 71.2629C169.537 70.0523 170.226 68.7086 170.816 67.7097C171.588 66.4204 173.209 64.9586 174.903 64.7382C173.629 63.6741 172.352 62.615 171.069 61.5659C163.803 55.5885 156.359 49.829 148.815 44.2064C149.843 45.1284 149.845 46.181 149.353 47.1832C149.342 47.2371 149.331 47.291 149.317 47.3499C148.591 50.0792 146.915 53.1099 143.51 52.6504C142.079 52.4605 140.81 51.433 140.877 49.9246C140.927 48.714 141.616 47.3702 142.206 46.3714C143.272 44.5826 145.972 42.4711 148.23 43.7685C144.37 40.896 140.489 38.0587 136.586 35.2487C131.105 31.3069 125.627 27.3262 120.093 23.4202L118.663 25.8965C119.283 26.0066 119.842 26.4768 120.18 27.0273C120.578 27.6723 120.654 28.3526 120.527 29.0024C120.56 30.4285 119.492 31.8144 118.401 32.7181C117.627 33.3628 116.73 33.153 116.129 32.5919C115.74 32.5348 115.366 32.3719 115.063 32.1302L82.8121 87.9769C82.8925 88.4989 82.7641 89.0343 82.5121 89.5519C82.5011 89.6058 82.49 89.6597 82.4761 89.7187C81.9314 91.7753 80.8464 94.0022 78.8844 94.7782L56.0204 134.37C57.2 133.812 58.5249 133.733 59.6861 134.692C60.8401 135.64 60.8495 136.737 60.3347 137.779C60.3236 137.833 60.3126 137.887 60.2987 137.946C59.5732 140.675 57.8967 143.706 54.4914 143.247C53.3546 143.092 52.3224 142.409 51.9738 141.377L43.4977 156.055C43.5201 156.503 43.3965 156.961 43.1721 157.407C43.1611 157.461 43.15 157.515 43.1361 157.574C42.6062 159.559 41.5754 161.703 39.747 162.55L35.9325 169.155C39.9223 172.558 44.1889 175.678 48.6658 178.458C52.9927 181.137 57.4659 183.459 62.0478 185.442C62.053 185.398 62.0532 185.351 62.0635 185.31C62.4328 183.36 63.8581 179.883 66.5445 181.019C67.7078 181.51 68.3674 182.815 68.1958 183.982C68.0978 184.662 67.766 185.167 67.3122 185.582C66.8227 186.116 66.1833 186.551 65.53 186.87C68.9299 188.197 72.3854 189.335 75.8676 190.288C75.8908 190.248 75.899 190.199 75.9222 190.159C76.3266 189.354 77.1793 188.527 77.927 188.021C78.1572 187.866 78.406 187.748 78.6603 187.668C78.8739 187.53 79.0947 187.403 79.3326 187.292C80.2779 186.827 81.2729 187.482 81.775 188.294C82.1728 188.939 82.2488 189.619 82.1214 190.269C82.1328 190.771 82.0017 191.265 81.7888 191.738C89.2015 193.32 96.72 194.091 104.171 194.087C104.672 193.915 105.206 193.814 105.745 193.844C106.081 193.864 106.405 193.93 106.709 194.053C108.544 194.007 110.376 193.92 112.204 193.783C115.854 193.506 119.449 193.044 122.993 192.417C122.329 192.302 121.712 191.886 121.453 191.28C120.91 190.538 120.847 189.557 121.26 188.737C121.664 187.933 122.517 187.106 123.265 186.6C123.495 186.445 123.744 186.327 123.998 186.246C124.212 186.108 124.432 185.981 124.67 185.871C125.616 185.405 126.61 186.06 127.113 186.873C127.51 187.518 127.586 188.198 127.459 188.848C127.482 189.933 126.873 190.988 126.105 191.83C137.983 189.379 149.186 185.024 159.396 179.152C159.272 179.147 159.147 179.142 159.015 179.126C157.585 178.936 156.316 177.909 156.383 176.4C156.433 175.19 157.121 173.846 157.712 172.847C158.851 170.933 161.868 168.643 164.21 170.571C165.364 171.519 165.374 172.616 164.859 173.659C164.848 173.713 164.837 173.767 164.823 173.826C164.58 174.744 164.224 175.697 163.735 176.533C166.496 174.779 169.173 172.915 171.766 170.943C179.677 164.921 186.809 157.988 193.146 150.414C193.152 150.043 193.237 149.676 193.408 149.333C193.813 148.529 194.665 147.702 195.413 147.196C195.597 147.074 195.793 146.979 195.997 146.903C196.194 146.655 196.391 146.407 196.583 146.156C200.189 141.5 203.525 136.628 206.581 131.581C209.316 127.065 211.945 122.407 212.976 117.061C213.892 112.332 213.055 107.716 211.171 103.346L211.172 103.32ZM192.755 116.804C193.909 117.752 193.918 118.849 193.404 119.892C193.393 119.946 193.382 120 193.368 120.058C192.642 122.788 190.966 125.818 187.56 125.359C186.129 125.169 184.861 124.142 184.928 122.633C184.977 121.423 185.666 120.079 186.256 119.08C187.395 117.166 190.413 114.876 192.755 116.804ZM196.134 91.5944C196.925 90.7583 197.924 90.1298 199.143 90.0835C200.829 90.0185 202.341 91.4946 201.782 93.1814C201.665 93.5355 201.489 93.9096 201.274 94.2813C201.209 94.4645 201.115 94.6381 201.004 94.7952C200.905 94.9322 200.788 95.0655 200.656 95.19C200.326 95.6094 199.958 95.9797 199.584 96.2457C199.128 96.5717 198.548 96.7395 197.971 96.7412C197.971 96.7412 197.963 96.7433 197.955 96.7455C196.38 97.2692 194.46 96.2209 194.588 94.399C194.665 93.3381 195.438 92.3243 196.137 91.5893L196.134 91.5944ZM178.052 111.944C178.45 112.589 178.526 113.27 178.399 113.919C178.433 115.346 177.364 116.731 176.273 117.635C175.499 118.28 174.602 118.07 174.002 117.509C173.314 117.413 172.659 116.981 172.395 116.36C171.852 115.618 171.789 114.637 172.202 113.817C172.606 113.012 173.459 112.185 174.207 111.679C174.437 111.524 174.686 111.407 174.94 111.326C175.154 111.188 175.374 111.061 175.612 110.95C176.558 110.485 177.553 111.14 178.055 111.952L178.052 111.944ZM182.773 78.2988C183.003 78.1437 183.252 78.0261 183.506 77.9452C183.72 77.8074 183.941 77.6803 184.179 77.5699C185.124 77.1044 186.119 77.7593 186.621 78.5717C187.019 79.2167 187.095 79.897 186.967 80.5468C187.001 81.973 185.933 83.3588 184.842 84.2625C184.067 84.9073 183.171 84.6974 182.57 84.1364C181.882 84.0404 181.227 83.6086 180.963 82.9872C180.42 82.2451 180.357 81.2642 180.77 80.4445C181.175 79.6398 182.027 78.8127 182.775 78.3067L182.773 78.2988ZM166.205 99.0541C166.436 98.8991 166.684 98.7815 166.939 98.7006C167.152 98.5627 167.373 98.4357 167.611 98.3252C168.556 97.8597 169.551 98.5147 170.053 99.3271C170.451 99.9721 170.527 100.652 170.4 101.302C170.434 102.728 169.365 104.114 168.274 105.018C167.5 105.663 166.603 105.453 166.002 104.892C165.314 104.796 164.659 104.364 164.395 103.743C163.856 102.996 163.79 102.02 164.203 101.2C164.607 100.395 165.46 99.568 166.207 99.0621L166.205 99.0541ZM161.376 109.481C162.53 110.429 162.54 111.526 162.025 112.568C162.014 112.622 162.003 112.676 161.989 112.735C161.263 115.464 159.587 118.495 156.182 118.036C154.751 117.846 153.482 116.818 153.549 115.31C153.599 114.099 154.287 112.755 154.878 111.757C156.017 109.842 159.034 107.552 161.376 109.481ZM147.705 129.732C147.669 129.738 147.63 129.736 147.596 129.736C146.585 130.177 145.485 130.306 144.538 129.765C142.025 128.341 144.201 125.036 145.688 123.959C146.562 123.325 147.671 122.833 148.813 122.897C150.115 122.972 151.294 123.82 151.531 125.149C151.898 127.204 149.64 129.537 147.708 129.727L147.705 129.732ZM170.49 81.648C171.653 82.139 172.313 83.4442 172.141 84.6112C172.043 85.2913 171.711 85.7963 171.258 86.2108C170.443 87.1 169.199 87.7347 168.179 87.9696C167.12 88.2151 165.807 87.0083 166.009 85.9394C166.378 83.9892 167.804 80.512 170.49 81.648ZM144.561 116.375C143.787 117.02 142.89 116.81 142.289 116.249C141.601 116.153 140.946 115.721 140.682 115.1C140.143 114.353 140.076 113.377 140.49 112.557C140.894 111.753 141.747 110.925 142.494 110.42C142.725 110.264 142.973 110.147 143.228 110.066C143.441 109.928 143.662 109.801 143.9 109.691C144.845 109.225 145.84 109.88 146.342 110.692C146.74 111.337 146.816 112.018 146.689 112.668C146.723 114.094 145.654 115.48 144.563 116.383L144.561 116.375ZM131.449 119.119C132.24 118.283 133.236 117.659 134.458 117.608C136.144 117.543 137.656 119.019 137.097 120.706C136.979 121.06 136.804 121.434 136.589 121.806C136.523 121.989 136.43 122.162 136.319 122.319C136.22 122.456 136.103 122.59 135.97 122.714C135.641 123.134 135.273 123.504 134.899 123.77C134.442 124.096 133.863 124.264 133.286 124.266C133.286 124.266 133.278 124.268 133.27 124.27C131.695 124.794 129.775 123.745 129.903 121.923C129.98 120.862 130.753 119.849 131.447 119.111L131.449 119.119ZM137.785 104.772C137.096 104.677 136.442 104.245 136.177 103.623C135.635 102.881 135.572 101.9 135.985 101.081C136.389 100.276 137.242 99.4488 137.99 98.9428C138.22 98.7877 138.469 98.6701 138.723 98.5893C138.936 98.4514 139.157 98.3243 139.395 98.2139C140.341 97.7484 141.335 98.4033 141.838 99.2157C142.235 99.8608 142.311 100.541 142.184 101.191C142.218 102.617 141.149 104.003 140.058 104.907C139.284 105.551 138.387 105.341 137.787 104.78L137.785 104.772ZM154.823 92.0522C155.986 92.5431 156.646 93.8484 156.474 95.0153C156.376 95.6954 156.044 96.2004 155.591 96.615C154.776 97.5041 153.532 98.1388 152.512 98.3737C151.452 98.6192 150.14 97.4125 150.342 96.3435C150.711 94.3933 152.136 90.9161 154.823 92.0522ZM158.916 76.9266C159.283 78.981 157.025 81.314 155.093 81.5045C155.057 81.5101 155.018 81.5077 154.984 81.5083C153.972 81.949 152.873 82.0778 151.926 81.5375C149.413 80.113 151.589 76.8083 153.076 75.7309C153.95 75.0974 155.058 74.6053 156.201 74.6688C157.503 74.7445 158.682 75.5924 158.919 76.9216L158.916 76.9266ZM158.309 61.3912C159.1 60.5551 160.096 59.9316 161.318 59.8803C163.003 59.8153 164.515 61.2914 163.957 62.9782C163.839 63.3323 163.663 63.7064 163.449 64.0781C163.383 64.2612 163.29 64.4349 163.179 64.592C163.08 64.729 162.962 64.8622 162.83 64.9868C162.501 65.4062 162.133 65.7765 161.758 66.0424C161.302 66.3684 160.723 66.5363 160.146 66.538C160.146 66.538 160.138 66.5401 160.13 66.5422C158.555 67.066 156.635 66.0176 156.763 64.1958C156.84 63.1349 157.613 62.1211 158.307 61.3832L158.309 61.3912ZM128.995 109.717C128.984 109.771 128.972 109.825 128.959 109.884C128.233 112.613 126.557 115.644 123.151 115.184C121.72 114.994 120.452 113.967 120.519 112.458C120.568 111.248 121.257 109.904 121.847 108.905C122.986 106.991 126.004 104.701 128.346 106.63C129.5 107.577 129.509 108.675 128.995 109.717ZM118.006 126.634C117.232 127.279 116.335 127.069 115.734 126.508C115.046 126.412 114.391 125.98 114.127 125.359C113.585 124.617 113.521 123.636 113.935 122.816C114.339 122.011 115.192 121.184 115.939 120.678C116.17 120.523 116.418 120.406 116.673 120.325C116.886 120.187 117.107 120.06 117.345 119.949C118.29 119.484 119.285 120.139 119.787 120.951C120.185 121.596 120.261 122.277 120.134 122.926C120.168 124.352 119.099 125.738 118.008 126.642L118.006 126.634ZM140.224 81.7461C140.622 82.3911 140.698 83.0713 140.571 83.7212C140.604 85.1473 139.536 86.5332 138.445 87.4369C137.671 88.0816 136.774 87.8718 136.173 87.3107C135.485 87.2148 134.83 86.783 134.566 86.1616C134.024 85.4195 133.96 84.4386 134.374 83.6188C134.778 82.8141 135.631 81.987 136.378 81.481C136.609 81.326 136.857 81.2084 137.112 81.1275C137.325 80.9896 137.546 80.8626 137.784 80.7521C138.729 80.2866 139.724 80.9416 140.226 81.754L140.224 81.7461ZM142.328 63.5357C143.121 62.835 144.333 62.4635 145.404 62.9411C146.748 63.5364 147.192 65.0522 146.774 66.2979C146.128 68.2289 144.182 69.523 142.173 69.7764C140.937 69.9334 140.167 68.9931 140.064 68.0358C139.588 66.4817 141.276 64.4756 142.325 63.5407L142.328 63.5357ZM126.192 91.0245C126.422 90.8694 126.671 90.7518 126.925 90.6709C127.139 90.5331 127.359 90.406 127.597 90.2956C128.543 89.8301 129.538 90.485 130.04 91.2974C130.438 91.9424 130.514 92.6227 130.386 93.2725C130.42 94.6987 129.352 96.0845 128.26 96.9883C127.486 97.633 126.589 97.4231 125.989 96.8621C125.301 96.7661 124.646 96.3343 124.382 95.7129C123.839 94.9708 123.776 93.9899 124.189 93.1702C124.593 92.3655 125.446 91.5384 126.194 91.0324L126.192 91.0245ZM118.768 93.1742C119.922 94.122 119.931 95.2192 119.416 96.2616C119.405 96.3155 119.394 96.3694 119.38 96.4283C118.655 99.1576 116.978 102.188 113.573 101.729C112.142 101.539 110.873 100.511 110.941 99.003C110.99 97.7923 111.679 96.4486 112.269 95.4498C113.408 93.5354 116.425 91.2454 118.768 93.1742ZM87.9792 134.426C89.1425 134.917 89.802 136.222 89.6305 137.389C89.5325 138.069 89.2006 138.574 88.7469 138.989C87.932 139.878 86.688 140.512 85.6682 140.747C84.6087 140.993 83.2961 139.786 83.4982 138.717C83.8675 136.767 85.2928 133.29 87.9792 134.426ZM117.982 78.1581C118.778 77.4523 119.987 77.0859 121.058 77.5635C122.402 78.1588 122.846 79.6746 122.428 80.9203C121.782 82.8513 119.836 84.1454 117.827 84.3988C116.591 84.5558 115.821 83.6155 115.718 82.6582C115.242 81.1041 116.93 79.098 117.979 78.1631L117.982 78.1581ZM124.303 67.6416C125.442 65.7273 128.459 63.4372 130.801 65.366C131.955 66.3138 131.965 67.4111 131.45 68.4534C131.439 68.5073 131.428 68.5612 131.414 68.6201C130.688 71.3494 129.012 74.3801 125.606 73.9206C124.176 73.7307 122.907 72.7032 122.974 71.1948C123.023 69.9841 123.712 68.6404 124.303 67.6416ZM130.297 55.5904C130.665 57.6448 128.407 59.9778 126.475 60.1683C126.438 60.1739 126.399 60.1715 126.366 60.1721C125.354 60.6128 124.255 60.7416 123.308 60.2013C120.795 58.7768 122.971 55.4721 124.457 54.3947C125.332 53.7612 126.44 53.2691 127.582 53.3326C128.885 53.4083 130.063 54.2562 130.305 55.5883L130.297 55.5904ZM91.4652 103.765C92.2561 102.929 93.2554 102.3 94.4744 102.254C96.1597 102.189 97.6718 103.665 97.113 105.352C96.9956 105.706 96.8197 106.08 96.6051 106.452C96.5395 106.635 96.4459 106.809 96.3351 106.966C96.2359 107.103 96.1187 107.236 95.9865 107.361C95.6572 107.78 95.2893 108.15 94.9147 108.416C94.4585 108.742 93.8793 108.91 93.3023 108.912C93.3023 108.912 93.2944 108.914 93.2864 108.916C91.7113 109.44 89.7915 108.391 89.9192 106.57C89.996 105.509 90.769 104.495 91.4631 103.757L91.4652 103.765ZM95.8605 95.539C96.2299 93.5888 97.6552 90.1116 100.342 91.2477C101.505 91.7386 102.164 93.0439 101.993 94.2108C101.895 94.891 101.563 95.396 101.109 95.8105C100.294 96.6996 99.0504 97.3343 98.0306 97.5692C96.9711 97.8148 95.6585 96.608 95.8605 95.539ZM129.693 40.0499C130.484 39.2139 131.481 38.5904 132.703 38.5391C134.388 38.4741 135.9 39.9502 135.341 41.6369C135.224 41.9911 135.048 42.3651 134.833 42.7369C134.768 42.92 134.674 43.0937 134.563 43.2508C134.464 43.3877 134.347 43.521 134.215 43.6456C133.885 44.065 133.518 44.4353 133.143 44.7012C132.687 45.0272 132.108 45.1951 131.531 45.1968C131.531 45.1968 131.523 45.1989 131.515 45.201C129.94 45.7248 128.02 44.6764 128.147 42.8546C128.224 41.7937 128.997 40.7799 129.691 40.042L129.693 40.0499ZM108.458 78.191C107.811 80.122 105.865 81.4161 103.857 81.6695C102.621 81.8265 101.851 80.8862 101.747 79.9288C101.271 78.3748 102.959 76.3687 104.008 75.4338C104.801 74.7331 106.014 74.3616 107.084 74.8392C108.429 75.4345 108.873 76.9503 108.455 78.196L108.458 78.191ZM111.609 60.4049C112.007 61.0499 112.083 61.7301 111.955 62.3799C111.989 63.8061 110.921 65.192 109.829 66.0957C109.055 66.7404 108.158 66.5305 107.558 65.9695C106.87 65.8736 106.215 65.4418 105.951 64.8204C105.408 64.0783 105.345 63.0973 105.758 62.2776C106.163 61.4729 107.015 60.6458 107.763 60.1398C107.993 59.9847 108.242 59.8672 108.496 59.7863C108.71 59.6484 108.931 59.5214 109.169 59.4109C110.114 58.9454 111.109 59.6004 111.611 60.4128L111.609 60.4049ZM113.712 42.1945C114.505 41.4938 115.718 41.1223 116.788 41.5999C118.132 42.1952 118.577 43.711 118.159 44.9567C117.513 46.8877 115.566 48.1818 113.558 48.4352C112.322 48.5922 111.552 47.6519 111.448 46.6946C110.973 45.1405 112.66 43.1344 113.709 42.1995L113.712 42.1945ZM86.7716 84.4494C86.2959 82.8953 87.9836 80.8892 89.0325 79.9543C89.8257 79.2536 91.0383 78.8821 92.1088 79.3597C93.453 79.9551 93.8972 81.4709 93.4792 82.7165C92.838 84.6504 90.8867 85.9416 88.8782 86.1951C87.6421 86.352 86.8723 85.4118 86.7687 84.4544L86.7716 84.4494ZM73.2258 110.399C72.7501 108.845 74.4378 106.839 75.4867 105.904C76.2828 105.199 77.4925 104.832 78.563 105.31C79.9072 105.905 80.3514 107.421 79.9334 108.667C79.2872 110.598 77.3409 111.892 75.3324 112.145C74.0963 112.302 73.3265 111.362 73.2229 110.404L73.2258 110.399ZM67.5278 125.985C67.9322 125.18 68.7849 124.353 69.5326 123.847C69.7628 123.692 70.0116 123.574 70.2659 123.493C70.4795 123.355 70.7003 123.228 70.9382 123.118C71.8835 122.652 72.8785 123.307 73.3806 124.12C73.7784 124.765 73.8544 125.445 73.727 126.095C73.7608 127.521 72.6925 128.907 71.6013 129.811C70.827 130.455 69.9301 130.245 69.3297 129.684C68.6416 129.588 67.9867 129.157 67.7226 128.535C67.1799 127.793 67.1168 126.812 67.5299 125.993L67.5278 125.985ZM51.7882 156.998C51.3125 155.444 53.0002 153.438 54.0492 152.503C54.8423 151.802 56.0549 151.43 57.1255 151.908C58.4696 152.503 58.9138 154.019 58.4959 155.265C57.8496 157.196 55.9033 158.49 53.8948 158.743C52.6588 158.9 51.8889 157.96 51.7853 157.003L51.7882 156.998ZM50.1695 176.399C49.3953 177.044 48.4983 176.834 47.898 176.273C47.2099 176.177 46.555 175.745 46.2909 175.124C45.7511 174.376 45.685 173.4 46.0981 172.581C46.5025 171.776 47.3553 170.949 48.103 170.443C48.3332 170.288 48.5819 170.17 48.8363 170.089C49.0499 169.952 49.2706 169.825 49.5085 169.714C50.4539 169.249 51.4488 169.904 51.9509 170.716C52.3487 171.361 52.4247 172.041 52.2973 172.691C52.3311 174.117 51.2628 175.503 50.1716 176.407L50.1695 176.399ZM73.2124 147.272C72.4382 147.917 71.5413 147.707 70.9409 147.146C70.2528 147.05 69.5979 146.618 69.3338 145.997C68.794 145.25 68.7279 144.274 69.1411 143.454C69.5455 142.65 70.3982 141.823 71.1459 141.317C71.3761 141.161 71.6249 141.044 71.8792 140.963C72.0928 140.825 72.3136 140.698 72.5515 140.588C73.4968 140.122 74.4918 140.777 74.9938 141.589C75.3916 142.235 75.4677 142.915 75.3403 143.565C75.3741 144.991 74.3058 146.377 73.2145 147.28L73.2124 147.272ZM85.0744 123.913C82.5613 122.489 84.7376 119.184 86.2239 118.107C87.0988 117.473 88.2069 116.981 89.3491 117.045C90.6518 117.12 91.83 117.968 92.0721 119.3C92.4398 121.355 90.1815 123.688 88.2496 123.878C88.2128 123.884 88.174 123.881 88.1402 123.882C87.1288 124.323 86.0295 124.452 85.0823 123.911L85.0744 123.913ZM66.8099 170.469C66.7731 170.474 66.7343 170.472 66.7005 170.472C65.6891 170.913 64.5898 171.042 63.6426 170.502C61.1295 169.077 63.3058 165.772 64.7922 164.695C65.667 164.061 66.7751 163.569 67.9174 163.633C69.22 163.709 70.3982 164.556 70.6403 165.889C71.008 167.943 68.7497 170.276 66.8178 170.466L66.8099 170.469ZM77.9457 160.87C77.1308 161.76 75.8868 162.394 74.867 162.629C73.8075 162.875 72.495 161.668 72.697 160.599C73.0663 158.649 74.4916 155.172 77.178 156.308C78.3413 156.799 79.0009 158.104 78.8293 159.271C78.7313 159.951 78.3995 160.456 77.9457 160.87ZM102.641 113.642C102.69 112.431 103.379 111.087 103.97 110.088C105.109 108.174 108.126 105.884 110.468 107.813C111.622 108.761 111.632 109.858 111.117 110.9C111.106 110.954 111.095 111.008 111.081 111.067C110.355 113.796 108.679 116.827 105.273 116.368C103.843 116.178 102.574 115.15 102.641 113.642ZM99.1603 128.31C99.5297 126.36 100.955 122.883 103.641 124.019C104.805 124.51 105.464 125.815 105.293 126.982C105.195 127.662 104.863 128.167 104.409 128.582C103.594 129.471 102.35 130.105 101.33 130.34C100.271 130.586 98.9583 129.379 99.1603 128.31ZM82.9744 175.175C82.1595 176.064 80.9155 176.699 79.8957 176.934C78.8362 177.179 77.5236 175.972 77.7256 174.903C78.095 172.953 79.5203 169.476 82.2067 170.612C83.37 171.103 84.0295 172.408 83.858 173.575C83.7599 174.255 83.4281 174.76 82.9744 175.175ZM89.3328 160.406C87.9019 160.216 86.6331 159.189 86.7004 157.681C86.7498 156.47 87.4387 155.126 88.0289 154.127C89.168 152.213 92.1851 149.923 94.5275 151.852C95.6816 152.8 95.6909 153.897 95.1761 154.939C95.1651 154.993 95.154 155.047 95.1401 155.106C94.4146 157.835 92.7381 160.866 89.3328 160.406ZM99.1538 147.263C98.4657 147.167 97.8108 146.735 97.5467 146.113C97.0069 145.366 96.9408 144.39 97.3539 143.571C97.7584 142.766 98.6111 141.939 99.3588 141.433C99.589 141.278 99.8378 141.16 100.092 141.079C100.306 140.941 100.526 140.814 100.764 140.704C101.71 140.238 102.705 140.893 103.207 141.706C103.605 142.351 103.681 143.031 103.553 143.681C103.587 145.107 102.519 146.493 101.427 147.397C100.653 148.041 99.7563 147.832 99.1559 147.27L99.1538 147.263ZM90.0335 173.042C88.7975 173.199 88.0276 172.259 87.924 171.301C87.4484 169.747 89.136 167.741 90.185 166.806C90.9782 166.106 92.1907 165.734 93.2613 166.212C94.6054 166.807 95.0496 168.323 94.6317 169.569C93.9854 171.5 92.0391 172.794 90.0306 173.047L90.0335 173.042ZM111.051 140.603C110.575 139.049 112.263 137.042 113.312 136.108C114.105 135.407 115.318 135.035 116.388 135.513C117.733 136.108 118.177 137.624 117.759 138.87C117.113 140.801 115.166 142.095 113.158 142.348C111.922 142.505 111.152 141.565 111.048 140.608L111.051 140.603ZM105.353 156.188C105.758 155.383 106.61 154.556 107.358 154.05C107.588 153.895 107.837 153.777 108.091 153.697C108.305 153.559 108.526 153.432 108.764 153.321C109.709 152.856 110.704 153.511 111.206 154.323C111.604 154.968 111.68 155.648 111.552 156.298C111.586 157.724 110.518 159.11 109.427 160.014C108.652 160.659 107.755 160.449 107.155 159.888C106.467 159.792 105.812 159.36 105.548 158.739C105.005 157.996 104.942 157.016 105.355 156.196L105.353 156.188ZM91.718 188.939C90.482 189.096 89.7121 188.155 89.6085 187.198C89.1329 185.644 90.8205 183.638 91.8695 182.703C92.6655 181.997 93.8752 181.631 94.9458 182.108C96.2899 182.704 96.7341 184.22 96.3162 185.465C95.6699 187.396 93.7236 188.69 91.7151 188.944L91.718 188.939ZM103.449 175.585C102.213 175.742 101.443 174.801 101.339 173.844C100.864 172.29 102.551 170.284 103.6 169.349C104.393 168.648 105.606 168.277 106.676 168.754C108.021 169.35 108.465 170.866 108.047 172.111C107.401 174.042 105.454 175.336 103.446 175.59L103.449 175.585ZM127.742 136.778C127.818 135.717 128.591 134.703 129.291 133.968C130.081 133.132 131.078 132.509 132.3 132.457C133.985 132.392 135.497 133.868 134.938 135.555C134.821 135.909 134.645 136.283 134.43 136.655C134.365 136.838 134.271 137.012 134.16 137.169C134.061 137.306 133.944 137.439 133.812 137.564C133.483 137.983 133.115 138.353 132.74 138.619C132.284 138.945 131.705 139.113 131.128 139.115C131.128 139.115 131.12 139.117 131.112 139.119C129.537 139.643 127.617 138.595 127.745 136.773L127.742 136.778ZM124.049 148.31C124.924 147.676 126.032 147.184 127.174 147.248C128.477 147.324 129.655 148.171 129.892 149.501C130.26 151.555 128.002 153.888 126.07 154.079C126.033 154.084 125.994 154.082 125.96 154.082C124.949 154.523 123.85 154.652 122.903 154.112C120.389 152.687 122.566 149.382 124.052 148.305L124.049 148.31ZM111.243 188.197C110.469 188.842 109.572 188.632 108.971 188.071C108.283 187.975 107.628 187.543 107.364 186.922C106.822 186.18 106.758 185.199 107.171 184.379C107.576 183.575 108.429 182.748 109.176 182.242C109.407 182.086 109.655 181.969 109.91 181.888C110.123 181.75 110.344 181.623 110.582 181.513C111.527 181.047 112.522 181.702 113.024 182.514C113.422 183.16 113.498 183.84 113.371 184.49C113.404 185.916 112.336 187.302 111.245 188.205L111.243 188.197ZM117.422 178.309C116.186 178.466 115.416 177.526 115.313 176.568C114.837 175.014 116.525 173.008 117.574 172.073C118.37 171.368 119.579 171.001 120.65 171.479C121.994 172.074 122.438 173.59 122.02 174.836C121.374 176.767 119.428 178.061 117.419 178.314L117.422 178.309ZM125.201 167.831C123.77 167.641 122.502 166.613 122.569 165.105C122.618 163.894 123.307 162.551 123.898 161.552C125.037 159.637 128.054 157.347 130.396 159.276C131.55 160.224 131.56 161.321 131.045 162.364C131.034 162.418 131.023 162.471 131.009 162.53C130.283 165.26 128.607 168.29 125.201 167.831ZM140.466 143.845C140.516 142.634 141.205 141.291 141.795 140.292C142.934 138.377 145.951 136.087 148.293 138.016C149.448 138.964 149.457 140.061 148.942 141.103C148.931 141.157 148.92 141.211 148.906 141.27C148.181 143.999 146.504 147.03 143.099 146.571C141.668 146.381 140.399 145.353 140.466 143.845ZM137.12 156.495C137.524 155.69 138.377 154.863 139.125 154.357C139.355 154.202 139.604 154.084 139.858 154.003C140.072 153.865 140.293 153.738 140.53 153.628C141.476 153.162 142.471 153.817 142.973 154.63C143.371 155.275 143.447 155.955 143.319 156.605C143.353 158.031 142.285 159.417 141.194 160.321C140.419 160.965 139.522 160.755 138.922 160.194C138.234 160.098 137.579 159.667 137.315 159.045C136.772 158.303 136.709 157.322 137.122 156.502L137.12 156.495ZM131.858 177.924C131.084 178.569 130.187 178.359 129.586 177.798C128.898 177.702 128.243 177.271 127.979 176.649C127.437 175.907 127.373 174.926 127.787 174.106C128.191 173.302 129.044 172.475 129.791 171.969C130.022 171.814 130.27 171.696 130.525 171.615C130.738 171.477 130.959 171.35 131.197 171.24C132.142 170.774 133.137 171.429 133.639 172.242C134.037 172.887 134.113 173.567 133.986 174.217C134.02 175.643 132.951 177.029 131.86 177.932L131.858 177.924ZM177.881 98.2411C177.405 96.687 179.093 94.6809 180.142 93.7461C180.938 93.0403 182.148 92.6739 183.218 93.1514C184.562 93.7468 185.007 95.2626 184.589 96.5083C183.942 98.4393 181.996 99.7334 179.988 99.9868C178.752 100.144 177.982 99.2035 177.878 98.2461L177.881 98.2411ZM166.142 125.053C166.938 124.348 168.147 123.981 169.218 124.459C170.562 125.054 171.006 126.57 170.588 127.816C169.942 129.747 167.996 131.041 165.987 131.294C164.751 131.451 163.981 130.511 163.878 129.553C163.402 127.999 165.09 125.993 166.139 125.058L166.142 125.053ZM160.279 136.853C161.072 136.152 162.284 135.78 163.355 136.258C164.699 136.853 165.143 138.369 164.725 139.615C164.079 141.546 162.133 142.84 160.124 143.093C158.888 143.25 158.118 142.31 158.015 141.353C157.539 139.799 159.227 137.793 160.276 136.858L160.279 136.853ZM152.798 150.015C153.673 149.382 154.781 148.89 155.923 148.953C157.226 149.029 158.404 149.877 158.641 151.206C159.009 153.26 156.751 155.593 154.819 155.784C154.782 155.789 154.743 155.787 154.709 155.788C153.698 156.228 152.599 156.357 151.651 155.817C149.138 154.392 151.315 151.088 152.801 150.01L152.798 150.015ZM143.635 169.327C143.712 168.266 144.485 167.252 145.184 166.517C145.975 165.681 146.974 165.052 148.193 165.006C149.879 164.941 151.391 166.417 150.832 168.104C150.715 168.458 150.539 168.832 150.324 169.204C150.259 169.387 150.165 169.561 150.054 169.718C149.955 169.855 149.838 169.988 149.706 170.113C149.376 170.532 149.008 170.902 148.634 171.168C148.178 171.494 147.598 171.662 147.021 171.664C147.021 171.664 147.013 171.666 147.006 171.668C145.43 172.192 143.511 171.143 143.638 169.321L143.635 169.327ZM141.964 186.627C141.927 186.633 141.888 186.631 141.854 186.631C140.843 187.072 139.744 187.201 138.796 186.66C136.283 185.236 138.46 181.931 139.946 180.854C140.821 180.22 141.929 179.728 143.071 179.792C144.374 179.867 145.552 180.715 145.789 182.044C146.157 184.099 143.898 186.432 141.967 186.622L141.964 186.627ZM190.388 103.749C191.263 103.115 192.371 102.623 193.513 102.687C194.816 102.762 195.994 103.61 196.231 104.94C196.599 106.994 194.34 109.327 192.408 109.517C192.372 109.523 192.333 109.521 192.299 109.521C191.288 109.962 190.188 110.091 189.241 109.55C186.728 108.126 188.904 104.821 190.391 103.744L190.388 103.749ZM168.918 158.835C168.103 159.724 166.859 160.359 165.839 160.594C164.78 160.84 163.467 159.633 163.669 158.564C164.039 156.614 165.464 153.136 168.15 154.272C169.314 154.763 169.973 156.069 169.802 157.236C169.704 157.916 169.372 158.421 168.918 158.835ZM172.239 149.802C170.808 149.612 169.54 148.584 169.607 147.076C169.656 145.865 170.345 144.521 170.935 143.523C172.074 141.608 175.092 139.318 177.434 141.247C178.588 142.195 178.597 143.292 178.083 144.334C178.071 144.388 178.06 144.442 178.047 144.501C177.321 147.23 175.645 150.261 172.239 149.802ZM181.606 137.561C180.37 137.718 179.6 136.777 179.496 135.82C179.021 134.266 180.708 132.26 181.757 131.325C182.553 130.619 183.763 130.253 184.833 130.73C186.178 131.326 186.622 132.842 186.204 134.087C185.558 136.018 183.611 137.312 181.603 137.566L181.606 137.561ZM202.642 114.021C203.781 112.106 206.798 109.816 209.14 111.745C210.294 112.693 210.304 113.79 209.789 114.832C209.778 114.886 209.767 114.94 209.753 114.999C209.027 117.728 207.351 120.759 203.946 120.3C202.515 120.11 201.246 119.082 201.313 117.574C201.363 116.363 202.052 115.019 202.642 114.021ZM172.888 169.186C172.851 169.191 172.812 169.189 172.778 169.19C171.767 169.63 170.668 169.759 169.72 169.219C167.207 167.794 169.384 164.49 170.87 163.412C171.745 162.779 172.853 162.287 173.995 162.35C175.298 162.426 176.476 163.274 176.713 164.603C177.081 166.657 174.822 168.99 172.891 169.181L172.888 169.186ZM188.085 149.226C187.27 150.115 186.026 150.75 185.006 150.985C183.946 151.231 182.634 150.024 182.836 148.955C183.205 147.005 184.631 143.527 187.317 144.664C188.48 145.154 189.14 146.46 188.968 147.627C188.87 148.307 188.538 148.812 188.085 149.226ZM199.025 137.6C197.789 137.757 197.02 136.817 196.916 135.859C196.44 134.305 198.128 132.299 199.177 131.364C199.973 130.658 201.183 130.292 202.253 130.769C203.597 131.365 204.042 132.881 203.624 134.126C202.977 136.057 201.031 137.351 199.023 137.605L199.025 137.6Z" fill="#F9F5EF"/>
<path d="M125.602 73.9053C129.011 74.3597 130.684 71.334 131.41 68.6048C131.423 68.5458 131.435 68.4919 131.446 68.438C131.958 67.4007 131.948 66.3035 130.797 65.3507C128.455 63.4219 125.437 65.7119 124.298 67.6263C123.703 68.6222 123.019 69.9688 122.97 71.1794C122.908 72.6908 124.171 73.7153 125.602 73.9053Z" fill="#F9F5EF"/>
<path d="M193.395 149.299C193.224 149.642 193.139 150.008 193.133 150.38C194.101 149.224 195.053 148.052 195.987 146.864C195.782 146.94 195.582 147.032 195.403 147.156C194.652 147.667 193.802 148.489 193.398 149.294L193.395 149.299Z" fill="#F9F5EF"/>
<path d="M116.122 32.581C116.726 33.137 117.623 33.3468 118.394 32.7071C119.482 31.8084 120.55 30.4226 120.52 28.9914C120.647 28.3416 120.571 27.6613 120.173 27.0163C119.832 26.4708 119.273 26.0006 118.656 25.8856L115.056 32.1192C115.359 32.3609 115.733 32.5238 116.122 32.581Z" fill="#F9F5EF"/>
<path d="M142.196 46.3658C141.601 47.3617 140.917 48.7084 140.867 49.919C140.805 51.4303 142.069 52.4549 143.5 52.6449C146.908 53.0993 148.581 50.0736 149.307 47.3443C149.321 47.2854 149.332 47.2315 149.343 47.1776C149.84 46.1783 149.838 45.1258 148.805 44.2008C148.765 44.1647 148.734 44.1264 148.691 44.0953C148.538 43.9665 148.378 43.8607 148.217 43.7679C145.959 42.4705 143.259 44.5821 142.193 46.3708L142.196 46.3658Z" fill="#F9F5EF"/>
<path d="M124.45 54.3838C122.959 55.4584 120.783 58.7631 123.301 60.1905C124.251 60.7258 125.35 60.597 126.359 60.1613C126.393 60.1607 126.434 60.158 126.468 60.1575C128.4 59.967 130.663 57.6368 130.291 55.5796C130.054 54.2504 128.878 53.3975 127.568 53.3239C126.425 53.2604 125.322 53.7554 124.443 54.386L124.45 54.3838Z" fill="#F9F5EF"/>
<path d="M131.505 45.1956C131.505 45.1956 131.513 45.1935 131.521 45.1914C132.098 45.1897 132.672 45.0189 133.133 44.6958C133.508 44.4299 133.876 44.0596 134.205 43.6402C134.332 43.5127 134.457 43.3773 134.554 43.2453C134.664 43.0883 134.75 42.9167 134.824 42.7314C135.038 42.3597 135.214 41.9857 135.332 41.6315C135.89 39.9447 134.383 38.4716 132.693 38.5337C131.474 38.5799 130.48 39.2114 129.684 40.0445C128.985 40.7795 128.217 41.7962 128.14 42.8571C128.007 44.676 129.932 45.7273 131.507 45.2035L131.505 45.1956Z" fill="#F9F5EF"/>
<path d="M113.553 48.4199C115.562 48.1665 117.513 46.8753 118.154 44.9414C118.569 43.7007 118.123 42.177 116.784 41.5845C115.716 41.1149 114.501 41.4784 113.708 42.1792C112.654 43.1111 110.971 45.1201 111.447 46.6742C111.55 47.6316 112.32 48.5719 113.556 48.4149L113.553 48.4199Z" fill="#F9F5EF"/>
<path d="M109.159 59.3926C108.926 59.5059 108.7 59.6301 108.487 59.768C108.227 59.8459 107.978 59.9635 107.753 60.1215C107.006 60.6275 106.153 61.4546 105.748 62.2592C105.335 63.079 105.403 64.0628 105.941 64.802C106.21 65.4263 106.865 65.8581 107.548 65.9512C108.152 66.5072 109.048 66.717 109.82 66.0773C110.908 65.1786 111.976 63.7928 111.945 62.3616C112.073 61.7118 111.997 61.0315 111.599 60.3865C111.097 59.5741 110.104 58.9271 109.157 59.3847L109.159 59.3926Z" fill="#F9F5EF"/>
<path d="M117.818 84.3804C119.826 84.127 121.777 82.8358 122.419 80.9019C122.837 79.6562 122.387 78.1375 121.048 77.545C119.98 77.0754 118.765 77.4389 117.972 78.1397C116.918 79.0716 115.235 81.0807 115.711 82.6347C115.815 83.5921 116.584 84.5324 117.82 84.3754L117.818 84.3804Z" fill="#F9F5EF"/>
<path d="M104.004 75.4182C102.95 76.3501 101.267 78.3591 101.743 79.9132C101.846 80.8706 102.616 81.8108 103.852 81.6539C105.861 81.4004 107.812 80.1092 108.453 78.1753C108.871 76.9296 108.422 75.4109 107.083 74.8185C106.014 74.3488 104.8 74.7124 104.007 75.4131L104.004 75.4182Z" fill="#F9F5EF"/>
<path d="M186.248 119.061C185.652 120.057 184.969 121.404 184.919 122.614C184.857 124.126 186.121 125.15 187.551 125.34C190.96 125.795 192.633 122.769 193.359 120.04C193.373 119.981 193.384 119.927 193.395 119.873C193.907 118.836 193.897 117.739 192.746 116.786C190.404 114.857 187.387 117.147 186.248 119.061Z" fill="#F9F5EF"/>
<path d="M203.957 120.279C207.365 120.734 209.039 117.708 209.765 114.979C209.778 114.92 209.79 114.866 209.801 114.812C210.313 113.775 210.303 112.677 209.152 111.725C206.81 109.796 203.792 112.086 202.653 114C202.058 114.996 201.374 116.343 201.325 117.553C201.263 119.065 202.526 120.089 203.957 120.279Z" fill="#F9F5EF"/>
<path d="M170.807 67.7038C170.212 68.6997 169.528 70.0463 169.478 71.2569C169.419 72.7633 170.68 73.7928 172.111 73.9828C175.519 74.4372 177.192 71.4115 177.918 68.6823C177.932 68.6234 177.943 68.5694 177.954 68.5155C178.111 68.1975 178.208 67.8785 178.253 67.5564C177.138 66.611 176.015 65.6677 174.894 64.7323C173.199 64.9526 171.578 66.4144 170.807 67.7038Z" fill="#F9F5EF"/>
<path d="M153.06 75.7227C151.569 76.7973 149.393 80.102 151.911 81.5294C152.861 82.0647 153.96 81.9359 154.969 81.5001C155.002 81.4996 155.044 81.4969 155.078 81.4963C157.01 81.3058 159.273 78.9757 158.901 76.9185C158.663 75.5892 157.488 74.7364 156.183 74.6656C155.04 74.6022 153.937 75.0972 153.057 75.7277L153.06 75.7227Z" fill="#F9F5EF"/>
<path d="M160.12 66.5369C160.12 66.5369 160.128 66.5348 160.136 66.5327C160.713 66.531 161.287 66.3602 161.749 66.0371C162.123 65.7712 162.491 65.4009 162.82 64.9815C162.948 64.854 163.073 64.7186 163.169 64.5867C163.28 64.4296 163.365 64.258 163.439 64.0727C163.654 63.701 163.829 63.327 163.947 62.9728C164.506 61.286 162.999 59.8129 161.308 59.875C160.089 59.9212 159.095 60.5527 158.299 61.3858C157.6 62.1208 156.832 63.1375 156.755 64.1984C156.622 66.0173 158.547 67.0686 160.122 66.5448L160.12 66.5369Z" fill="#F9F5EF"/>
<path d="M142.169 69.7608C144.178 69.5073 146.129 68.2161 146.77 66.2822C147.188 65.0366 146.739 63.5179 145.4 62.9254C144.331 62.4558 143.117 62.8193 142.323 63.5201C141.269 64.452 139.587 66.461 140.063 68.0151C140.166 68.9725 140.936 69.9127 142.172 69.7558L142.169 69.7608Z" fill="#F9F5EF"/>
<path d="M137.775 80.7339C137.542 80.8472 137.316 80.9714 137.103 81.1093C136.843 81.1872 136.595 81.3048 136.369 81.4628C135.619 81.9738 134.769 82.7959 134.365 83.6006C133.952 84.4203 134.02 85.4041 134.557 86.1433C134.826 86.7676 135.481 87.1994 136.164 87.2925C136.768 87.8485 137.665 88.0583 138.436 87.4186C139.524 86.5199 140.593 85.1341 140.562 83.7029C140.689 83.0531 140.613 82.3728 140.215 81.7278C139.713 80.9154 138.72 80.2684 137.773 80.726L137.775 80.7339Z" fill="#F9F5EF"/>
<path d="M168.172 87.9588C169.194 87.7189 170.44 87.0922 171.25 86.2001C171.696 85.7877 172.031 85.2777 172.134 84.6004C172.305 83.4335 171.646 82.1282 170.483 81.6373C167.796 80.5012 166.371 83.9784 166.002 85.9287C165.797 87.0026 167.112 88.2044 168.172 87.9588Z" fill="#F9F5EF"/>
<path d="M180.956 82.9763C181.225 83.6006 181.88 84.0324 182.563 84.1254C183.166 84.6815 184.063 84.8913 184.835 84.2516C185.918 83.35 186.991 81.9671 186.96 80.5359C187.088 79.8861 187.012 79.2058 186.614 78.5608C186.112 77.7484 185.119 77.1014 184.171 77.5589C183.939 77.6723 183.713 77.7964 183.499 77.9343C183.24 78.0123 182.991 78.1299 182.766 78.2878C182.015 78.7988 181.165 79.6209 180.761 80.4256C180.348 81.2454 180.416 82.2292 180.954 82.9684L180.956 82.9763Z" fill="#F9F5EF"/>
<path d="M211.165 103.309C210.67 102.159 210.104 101.029 209.475 99.9148C209.4 100.207 209.351 100.5 209.339 100.788C209.287 102.003 210.101 102.902 211.165 103.309Z" fill="#F9F5EF"/>
<path d="M192.297 109.501C192.331 109.5 192.373 109.497 192.407 109.497C194.339 109.306 196.602 106.976 196.229 104.919C195.992 103.59 194.817 102.737 193.511 102.666C192.369 102.603 191.266 103.098 190.386 103.728C188.895 104.803 186.718 108.107 189.236 109.535C190.187 110.07 191.286 109.941 192.294 109.506L192.297 109.501Z" fill="#F9F5EF"/>
<path d="M148.803 122.891C147.66 122.827 146.557 123.322 145.677 123.953C144.186 125.027 142.01 128.332 144.528 129.759C145.478 130.295 146.577 130.166 147.586 129.73C147.62 129.73 147.661 129.727 147.695 129.726C149.627 129.536 151.89 127.206 151.518 125.148C151.281 123.819 150.105 122.966 148.8 122.896L148.803 122.891Z" fill="#F9F5EF"/>
<path d="M197.949 96.7343C197.949 96.7343 197.957 96.7322 197.964 96.7301C198.542 96.7284 199.116 96.5576 199.577 96.2345C199.952 95.9686 200.319 95.5983 200.649 95.1789C200.779 95.0464 200.901 94.916 200.997 94.784C201.108 94.627 201.194 94.4554 201.267 94.2701C201.482 93.8984 201.658 93.5244 201.775 93.1702C202.334 91.4834 200.827 90.0103 199.137 90.0724C197.918 90.1186 196.923 90.7501 196.127 91.5832C195.428 92.3182 194.655 93.332 194.579 94.3929C194.446 96.2118 196.371 97.2631 197.946 96.7393L197.949 96.7343Z" fill="#F9F5EF"/>
<path d="M184.595 96.4859C185.013 95.2402 184.564 93.7215 183.225 93.129C182.157 92.6594 180.942 93.0229 180.149 93.7237C179.095 94.6556 177.412 96.6646 177.888 98.2187C177.991 99.1761 178.761 100.116 179.997 99.9594C182.006 99.7059 183.957 98.4147 184.598 96.4808L184.595 96.4859Z" fill="#F9F5EF"/>
<path d="M175.608 110.935C175.375 111.048 175.149 111.172 174.936 111.31C174.676 111.388 174.428 111.505 174.202 111.663C173.452 112.174 172.602 112.997 172.198 113.801C171.785 114.621 171.853 115.605 172.39 116.344C172.659 116.968 173.314 117.4 173.997 117.493C174.601 118.049 175.498 118.259 176.269 117.619C177.357 116.721 178.426 115.335 178.395 113.904C178.522 113.254 178.446 112.574 178.048 111.928C177.546 111.116 176.553 110.469 175.606 110.927L175.608 110.935Z" fill="#F9F5EF"/>
<path d="M153.542 115.299C153.48 116.81 154.744 117.834 156.175 118.024C159.583 118.479 161.256 115.453 161.982 112.724C161.996 112.665 162.007 112.611 162.018 112.557C162.53 111.52 162.52 110.423 161.369 109.47C159.027 107.541 156.01 109.831 154.871 111.745C154.275 112.741 153.592 114.088 153.542 115.299Z" fill="#F9F5EF"/>
<path d="M142.172 101.177C142.299 100.527 142.223 99.8469 141.825 99.2019C141.323 98.3895 140.33 97.7425 139.383 98.2001C139.15 98.3134 138.924 98.4376 138.711 98.5754C138.451 98.6534 138.203 98.771 137.977 98.929C137.23 99.4349 136.377 100.262 135.973 101.067C135.559 101.886 135.628 102.87 136.165 103.61C136.434 104.234 137.089 104.666 137.772 104.759C138.376 105.315 139.273 105.525 140.044 104.885C141.127 103.983 142.2 102.6 142.17 101.169L142.172 101.177Z" fill="#F9F5EF"/>
<path d="M124.37 95.6995C124.639 96.3237 125.294 96.7555 125.977 96.8486C126.58 97.4046 127.477 97.6145 128.248 96.9748C129.336 96.0761 130.405 94.6902 130.374 93.259C130.501 92.6092 130.425 91.929 130.027 91.2839C129.525 90.4715 128.533 89.8245 127.585 90.2821C127.352 90.3954 127.126 90.5196 126.913 90.6575C126.653 90.7354 126.405 90.853 126.179 91.011C125.432 91.517 124.579 92.3441 124.175 93.1488C123.762 93.9685 123.83 94.9523 124.367 95.6915L124.37 95.6995Z" fill="#F9F5EF"/>
<path d="M152.502 98.3685C153.524 98.1286 154.771 97.5018 155.58 96.6098C156.026 96.1974 156.361 95.6874 156.464 95.0101C156.636 93.8432 155.976 92.5379 154.813 92.047C152.126 90.9109 150.701 94.3881 150.332 96.3383C150.127 97.4123 151.442 98.6141 152.502 98.3685Z" fill="#F9F5EF"/>
<path d="M184.848 130.706C183.78 130.236 182.565 130.6 181.772 131.3C180.718 132.232 179.035 134.241 179.511 135.795C179.614 136.753 180.384 137.693 181.62 137.536C183.629 137.283 185.58 135.991 186.221 134.058C186.636 132.817 186.19 131.293 184.851 130.701L184.848 130.706Z" fill="#F9F5EF"/>
<path d="M160.129 143.063C162.138 142.809 164.089 141.518 164.73 139.584C165.148 138.338 164.699 136.82 163.36 136.227C162.291 135.758 161.077 136.121 160.283 136.822C159.229 137.754 157.547 139.763 158.022 141.317C158.126 142.274 158.896 143.214 160.132 143.058L160.129 143.063Z" fill="#F9F5EF"/>
<path d="M165.989 131.269C167.997 131.015 169.949 129.724 170.59 127.79C171.008 126.544 170.559 125.026 169.22 124.433C168.151 123.964 166.936 124.327 166.143 125.028C165.089 125.96 163.407 127.969 163.882 129.523C163.986 130.48 164.756 131.421 165.992 131.264L165.989 131.269Z" fill="#F9F5EF"/>
<path d="M202.267 130.745C201.199 130.275 199.984 130.639 199.191 131.34C198.137 132.271 196.455 134.281 196.93 135.835C197.034 136.792 197.804 137.732 199.04 137.575C201.048 137.322 203 136.031 203.641 134.097C204.059 132.851 203.609 131.332 202.27 130.74L202.267 130.745Z" fill="#F9F5EF"/>
<path d="M164.391 103.727C164.661 104.351 165.316 104.783 165.999 104.876C166.602 105.432 167.499 105.642 168.27 105.002C169.358 104.103 170.427 102.718 170.396 101.286C170.523 100.637 170.447 99.9563 170.049 99.3113C169.547 98.4989 168.555 97.8518 167.607 98.3094C167.374 98.4228 167.148 98.5469 166.935 98.6848C166.675 98.7628 166.427 98.8804 166.201 99.0383C165.454 99.5443 164.601 100.371 164.197 101.176C163.784 101.996 163.852 102.98 164.389 103.719L164.391 103.727Z" fill="#F9F5EF"/>
<path d="M146.33 110.679C145.828 109.867 144.835 109.22 143.888 109.677C143.655 109.79 143.429 109.915 143.216 110.052C142.956 110.13 142.707 110.248 142.482 110.406C141.732 110.917 140.882 111.739 140.477 112.544C140.064 113.364 140.132 114.347 140.67 115.087C140.939 115.711 141.594 116.143 142.277 116.236C142.88 116.792 143.777 117.002 144.549 116.362C145.637 115.463 146.705 114.077 146.674 112.646C146.802 111.996 146.726 111.316 146.328 110.671L146.33 110.679Z" fill="#F9F5EF"/>
<path d="M164.845 173.624C165.357 172.587 165.348 171.49 164.196 170.537C161.854 168.608 158.837 170.898 157.698 172.812C157.103 173.808 156.419 175.155 156.369 176.365C156.307 177.877 157.571 178.901 159.002 179.091C159.133 179.107 159.258 179.112 159.382 179.117C160.847 178.274 162.295 177.403 163.721 176.498C164.208 175.654 164.562 174.706 164.809 173.791C164.823 173.732 164.834 173.678 164.845 173.624Z" fill="#F9F5EF"/>
<path d="M143.075 179.774C141.932 179.71 140.829 180.205 139.949 180.836C138.458 181.911 136.282 185.215 138.8 186.643C139.75 187.178 140.849 187.049 141.858 186.613C141.892 186.613 141.933 186.61 141.967 186.61C143.899 186.419 146.162 184.089 145.79 182.032C145.553 180.703 144.377 179.85 143.072 179.779L143.075 179.774Z" fill="#F9F5EF"/>
<path d="M147.012 171.645C147.012 171.645 147.02 171.643 147.028 171.641C147.605 171.639 148.179 171.469 148.64 171.145C149.015 170.88 149.383 170.509 149.712 170.09C149.842 169.957 149.964 169.827 150.061 169.695C150.172 169.538 150.257 169.366 150.331 169.181C150.545 168.809 150.721 168.435 150.839 168.081C151.397 166.394 149.89 164.921 148.2 164.983C146.981 165.03 145.987 165.661 145.191 166.494C144.492 167.229 143.724 168.246 143.642 169.304C143.509 171.123 145.434 172.174 147.009 171.65L147.012 171.645Z" fill="#F9F5EF"/>
<path d="M127.455 188.819C127.583 188.169 127.507 187.489 127.109 186.844C126.607 186.032 125.614 185.385 124.667 185.842C124.434 185.955 124.208 186.08 123.994 186.218C123.735 186.295 123.486 186.413 123.261 186.571C122.513 187.077 121.661 187.904 121.256 188.709C120.843 189.529 120.911 190.512 121.449 191.252C121.704 191.854 122.326 192.274 122.989 192.389C124.032 192.207 125.065 192.007 126.099 191.794C126.867 190.951 127.481 189.899 127.453 188.811L127.455 188.819Z" fill="#F9F5EF"/>
<path d="M138.929 160.171C139.532 160.727 140.429 160.937 141.2 160.298C142.289 159.399 143.357 158.013 143.326 156.582C143.453 155.932 143.377 155.252 142.98 154.607C142.477 153.794 141.485 153.147 140.537 153.605C140.304 153.718 140.079 153.842 139.865 153.98C139.606 154.058 139.357 154.176 139.132 154.334C138.384 154.84 137.531 155.667 137.127 156.472C136.714 157.291 136.782 158.275 137.32 159.014C137.589 159.639 138.244 160.07 138.927 160.163L138.929 160.171Z" fill="#F9F5EF"/>
<path d="M82.4689 89.7078C82.4828 89.6489 82.4939 89.595 82.5049 89.5411C82.7649 89.0213 82.8853 88.488 82.8049 87.9661L78.8773 94.7673C80.8392 93.9913 81.9242 91.7645 82.4689 89.7078Z" fill="#F9F5EF"/>
<path d="M88.8737 86.1797C90.8822 85.9263 92.8335 84.6351 93.4747 82.7012C93.8927 81.4555 93.4434 79.9368 92.1043 79.3444C91.0359 78.8747 89.8212 79.2383 89.028 79.939C87.9741 80.871 86.2914 82.88 86.7671 84.434C86.8707 85.3914 87.6405 86.3317 88.8766 86.1747L88.8737 86.1797Z" fill="#F9F5EF"/>
<path d="M131.046 162.351C131.558 161.314 131.549 160.217 130.398 159.264C128.055 157.335 125.038 159.625 123.899 161.539C123.304 162.535 122.62 163.882 122.57 165.093C122.508 166.604 123.772 167.628 125.203 167.818C128.611 168.273 130.285 165.247 131.01 162.518C131.024 162.459 131.035 162.405 131.046 162.351Z" fill="#F9F5EF"/>
<path d="M111.081 111.054C111.095 110.995 111.106 110.941 111.117 110.887C111.629 109.85 111.62 108.753 110.469 107.8C108.126 105.871 105.109 108.161 103.97 110.075C103.375 111.071 102.691 112.418 102.642 113.629C102.58 115.14 103.843 116.165 105.274 116.355C108.682 116.809 110.356 113.783 111.081 111.054Z" fill="#F9F5EF"/>
<path d="M88.2378 123.864C90.1698 123.674 92.4331 121.344 92.0604 119.287C91.8233 117.957 90.6479 117.104 89.3374 117.031C88.1952 116.967 87.0921 117.462 86.2122 118.093C84.7209 119.168 82.5445 122.472 85.0626 123.9C86.0128 124.435 87.112 124.306 88.1205 123.87C88.1543 123.87 88.1961 123.867 88.2299 123.867L88.2378 123.864Z" fill="#F9F5EF"/>
<path d="M93.2794 108.906C93.2794 108.906 93.2873 108.903 93.2953 108.901C93.8723 108.9 94.4465 108.729 94.9077 108.406C95.2823 108.14 95.6502 107.77 95.9795 107.35C96.1096 107.218 96.2318 107.087 96.3281 106.955C96.4389 106.798 96.5245 106.627 96.5981 106.441C96.8127 106.07 96.9885 105.696 97.106 105.341C97.6648 103.655 96.1577 102.182 94.4674 102.244C93.2484 102.29 92.2541 102.921 91.4582 103.754C90.7591 104.489 89.9911 105.506 89.9143 106.567C89.7815 108.386 91.7064 109.437 93.2815 108.913L93.2794 108.906Z" fill="#F9F5EF"/>
<path d="M79.9293 108.651C80.3473 107.405 79.898 105.887 78.5589 105.294C77.4905 104.824 76.2758 105.188 75.4826 105.889C74.4287 106.821 72.746 108.83 73.2217 110.384C73.3252 111.341 74.0951 112.281 75.3312 112.124C77.3396 111.871 79.291 110.58 79.9322 108.646L79.9293 108.651Z" fill="#F9F5EF"/>
<path d="M69.3257 129.669C69.929 130.225 70.8259 130.435 71.5973 129.795C72.6856 128.896 73.7539 127.511 73.723 126.079C73.8504 125.43 73.7744 124.749 73.3766 124.104C72.8745 123.292 71.8817 122.645 70.9342 123.102C70.7013 123.216 70.4755 123.34 70.2619 123.478C70.0026 123.556 69.7538 123.673 69.5286 123.831C68.7809 124.337 67.9282 125.164 67.5238 125.969C67.1107 126.789 67.1788 127.773 67.7165 128.512C67.9856 129.136 68.6405 129.568 69.3236 129.661L69.3257 129.669Z" fill="#F9F5EF"/>
<path d="M105.294 126.969C105.465 125.802 104.806 124.497 103.642 124.006C100.956 122.87 99.5306 126.347 99.1613 128.297C98.9564 129.371 100.272 130.573 101.331 130.328C102.359 130.09 103.6 129.461 104.41 128.569C104.856 128.156 105.191 127.646 105.294 126.969Z" fill="#F9F5EF"/>
<path d="M119.778 120.932C119.276 120.12 118.283 119.473 117.336 119.931C117.103 120.044 116.877 120.168 116.663 120.306C116.404 120.384 116.155 120.501 115.93 120.659C115.182 121.165 114.33 121.993 113.925 122.797C113.512 123.617 113.58 124.601 114.118 125.34C114.387 125.964 115.042 126.396 115.725 126.489C116.328 127.045 117.225 127.255 117.997 126.615C119.085 125.717 120.153 124.331 120.122 122.9C120.25 122.25 120.174 121.569 119.776 120.924L119.778 120.932Z" fill="#F9F5EF"/>
<path d="M148.91 141.253C148.924 141.194 148.935 141.14 148.946 141.086C149.458 140.049 149.448 138.951 148.297 137.999C145.955 136.07 142.937 138.36 141.798 140.274C141.203 141.27 140.519 142.617 140.47 143.827C140.408 145.339 141.671 146.363 143.102 146.553C146.511 147.008 148.184 143.982 148.91 141.253Z" fill="#F9F5EF"/>
<path d="M125.961 154.069C125.995 154.069 126.037 154.066 126.071 154.066C128.003 153.875 130.266 151.545 129.893 149.488C129.656 148.159 128.481 147.306 127.175 147.235C126.033 147.172 124.93 147.667 124.05 148.297C122.559 149.372 120.382 152.676 122.901 154.104C123.851 154.639 124.95 154.51 125.958 154.074L125.961 154.069Z" fill="#F9F5EF"/>
<path d="M131.113 139.107C131.113 139.107 131.121 139.105 131.129 139.103C131.706 139.101 132.28 138.93 132.741 138.607C133.116 138.341 133.483 137.971 133.813 137.552C133.943 137.419 134.065 137.289 134.161 137.157C134.272 137 134.358 136.828 134.431 136.643C134.646 136.271 134.822 135.897 134.939 135.543C135.498 133.856 133.991 132.383 132.301 132.445C131.082 132.491 130.087 133.123 129.291 133.956C128.592 134.691 127.824 135.708 127.743 136.766C127.61 138.585 129.535 139.636 131.11 139.112L131.113 139.107Z" fill="#F9F5EF"/>
<path d="M133.26 124.264C133.26 124.264 133.268 124.262 133.276 124.26C133.853 124.259 134.427 124.088 134.889 123.765C135.263 123.499 135.631 123.128 135.96 122.709C136.091 122.577 136.213 122.446 136.309 122.314C136.42 122.157 136.505 121.986 136.579 121.8C136.794 121.429 136.969 121.055 137.087 120.7C137.646 119.014 136.139 117.54 134.448 117.603C133.229 117.649 132.235 118.28 131.439 119.113C130.74 119.848 129.972 120.865 129.895 121.926C129.762 123.745 131.687 124.796 133.262 124.272L133.26 124.264Z" fill="#F9F5EF"/>
<path d="M117.759 138.857C118.177 137.611 117.728 136.093 116.389 135.5C115.321 135.03 114.106 135.394 113.313 136.095C112.259 137.027 110.576 139.036 111.052 140.59C111.155 141.547 111.925 142.487 113.161 142.33C115.17 142.077 117.121 140.786 117.762 138.852L117.759 138.857Z" fill="#F9F5EF"/>
<path d="M107.159 159.87C107.763 160.426 108.659 160.636 109.431 159.996C110.519 159.098 111.587 157.712 111.556 156.281C111.684 155.631 111.608 154.95 111.21 154.305C110.708 153.493 109.715 152.846 108.768 153.304C108.535 153.417 108.309 153.541 108.095 153.679C107.836 153.757 107.587 153.874 107.362 154.032C106.612 154.543 105.762 155.366 105.357 156.17C104.944 156.99 105.012 157.974 105.55 158.713C105.819 159.337 106.474 159.769 107.157 159.862L107.159 159.87Z" fill="#F9F5EF"/>
<path d="M133.641 172.216C133.139 171.403 132.146 170.756 131.199 171.214C130.966 171.327 130.74 171.451 130.527 171.589C130.267 171.667 130.018 171.785 129.793 171.943C129.046 172.449 128.193 173.276 127.788 174.08C127.375 174.9 127.443 175.884 127.981 176.623C128.25 177.247 128.905 177.679 129.588 177.772C130.192 178.328 131.088 178.538 131.86 177.898C132.943 176.997 134.016 175.614 133.986 174.183C134.113 173.533 134.037 172.853 133.639 172.208L133.641 172.216Z" fill="#F9F5EF"/>
<path d="M95.177 154.926C95.689 153.889 95.6796 152.792 94.5285 151.839C92.186 149.91 89.1689 152.2 88.0299 154.115C87.4346 155.11 86.7508 156.457 86.7014 157.668C86.6391 159.179 87.9028 160.204 89.3337 160.394C92.7419 160.848 94.4156 157.822 95.141 155.093C95.1549 155.034 95.166 154.98 95.177 154.926Z" fill="#F9F5EF"/>
<path d="M74.985 141.571C74.4829 140.759 73.4901 140.112 72.5426 140.569C72.3097 140.683 72.0839 140.807 71.8703 140.945C71.611 141.023 71.3622 141.14 71.137 141.298C70.3893 141.804 69.5366 142.631 69.1322 143.436C68.7191 144.256 68.7872 145.239 69.3249 145.979C69.594 146.603 70.2489 147.035 70.932 147.128C71.5353 147.684 72.4322 147.894 73.2035 147.254C74.2919 146.355 75.3601 144.969 75.3293 143.538C75.4567 142.888 75.3806 142.208 74.9828 141.563L74.985 141.571Z" fill="#F9F5EF"/>
<path d="M85.6614 140.737C86.6841 140.497 87.9302 139.87 88.7401 138.978C89.1859 138.566 89.5206 138.056 89.6237 137.379C89.7952 136.212 89.1357 134.907 87.9724 134.416C85.286 133.28 83.8607 136.757 83.4914 138.707C83.2864 139.781 84.6019 140.983 85.6614 140.737Z" fill="#F9F5EF"/>
<path d="M98.0237 97.5585C99.0464 97.3185 100.293 96.6918 101.102 95.7997C101.548 95.3873 101.883 94.8773 101.986 94.2C102.158 93.0331 101.498 91.7279 100.335 91.2369C97.6483 90.1009 96.223 93.578 95.8537 95.5283C95.6487 96.6022 96.9642 97.804 98.0237 97.5585Z" fill="#F9F5EF"/>
<path d="M120.653 171.461C119.585 170.991 118.37 171.355 117.577 172.055C116.523 172.987 114.84 174.996 115.316 176.55C115.42 177.508 116.189 178.448 117.425 178.291C119.434 178.038 121.385 176.746 122.026 174.813C122.444 173.567 121.995 172.048 120.656 171.456L120.653 171.461Z" fill="#F9F5EF"/>
<path d="M106.681 168.737C105.612 168.267 104.397 168.63 103.604 169.331C102.55 170.263 100.868 172.272 101.343 173.826C101.447 174.784 102.217 175.724 103.453 175.567C105.461 175.313 107.413 174.022 108.054 172.088C108.472 170.843 108.023 169.324 106.683 168.732L106.681 168.737Z" fill="#F9F5EF"/>
<path d="M101.429 147.371C102.513 146.47 103.586 145.087 103.555 143.656C103.682 143.006 103.606 142.325 103.209 141.68C102.707 140.868 101.714 140.221 100.766 140.679C100.533 140.792 100.308 140.916 100.094 141.054C99.8346 141.132 99.5859 141.249 99.3607 141.407C98.6101 141.918 97.7602 142.741 97.3558 143.545C96.9427 144.365 97.0109 145.349 97.5486 146.088C97.8177 146.712 98.4726 147.144 99.1557 147.237C99.7589 147.793 100.656 148.003 101.427 147.363L101.429 147.371Z" fill="#F9F5EF"/>
<path d="M43.1342 157.566C43.1482 157.508 43.1592 157.454 43.1702 157.4C43.3917 156.958 43.5154 156.5 43.4958 156.047L39.748 162.537C41.5815 161.693 42.6122 159.549 43.1371 157.561L43.1342 157.566Z" fill="#F9F5EF"/>
<path d="M54.4813 143.241C57.8895 143.695 59.5631 140.67 60.2886 137.94C60.3025 137.881 60.3136 137.827 60.3246 137.774C60.8365 136.736 60.8272 135.639 59.676 134.686C58.5199 133.731 57.195 133.809 56.0103 134.364L51.9666 141.367C52.3073 142.401 53.3395 143.084 54.4842 143.236L54.4813 143.241Z" fill="#F9F5EF"/>
<path d="M67.9072 163.627C66.7649 163.563 65.6619 164.058 64.782 164.689C63.2907 165.764 61.1143 169.068 63.6324 170.496C64.5826 171.031 65.6818 170.902 66.6903 170.466C66.7241 170.466 66.7659 170.463 66.7997 170.463C68.7316 170.272 70.9949 167.942 70.6223 165.885C70.3851 164.556 69.2098 163.703 67.8993 163.629L67.9072 163.627Z" fill="#F9F5EF"/>
<path d="M58.4923 155.249C58.9102 154.003 58.461 152.485 57.1219 151.892C56.0535 151.423 54.8388 151.786 54.0456 152.487C52.9916 153.419 51.309 155.428 51.7847 156.982C51.8882 157.939 52.6581 158.88 53.8942 158.723C55.9026 158.469 57.854 157.178 58.4952 155.244L58.4923 155.249Z" fill="#F9F5EF"/>
<path d="M51.942 170.697C51.4399 169.885 50.4471 169.238 49.4996 169.695C49.2667 169.809 49.041 169.933 48.8274 170.071C48.568 170.149 48.3192 170.266 48.094 170.424C47.3435 170.935 46.4936 171.757 46.0892 172.562C45.6761 173.382 45.7443 174.365 46.2819 175.105C46.5511 175.729 47.206 176.161 47.889 176.254C48.4923 176.81 49.3893 177.02 50.1606 176.38C51.2489 175.481 52.3172 174.095 52.2863 172.664C52.4137 172.014 52.3377 171.334 51.9399 170.689L51.942 170.697Z" fill="#F9F5EF"/>
<path d="M82.2077 170.6C79.5213 169.464 78.0961 172.941 77.7267 174.891C77.5218 175.965 78.8373 177.167 79.8967 176.921C80.9195 176.681 82.1656 176.055 82.9755 175.163C83.4213 174.75 83.756 174.24 83.8591 173.563C84.0306 172.396 83.371 171.091 82.2077 170.6Z" fill="#F9F5EF"/>
<path d="M77.1711 156.297C74.4847 155.161 73.0594 158.639 72.6901 160.589C72.4852 161.663 73.8006 162.865 74.8601 162.619C75.8879 162.382 77.129 161.752 77.9388 160.86C78.3846 160.448 78.7194 159.938 78.8225 159.261C78.994 158.094 78.3344 156.788 77.1711 156.297Z" fill="#F9F5EF"/>
<path d="M104.166 194.072C105.011 194.071 105.856 194.056 106.705 194.037C106.402 193.923 106.077 193.849 105.74 193.828C105.202 193.799 104.671 193.894 104.166 194.072Z" fill="#F9F5EF"/>
<path d="M94.9549 182.094C93.8865 181.624 92.6718 181.987 91.8786 182.688C90.8247 183.62 89.142 185.629 89.6177 187.183C89.7213 188.141 90.4911 189.081 91.7272 188.924C93.7357 188.67 95.687 187.379 96.3283 185.445C96.7462 184.2 96.297 182.681 94.9578 182.088L94.9549 182.094Z" fill="#F9F5EF"/>
<path d="M93.265 166.194C92.1966 165.724 90.9819 166.088 90.1887 166.789C89.1348 167.721 87.4521 169.73 87.9278 171.284C88.0314 172.241 88.8012 173.181 90.0373 173.024C92.0458 172.771 93.9971 171.48 94.6383 169.546C95.0534 168.305 94.6071 166.781 93.2679 166.189L93.265 166.194Z" fill="#F9F5EF"/>
<path d="M68.1887 183.972C68.3602 182.805 67.7006 181.499 66.5373 181.008C63.8509 179.872 62.4256 183.35 62.0563 185.3C62.0511 185.344 62.0458 185.388 62.0406 185.431L65.5228 186.86C66.1761 186.54 66.8184 186.101 67.305 185.571C67.7508 185.159 68.0856 184.649 68.1887 183.972Z" fill="#F9F5EF"/>
<path d="M81.7711 188.278C81.269 187.466 80.2762 186.819 79.3287 187.276C79.0958 187.39 78.8701 187.514 78.6565 187.652C78.3971 187.73 78.1483 187.847 77.9232 188.005C77.1726 188.516 76.3227 189.338 75.9183 190.143C75.8951 190.183 75.8819 190.229 75.8638 190.272C77.8298 190.811 79.8018 191.294 81.7878 191.717C82.0008 191.244 82.1318 190.75 82.1204 190.248C82.2478 189.598 82.1718 188.918 81.774 188.273L81.7711 188.278Z" fill="#F9F5EF"/>
<path d="M113.024 182.494C112.521 181.681 111.529 181.034 110.581 181.492C110.348 181.605 110.122 181.73 109.909 181.867C109.65 181.945 109.401 182.063 109.176 182.221C108.425 182.732 107.575 183.554 107.171 184.359C106.758 185.178 106.826 186.162 107.363 186.901C107.633 187.526 108.288 187.958 108.971 188.051C109.574 188.607 110.471 188.816 111.242 188.177C112.325 187.275 113.399 185.892 113.368 184.461C113.495 183.811 113.419 183.131 113.021 182.486L113.024 182.494Z" fill="#F9F5EF"/>
<path d="M178.09 144.312C178.602 143.274 178.592 142.177 177.441 141.224C175.099 139.295 172.081 141.585 170.942 143.5C170.347 144.496 169.663 145.842 169.614 147.053C169.552 148.564 170.815 149.589 172.246 149.779C175.655 150.233 177.328 147.208 178.054 144.478C178.068 144.419 178.079 144.365 178.09 144.312Z" fill="#F9F5EF"/>
<path d="M112.262 95.4392C111.667 96.4352 110.983 97.7818 110.934 98.9924C110.874 100.499 112.135 101.528 113.566 101.718C116.974 102.173 118.648 99.147 119.373 96.4178C119.387 96.3588 119.398 96.3049 119.409 96.251C119.921 95.2137 119.912 94.1165 118.761 93.1637C116.418 91.2349 113.401 93.5249 112.262 95.4392Z" fill="#F9F5EF"/>
<path d="M121.84 108.895C121.245 109.891 120.561 111.237 120.512 112.448C120.45 113.959 121.713 114.984 123.144 115.174C126.552 115.628 128.226 112.603 128.952 109.873C128.965 109.814 128.977 109.76 128.988 109.707C129.5 108.669 129.49 107.572 128.339 106.619C125.997 104.69 122.979 106.98 121.84 108.895Z" fill="#F9F5EF"/>
<path d="M154.711 155.762C154.745 155.761 154.787 155.759 154.821 155.758C156.753 155.568 159.016 153.237 158.643 151.18C158.406 149.851 157.231 148.998 155.925 148.927C154.783 148.864 153.68 149.359 152.8 149.989C151.309 151.064 149.132 154.369 151.651 155.796C152.601 156.331 153.7 156.203 154.708 155.767L154.711 155.762Z" fill="#F9F5EF"/>
<path d="M174.004 162.335C172.862 162.271 171.759 162.766 170.879 163.397C169.387 164.472 167.211 167.776 169.729 169.204C170.679 169.739 171.778 169.61 172.787 169.174C172.821 169.174 172.863 169.171 172.896 169.171C174.828 168.98 177.092 166.65 176.719 164.593C176.482 163.264 175.306 162.411 174.001 162.34L174.004 162.335Z" fill="#F9F5EF"/>
<path d="M168.157 154.25C165.471 153.114 164.045 156.591 163.676 158.541C163.471 159.615 164.786 160.817 165.846 160.571C166.869 160.331 168.115 159.704 168.925 158.812C169.37 158.4 169.705 157.89 169.808 157.213C169.98 156.046 169.32 154.741 168.157 154.25Z" fill="#F9F5EF"/>
<path d="M187.329 144.644C184.642 143.508 183.217 146.985 182.848 148.935C182.643 150.009 183.958 151.211 185.018 150.965C186.046 150.728 187.287 150.099 188.097 149.206C188.542 148.794 188.877 148.284 188.98 147.607C189.152 146.44 188.492 145.135 187.329 144.644Z" fill="#F9F5EF"/>
</g>
<defs>
<clipPath id="clip0_527_811">
<rect width="214" height="197" fill="white"/>
</clipPath>
</defs>
</svg>
