<svg width="241" height="233" viewBox="0 0 241 233" fill="none" xmlns="http://www.w3.org/2000/svg">
<path d="M96.8029 73.4692C84.048 67.9502 77.6149 52.3191 80.1547 38.6882C82.6946 25.0388 92.7058 13.6488 104.626 6.53705C113.952 0.980976 125.668 -2.33415 135.643 1.96255C144.43 5.74068 150.066 14.7971 152.198 24.1128C154.33 33.447 153.477 43.1516 152.625 52.6895C167.938 39.6327 188.739 28.3539 207.463 35.762C215.602 38.9845 222.109 45.3925 227.375 52.3746C237.516 65.8388 243.986 83.359 239.611 99.6383C235.235 115.918 217.159 128.771 201.216 123.289C216.362 126.159 224.538 143.105 226.021 158.422C227.949 178.423 222.091 199.499 208.409 214.242C194.746 229.002 173.036 236.521 153.57 231.391C134.104 226.261 118.457 207.704 118.605 187.609C118.624 184.572 119.755 180.72 122.795 180.498C127.152 189.517 117.771 199.036 108.983 203.87C91.5193 213.445 71.3486 219.057 51.5858 216.575C31.823 214.093 12.6905 202.666 3.75464 184.887C0.806909 179.035 -1.00993 172.256 0.602983 165.904C3.0687 156.236 12.5422 150.199 21.6079 146.013C32.9725 140.753 46.6915 136.92 57.6667 142.994C47.2476 139.883 36.6803 135.642 29.3017 127.659C22.6461 120.474 19.1607 110.713 18.4192 100.953C16.3799 73.8211 37.2179 46.8556 64.0071 41.9848C74.593 40.0587 86.2356 41.4847 94.7636 48.0224C103.292 54.5785 107.685 66.913 103.18 76.6732C99.4726 77.3955 95.8204 78.4511 92.2794 79.8031" fill="#F9F5EF"/>
</svg>
