<svg width="245" height="217" viewBox="0 0 245 217" fill="none" xmlns="http://www.w3.org/2000/svg">
<path d="M115.408 24.3333C111.45 19.7235 118.495 13.7594 124.295 11.9434C138.397 7.51517 153.569 4.024 167.802 8.00773C182.034 11.9915 194.45 25.86 191.935 40.406C189.868 52.4013 179.084 60.6432 169.102 67.6392C181.843 56.9427 201.668 57.5389 215.711 66.4284C229.754 75.3179 238.463 90.9478 242.287 107.128C245.883 122.309 245.002 139.981 234.247 151.306C223.491 162.63 200.968 162.126 194.879 147.756C204.875 156.513 204.251 173.048 197.126 184.274C190 195.5 178.142 202.682 166.695 209.434C161.132 212.722 155.343 216.092 148.933 216.783C138.886 217.868 129.312 212.189 121.773 205.467C108.332 193.506 98.5224 177.497 93.9929 160.057C79.6872 176.883 54.2536 183.135 33.7982 174.855C13.3428 166.575 -0.566841 144.39 0.898971 122.388C2.03305 105.451 18.0564 87.1102 33.648 93.8288C9.89743 73.2611 10.5928 30.9265 34.9883 11.0998C59.3838 -8.72684 100.974 -0.81139 116.325 26.6006" fill="#F9F5EF"/>
</svg>
