<svg width="262" height="251" viewBox="0 0 262 251" fill="none" xmlns="http://www.w3.org/2000/svg">
<path d="M134.826 37.7245C133.395 37.5345 132.126 36.5071 132.193 34.9987C132.243 33.788 132.932 32.4443 133.522 31.4455C133.964 30.7029 134.685 29.9068 135.547 29.3193C134.587 28.6847 133.629 28.058 132.669 27.4363C126.184 23.2626 119.16 19.267 111.796 17.1844C111.409 18.0863 110.698 18.9011 109.972 19.5071C109.198 20.1519 108.301 19.942 107.701 19.381C107.013 19.285 106.358 18.8532 106.094 18.2318C105.614 17.5663 105.509 16.7154 105.786 15.9576C105.33 15.9016 104.878 15.8484 104.423 15.8133C101.703 15.5821 99.1363 15.7345 96.6982 16.1752C95.7632 18.1538 94.1824 19.7661 91.6327 19.4257C90.8389 19.3156 90.0966 18.9539 89.6077 18.397C84.6 20.6427 80.1834 24.0803 76.1306 27.8621C74.0547 29.7981 72.0569 31.8193 70.1336 33.897C71.3074 33.3491 72.6215 33.2774 73.7726 34.2302C74.9267 35.178 74.9361 36.2752 74.4212 37.3175C74.4102 37.3714 74.3991 37.4253 74.3852 37.4843C73.6597 40.2135 71.9832 43.2442 68.5779 42.7848C67.147 42.5948 65.8782 41.5674 65.9455 40.0589C65.9744 39.4058 66.1877 38.7118 66.4741 38.0533C63.1154 42.0483 60.019 46.2618 57.2074 50.6666C57.3982 50.4754 57.5925 50.3129 57.7744 50.1835C58.6493 49.5501 59.7573 49.058 60.8996 49.1214C62.2022 49.1972 63.3804 50.045 63.6175 51.3743C63.9852 53.4286 61.7269 55.7616 59.795 55.9521C59.7583 55.9577 59.7194 55.9554 59.6856 55.9559C58.6742 56.3967 57.575 56.5255 56.6277 55.9852C55.4867 55.3396 55.3152 54.3028 55.5983 53.2673C53.7715 56.2916 52.0752 59.3913 50.5167 62.5772C46.9424 68.2562 43.7704 74.2012 41.1402 80.4724C37.9274 88.1352 35.5495 96.3472 34.2914 104.824C34.3981 104.779 34.5048 104.733 34.6107 104.7C34.8243 104.562 35.045 104.435 35.2829 104.325C36.2283 103.859 37.2232 104.514 37.7253 105.327C38.1231 105.972 38.1991 106.652 38.0717 107.302C38.1055 108.728 37.0372 110.114 35.946 111.018C35.1718 111.662 34.2748 111.453 33.6745 110.891C33.6486 110.89 33.6206 110.88 33.5947 110.879C32.7641 120.889 33.5468 131.167 36.4147 141.256C37.457 144.926 38.7796 148.517 40.3451 151.999C40.4541 151.915 40.5603 151.836 40.6685 151.764C40.8987 151.609 41.1475 151.492 41.4018 151.411C41.6154 151.273 41.8362 151.146 42.0741 151.035C43.0194 150.57 44.0144 151.225 44.5165 152.037C44.9143 152.682 44.9903 153.362 44.8629 154.012C44.8915 155.308 44.0131 156.563 43.0391 157.46C44.4632 160.098 46.0264 162.669 47.7216 165.161C48.028 164.863 48.3559 164.597 48.6648 164.386C48.895 164.231 49.1437 164.114 49.3981 164.033C49.6117 163.895 49.8324 163.768 50.0703 163.658C51.0157 163.192 52.0106 163.847 52.5127 164.659C52.9105 165.304 52.9866 165.985 52.8591 166.634C52.8866 167.863 52.1006 169.05 51.1922 169.939C54.5497 174.262 58.3077 178.321 62.3916 182.06C62.5587 182.176 62.7042 182.307 62.833 182.455C63.5796 183.134 64.3428 183.796 65.1119 184.448L68.9264 177.842C68.2393 178.162 67.4386 178.296 66.5132 178.17C65.0823 177.98 63.8136 176.953 63.8809 175.444C63.9303 174.234 64.6192 172.89 65.2094 171.891C66.3484 169.977 69.3655 167.687 71.708 169.616C72.3667 170.157 72.6482 170.748 72.6771 171.347L81.1532 156.67C81.0652 156.405 81.0226 156.119 81.0334 155.81C81.0828 154.6 81.7717 153.256 82.3619 152.257C82.9397 151.291 83.9935 150.232 85.1948 149.66L108.059 110.068C107.417 110.32 106.684 110.419 105.843 110.309C104.412 110.119 103.143 109.091 103.211 107.583C103.26 106.372 103.949 105.029 104.539 104.03C105.678 102.115 108.695 99.8255 111.038 101.754C111.615 102.228 111.906 102.745 111.986 103.267L144.235 47.4249C144.002 47.2368 143.808 47.0042 143.692 46.7296C143.149 45.9875 143.086 45.0065 143.499 44.1868C143.903 43.3821 144.756 42.555 145.504 42.049C145.734 41.8939 145.983 41.7764 146.237 41.6955C146.451 41.5576 146.671 41.4306 146.909 41.3201C147.217 41.1697 147.536 41.1395 147.834 41.1912L149.264 38.7149C146.385 36.6836 143.497 34.6674 140.586 32.6914C139.825 35.3536 138.155 38.1872 134.853 37.747L134.826 37.7245ZM117.523 55.785C118.687 56.276 119.346 57.5812 119.175 58.7481C119.077 59.4283 118.745 59.9333 118.291 60.3478C117.476 61.237 116.232 61.8716 115.212 62.1066C114.153 62.3521 112.84 61.1453 113.042 60.0764C113.412 58.1261 114.837 54.649 117.523 55.785ZM101.177 79.8567C101.545 81.9111 99.2867 84.2441 97.3548 84.4346C97.318 84.4402 97.2792 84.4378 97.2454 84.4384C96.234 84.8791 95.1347 85.008 94.1875 84.4676C91.6744 83.0431 93.8507 79.7384 95.3371 78.661C96.2119 78.0275 97.32 77.5354 98.4622 77.5989C99.7649 77.6746 100.943 78.5225 101.18 79.8517L101.177 79.8567ZM100.49 68.5082C99.802 68.4123 99.1471 67.9805 98.883 67.3591C98.3403 66.617 98.2772 65.6361 98.6903 64.8163C99.0947 64.0116 99.9475 63.1845 100.695 62.6786C100.925 62.5235 101.174 62.4059 101.428 62.325C101.642 62.1872 101.863 62.0601 102.101 61.9497C103.046 61.4842 104.041 62.1391 104.543 62.9515C104.941 63.5965 105.017 64.2768 104.89 64.9266C104.923 66.3528 103.855 67.7386 102.764 68.6424C101.99 69.2871 101.093 69.0772 100.492 68.5162L100.49 68.5082ZM121.616 40.6595C121.984 42.7138 119.726 45.0468 117.794 45.2373C117.757 45.2429 117.718 45.2406 117.684 45.2412C116.673 45.6819 115.574 45.8107 114.627 45.2704C112.113 43.8459 114.29 40.5412 115.776 39.4637C116.651 38.8303 117.759 38.3381 118.901 38.4016C120.204 38.4774 121.382 39.3252 121.619 40.6545L121.616 40.6595ZM121.009 25.124C121.8 24.288 122.797 23.6644 124.019 23.6132C125.704 23.5482 127.216 25.0242 126.657 26.711C126.54 27.0652 126.364 27.4392 126.149 27.8109C126.084 27.9941 125.99 28.1678 125.879 28.3248C125.78 28.4618 125.663 28.5951 125.531 28.7197C125.201 29.1391 124.834 29.5094 124.459 29.7753C124.003 30.1013 123.424 30.2692 122.847 30.2709C122.847 30.2709 122.839 30.273 122.831 30.2751C121.256 30.7989 119.336 29.7505 119.463 27.9287C119.54 26.8678 120.313 25.854 121.007 25.1161L121.009 25.124ZM102.928 45.4739C103.325 46.1189 103.402 46.7992 103.274 47.449C103.308 48.8751 102.24 50.261 101.148 51.1647C100.374 51.8095 99.4772 51.5996 98.8769 51.0386C98.1888 50.9426 97.5338 50.5108 97.2698 49.8894C96.7271 49.1473 96.6639 48.1664 97.077 47.3466C97.4814 46.542 98.3342 45.7149 99.0819 45.2089C99.3121 45.0538 99.5608 44.9362 99.8152 44.8554C100.029 44.7175 100.25 44.5904 100.487 44.48C101.433 44.0145 102.428 44.6694 102.93 45.4818L102.928 45.4739ZM82.331 70.9559C81.8553 69.4018 83.543 67.3957 84.5919 66.4608C85.3851 65.7601 86.5977 65.3886 87.6682 65.8662C89.0124 66.4615 89.4566 67.9773 89.0386 69.223C88.3924 71.154 86.4461 72.4481 84.4376 72.7015C83.2015 72.8585 82.4317 71.9182 82.3281 70.9609L82.331 70.9559ZM65.921 105.427C66.3188 106.072 66.3948 106.752 66.2674 107.402C66.3012 108.828 65.2329 110.214 64.1417 111.117C63.3675 111.762 62.4705 111.552 61.8702 110.991C61.1821 110.895 60.5272 110.463 60.2631 109.842C59.7233 109.095 59.6572 108.119 60.0703 107.299C60.4747 106.495 61.3275 105.668 62.0752 105.162C62.3054 105.006 62.5541 104.889 62.8085 104.808C63.0221 104.67 63.2428 104.543 63.4808 104.433C64.4261 103.967 65.421 104.622 65.9231 105.434L65.921 105.427ZM105.028 27.2686C105.821 26.5678 107.034 26.1964 108.104 26.6739C109.448 27.2693 109.893 28.7851 109.475 30.0308C108.829 31.9618 106.882 33.2559 104.874 33.5093C103.638 33.6663 102.868 32.726 102.764 31.7686C102.289 30.2146 103.976 28.2085 105.025 27.2736L105.028 27.2686ZM86.8049 42.0175C88.1075 42.0932 89.2858 42.9411 89.5229 44.2703C89.8905 46.3246 87.6323 48.6576 85.7003 48.8481C85.6636 48.8537 85.6248 48.8514 85.591 48.852C84.5795 49.2927 83.4803 49.4215 82.5331 48.8812C80.02 47.4567 82.1963 44.152 83.6826 43.0745C84.5575 42.4411 85.6656 41.9489 86.8078 42.0124L86.8049 42.0175ZM70.6878 60.3805C71.0571 58.4302 72.4824 54.9531 75.1688 56.0891C76.3321 56.5801 76.9917 57.8853 76.8201 59.0522C76.7221 59.7324 76.3902 60.2374 75.9365 60.6519C75.1216 61.5411 73.8776 62.1757 72.8578 62.4107C71.7983 62.6562 70.4858 61.4494 70.6878 60.3805ZM52.3311 101.122C52.233 101.802 51.9012 102.307 51.4475 102.722C50.6325 103.611 49.3886 104.245 48.3687 104.48C47.3093 104.726 45.9967 103.519 46.1987 102.45C46.568 100.5 47.9933 97.0227 50.6797 98.1588C51.843 98.6497 52.5026 99.955 52.3311 101.122ZM52.6197 70.3024C52.6965 69.2415 53.4695 68.2277 54.1686 67.4927C54.9595 66.6567 55.956 66.0332 57.1779 65.9819C58.8632 65.9169 60.3753 67.393 59.8165 69.0797C59.699 69.4339 59.5232 69.8079 59.3085 70.1796C59.2429 70.3628 59.1493 70.5365 59.0385 70.6936C58.9393 70.8305 58.8222 70.9638 58.69 71.0884C58.3607 71.5078 57.9928 71.8781 57.6182 72.144C57.162 72.47 56.5828 72.6379 56.0057 72.6396C56.0057 72.6396 55.9978 72.6417 55.9899 72.6438C54.4147 73.1676 52.4949 72.1192 52.6226 70.2974L52.6197 70.3024ZM50.948 87.6031C50.9113 87.6087 50.8724 87.6064 50.8386 87.607C49.8272 88.0477 48.7279 88.1765 47.7807 87.6362C45.2676 86.2117 47.444 82.907 48.9303 81.8295C49.8052 81.1961 50.9132 80.704 52.0555 80.7674C53.3581 80.8432 54.5363 81.691 54.7785 83.0232C55.1461 85.0775 52.8878 87.4105 50.9559 87.601L50.948 87.6031ZM85.5045 31.3597C85.8738 29.4095 87.2991 25.9323 89.9855 27.0684C91.1488 27.5593 91.8084 28.8646 91.6369 30.0315C91.5388 30.7117 91.207 31.2166 90.7533 31.6312C89.9384 32.5203 88.6944 33.155 87.6745 33.3899C86.6151 33.6354 85.3025 32.4287 85.5045 31.3597ZM39.1774 122.971C39.1406 122.977 39.1018 122.975 39.068 122.975C38.0565 123.416 36.9573 123.545 36.0101 123.004C33.497 121.58 35.6733 118.275 37.1596 117.198C38.0345 116.564 39.1426 116.072 40.2848 116.136C41.5875 116.211 42.7657 117.059 43.0028 118.388C43.3705 120.443 41.1122 122.776 39.1802 122.966L39.1774 122.971ZM65.3474 77.3645C65.3968 76.1538 66.0857 74.8101 66.6759 73.8113C67.8149 71.897 70.8321 69.6069 73.1745 71.5357C74.3285 72.4835 74.3379 73.5808 73.8231 74.6231C73.812 74.677 73.801 74.7309 73.7871 74.7898C73.0616 77.5191 71.3851 80.5498 67.9798 80.0903C66.5489 79.9004 65.2801 78.8729 65.3474 77.3645ZM61.8667 92.0331C62.236 90.0828 63.6613 86.6056 66.3477 87.7417C67.511 88.2326 68.1705 89.5379 67.999 90.7048C67.9009 91.385 67.5691 91.89 67.1154 92.3045C66.3005 93.1936 65.0565 93.8283 64.0367 94.0632C62.9772 94.3088 61.6646 93.102 61.8667 92.0331ZM45.6807 138.898C44.8658 139.787 43.6219 140.422 42.602 140.656C41.5425 140.902 40.23 139.695 40.432 138.626C40.8013 136.676 42.2266 133.199 44.913 134.335C46.0763 134.826 46.7359 136.131 46.5644 137.298C46.4663 137.978 46.1345 138.483 45.6807 138.898ZM53.4631 129.62C52.0322 129.43 50.7634 128.403 50.8308 126.894C50.8802 125.684 51.5691 124.34 52.1593 123.341C53.2983 121.427 56.3154 119.137 58.6579 121.066C59.8119 122.013 59.8213 123.111 59.3064 124.153C59.2954 124.207 59.2843 124.261 59.2704 124.32C58.545 127.049 56.8684 130.08 53.4631 129.62ZM80.7043 90.3591C79.9301 91.0038 79.0332 90.794 78.4328 90.2329C77.7447 90.137 77.0898 89.7052 76.8257 89.0838C76.283 88.3417 76.2199 87.3608 76.633 86.541C77.0374 85.7363 77.8901 84.9092 78.6378 84.4032C78.868 84.2482 79.1168 84.1306 79.3711 84.0497C79.5847 83.9118 79.8055 83.7848 80.0434 83.6743C80.9887 83.2088 81.9837 83.8638 82.4858 84.6762C82.8836 85.3212 82.9596 86.0015 82.8322 86.6513C82.866 88.0774 81.7977 89.4633 80.7065 90.367L80.7043 90.3591ZM73.7546 104.331C73.2789 102.776 74.9666 100.77 76.0155 99.8355C76.8087 99.1347 78.0212 98.7633 79.0918 99.2408C80.4359 99.8362 80.8801 101.352 80.4622 102.598C79.816 104.529 77.8696 105.823 75.8611 106.076C74.6251 106.233 73.8552 105.293 73.7517 104.336L73.7546 104.331ZM68.0565 119.916C68.4609 119.111 69.3137 118.284 70.0614 117.778C70.2916 117.623 70.5404 117.505 70.7947 117.424C71.0083 117.287 71.229 117.159 71.467 117.049C72.4123 116.584 73.4072 117.238 73.9093 118.051C74.3071 118.696 74.3832 119.376 74.2557 120.026C74.2895 121.452 73.2213 122.838 72.13 123.742C71.3558 124.386 70.4589 124.177 69.8585 123.616C69.1704 123.52 68.5155 123.088 68.2514 122.466C67.7087 121.724 67.6455 120.743 68.0587 119.924L68.0565 119.916ZM54.4215 152.667C53.1854 152.824 52.4155 151.883 52.312 150.926C51.8363 149.372 53.524 147.366 54.5729 146.431C55.3661 145.73 56.5786 145.359 57.6492 145.836C58.9933 146.432 59.4375 147.947 59.0196 149.193C58.3734 151.124 56.427 152.418 54.4185 152.672L54.4215 152.667ZM66.1522 139.313C64.9161 139.47 64.1463 138.529 64.0427 137.572C63.567 136.018 65.2547 134.012 66.3036 133.077C67.0968 132.376 68.3094 132.005 69.3799 132.482C70.7241 133.078 71.1683 134.593 70.7503 135.839C70.1041 137.77 68.1578 139.064 66.1493 139.318L66.1522 139.313ZM90.4451 100.506C90.5219 99.4448 91.2949 98.4309 91.9889 97.693C92.7798 96.857 93.7763 96.2335 94.9982 96.1822C96.6835 96.1172 98.1956 97.5933 97.6368 99.28C97.5193 99.6342 97.3435 100.008 97.1288 100.38C97.0632 100.563 96.9696 100.737 96.8588 100.894C96.7597 101.031 96.6425 101.164 96.5103 101.289C96.181 101.708 95.8131 102.078 95.4385 102.344C94.9823 102.67 94.4031 102.838 93.826 102.84C93.826 102.84 93.8181 102.842 93.8102 102.844C92.235 103.368 90.3152 102.32 90.443 100.498L90.4451 100.506ZM86.7527 112.038C87.6276 111.404 88.7357 110.912 89.8779 110.976C91.1805 111.051 92.3587 111.899 92.6009 113.231C92.9685 115.286 90.7103 117.619 88.7783 117.809C88.7416 117.815 88.7028 117.813 88.6689 117.813C87.6575 118.254 86.5583 118.383 85.6111 117.842C83.0979 116.418 85.2743 113.113 86.7606 112.036L86.7527 112.038ZM69.317 149.908C69.6864 147.958 71.1117 144.481 73.7981 145.617C74.9614 146.108 75.6209 147.413 75.4494 148.58C75.3513 149.26 75.0195 149.765 74.5658 150.18C73.7509 151.069 72.5069 151.704 71.4871 151.939C70.4276 152.184 69.115 150.977 69.317 149.908ZM67.3386 164.4C67.3019 164.405 67.2631 164.403 67.2293 164.403C66.2178 164.844 65.1186 164.973 64.1714 164.433C61.6583 163.008 63.8346 159.703 65.3209 158.626C66.1958 157.993 67.3039 157.5 68.4461 157.564C69.7487 157.64 70.927 158.487 71.1641 159.817C71.5317 161.871 69.2735 164.204 67.3415 164.395L67.3386 164.4ZM80.1285 142.032C78.8924 142.189 78.1226 141.249 78.019 140.291C77.5433 138.737 79.231 136.731 80.2799 135.796C81.076 135.09 82.2857 134.724 83.3562 135.202C84.7004 135.797 85.1446 137.313 84.7266 138.558C84.0804 140.489 82.1341 141.783 80.1256 142.037L80.1285 142.032ZM93.751 126.086C93.74 126.14 93.7289 126.194 93.715 126.253C92.9896 128.982 91.313 132.013 87.9077 131.554C86.4768 131.364 85.208 130.336 85.2754 128.828C85.3248 127.617 86.0137 126.273 86.6039 125.275C87.7429 123.36 90.76 121.07 93.1025 122.999C94.2565 123.947 94.2659 125.044 93.751 126.086ZM113.517 89.133C112.702 90.0222 111.458 90.6568 110.438 90.8918C109.379 91.1373 108.066 89.9305 108.268 88.8616C108.638 86.9114 110.063 83.4342 112.749 84.5702C113.913 85.0612 114.572 86.3664 114.401 87.5334C114.303 88.2135 113.971 88.7185 113.517 89.133ZM128.904 62.7791C129.134 62.624 129.383 62.5064 129.637 62.4256C129.851 62.2877 130.071 62.1606 130.309 62.0502C131.255 61.5847 132.25 62.2396 132.752 63.052C133.15 63.6971 133.226 64.3773 133.098 65.0271C133.132 66.4533 132.064 67.8392 130.972 68.7429C130.198 69.3876 129.301 69.1777 128.701 68.6167C128.013 68.5207 127.358 68.0889 127.094 67.4675C126.551 66.7255 126.488 65.7445 126.901 64.9248C127.305 64.1201 128.158 63.293 128.906 62.787L128.904 62.7791ZM124.075 73.206C125.229 74.1537 125.238 75.251 124.723 76.2933C124.712 76.3472 124.701 76.4011 124.687 76.4601C123.962 79.1893 122.285 82.22 118.88 81.7606C117.449 81.5706 116.18 80.5432 116.248 79.0347C116.297 77.8241 116.986 76.4804 117.576 75.4815C118.715 73.5672 121.732 71.2772 124.075 73.206ZM134.84 48.3361C134.742 49.0163 134.41 49.5213 133.956 49.9358C133.141 50.8249 131.897 51.4596 130.877 51.6945C129.818 51.9401 128.505 50.7333 128.707 49.6644C129.077 47.7141 130.502 44.2369 133.188 45.373C134.352 45.8639 135.011 47.1692 134.84 48.3361Z" fill="#F9F5EF"/>
<path d="M91.623 19.42C94.1777 19.7633 95.7535 18.1481 96.6885 16.1695C94.1899 16.6222 91.8337 17.3849 89.593 18.3884C90.0869 18.9482 90.8292 19.3099 91.618 19.4171L91.623 19.42Z" fill="#F9F5EF"/>
<path d="M68.5673 42.7791C71.9755 43.2335 73.6491 40.2079 74.3745 37.4786C74.3885 37.4197 74.3995 37.3658 74.4106 37.3119C74.9225 36.2746 74.9131 35.1773 73.762 34.2245C72.608 33.2768 71.2939 33.3485 70.123 33.8914C68.8721 35.2455 67.6506 36.6299 66.4614 38.0397C66.1749 38.6982 65.9617 39.3922 65.9328 40.0454C65.8705 41.5567 67.1343 42.5812 68.5651 42.7712L68.5673 42.7791Z" fill="#F9F5EF"/>
<path d="M82.5329 48.8814C83.483 49.4167 84.5823 49.2879 85.5908 48.8522C85.6246 48.8516 85.6664 48.8489 85.7002 48.8484C87.6321 48.6579 89.8954 46.3278 89.5227 44.2705C89.2856 42.9413 88.1103 42.0884 86.8048 42.0177C85.6625 41.9542 84.5595 42.4492 83.6796 43.0798C82.1882 44.1544 80.0119 47.459 82.53 48.8864L82.5329 48.8814Z" fill="#F9F5EF"/>
<path d="M87.6795 33.3934C88.7023 33.1535 89.9484 32.5267 90.7583 31.6347C91.2041 31.2223 91.5388 30.7123 91.6419 30.035C91.8134 28.8681 91.1538 27.5628 89.9905 27.0719C87.3042 25.9358 85.8789 29.413 85.5095 31.3633C85.3046 32.4372 86.6201 33.639 87.6795 33.3934Z" fill="#F9F5EF"/>
<path d="M132.193 34.9994C132.131 36.5108 133.394 37.5353 134.825 37.7253C138.133 38.1684 139.798 35.332 140.558 32.6698C138.893 31.5405 137.221 30.4213 135.541 29.3172C134.685 29.9076 133.959 30.7007 133.516 31.4434C132.921 32.4393 132.237 33.7859 132.188 34.9965L132.193 34.9994Z" fill="#F9F5EF"/>
<path d="M115.773 39.4688C114.282 40.5434 112.106 43.8481 114.624 45.2755C115.574 45.8108 116.673 45.682 117.682 45.2462C117.715 45.2457 117.757 45.243 117.791 45.2424C119.723 45.0519 121.986 42.7218 121.614 40.6646C121.376 39.3353 120.201 38.4824 118.896 38.4117C117.753 38.3483 116.65 38.8433 115.77 39.4738L115.773 39.4688Z" fill="#F9F5EF"/>
<path d="M122.828 30.2806C122.828 30.2806 122.836 30.2784 122.844 30.2763C123.421 30.2746 123.995 30.1039 124.456 29.7808C124.831 29.5148 125.199 29.1445 125.528 28.7251C125.658 28.5926 125.78 28.4622 125.876 28.3303C125.987 28.1732 126.073 28.0017 126.146 27.8164C126.361 27.4447 126.537 27.0706 126.654 26.7165C127.213 25.0297 125.706 23.5565 124.016 23.6186C122.797 23.6649 121.803 24.2964 121.007 25.1295C120.308 25.8645 119.54 26.8812 119.463 27.9421C119.33 29.761 121.255 30.8123 122.83 30.2885L122.828 30.2806Z" fill="#F9F5EF"/>
<path d="M104.876 33.5044C106.885 33.251 108.836 31.9598 109.477 30.0259C109.895 28.7802 109.446 27.2615 108.107 26.6691C107.038 26.1994 105.824 26.563 105.031 27.2637C103.977 28.1957 102.294 30.2047 102.77 31.7587C102.873 32.7161 103.643 33.6564 104.879 33.4994L104.876 33.5044Z" fill="#F9F5EF"/>
<path d="M100.482 44.4771C100.249 44.5904 100.024 44.7145 99.8099 44.8524C99.5505 44.9304 99.3018 45.048 99.0766 45.2059C98.326 45.717 97.4762 46.539 97.0718 47.3437C96.6586 48.1635 96.7268 49.1473 97.2645 49.8865C97.5336 50.5108 98.1885 50.9426 98.8716 51.0356C99.4749 51.5916 100.372 51.8015 101.143 51.1618C102.231 50.2631 103.3 48.8772 103.269 47.4461C103.396 46.7962 103.32 46.116 102.922 45.471C102.42 44.6586 101.428 44.0115 100.48 44.4691L100.482 44.4771Z" fill="#F9F5EF"/>
<path d="M133.193 45.3766C130.507 44.2405 129.081 47.7177 128.712 49.6679C128.507 50.7419 129.823 51.9437 130.882 51.6981C131.905 51.4582 133.151 50.8314 133.961 49.9394C134.407 49.527 134.741 49.017 134.845 48.3397C135.016 47.1728 134.356 45.8675 133.193 45.3766Z" fill="#F9F5EF"/>
<path d="M106.089 18.2292C106.358 18.8535 107.013 19.2852 107.696 19.3783C108.299 19.9343 109.196 20.1442 109.967 19.5045C110.689 18.9034 111.404 18.0836 111.791 17.1817C109.811 16.6208 107.804 16.1987 105.781 15.955C105.504 16.7127 105.609 17.5636 106.089 18.2292Z" fill="#F9F5EF"/>
<path d="M146.884 41.3062C146.651 41.4195 146.425 41.5437 146.212 41.6816C145.952 41.7595 145.704 41.8771 145.479 42.0351C144.731 42.5411 143.878 43.3682 143.474 44.1729C143.061 44.9926 143.129 45.9765 143.666 46.7156C143.782 46.9903 143.976 47.2228 144.209 47.411L147.809 41.1773C147.506 41.1227 147.192 41.1558 146.884 41.3062Z" fill="#F9F5EF"/>
<path d="M116.249 79.0432C116.19 80.5495 117.451 81.5791 118.882 81.7691C122.29 82.2235 123.964 79.1978 124.689 76.4685C124.703 76.4096 124.714 76.3557 124.725 76.3018C125.237 75.2645 125.228 74.1672 124.076 73.2145C121.734 71.2857 118.717 73.5757 117.578 75.49C116.983 76.4859 116.299 77.8326 116.249 79.0432Z" fill="#F9F5EF"/>
<path d="M102.757 68.632C103.84 67.7304 104.914 66.3474 104.883 64.9163C105.01 64.2664 104.934 63.5862 104.536 62.9412C104.034 62.1287 103.041 61.4817 102.094 61.9393C101.861 62.0527 101.635 62.1768 101.422 62.3147C101.162 62.3927 100.914 62.5102 100.688 62.6682C99.9378 63.1792 99.0879 64.0013 98.6835 64.806C98.2704 65.6257 98.3386 66.6096 98.8763 67.3488C99.1454 67.973 99.8003 68.4048 100.483 68.4979C101.087 69.0539 101.984 69.2638 102.755 68.6241L102.757 68.632Z" fill="#F9F5EF"/>
<path d="M115.212 62.1073C116.235 61.8673 117.481 61.2406 118.291 60.3485C118.737 59.9362 119.072 59.4261 119.175 58.7489C119.346 57.5819 118.687 56.2767 117.523 55.7857C114.837 54.6497 113.412 58.1269 113.042 60.0771C112.837 61.1511 114.153 62.3528 115.212 62.1073Z" fill="#F9F5EF"/>
<path d="M127.098 67.4709C127.367 68.0952 128.022 68.527 128.705 68.6201C129.308 69.1761 130.205 69.3859 130.977 68.7463C132.06 67.8447 133.133 66.4617 133.102 65.0305C133.23 64.3807 133.154 63.7004 132.756 63.0554C132.254 62.243 131.261 61.596 130.314 62.0536C130.081 62.1669 129.855 62.2911 129.641 62.429C129.382 62.5069 129.133 62.6245 128.908 62.7825C128.16 63.2884 127.308 64.1156 126.903 64.9202C126.49 65.74 126.558 66.7238 127.096 67.463L127.098 67.4709Z" fill="#F9F5EF"/>
<path d="M86.6139 125.281C86.0187 126.276 85.3348 127.623 85.2854 128.834C85.2231 130.345 86.4869 131.37 87.9178 131.56C91.326 132.014 92.9996 128.988 93.7251 126.259C93.739 126.2 93.7501 126.146 93.7611 126.092C94.273 125.055 94.2637 123.958 93.1125 123.005C90.7701 121.076 87.753 123.366 86.6139 125.281Z" fill="#F9F5EF"/>
<path d="M73.7925 74.7928C73.8064 74.7338 73.8174 74.6799 73.8285 74.626C74.3404 73.5887 74.331 72.4915 73.1799 71.5387C70.8375 69.6099 67.8203 71.8999 66.6813 73.8142C66.0861 74.8102 65.4022 76.1568 65.3528 77.3674C65.2934 78.8737 66.5543 79.9033 67.9852 80.0933C71.3934 80.5477 73.067 77.522 73.7925 74.7928Z" fill="#F9F5EF"/>
<path d="M52.0577 80.7763C50.9154 80.7129 49.8124 81.2079 48.9325 81.8384C47.4411 82.913 45.2648 86.2177 47.7829 87.6451C48.733 88.1804 49.8323 88.0516 50.8408 87.6159C50.8746 87.6153 50.9164 87.6126 50.9502 87.6121C52.8821 87.4216 55.1454 85.0914 54.7727 83.0342C54.5356 81.705 53.3603 80.8521 52.0497 80.7785L52.0577 80.7763Z" fill="#F9F5EF"/>
<path d="M55.9917 72.6523C55.9917 72.6523 55.9996 72.6502 56.0076 72.648C56.5846 72.6463 57.1588 72.4756 57.62 72.1525C57.9946 71.8865 58.3625 71.5162 58.6918 71.0969C58.819 70.9694 58.9441 70.834 59.0404 70.702C59.1512 70.545 59.2369 70.3734 59.3104 70.1881C59.525 69.8164 59.7008 69.4423 59.8183 69.0882C60.3771 67.4014 58.87 65.9282 57.1797 65.9903C55.9607 66.0366 54.9664 66.6681 54.1705 67.5012C53.4714 68.2362 52.6984 69.25 52.6216 70.3109C52.4888 72.1298 54.4137 73.1811 55.9888 72.6573L55.9917 72.6523Z" fill="#F9F5EF"/>
<path d="M68.0056 90.7161C68.1772 89.5492 67.5176 88.244 66.3543 87.753C63.6679 86.617 62.2426 90.0942 61.8733 92.0444C61.6684 93.1184 62.9838 94.3201 64.0433 94.0746C65.0661 93.8346 66.3122 93.2079 67.122 92.3158C67.5678 91.9034 67.9026 91.3934 68.0056 90.7161Z" fill="#F9F5EF"/>
<path d="M56.6017 55.9841C57.5518 56.5194 58.651 56.3906 59.6596 55.9548C59.6934 55.9543 59.7351 55.9516 59.7689 55.951C61.7009 55.7605 63.9642 53.4304 63.5915 51.3732C63.3544 50.0439 62.1791 49.1911 60.8735 49.1203C59.7313 49.0569 58.6283 49.5519 57.7483 50.1824C57.5664 50.3118 57.3772 50.4772 57.1814 50.6655C56.5128 51.3244 55.8357 52.2998 55.5643 53.2684C55.2733 54.306 55.4477 55.3378 56.5938 55.9862L56.6017 55.9841Z" fill="#F9F5EF"/>
<path d="M76.8279 59.0506C76.9994 57.8837 76.3399 56.5784 75.1766 56.0875C72.4902 54.9514 71.0649 58.4286 70.6955 60.3789C70.4906 61.4528 71.8061 62.6546 72.8656 62.409C73.8883 62.1691 75.1344 61.5424 75.9443 60.6503C76.3901 60.2379 76.7248 59.7279 76.8279 59.0506Z" fill="#F9F5EF"/>
<path d="M98.4542 77.6015C97.3119 77.5381 96.2089 78.0331 95.329 78.6636C93.8376 79.7382 91.6613 83.0429 94.1794 84.4703C95.1295 85.0056 96.2288 84.8768 97.2373 84.4411C97.2711 84.4405 97.3128 84.4378 97.3467 84.4372C99.2786 84.2468 101.542 81.9166 101.169 79.8594C100.932 78.5302 99.7568 77.6773 98.4513 77.6066L98.4542 77.6015Z" fill="#F9F5EF"/>
<path d="M89.0383 69.2236C89.4534 67.9829 89.007 66.4592 87.6679 65.8668C86.5995 65.3971 85.3848 65.7607 84.5916 66.4614C83.5377 67.3934 81.855 69.4024 82.3307 70.9564C82.4343 71.9138 83.2041 72.8541 84.4402 72.6971C86.4487 72.4437 88.4 71.1525 89.0412 69.2186L89.0383 69.2236Z" fill="#F9F5EF"/>
<path d="M82.8349 86.6467C82.9623 85.9969 82.8863 85.3167 82.4885 84.6716C81.9864 83.8592 80.9936 83.2122 80.0461 83.6698C79.8132 83.7831 79.5874 83.9073 79.3738 84.0452C79.1145 84.1231 78.8657 84.2407 78.6405 84.3987C77.8929 84.9047 77.0401 85.7318 76.6357 86.5365C76.2226 87.3562 76.2908 88.34 76.8284 89.0792C77.0975 89.7035 77.7525 90.1353 78.4355 90.2284C79.0388 90.7844 79.9357 90.9942 80.7071 90.3545C81.7954 89.4558 82.8637 88.07 82.8328 86.6388L82.8349 86.6467Z" fill="#F9F5EF"/>
<path d="M112.754 84.5733C110.068 83.4373 108.643 86.9145 108.273 88.8647C108.068 89.9387 109.384 91.1404 110.443 90.8949C111.471 90.6578 112.712 90.0282 113.522 89.1361C113.968 88.7238 114.302 88.2137 114.406 87.5365C114.577 86.3695 113.918 85.0643 112.754 84.5733Z" fill="#F9F5EF"/>
<path d="M111.01 101.745C108.668 99.8164 105.65 102.106 104.511 104.021C103.916 105.017 103.232 106.363 103.183 107.574C103.121 109.085 104.384 110.11 105.815 110.3C106.656 110.41 107.389 110.311 108.031 110.059L111.959 103.258C111.878 102.736 111.584 102.224 111.01 101.745Z" fill="#F9F5EF"/>
<path d="M88.6686 117.813C88.7024 117.813 88.7441 117.81 88.778 117.809C90.7099 117.619 92.9732 115.289 92.6005 113.231C92.3634 111.902 91.1881 111.049 89.8775 110.976C88.7353 110.912 87.6322 111.407 86.7523 112.038C85.261 113.112 83.0846 116.417 85.6028 117.844C86.5529 118.38 87.6521 118.251 88.6607 117.815L88.6686 117.813Z" fill="#F9F5EF"/>
<path d="M93.82 102.85C93.82 102.85 93.8279 102.848 93.8359 102.846C94.4129 102.844 94.9871 102.674 95.4483 102.351C95.8229 102.085 96.1908 101.714 96.5201 101.295C96.6502 101.162 96.7724 101.032 96.8687 100.9C96.9795 100.743 97.0652 100.572 97.1387 100.386C97.3533 100.015 97.5291 99.6405 97.6466 99.2863C98.2054 97.5995 96.6983 96.1264 95.008 96.1884C93.789 96.2347 92.7947 96.8662 91.9988 97.6993C91.2997 98.4343 90.5317 99.451 90.4549 100.512C90.3222 102.331 92.247 103.382 93.8221 102.858L93.82 102.85Z" fill="#F9F5EF"/>
<path d="M80.4753 102.599C80.8932 101.353 80.444 99.8343 79.1049 99.2418C78.0365 98.7722 76.8218 99.1357 76.0286 99.8365C74.9747 100.768 73.292 102.777 73.7677 104.331C73.8712 105.289 74.6411 106.229 75.8772 106.072C77.8856 105.819 79.837 104.528 80.4782 102.594L80.4753 102.599Z" fill="#F9F5EF"/>
<path d="M69.8664 123.614C70.4696 124.17 71.3666 124.38 72.1379 123.74C73.2212 122.838 74.2945 121.455 74.2636 120.024C74.391 119.374 74.315 118.694 73.9172 118.049C73.4151 117.237 72.4223 116.59 71.4748 117.047C71.2419 117.161 71.0161 117.285 70.8026 117.423C70.5432 117.501 70.2944 117.618 70.0692 117.776C69.3216 118.282 68.4688 119.109 68.0644 119.914C67.6513 120.734 67.7195 121.717 68.2571 122.457C68.5262 123.081 69.1812 123.513 69.8642 123.606L69.8664 123.614Z" fill="#F9F5EF"/>
<path d="M59.3109 124.156C59.8228 123.119 59.8135 122.022 58.6623 121.069C56.3199 119.14 53.3028 121.43 52.1637 123.345C51.5685 124.34 50.8846 125.687 50.8352 126.898C50.7729 128.409 52.0367 129.434 53.4676 129.624C56.8758 130.078 58.5494 127.052 59.2749 124.323C59.2888 124.264 59.2998 124.21 59.3109 124.156Z" fill="#F9F5EF"/>
<path d="M35.9202 111.004C37.0035 110.102 38.0768 108.719 38.0459 107.288C38.1733 106.638 38.0973 105.958 37.6994 105.313C37.1974 104.501 36.2046 103.854 35.2571 104.311C35.0242 104.425 34.7984 104.549 34.5848 104.687C34.4789 104.719 34.3722 104.765 34.2655 104.81C33.9657 106.814 33.7328 108.83 33.5667 110.857C33.5926 110.859 33.6206 110.868 33.6465 110.87C34.2498 111.426 35.1467 111.636 35.918 110.996L35.9202 111.004Z" fill="#F9F5EF"/>
<path d="M46.2014 102.445C45.9965 103.519 47.312 104.721 48.3714 104.475C49.3942 104.235 50.6403 103.609 51.4502 102.717C51.896 102.304 52.2307 101.794 52.3338 101.117C52.5053 99.9501 51.8457 98.6449 50.6824 98.1539C47.996 97.0178 46.5708 100.495 46.2014 102.445Z" fill="#F9F5EF"/>
<path d="M83.3691 135.203C82.3007 134.733 81.086 135.097 80.2928 135.798C79.2388 136.729 77.5562 138.739 78.0319 140.293C78.1354 141.25 78.9053 142.19 80.1413 142.033C82.1498 141.78 84.1012 140.489 84.7424 138.555C85.1603 137.309 84.7111 135.79 83.372 135.198L83.3691 135.203Z" fill="#F9F5EF"/>
<path d="M69.396 132.479C68.3275 132.009 67.1129 132.373 66.3197 133.073C65.2657 134.005 63.5831 136.014 64.0588 137.568C64.1623 138.526 64.9322 139.466 66.1682 139.309C68.1767 139.056 70.1281 137.764 70.7693 135.831C71.1843 134.59 70.738 133.066 69.3989 132.474L69.396 132.479Z" fill="#F9F5EF"/>
<path d="M63.4758 104.43C63.2429 104.543 63.0171 104.667 62.8036 104.805C62.5442 104.883 62.2954 105.001 62.0702 105.159C61.3226 105.665 60.4698 106.492 60.0654 107.296C59.6523 108.116 59.7205 109.1 60.2581 109.839C60.5273 110.463 61.1822 110.895 61.8652 110.988C62.4685 111.544 63.3654 111.754 64.1368 111.114C65.2201 110.213 66.2934 108.83 66.2625 107.399C66.3899 106.749 66.3139 106.069 65.9161 105.424C65.414 104.611 64.4212 103.964 63.4737 104.422L63.4758 104.43Z" fill="#F9F5EF"/>
<path d="M71.6745 169.604C69.3321 167.675 66.315 169.965 65.176 171.879C64.5807 172.875 63.8969 174.222 63.8475 175.432C63.7852 176.944 65.0489 177.968 66.4798 178.158C67.4052 178.284 68.2088 178.145 68.893 177.83L72.6408 171.34C72.6119 170.741 72.3304 170.15 71.6716 169.609L71.6745 169.604Z" fill="#F9F5EF"/>
<path d="M81.0003 155.798C80.9896 156.106 81.0321 156.392 81.1202 156.657L85.1638 149.655C83.9605 150.22 82.9038 151.284 82.331 152.253C81.7357 153.248 81.0518 154.595 81.0024 155.806L81.0003 155.798Z" fill="#F9F5EF"/>
<path d="M40.292 116.147C39.1498 116.083 38.0468 116.578 37.1668 117.209C35.6755 118.284 33.4992 121.588 36.0173 123.016C36.9674 123.551 38.0666 123.422 39.0752 122.986C39.109 122.986 39.1507 122.983 39.1845 122.983C41.1165 122.792 43.3798 120.462 43.0071 118.405C42.77 117.076 41.5947 116.223 40.2891 116.152L40.292 116.147Z" fill="#F9F5EF"/>
<path d="M44.9202 134.346C42.2338 133.21 40.8085 136.687 40.4392 138.638C40.2343 139.712 41.5498 140.913 42.6092 140.668C43.632 140.428 44.8781 139.801 45.688 138.909C46.1338 138.497 46.4685 137.987 46.5716 137.309C46.7431 136.142 46.0835 134.837 44.9202 134.346Z" fill="#F9F5EF"/>
<path d="M68.4478 157.572C67.3056 157.509 66.2025 158.004 65.3226 158.634C63.8313 159.709 61.6549 163.014 64.173 164.441C65.1232 164.976 66.2224 164.847 67.2309 164.412C67.2648 164.411 67.3065 164.409 67.3403 164.408C69.2722 164.217 71.5355 161.887 71.1629 159.83C70.9257 158.501 69.7504 157.648 68.4449 157.577L68.4478 157.572Z" fill="#F9F5EF"/>
<path d="M57.6621 145.837C56.5936 145.368 55.3789 145.731 54.5858 146.432C53.5318 147.364 51.8492 149.373 52.3248 150.927C52.4284 151.884 53.1983 152.824 54.4343 152.668C56.4428 152.414 58.3941 151.123 59.0354 149.189C59.4533 147.943 59.0041 146.425 57.665 145.832L57.6621 145.837Z" fill="#F9F5EF"/>
<path d="M52.8287 166.618C52.9562 165.968 52.8801 165.288 52.4823 164.643C51.9802 163.83 50.9874 163.183 50.04 163.641C49.807 163.754 49.5813 163.878 49.3677 164.016C49.1083 164.094 48.8596 164.212 48.6344 164.37C48.3255 164.58 47.9976 164.846 47.6912 165.145C48.7968 166.768 49.9537 168.36 51.1647 169.917C52.0752 169.036 52.8591 167.841 52.8316 166.613L52.8287 166.618Z" fill="#F9F5EF"/>
<path d="M62.8026 182.439C62.6737 182.291 62.5283 182.16 62.3612 182.043C62.5066 182.174 62.6571 182.308 62.8026 182.439Z" fill="#F9F5EF"/>
<path d="M44.8296 154C44.957 153.351 44.881 152.67 44.4832 152.025C43.9811 151.213 42.9883 150.566 42.0408 151.024C41.8079 151.137 41.5822 151.261 41.3686 151.399C41.1092 151.477 40.8604 151.594 40.6353 151.752C40.527 151.824 40.4209 151.903 40.3119 151.988C41.1416 153.833 42.0377 155.657 43.0008 157.446C43.9748 156.548 44.8532 155.293 44.8246 153.998L44.8296 154Z" fill="#F9F5EF"/>
<path d="M71.4964 151.945C72.5192 151.705 73.7653 151.078 74.5752 150.186C75.021 149.774 75.3557 149.264 75.4588 148.586C75.6303 147.419 74.9707 146.114 73.8074 145.623C71.121 144.487 69.6958 147.964 69.3264 149.915C69.1215 150.988 70.437 152.19 71.4964 151.945Z" fill="#F9F5EF"/>
<path d="M240.321 118.595C239.257 118.188 238.443 117.289 238.495 116.074C238.507 115.786 238.553 115.498 238.631 115.201C236.513 111.446 233.709 107.904 230.704 104.675C223.492 96.9336 215.542 89.73 207.412 82.8378C207.366 83.1599 207.269 83.4789 207.112 83.7969C207.101 83.8508 207.09 83.9047 207.076 83.9636C206.351 86.6929 204.674 89.7236 201.269 89.2642C199.838 89.0742 198.569 88.0467 198.637 86.5383C198.686 85.3277 199.375 83.9839 199.965 82.9851C200.737 81.6958 202.358 80.234 204.052 80.0136C202.778 78.9495 201.501 77.8903 200.218 76.8413C192.952 70.8639 185.508 65.1044 177.964 59.4818C178.992 60.4038 178.994 61.4564 178.502 62.4586C178.491 62.5125 178.48 62.5664 178.466 62.6253C177.74 65.3546 176.064 68.3853 172.659 67.9258C171.228 67.7359 169.959 66.7084 170.026 65.2C170.076 63.9893 170.765 62.6456 171.355 61.6468C172.421 59.858 175.121 57.7464 177.379 59.0439C173.519 56.1714 169.638 53.3341 165.735 50.524C160.254 46.5823 154.776 42.6016 149.242 38.6956L147.812 41.1719C148.432 41.282 148.991 41.7522 149.329 42.3027C149.727 42.9477 149.803 43.6279 149.676 44.2778C149.709 45.7039 148.641 47.0898 147.55 47.9935C146.776 48.6382 145.879 48.4284 145.278 47.8673C144.889 47.8101 144.515 47.6473 144.212 47.4056L111.961 103.252C112.041 103.774 111.913 104.31 111.661 104.827C111.65 104.881 111.639 104.935 111.625 104.994C111.08 107.051 109.995 109.278 108.033 110.054L85.1694 149.646C86.349 149.088 87.6739 149.009 88.8351 149.967C89.9892 150.915 89.9985 152.012 89.4837 153.055C89.4727 153.109 89.4616 153.162 89.4477 153.221C88.7222 155.951 87.0457 158.981 83.6404 158.522C82.5036 158.368 81.4714 157.685 81.1228 156.653L72.6467 171.33C72.6691 171.779 72.5455 172.236 72.3211 172.683C72.3101 172.737 72.2991 172.791 72.2851 172.85C71.7552 174.834 70.7245 176.979 68.896 177.825L65.0815 184.43C69.0713 187.833 73.3379 190.953 77.8148 193.733C82.1417 196.413 86.6149 198.735 91.1968 200.717C91.202 200.674 91.2022 200.627 91.2125 200.586C91.5818 198.636 93.0071 195.158 95.6935 196.295C96.8568 196.785 97.5164 198.091 97.3449 199.258C97.2468 199.938 96.915 200.443 96.4612 200.857C95.9717 201.392 95.3323 201.826 94.679 202.146C98.0789 203.473 101.534 204.611 105.017 205.564C105.04 205.523 105.048 205.474 105.071 205.434C105.476 204.63 106.328 203.802 107.076 203.297C107.306 203.141 107.555 203.024 107.809 202.943C108.023 202.805 108.244 202.678 108.482 202.568C109.427 202.102 110.422 202.757 110.924 203.569C111.322 204.214 111.398 204.895 111.27 205.545C111.282 206.047 111.151 206.54 110.938 207.014C118.35 208.595 125.869 209.367 133.32 209.363C133.821 209.19 134.355 209.09 134.894 209.119C135.23 209.14 135.554 209.206 135.858 209.328C137.693 209.282 139.525 209.195 141.353 209.058C145.003 208.781 148.598 208.319 152.142 207.693C151.478 207.578 150.861 207.161 150.602 206.556C150.059 205.813 149.996 204.833 150.409 204.013C150.813 203.208 151.666 202.381 152.414 201.875C152.644 201.72 152.893 201.602 153.147 201.521C153.361 201.384 153.581 201.257 153.819 201.146C154.765 200.681 155.759 201.336 156.262 202.148C156.659 202.793 156.735 203.473 156.608 204.123C156.631 205.208 156.022 206.263 155.254 207.106C167.132 204.654 178.335 200.299 188.545 194.427C188.421 194.422 188.296 194.417 188.165 194.401C186.734 194.211 185.465 193.184 185.532 191.676C185.582 190.465 186.27 189.121 186.861 188.122C188 186.208 191.017 183.918 193.359 185.847C194.513 186.795 194.523 187.892 194.008 188.934C193.997 188.988 193.986 189.042 193.972 189.101C193.729 190.019 193.373 190.972 192.884 191.808C195.645 190.054 198.322 188.19 200.915 186.218C208.826 180.197 215.958 173.263 222.295 165.69C222.302 165.318 222.386 164.952 222.557 164.609C222.962 163.804 223.814 162.977 224.562 162.471C224.746 162.349 224.942 162.255 225.146 162.179C225.343 161.931 225.54 161.683 225.732 161.432C229.338 156.776 232.674 151.904 235.73 146.856C238.465 142.34 241.094 137.683 242.125 132.337C243.041 127.607 242.204 122.991 240.32 118.621L240.321 118.595ZM221.904 132.08C223.058 133.028 223.067 134.125 222.553 135.167C222.542 135.221 222.531 135.275 222.517 135.334C221.791 138.063 220.115 141.094 216.709 140.634C215.278 140.444 214.01 139.417 214.077 137.909C214.126 136.698 214.815 135.354 215.405 134.355C216.544 132.441 219.562 130.151 221.904 132.08ZM225.283 106.87C226.074 106.034 227.073 105.405 228.292 105.359C229.978 105.294 231.49 106.77 230.931 108.457C230.814 108.811 230.638 109.185 230.423 109.557C230.358 109.74 230.264 109.914 230.153 110.071C230.054 110.208 229.937 110.341 229.805 110.465C229.475 110.885 229.107 111.255 228.733 111.521C228.277 111.847 227.697 112.015 227.12 112.017C227.12 112.017 227.112 112.019 227.104 112.021C225.529 112.545 223.609 111.496 223.737 109.674C223.814 108.614 224.587 107.6 225.286 106.865L225.283 106.87ZM207.201 127.22C207.599 127.865 207.675 128.545 207.548 129.195C207.582 130.621 206.513 132.007 205.422 132.91C204.648 133.555 203.751 133.345 203.151 132.784C202.463 132.688 201.808 132.257 201.544 131.635C201.001 130.893 200.938 129.912 201.351 129.092C201.755 128.288 202.608 127.461 203.356 126.955C203.586 126.8 203.835 126.682 204.089 126.601C204.303 126.463 204.523 126.336 204.761 126.226C205.707 125.76 206.702 126.415 207.204 127.228L207.201 127.22ZM211.922 93.5742C212.152 93.4191 212.401 93.3015 212.655 93.2206C212.869 93.0828 213.09 92.9557 213.328 92.8453C214.273 92.3798 215.268 93.0347 215.77 93.8471C216.168 94.4921 216.244 95.1724 216.116 95.8222C216.15 97.2483 215.082 98.6342 213.991 99.5379C213.216 100.183 212.32 99.9728 211.719 99.4117C211.031 99.3158 210.376 98.884 210.112 98.2626C209.569 97.5205 209.506 96.5396 209.919 95.7198C210.324 94.9152 211.176 94.0881 211.924 93.5821L211.922 93.5742ZM195.354 114.33C195.585 114.174 195.833 114.057 196.088 113.976C196.301 113.838 196.522 113.711 196.76 113.601C197.705 113.135 198.7 113.79 199.202 114.602C199.6 115.248 199.676 115.928 199.549 116.578C199.583 118.004 198.514 119.39 197.423 120.293C196.649 120.938 195.752 120.728 195.152 120.167C194.463 120.071 193.809 119.639 193.544 119.018C193.005 118.271 192.939 117.295 193.352 116.475C193.756 115.671 194.609 114.843 195.357 114.337L195.354 114.33ZM190.525 124.756C191.679 125.704 191.689 126.801 191.174 127.844C191.163 127.898 191.152 127.952 191.138 128.011C190.412 130.74 188.736 133.77 185.331 133.311C183.9 133.121 182.631 132.094 182.698 130.585C182.748 129.375 183.436 128.031 184.027 127.032C185.166 125.118 188.183 122.828 190.525 124.756ZM176.854 145.008C176.818 145.013 176.779 145.011 176.745 145.012C175.734 145.452 174.634 145.581 173.687 145.041C171.174 143.616 173.35 140.312 174.837 139.234C175.712 138.601 176.82 138.109 177.962 138.172C179.264 138.248 180.443 139.096 180.68 140.425C181.047 142.479 178.789 144.812 176.857 145.003L176.854 145.008ZM199.639 96.9234C200.802 97.4144 201.462 98.7196 201.29 99.8866C201.192 100.567 200.861 101.072 200.407 101.486C199.592 102.375 198.348 103.01 197.328 103.245C196.269 103.491 194.956 102.284 195.158 101.215C195.527 99.2646 196.953 95.7874 199.639 96.9234ZM173.71 131.651C172.936 132.295 172.039 132.086 171.438 131.525C170.75 131.429 170.095 130.997 169.831 130.375C169.292 129.628 169.225 128.652 169.639 127.833C170.043 127.028 170.896 126.201 171.643 125.695C171.874 125.54 172.122 125.422 172.377 125.341C172.59 125.203 172.811 125.076 173.049 124.966C173.994 124.5 174.989 125.155 175.491 125.968C175.889 126.613 175.965 127.293 175.838 127.943C175.872 129.369 174.803 130.755 173.712 131.659L173.71 131.651ZM160.598 134.394C161.389 133.558 162.385 132.934 163.607 132.883C165.293 132.818 166.805 134.294 166.246 135.981C166.128 136.335 165.953 136.709 165.738 137.081C165.672 137.264 165.579 137.438 165.468 137.595C165.369 137.732 165.252 137.865 165.119 137.99C164.79 138.409 164.422 138.779 164.048 139.045C163.591 139.371 163.012 139.539 162.435 139.541C162.435 139.541 162.427 139.543 162.419 139.545C160.844 140.069 158.924 139.021 159.052 137.199C159.129 136.138 159.902 135.124 160.596 134.386L160.598 134.394ZM166.934 120.048C166.246 119.952 165.591 119.52 165.327 118.899C164.784 118.157 164.721 117.176 165.134 116.356C165.538 115.551 166.391 114.724 167.139 114.218C167.369 114.063 167.618 113.946 167.872 113.865C168.086 113.727 168.306 113.6 168.544 113.489C169.49 113.024 170.484 113.679 170.987 114.491C171.384 115.136 171.46 115.816 171.333 116.466C171.367 117.892 170.298 119.278 169.207 120.182C168.433 120.827 167.536 120.617 166.936 120.056L166.934 120.048ZM183.972 107.328C185.135 107.818 185.795 109.124 185.623 110.291C185.525 110.971 185.193 111.476 184.74 111.89C183.925 112.779 182.681 113.414 181.661 113.649C180.601 113.895 179.289 112.688 179.491 111.619C179.86 109.669 181.285 106.191 183.972 107.328ZM188.065 92.202C188.432 94.2563 186.174 96.5894 184.242 96.7799C184.206 96.7855 184.167 96.7831 184.133 96.7837C183.121 97.2244 182.022 97.3532 181.075 96.8129C178.562 95.3884 180.738 92.0837 182.225 91.0063C183.099 90.3728 184.208 89.8807 185.35 89.9442C186.652 90.0199 187.831 90.8678 188.068 92.197L188.065 92.202ZM187.458 76.6665C188.249 75.8305 189.245 75.207 190.467 75.1557C192.152 75.0907 193.665 76.5668 193.106 78.2535C192.988 78.6077 192.812 78.9818 192.598 79.3535C192.532 79.5366 192.439 79.7103 192.328 79.8674C192.229 80.0043 192.111 80.1376 191.979 80.2622C191.65 80.6816 191.282 81.0519 190.907 81.3178C190.451 81.6438 189.872 81.8117 189.295 81.8134C189.295 81.8134 189.287 81.8155 189.279 81.8176C187.704 82.3414 185.784 81.293 185.912 79.4712C185.989 78.4103 186.762 77.3965 187.456 76.6586L187.458 76.6665ZM158.144 124.992C158.133 125.046 158.121 125.1 158.108 125.159C157.382 127.888 155.706 130.919 152.3 130.46C150.869 130.27 149.601 129.242 149.668 127.734C149.717 126.523 150.406 125.179 150.996 124.181C152.135 122.266 155.153 119.976 157.495 121.905C158.649 122.853 158.658 123.95 158.144 124.992ZM147.155 141.91C146.381 142.554 145.484 142.344 144.883 141.783C144.195 141.687 143.54 141.256 143.276 140.634C142.734 139.892 142.67 138.911 143.084 138.091C143.488 137.287 144.341 136.46 145.088 135.954C145.319 135.799 145.567 135.681 145.822 135.6C146.035 135.462 146.256 135.335 146.494 135.225C147.439 134.759 148.434 135.414 148.936 136.227C149.334 136.872 149.41 137.552 149.283 138.202C149.317 139.628 148.248 141.014 147.157 141.917L147.155 141.91ZM169.373 97.0215C169.771 97.6665 169.847 98.3467 169.72 98.9966C169.753 100.423 168.685 101.809 167.594 102.712C166.82 103.357 165.923 103.147 165.322 102.586C164.634 102.49 163.979 102.058 163.715 101.437C163.173 100.695 163.109 99.714 163.523 98.8942C163.927 98.0895 164.78 97.2624 165.527 96.7564C165.758 96.6014 166.006 96.4838 166.261 96.4029C166.474 96.265 166.695 96.138 166.933 96.0275C167.878 95.562 168.873 96.217 169.375 97.0294L169.373 97.0215ZM171.477 78.8111C172.27 78.1104 173.482 77.7389 174.553 78.2165C175.897 78.8118 176.341 80.3276 175.923 81.5733C175.277 83.5043 173.331 84.7984 171.322 85.0518C170.086 85.2088 169.316 84.2685 169.213 83.3112C168.737 81.7571 170.425 79.751 171.474 78.8161L171.477 78.8111ZM155.341 106.3C155.571 106.145 155.82 106.027 156.074 105.946C156.288 105.808 156.508 105.681 156.746 105.571C157.692 105.105 158.687 105.76 159.189 106.573C159.587 107.218 159.663 107.898 159.535 108.548C159.569 109.974 158.501 111.36 157.409 112.264C156.635 112.908 155.738 112.699 155.138 112.137C154.45 112.042 153.795 111.61 153.531 110.988C152.988 110.246 152.925 109.265 153.338 108.446C153.742 107.641 154.595 106.814 155.343 106.308L155.341 106.3ZM147.917 108.45C149.071 109.397 149.08 110.495 148.565 111.537C148.554 111.591 148.543 111.645 148.529 111.704C147.804 114.433 146.127 117.464 142.722 117.004C141.291 116.814 140.022 115.787 140.09 114.278C140.139 113.068 140.828 111.724 141.418 110.725C142.557 108.811 145.574 106.521 147.917 108.45ZM117.128 149.701C118.291 150.192 118.951 151.497 118.78 152.664C118.681 153.345 118.35 153.85 117.896 154.264C117.081 155.153 115.837 155.788 114.817 156.023C113.758 156.268 112.445 155.062 112.647 153.993C113.017 152.042 114.442 148.565 117.128 149.701ZM147.131 93.4335C147.927 92.7277 149.136 92.3613 150.207 92.8389C151.551 93.4342 151.995 94.95 151.577 96.1957C150.931 98.1267 148.985 99.4208 146.976 99.6742C145.74 99.8312 144.97 98.8909 144.867 97.9336C144.391 96.3795 146.079 94.3734 147.128 93.4385L147.131 93.4335ZM153.452 82.917C154.591 81.0026 157.608 78.7126 159.95 80.6414C161.104 81.5892 161.114 82.6864 160.599 83.7288C160.588 83.7827 160.577 83.8366 160.563 83.8955C159.837 86.6248 158.161 89.6555 154.755 89.196C153.325 89.0061 152.056 87.9786 152.123 86.4702C152.172 85.2595 152.861 83.9158 153.452 82.917ZM159.446 70.8658C159.814 72.9202 157.556 75.2532 155.624 75.4437C155.587 75.4493 155.548 75.4469 155.515 75.4475C154.503 75.8882 153.404 76.017 152.457 75.4767C149.944 74.0522 152.12 70.7475 153.606 69.6701C154.481 69.0366 155.589 68.5445 156.731 68.608C158.034 68.6837 159.212 69.5316 159.454 70.8637L159.446 70.8658ZM120.614 119.04C121.405 118.204 122.404 117.576 123.623 117.529C125.309 117.464 126.821 118.941 126.262 120.627C126.145 120.981 125.969 121.355 125.754 121.727C125.689 121.91 125.595 122.084 125.484 122.241C125.385 122.378 125.268 122.511 125.136 122.636C124.806 123.055 124.438 123.426 124.064 123.692C123.608 124.018 123.028 124.185 122.451 124.187C122.451 124.187 122.443 124.189 122.435 124.191C120.86 124.715 118.94 123.667 119.068 121.845C119.145 120.784 119.918 119.77 120.612 119.032L120.614 119.04ZM125.01 110.814C125.379 108.864 126.804 105.387 129.491 106.523C130.654 107.014 131.313 108.319 131.142 109.486C131.044 110.166 130.712 110.671 130.258 111.086C129.443 111.975 128.199 112.61 127.18 112.845C126.12 113.09 124.808 111.883 125.01 110.814ZM158.842 55.3253C159.633 54.4893 160.63 53.8658 161.852 53.8145C163.537 53.7495 165.049 55.2256 164.49 56.9123C164.373 57.2665 164.197 57.6405 163.982 58.0122C163.917 58.1954 163.823 58.3691 163.712 58.5262C163.613 58.6631 163.496 58.7964 163.364 58.921C163.034 59.3404 162.667 59.7107 162.292 59.9766C161.836 60.3026 161.257 60.4705 160.68 60.4722C160.68 60.4722 160.672 60.4743 160.664 60.4764C159.089 61.0002 157.169 59.9518 157.296 58.13C157.373 57.0691 158.146 56.0553 158.84 55.3174L158.842 55.3253ZM137.607 93.4664C136.96 95.3974 135.014 96.6915 133.006 96.9449C131.77 97.1019 131 96.1616 130.896 95.2042C130.421 93.6502 132.108 91.6441 133.157 90.7092C133.95 90.0085 135.163 89.637 136.233 90.1146C137.578 90.7099 138.022 92.2257 137.604 93.4714L137.607 93.4664ZM140.758 75.6802C141.156 76.3253 141.232 77.0055 141.104 77.6553C141.138 79.0815 140.07 80.4674 138.978 81.3711C138.204 82.0158 137.307 81.8059 136.707 81.2449C136.019 81.1489 135.364 80.7172 135.1 80.0958C134.557 79.3537 134.494 78.3727 134.907 77.553C135.312 76.7483 136.164 75.9212 136.912 75.4152C137.142 75.2601 137.391 75.1426 137.645 75.0617C137.859 74.9238 138.08 74.7968 138.318 74.6863C139.263 74.2208 140.258 74.8758 140.76 75.6882L140.758 75.6802ZM142.861 57.4699C143.654 56.7692 144.867 56.3977 145.937 56.8752C147.282 57.4706 147.726 58.9864 147.308 60.2321C146.662 62.1631 144.715 63.4572 142.707 63.7106C141.471 63.8676 140.701 62.9273 140.597 61.97C140.122 60.4159 141.809 58.4098 142.858 57.4749L142.861 57.4699ZM115.921 99.7248C115.445 98.1707 117.133 96.1646 118.182 95.2297C118.975 94.529 120.187 94.1575 121.258 94.6351C122.602 95.2305 123.046 96.7463 122.628 97.9919C121.987 99.9258 120.036 101.217 118.027 101.47C116.791 101.627 116.021 100.687 115.918 99.7298L115.921 99.7248ZM102.375 125.675C101.899 124.121 103.587 122.115 104.636 121.18C105.432 120.474 106.641 120.108 107.712 120.585C109.056 121.181 109.5 122.696 109.082 123.942C108.436 125.873 106.49 127.167 104.481 127.421C103.245 127.578 102.475 126.637 102.372 125.68L102.375 125.675ZM96.6768 141.26C97.0812 140.455 97.9339 139.628 98.6816 139.122C98.9118 138.967 99.1606 138.85 99.4149 138.769C99.6285 138.631 99.8493 138.504 100.087 138.393C101.033 137.928 102.027 138.583 102.53 139.395C102.927 140.04 103.003 140.72 102.876 141.37C102.91 142.796 101.842 144.182 100.75 145.086C99.9761 145.731 99.0791 145.521 98.4787 144.96C97.7906 144.864 97.1357 144.432 96.8716 143.811C96.3289 143.069 96.2658 142.088 96.6789 141.268L96.6768 141.26ZM80.9372 172.273C80.4616 170.719 82.1492 168.713 83.1982 167.778C83.9913 167.077 85.2039 166.706 86.2745 167.183C87.6186 167.779 88.0628 169.295 87.6449 170.54C86.9986 172.471 85.0523 173.765 83.0438 174.019C81.8078 174.176 81.0379 173.236 80.9343 172.278L80.9372 172.273ZM79.3185 191.674C78.5443 192.319 77.6473 192.109 77.047 191.548C76.3589 191.452 75.704 191.02 75.4399 190.399C74.9001 189.652 74.834 188.676 75.2471 187.856C75.6515 187.051 76.5043 186.224 77.252 185.718C77.4822 185.563 77.7309 185.446 77.9853 185.365C78.1989 185.227 78.4196 185.1 78.6575 184.989C79.6029 184.524 80.5978 185.179 81.0999 185.991C81.4977 186.636 81.5738 187.317 81.4463 187.966C81.4801 189.393 80.4119 190.778 79.3206 191.682L79.3185 191.674ZM102.361 162.548C101.587 163.193 100.69 162.983 100.09 162.422C99.4018 162.326 98.7469 161.894 98.4828 161.272C97.943 160.525 97.877 159.549 98.2901 158.73C98.6945 157.925 99.5472 157.098 100.295 156.592C100.525 156.437 100.774 156.319 101.028 156.238C101.242 156.101 101.463 155.973 101.7 155.863C102.646 155.398 103.641 156.052 104.143 156.865C104.541 157.51 104.617 158.19 104.489 158.84C104.523 160.266 103.455 161.652 102.364 162.556L102.361 162.548ZM114.223 139.189C111.71 137.764 113.887 134.46 115.373 133.382C116.248 132.749 117.356 132.257 118.498 132.32C119.801 132.396 120.979 133.244 121.221 134.576C121.589 136.63 119.331 138.963 117.399 139.154C117.362 139.159 117.323 139.157 117.289 139.157C116.278 139.598 115.179 139.727 114.231 139.187L114.223 139.189ZM95.9589 185.744C95.9222 185.75 95.8833 185.747 95.8495 185.748C94.8381 186.188 93.7388 186.317 92.7916 185.777C90.2785 184.352 92.4549 181.048 93.9412 179.97C94.8161 179.337 95.9241 178.845 97.0664 178.908C98.369 178.984 99.5472 179.832 99.7894 181.164C100.157 183.218 97.8987 185.551 95.9668 185.742L95.9589 185.744ZM107.095 176.146C106.28 177.035 105.036 177.67 104.016 177.905C102.957 178.15 101.644 176.943 101.846 175.874C102.215 173.924 103.641 170.447 106.327 171.583C107.49 172.074 108.15 173.379 107.978 174.546C107.88 175.226 107.548 175.731 107.095 176.146ZM131.79 128.917C131.839 127.706 132.528 126.363 133.119 125.364C134.258 123.45 137.275 121.16 139.617 123.088C140.771 124.036 140.781 125.133 140.266 126.176C140.255 126.23 140.244 126.283 140.23 126.342C139.504 129.072 137.828 132.102 134.422 131.643C132.992 131.453 131.723 130.425 131.79 128.917ZM128.309 143.586C128.679 141.635 130.104 138.158 132.79 139.294C133.954 139.785 134.613 141.09 134.442 142.257C134.344 142.938 134.012 143.443 133.558 143.857C132.743 144.746 131.499 145.381 130.479 145.616C129.42 145.861 128.107 144.655 128.309 143.586ZM112.123 190.45C111.309 191.339 110.065 191.974 109.045 192.209C107.985 192.455 106.673 191.248 106.875 190.179C107.244 188.229 108.669 184.751 111.356 185.887C112.519 186.378 113.179 187.684 113.007 188.851C112.909 189.531 112.577 190.036 112.123 190.45ZM118.482 175.682C117.051 175.492 115.782 174.464 115.849 172.956C115.899 171.745 116.588 170.402 117.178 169.403C118.317 167.488 121.334 165.198 123.677 167.127C124.831 168.075 124.84 169.172 124.325 170.215C124.314 170.269 124.303 170.322 124.289 170.381C123.564 173.111 121.887 176.141 118.482 175.682ZM128.303 162.538C127.615 162.442 126.96 162.01 126.696 161.389C126.156 160.642 126.09 159.666 126.503 158.846C126.907 158.041 127.76 157.214 128.508 156.708C128.738 156.553 128.987 156.436 129.241 156.355C129.455 156.217 129.675 156.09 129.913 155.979C130.859 155.514 131.854 156.169 132.356 156.981C132.754 157.626 132.83 158.307 132.702 158.956C132.736 160.382 131.668 161.768 130.576 162.672C129.802 163.317 128.905 163.107 128.305 162.546L128.303 162.538ZM119.183 188.318C117.946 188.475 117.177 187.534 117.073 186.577C116.597 185.023 118.285 183.017 119.334 182.082C120.127 181.381 121.34 181.01 122.41 181.487C123.754 182.083 124.199 183.598 123.781 184.844C123.134 186.775 121.188 188.069 119.18 188.323L119.183 188.318ZM140.2 155.878C139.724 154.324 141.412 152.318 142.461 151.383C143.254 150.682 144.467 150.311 145.537 150.788C146.882 151.384 147.326 152.9 146.908 154.145C146.262 156.076 144.315 157.37 142.307 157.624C141.071 157.781 140.301 156.84 140.197 155.883L140.2 155.878ZM134.502 171.463C134.907 170.659 135.759 169.831 136.507 169.325C136.737 169.17 136.986 169.053 137.24 168.972C137.454 168.834 137.675 168.707 137.913 168.597C138.858 168.131 139.853 168.786 140.355 169.598C140.753 170.243 140.829 170.924 140.701 171.574C140.735 173 139.667 174.386 138.576 175.289C137.801 175.934 136.904 175.724 136.304 175.163C135.616 175.067 134.961 174.635 134.697 174.014C134.154 173.272 134.091 172.291 134.504 171.471L134.502 171.463ZM120.867 204.214C119.631 204.371 118.861 203.431 118.758 202.473C118.282 200.919 119.97 198.913 121.018 197.978C121.815 197.273 123.024 196.906 124.095 197.384C125.439 197.979 125.883 199.495 125.465 200.741C124.819 202.672 122.873 203.966 120.864 204.219L120.867 204.214ZM132.598 190.86C131.362 191.017 130.592 190.077 130.488 189.12C130.013 187.565 131.7 185.559 132.749 184.624C133.542 183.924 134.755 183.552 135.826 184.03C137.17 184.625 137.614 186.141 137.196 187.387C136.55 189.318 134.603 190.612 132.595 190.865L132.598 190.86ZM156.891 152.053C156.967 150.992 157.74 149.978 158.44 149.244C159.23 148.407 160.227 147.784 161.449 147.733C163.134 147.668 164.646 149.144 164.087 150.83C163.97 151.185 163.794 151.559 163.579 151.93C163.514 152.114 163.42 152.287 163.309 152.444C163.21 152.581 163.093 152.715 162.961 152.839C162.632 153.259 162.264 153.629 161.889 153.895C161.433 154.221 160.854 154.389 160.277 154.39C160.277 154.39 160.269 154.392 160.261 154.395C158.686 154.918 156.766 153.87 156.894 152.048L156.891 152.053ZM153.198 163.585C154.073 162.952 155.181 162.46 156.323 162.523C157.626 162.599 158.804 163.447 159.041 164.776C159.409 166.83 157.151 169.163 155.219 169.354C155.182 169.36 155.143 169.357 155.11 169.358C154.098 169.798 152.999 169.927 152.052 169.387C149.539 167.962 151.715 164.658 153.201 163.58L153.198 163.585ZM140.392 203.473C139.618 204.118 138.721 203.908 138.12 203.347C137.432 203.251 136.777 202.819 136.513 202.197C135.971 201.455 135.907 200.474 136.321 199.655C136.725 198.85 137.578 198.023 138.325 197.517C138.556 197.362 138.804 197.244 139.059 197.163C139.272 197.026 139.493 196.898 139.731 196.788C140.676 196.323 141.671 196.977 142.173 197.79C142.571 198.435 142.647 199.115 142.52 199.765C142.553 201.191 141.485 202.577 140.394 203.481L140.392 203.473ZM146.571 193.584C145.335 193.741 144.565 192.801 144.462 191.844C143.986 190.29 145.674 188.284 146.723 187.349C147.519 186.643 148.728 186.277 149.799 186.754C151.143 187.35 151.587 188.865 151.169 190.111C150.523 192.042 148.577 193.336 146.568 193.59L146.571 193.584ZM154.35 183.106C152.92 182.916 151.651 181.889 151.718 180.38C151.767 179.17 152.456 177.826 153.047 176.827C154.186 174.913 157.203 172.623 159.545 174.552C160.699 175.499 160.709 176.597 160.194 177.639C160.183 177.693 160.172 177.747 160.158 177.806C159.432 180.535 157.756 183.566 154.35 183.106ZM169.615 159.12C169.665 157.91 170.354 156.566 170.944 155.567C172.083 153.653 175.1 151.363 177.443 153.292C178.597 154.239 178.606 155.337 178.091 156.379C178.08 156.433 178.069 156.487 178.055 156.546C177.33 159.275 175.653 162.306 172.248 161.846C170.817 161.656 169.548 160.629 169.615 159.12ZM166.269 171.77C166.673 170.965 167.526 170.138 168.274 169.632C168.504 169.477 168.753 169.359 169.007 169.279C169.221 169.141 169.442 169.014 169.679 168.903C170.625 168.438 171.62 169.093 172.122 169.905C172.52 170.55 172.596 171.23 172.468 171.88C172.502 173.306 171.434 174.692 170.343 175.596C169.568 176.241 168.671 176.031 168.071 175.47C167.383 175.374 166.728 174.942 166.464 174.321C165.921 173.579 165.858 172.598 166.271 171.778L166.269 171.77ZM161.007 193.2C160.233 193.845 159.336 193.635 158.735 193.074C158.047 192.978 157.392 192.546 157.128 191.925C156.586 191.182 156.523 190.202 156.936 189.382C157.34 188.577 158.193 187.75 158.94 187.244C159.171 187.089 159.419 186.971 159.674 186.891C159.887 186.753 160.108 186.626 160.346 186.515C161.291 186.05 162.286 186.705 162.788 187.517C163.186 188.162 163.262 188.842 163.135 189.492C163.169 190.918 162.1 192.304 161.009 193.208L161.007 193.2ZM207.03 113.517C206.554 111.962 208.242 109.956 209.291 109.021C210.087 108.316 211.297 107.949 212.367 108.427C213.711 109.022 214.156 110.538 213.738 111.784C213.091 113.715 211.145 115.009 209.137 115.262C207.901 115.419 207.131 114.479 207.027 113.522L207.03 113.517ZM195.291 140.329C196.087 139.623 197.296 139.257 198.367 139.734C199.711 140.33 200.155 141.845 199.737 143.091C199.091 145.022 197.145 146.316 195.136 146.57C193.9 146.727 193.13 145.786 193.027 144.829C192.551 143.275 194.239 141.269 195.288 140.334L195.291 140.329ZM189.428 152.128C190.221 151.427 191.433 151.056 192.504 151.533C193.848 152.129 194.292 153.645 193.874 154.89C193.228 156.821 191.282 158.115 189.273 158.369C188.037 158.526 187.267 157.586 187.164 156.628C186.688 155.074 188.376 153.068 189.425 152.133L189.428 152.128ZM181.947 165.291C182.822 164.657 183.93 164.165 185.072 164.228C186.375 164.304 187.553 165.152 187.79 166.481C188.158 168.536 185.9 170.869 183.968 171.059C183.931 171.065 183.892 171.062 183.858 171.063C182.847 171.504 181.748 171.633 180.8 171.092C178.287 169.668 180.464 166.363 181.95 165.286L181.947 165.291ZM172.784 184.602C172.861 183.541 173.634 182.527 174.333 181.792C175.124 180.956 176.124 180.328 177.343 180.281C179.028 180.216 180.54 181.692 179.981 183.379C179.864 183.733 179.688 184.107 179.473 184.479C179.408 184.662 179.314 184.836 179.203 184.993C179.104 185.13 178.987 185.263 178.855 185.388C178.525 185.807 178.157 186.178 177.783 186.444C177.327 186.77 176.747 186.937 176.17 186.939C176.17 186.939 176.162 186.941 176.155 186.943C174.579 187.467 172.66 186.419 172.787 184.597L172.784 184.602ZM171.113 201.903C171.076 201.908 171.037 201.906 171.003 201.906C169.992 202.347 168.893 202.476 167.945 201.936C165.432 200.511 167.609 197.207 169.095 196.129C169.97 195.496 171.078 195.003 172.22 195.067C173.523 195.143 174.701 195.991 174.938 197.32C175.306 199.374 173.047 201.707 171.116 201.898L171.113 201.903ZM219.537 119.024C220.412 118.391 221.52 117.899 222.662 117.962C223.965 118.038 225.143 118.886 225.38 120.215C225.748 122.269 223.489 124.602 221.557 124.793C221.521 124.798 221.482 124.796 221.448 124.797C220.437 125.237 219.337 125.366 218.39 124.826C215.877 123.401 218.053 120.097 219.54 119.019L219.537 119.024ZM198.067 174.111C197.252 175 196.008 175.634 194.988 175.869C193.929 176.115 192.616 174.908 192.818 173.839C193.188 171.889 194.613 168.412 197.299 169.548C198.463 170.039 199.122 171.344 198.951 172.511C198.853 173.191 198.521 173.696 198.067 174.111ZM201.388 165.077C199.957 164.887 198.689 163.86 198.756 162.351C198.805 161.141 199.494 159.797 200.084 158.798C201.223 156.884 204.241 154.594 206.583 156.522C207.737 157.47 207.746 158.567 207.232 159.61C207.221 159.664 207.209 159.718 207.196 159.777C206.47 162.506 204.794 165.536 201.388 165.077ZM210.755 152.836C209.519 152.993 208.749 152.053 208.645 151.095C208.17 149.541 209.857 147.535 210.906 146.6C211.702 145.895 212.912 145.528 213.983 146.006C215.327 146.601 215.771 148.117 215.353 149.363C214.707 151.294 212.76 152.588 210.752 152.841L210.755 152.836ZM231.791 129.296C232.93 127.382 235.947 125.092 238.289 127.02C239.443 127.968 239.453 129.065 238.938 130.108C238.927 130.162 238.916 130.215 238.902 130.274C238.176 133.004 236.5 136.034 233.095 135.575C231.664 135.385 230.395 134.358 230.462 132.849C230.512 131.638 231.201 130.295 231.791 129.296ZM202.037 184.461C202 184.467 201.961 184.464 201.927 184.465C200.916 184.906 199.817 185.035 198.869 184.494C196.356 183.07 198.533 179.765 200.019 178.688C200.894 178.054 202.002 177.562 203.144 177.625C204.447 177.701 205.625 178.549 205.862 179.878C206.23 181.933 203.971 184.266 202.04 184.456L202.037 184.461ZM217.234 164.502C216.419 165.391 215.175 166.026 214.155 166.26C213.095 166.506 211.783 165.299 211.985 164.23C212.354 162.28 213.78 158.803 216.466 159.939C217.629 160.43 218.289 161.735 218.117 162.902C218.019 163.582 217.687 164.087 217.234 164.502ZM228.174 152.875C226.938 153.032 226.169 152.092 226.065 151.135C225.589 149.581 227.277 147.574 228.326 146.64C229.122 145.934 230.332 145.567 231.402 146.045C232.746 146.64 233.191 148.156 232.773 149.402C232.126 151.333 230.18 152.627 228.172 152.88L228.174 152.875Z" fill="#F9F5EF"/>
<path d="M154.751 89.1807C158.16 89.6351 159.833 86.6094 160.559 83.8802C160.573 83.8212 160.584 83.7673 160.595 83.7134C161.107 82.6761 161.097 81.5789 159.946 80.6261C157.604 78.6973 154.586 80.9873 153.447 82.9016C152.852 83.8976 152.168 85.2442 152.119 86.4548C152.057 87.9662 153.32 88.9907 154.751 89.1807Z" fill="#F9F5EF"/>
<path d="M222.544 164.574C222.373 164.917 222.288 165.284 222.282 165.655C223.25 164.5 224.202 163.328 225.136 162.139C224.931 162.215 224.731 162.307 224.552 162.431C223.801 162.942 222.951 163.764 222.547 164.569L222.544 164.574Z" fill="#F9F5EF"/>
<path d="M145.271 47.8563C145.875 48.4124 146.772 48.6222 147.543 47.9825C148.631 47.0838 149.699 45.698 149.669 44.2668C149.796 43.617 149.72 42.9367 149.322 42.2917C148.981 41.7462 148.422 41.276 147.805 41.161L144.205 47.3946C144.508 47.6363 144.882 47.7992 145.271 47.8563Z" fill="#F9F5EF"/>
<path d="M171.345 61.6412C170.75 62.6371 170.066 63.9837 170.016 65.1944C169.954 66.7057 171.218 67.7303 172.649 67.9202C176.057 68.3747 177.73 65.349 178.456 62.6197C178.47 62.5608 178.481 62.5069 178.492 62.453C178.989 61.4537 178.987 60.4011 177.954 59.4762C177.914 59.4401 177.883 59.4018 177.84 59.3707C177.687 59.2419 177.527 59.1361 177.366 59.0433C175.108 57.7459 172.408 59.8575 171.342 61.6462L171.345 61.6412Z" fill="#F9F5EF"/>
<path d="M153.599 69.6592C152.108 70.7338 149.932 74.0385 152.45 75.4659C153.4 76.0012 154.499 75.8724 155.508 75.4367C155.542 75.4361 155.583 75.4334 155.617 75.4329C157.549 75.2424 159.812 72.9122 159.44 70.855C159.203 69.5258 158.027 68.6729 156.717 68.5993C155.575 68.5358 154.471 69.0308 153.592 69.6614L153.599 69.6592Z" fill="#F9F5EF"/>
<path d="M160.654 60.471C160.654 60.471 160.662 60.4689 160.67 60.4668C161.247 60.4651 161.821 60.2943 162.282 59.9712C162.657 59.7053 163.025 59.335 163.354 58.9156C163.481 58.7881 163.606 58.6527 163.703 58.5207C163.813 58.3637 163.899 58.1921 163.973 58.0068C164.187 57.6351 164.363 57.2611 164.481 56.9069C165.039 55.2201 163.532 53.747 161.842 53.8091C160.623 53.8553 159.629 54.4868 158.833 55.3199C158.134 56.0549 157.366 57.0716 157.289 58.1325C157.156 59.9514 159.081 61.0027 160.656 60.4789L160.654 60.471Z" fill="#F9F5EF"/>
<path d="M142.702 63.6953C144.711 63.4418 146.662 62.1507 147.303 60.2168C147.719 58.9761 147.272 57.4524 145.933 56.8599C144.865 56.3903 143.65 56.7538 142.857 57.4546C141.803 58.3865 140.12 60.3955 140.596 61.9496C140.699 62.907 141.469 63.8472 142.705 63.6903L142.702 63.6953Z" fill="#F9F5EF"/>
<path d="M138.308 74.668C138.075 74.7813 137.849 74.9055 137.636 75.0433C137.376 75.1213 137.127 75.2389 136.902 75.3969C136.155 75.9028 135.302 76.73 134.897 77.5346C134.484 78.3544 134.552 79.3382 135.09 80.0774C135.359 80.7017 136.014 81.1335 136.697 81.2265C137.301 81.7826 138.197 81.9924 138.969 81.3527C140.057 80.454 141.125 79.0682 141.095 77.637C141.222 76.9872 141.146 76.3069 140.748 75.6619C140.246 74.8495 139.253 74.2025 138.306 74.66L138.308 74.668Z" fill="#F9F5EF"/>
<path d="M146.967 99.6558C148.975 99.4024 150.926 98.1112 151.568 96.1773C151.986 94.9316 151.536 93.4129 150.197 92.8204C149.129 92.3508 147.914 92.7143 147.121 93.4151C146.067 94.347 144.384 96.356 144.86 97.9101C144.964 98.8675 145.733 99.8078 146.969 99.6508L146.967 99.6558Z" fill="#F9F5EF"/>
<path d="M133.153 90.6935C132.099 91.6255 130.416 93.6345 130.892 95.1886C130.995 96.1459 131.765 97.0862 133.001 96.9292C135.01 96.6758 136.961 95.3846 137.602 93.4507C138.02 92.205 137.571 90.6863 136.232 90.0939C135.163 89.6242 133.949 89.9878 133.156 90.6885L133.153 90.6935Z" fill="#F9F5EF"/>
<path d="M215.397 134.337C214.801 135.333 214.118 136.679 214.068 137.89C214.006 139.401 215.27 140.426 216.7 140.616C220.109 141.07 221.782 138.044 222.508 135.315C222.522 135.256 222.533 135.202 222.544 135.148C223.056 134.111 223.046 133.014 221.895 132.061C219.553 130.132 216.536 132.422 215.397 134.337Z" fill="#F9F5EF"/>
<path d="M233.106 135.555C236.514 136.009 238.188 132.983 238.914 130.254C238.927 130.195 238.939 130.141 238.95 130.087C239.462 129.05 239.452 127.953 238.301 127C235.959 125.071 232.941 127.361 231.802 129.276C231.207 130.272 230.523 131.618 230.474 132.829C230.412 134.34 231.675 135.365 233.106 135.555Z" fill="#F9F5EF"/>
<path d="M199.956 82.9792C199.361 83.9751 198.677 85.3217 198.627 86.5323C198.568 88.0386 199.829 89.0682 201.26 89.2582C204.668 89.7126 206.342 86.6869 207.067 83.9577C207.081 83.8987 207.092 83.8448 207.103 83.7909C207.26 83.4729 207.357 83.1539 207.402 82.8318C206.287 81.8864 205.164 80.9431 204.043 80.0077C202.348 80.228 200.727 81.6898 199.956 82.9792Z" fill="#F9F5EF"/>
<path d="M182.209 90.9981C180.718 92.0727 178.542 95.3774 181.06 96.8048C182.01 97.3401 183.109 97.2113 184.118 96.7755C184.151 96.775 184.193 96.7723 184.227 96.7717C186.159 96.5812 188.422 94.2511 188.05 92.1939C187.812 90.8646 186.637 90.0117 185.332 89.941C184.189 89.8776 183.086 90.3726 182.206 91.0031L182.209 90.9981Z" fill="#F9F5EF"/>
<path d="M189.269 81.8123C189.269 81.8123 189.277 81.8102 189.285 81.8081C189.862 81.8064 190.436 81.6356 190.898 81.3125C191.272 81.0466 191.64 80.6763 191.969 80.2569C192.097 80.1294 192.222 79.994 192.318 79.862C192.429 79.705 192.514 79.5334 192.588 79.3481C192.803 78.9764 192.978 78.6024 193.096 78.2482C193.655 76.5614 192.148 75.0883 190.457 75.1504C189.238 75.1966 188.244 75.8281 187.448 76.6612C186.749 77.3962 185.981 78.4129 185.904 79.4738C185.771 81.2927 187.696 82.344 189.271 81.8202L189.269 81.8123Z" fill="#F9F5EF"/>
<path d="M171.318 85.0362C173.327 84.7827 175.278 83.4915 175.919 81.5576C176.337 80.312 175.888 78.7933 174.549 78.2008C173.48 77.7312 172.266 78.0947 171.472 78.7954C170.418 79.7274 168.736 81.7364 169.212 83.2905C169.315 84.2479 170.085 85.1881 171.321 85.0312L171.318 85.0362Z" fill="#F9F5EF"/>
<path d="M166.924 96.0093C166.691 96.1226 166.465 96.2468 166.252 96.3847C165.992 96.4626 165.744 96.5802 165.518 96.7382C164.768 97.2492 163.918 98.0713 163.514 98.8759C163.101 99.6957 163.169 100.68 163.706 101.419C163.975 102.043 164.63 102.475 165.313 102.568C165.917 103.124 166.814 103.334 167.585 102.694C168.673 101.795 169.742 100.409 169.711 98.9783C169.838 98.3285 169.762 97.6482 169.364 97.0032C168.862 96.1908 167.869 95.5438 166.922 96.0014L166.924 96.0093Z" fill="#F9F5EF"/>
<path d="M197.321 103.234C198.343 102.994 199.59 102.368 200.399 101.475C200.845 101.063 201.18 100.553 201.283 99.8758C201.455 98.7089 200.795 97.4036 199.632 96.9127C196.945 95.7766 195.52 99.2538 195.151 101.204C194.946 102.278 196.261 103.48 197.321 103.234Z" fill="#F9F5EF"/>
<path d="M210.105 98.2517C210.374 98.876 211.029 99.3078 211.712 99.4008C212.315 99.9569 213.212 100.167 213.984 99.527C215.067 98.6254 216.14 97.2425 216.109 95.8113C216.237 95.1615 216.161 94.4812 215.763 93.8362C215.261 93.0238 214.268 92.3768 213.321 92.8343C213.088 92.9477 212.862 93.0718 212.648 93.2097C212.389 93.2877 212.14 93.4053 211.915 93.5632C211.164 94.0742 210.315 94.8963 209.91 95.701C209.497 96.5208 209.565 97.5046 210.103 98.2438L210.105 98.2517Z" fill="#F9F5EF"/>
<path d="M240.314 118.584C239.819 117.435 239.253 116.304 238.624 115.19C238.549 115.482 238.5 115.775 238.488 116.063C238.436 117.279 239.25 118.177 240.314 118.584Z" fill="#F9F5EF"/>
<path d="M221.446 124.776C221.48 124.775 221.522 124.773 221.556 124.772C223.488 124.582 225.751 122.252 225.378 120.194C225.141 118.865 223.966 118.012 222.66 117.942C221.518 117.878 220.415 118.373 219.535 119.004C218.044 120.078 215.867 123.383 218.385 124.81C219.336 125.346 220.435 125.217 221.443 124.781L221.446 124.776Z" fill="#F9F5EF"/>
<path d="M177.952 138.166C176.809 138.103 175.706 138.598 174.827 139.228C173.335 140.303 171.159 143.607 173.677 145.035C174.627 145.57 175.726 145.441 176.735 145.006C176.769 145.005 176.81 145.002 176.844 145.002C178.776 144.811 181.039 142.481 180.667 140.424C180.43 139.095 179.254 138.242 177.949 138.171L177.952 138.166Z" fill="#F9F5EF"/>
<path d="M227.098 112.01C227.098 112.01 227.106 112.008 227.114 112.005C227.691 112.004 228.265 111.833 228.726 111.51C229.101 111.244 229.468 110.874 229.798 110.454C229.928 110.322 230.05 110.191 230.146 110.059C230.257 109.902 230.343 109.731 230.416 109.546C230.631 109.174 230.807 108.8 230.924 108.446C231.483 106.759 229.976 105.286 228.286 105.348C227.067 105.394 226.072 106.025 225.276 106.859C224.577 107.594 223.804 108.607 223.728 109.668C223.595 111.487 225.52 112.539 227.095 112.015L227.098 112.01Z" fill="#F9F5EF"/>
<path d="M213.744 111.761C214.162 110.516 213.713 108.997 212.374 108.404C211.306 107.935 210.091 108.298 209.298 108.999C208.244 109.931 206.561 111.94 207.037 113.494C207.14 114.451 207.91 115.392 209.146 115.235C211.155 114.981 213.106 113.69 213.747 111.756L213.744 111.761Z" fill="#F9F5EF"/>
<path d="M204.757 126.21C204.524 126.323 204.298 126.447 204.085 126.585C203.825 126.663 203.577 126.781 203.352 126.939C202.601 127.45 201.751 128.272 201.347 129.077C200.934 129.896 201.002 130.88 201.539 131.619C201.809 132.244 202.463 132.675 203.146 132.769C203.75 133.325 204.647 133.534 205.418 132.895C206.506 131.996 207.575 130.61 207.544 129.179C207.671 128.529 207.595 127.849 207.197 127.204C206.695 126.391 205.702 125.744 204.755 126.202L204.757 126.21Z" fill="#F9F5EF"/>
<path d="M182.691 130.574C182.629 132.085 183.893 133.11 185.324 133.3C188.732 133.754 190.405 130.729 191.131 127.999C191.145 127.94 191.156 127.886 191.167 127.833C191.679 126.795 191.669 125.698 190.518 124.745C188.176 122.816 185.159 125.106 184.02 127.021C183.424 128.017 182.741 129.363 182.691 130.574Z" fill="#F9F5EF"/>
<path d="M171.321 116.452C171.448 115.803 171.372 115.122 170.974 114.477C170.472 113.665 169.479 113.018 168.532 113.475C168.299 113.589 168.073 113.713 167.86 113.851C167.6 113.929 167.352 114.046 167.126 114.204C166.379 114.71 165.526 115.537 165.122 116.342C164.708 117.162 164.777 118.146 165.314 118.885C165.583 119.509 166.238 119.941 166.921 120.034C167.525 120.59 168.422 120.8 169.193 120.16C170.276 119.259 171.349 117.876 171.319 116.444L171.321 116.452Z" fill="#F9F5EF"/>
<path d="M153.519 110.975C153.788 111.599 154.443 112.031 155.126 112.124C155.729 112.68 156.626 112.89 157.397 112.25C158.485 111.351 159.554 109.966 159.523 108.534C159.65 107.885 159.574 107.204 159.176 106.559C158.674 105.747 157.682 105.1 156.734 105.557C156.501 105.671 156.275 105.795 156.062 105.933C155.802 106.011 155.554 106.128 155.329 106.286C154.581 106.792 153.728 107.619 153.324 108.424C152.911 109.244 152.979 110.228 153.516 110.967L153.519 110.975Z" fill="#F9F5EF"/>
<path d="M181.651 113.644C182.673 113.404 183.92 112.777 184.729 111.885C185.175 111.473 185.51 110.963 185.613 110.285C185.785 109.119 185.125 107.813 183.962 107.322C181.275 106.186 179.85 109.663 179.481 111.614C179.276 112.688 180.591 113.889 181.651 113.644Z" fill="#F9F5EF"/>
<path d="M213.997 145.981C212.929 145.512 211.714 145.875 210.921 146.576C209.867 147.508 208.184 149.517 208.66 151.071C208.763 152.028 209.533 152.968 210.769 152.812C212.778 152.558 214.729 151.267 215.37 149.333C215.785 148.092 215.339 146.569 214 145.976L213.997 145.981Z" fill="#F9F5EF"/>
<path d="M189.278 158.338C191.287 158.084 193.238 156.793 193.879 154.859C194.297 153.614 193.848 152.095 192.509 151.503C191.44 151.033 190.226 151.396 189.432 152.097C188.378 153.029 186.696 155.038 187.171 156.592C187.275 157.55 188.045 158.49 189.281 158.333L189.278 158.338Z" fill="#F9F5EF"/>
<path d="M195.138 146.544C197.146 146.291 199.098 144.999 199.739 143.065C200.157 141.82 199.708 140.301 198.369 139.709C197.3 139.239 196.085 139.603 195.292 140.303C194.238 141.235 192.556 143.244 193.031 144.798C193.135 145.756 193.905 146.696 195.141 146.539L195.138 146.544Z" fill="#F9F5EF"/>
<path d="M231.416 146.02C230.348 145.551 229.133 145.914 228.34 146.615C227.286 147.547 225.604 149.556 226.079 151.11C226.183 152.067 226.953 153.008 228.189 152.851C230.197 152.597 232.149 151.306 232.79 149.372C233.208 148.126 232.758 146.608 231.419 146.015L231.416 146.02Z" fill="#F9F5EF"/>
<path d="M193.541 119.002C193.81 119.626 194.465 120.058 195.148 120.151C195.751 120.707 196.648 120.917 197.419 120.278C198.507 119.379 199.576 117.993 199.545 116.562C199.672 115.912 199.596 115.232 199.198 114.587C198.696 113.774 197.704 113.127 196.756 113.585C196.523 113.698 196.297 113.822 196.084 113.96C195.824 114.038 195.576 114.156 195.35 114.314C194.603 114.82 193.75 115.647 193.346 116.451C192.933 117.271 193.001 118.255 193.538 118.994L193.541 119.002Z" fill="#F9F5EF"/>
<path d="M175.479 125.954C174.977 125.142 173.984 124.495 173.037 124.952C172.804 125.066 172.578 125.19 172.365 125.328C172.105 125.406 171.856 125.523 171.631 125.681C170.881 126.192 170.031 127.014 169.626 127.819C169.213 128.639 169.281 129.623 169.819 130.362C170.088 130.986 170.743 131.418 171.426 131.511C172.03 132.067 172.926 132.277 173.698 131.637C174.786 130.739 175.854 129.353 175.823 127.922C175.951 127.272 175.875 126.591 175.477 125.946L175.479 125.954Z" fill="#F9F5EF"/>
<path d="M193.994 188.899C194.506 187.862 194.497 186.765 193.345 185.812C191.003 183.883 187.986 186.173 186.847 188.088C186.252 189.084 185.568 190.43 185.518 191.641C185.456 193.152 186.72 194.177 188.151 194.367C188.282 194.382 188.407 194.387 188.531 194.392C189.996 193.55 191.444 192.678 192.87 191.774C193.357 190.93 193.711 189.982 193.958 189.066C193.972 189.007 193.983 188.953 193.994 188.899Z" fill="#F9F5EF"/>
<path d="M172.224 195.049C171.081 194.986 169.978 195.481 169.098 196.111C167.607 197.186 165.431 200.491 167.949 201.918C168.899 202.453 169.998 202.325 171.007 201.889C171.041 201.888 171.082 201.886 171.116 201.885C173.048 201.695 175.311 199.364 174.939 197.307C174.702 195.978 173.526 195.125 172.221 195.054L172.224 195.049Z" fill="#F9F5EF"/>
<path d="M176.161 186.921C176.161 186.921 176.169 186.919 176.177 186.916C176.754 186.915 177.328 186.744 177.789 186.421C178.164 186.155 178.532 185.785 178.861 185.365C178.991 185.233 179.113 185.102 179.21 184.97C179.321 184.813 179.406 184.642 179.48 184.456C179.694 184.085 179.87 183.711 179.988 183.357C180.546 181.67 179.039 180.197 177.349 180.259C176.13 180.305 175.136 180.936 174.34 181.77C173.641 182.505 172.873 183.521 172.791 184.579C172.658 186.398 174.583 187.449 176.158 186.926L176.161 186.921Z" fill="#F9F5EF"/>
<path d="M156.604 204.094C156.732 203.445 156.656 202.764 156.258 202.119C155.756 201.307 154.763 200.66 153.816 201.118C153.583 201.231 153.357 201.355 153.143 201.493C152.884 201.571 152.635 201.688 152.41 201.846C151.662 202.352 150.81 203.18 150.405 203.984C149.992 204.804 150.06 205.788 150.598 206.527C150.853 207.13 151.475 207.549 152.138 207.664C153.181 207.483 154.214 207.282 155.248 207.069C156.016 206.226 156.63 205.175 156.602 204.087L156.604 204.094Z" fill="#F9F5EF"/>
<path d="M168.078 175.447C168.681 176.003 169.578 176.213 170.349 175.573C171.438 174.674 172.506 173.288 172.475 171.857C172.602 171.207 172.526 170.527 172.129 169.882C171.627 169.07 170.634 168.423 169.686 168.88C169.453 168.994 169.228 169.118 169.014 169.256C168.755 169.334 168.506 169.451 168.281 169.609C167.533 170.115 166.68 170.942 166.276 171.747C165.863 172.567 165.931 173.55 166.469 174.29C166.738 174.914 167.393 175.346 168.076 175.439L168.078 175.447Z" fill="#F9F5EF"/>
<path d="M111.618 104.983C111.632 104.924 111.643 104.87 111.654 104.816C111.914 104.297 112.034 103.763 111.954 103.241L108.026 110.043C109.988 109.267 111.073 107.04 111.618 104.983Z" fill="#F9F5EF"/>
<path d="M118.023 101.455C120.031 101.202 121.983 99.9105 122.624 97.9766C123.042 96.7309 122.592 95.2122 121.253 94.6197C120.185 94.1501 118.97 94.5136 118.177 95.2144C117.123 96.1463 115.44 98.1554 115.916 99.7094C116.02 100.667 116.79 101.607 118.026 101.45L118.023 101.455Z" fill="#F9F5EF"/>
<path d="M160.195 177.627C160.707 176.589 160.698 175.492 159.547 174.539C157.204 172.61 154.187 174.9 153.048 176.815C152.453 177.811 151.769 179.157 151.72 180.368C151.657 181.879 152.921 182.904 154.352 183.094C157.76 183.548 159.434 180.523 160.159 177.793C160.173 177.734 160.184 177.68 160.195 177.627Z" fill="#F9F5EF"/>
<path d="M140.23 126.329C140.244 126.27 140.255 126.217 140.266 126.163C140.778 125.125 140.769 124.028 139.618 123.075C137.275 121.147 134.258 123.437 133.119 125.351C132.524 126.347 131.84 127.693 131.791 128.904C131.729 130.415 132.992 131.44 134.423 131.63C137.831 132.084 139.505 129.059 140.23 126.329Z" fill="#F9F5EF"/>
<path d="M117.387 139.14C119.319 138.949 121.582 136.619 121.209 134.562C120.972 133.233 119.797 132.38 118.486 132.306C117.344 132.243 116.241 132.738 115.361 133.368C113.87 134.443 111.694 137.748 114.212 139.175C115.162 139.71 116.261 139.582 117.27 139.146C117.303 139.145 117.345 139.143 117.379 139.142L117.387 139.14Z" fill="#F9F5EF"/>
<path d="M122.428 124.181C122.428 124.181 122.436 124.179 122.444 124.177C123.021 124.175 123.595 124.004 124.057 123.681C124.431 123.415 124.799 123.045 125.128 122.626C125.259 122.493 125.381 122.363 125.477 122.231C125.588 122.074 125.674 121.902 125.747 121.717C125.962 121.345 126.138 120.971 126.255 120.617C126.814 118.93 125.307 117.457 123.616 117.519C122.397 117.565 121.403 118.197 120.607 119.03C119.908 119.765 119.14 120.782 119.063 121.842C118.931 123.661 120.855 124.713 122.431 124.189L122.428 124.181Z" fill="#F9F5EF"/>
<path d="M109.078 123.926C109.496 122.681 109.047 121.162 107.708 120.569C106.64 120.1 105.425 120.463 104.632 121.164C103.578 122.096 101.895 124.105 102.371 125.659C102.474 126.617 103.244 127.557 104.48 127.4C106.489 127.146 108.44 125.855 109.081 123.921L109.078 123.926Z" fill="#F9F5EF"/>
<path d="M98.4748 144.944C99.078 145.5 99.975 145.71 100.746 145.07C101.835 144.172 102.903 142.786 102.872 141.355C102.999 140.705 102.923 140.025 102.526 139.38C102.023 138.567 101.031 137.92 100.083 138.378C99.8503 138.491 99.6245 138.615 99.4109 138.753C99.1516 138.831 98.9028 138.949 98.6776 139.107C97.93 139.613 97.0772 140.44 96.6728 141.244C96.2597 142.064 96.3279 143.048 96.8655 143.787C97.1346 144.412 97.7896 144.843 98.4726 144.936L98.4748 144.944Z" fill="#F9F5EF"/>
<path d="M134.443 142.244C134.614 141.078 133.955 139.772 132.791 139.281C130.105 138.145 128.68 141.622 128.31 143.573C128.105 144.647 129.421 145.848 130.48 145.603C131.508 145.366 132.749 144.736 133.559 143.844C134.005 143.432 134.34 142.922 134.443 142.244Z" fill="#F9F5EF"/>
<path d="M148.927 136.208C148.425 135.395 147.432 134.748 146.485 135.206C146.252 135.319 146.026 135.443 145.812 135.581C145.553 135.659 145.304 135.777 145.079 135.935C144.331 136.441 143.479 137.268 143.074 138.073C142.661 138.892 142.729 139.876 143.267 140.615C143.536 141.24 144.191 141.671 144.874 141.764C145.477 142.321 146.374 142.53 147.146 141.891C148.234 140.992 149.302 139.606 149.271 138.175C149.399 137.525 149.323 136.845 148.925 136.2L148.927 136.208Z" fill="#F9F5EF"/>
<path d="M178.059 156.528C178.073 156.469 178.084 156.415 178.095 156.361C178.607 155.324 178.597 154.227 177.446 153.274C175.104 151.345 172.086 153.635 170.947 155.55C170.352 156.546 169.668 157.892 169.619 159.103C169.557 160.614 170.82 161.639 172.251 161.829C175.66 162.283 177.333 159.257 178.059 156.528Z" fill="#F9F5EF"/>
<path d="M155.11 169.345C155.144 169.344 155.186 169.342 155.22 169.341C157.152 169.151 159.415 166.82 159.042 164.763C158.805 163.434 157.63 162.581 156.324 162.51C155.182 162.447 154.079 162.942 153.199 163.572C151.708 164.647 149.531 167.952 152.05 169.379C153 169.914 154.099 169.786 155.107 169.35L155.11 169.345Z" fill="#F9F5EF"/>
<path d="M160.262 154.383C160.262 154.383 160.27 154.38 160.278 154.378C160.855 154.377 161.429 154.206 161.89 153.883C162.265 153.617 162.633 153.247 162.962 152.827C163.092 152.695 163.214 152.564 163.31 152.432C163.421 152.275 163.507 152.104 163.58 151.918C163.795 151.547 163.971 151.173 164.088 150.818C164.647 149.132 163.14 147.659 161.45 147.721C160.231 147.767 159.236 148.398 158.44 149.231C157.741 149.966 156.973 150.983 156.892 152.041C156.759 153.86 158.684 154.911 160.259 154.388L160.262 154.383Z" fill="#F9F5EF"/>
<path d="M162.409 139.54C162.409 139.54 162.417 139.538 162.425 139.536C163.002 139.534 163.576 139.363 164.038 139.04C164.412 138.774 164.78 138.404 165.109 137.984C165.24 137.852 165.362 137.722 165.458 137.59C165.569 137.433 165.655 137.261 165.728 137.076C165.943 136.704 166.119 136.33 166.236 135.976C166.795 134.289 165.288 132.816 163.597 132.878C162.378 132.924 161.384 133.556 160.588 134.389C159.889 135.124 159.121 136.14 159.044 137.201C158.912 139.02 160.836 140.072 162.412 139.548L162.409 139.54Z" fill="#F9F5EF"/>
<path d="M146.908 154.132C147.326 152.887 146.877 151.368 145.538 150.776C144.47 150.306 143.255 150.669 142.462 151.37C141.408 152.302 139.725 154.311 140.201 155.865C140.304 156.823 141.074 157.763 142.31 157.606C144.319 157.352 146.27 156.061 146.911 154.127L146.908 154.132Z" fill="#F9F5EF"/>
<path d="M136.308 175.145C136.912 175.701 137.808 175.911 138.58 175.272C139.668 174.373 140.736 172.987 140.705 171.556C140.833 170.906 140.757 170.226 140.359 169.581C139.857 168.768 138.864 168.121 137.917 168.579C137.684 168.692 137.458 168.816 137.244 168.954C136.985 169.032 136.736 169.15 136.511 169.308C135.761 169.819 134.911 170.641 134.506 171.446C134.093 172.265 134.161 173.249 134.699 173.988C134.968 174.613 135.623 175.044 136.306 175.138L136.308 175.145Z" fill="#F9F5EF"/>
<path d="M162.79 187.491C162.288 186.679 161.295 186.032 160.348 186.489C160.115 186.602 159.889 186.727 159.676 186.865C159.416 186.942 159.167 187.06 158.942 187.218C158.195 187.724 157.342 188.551 156.937 189.356C156.524 190.176 156.593 191.159 157.13 191.899C157.399 192.523 158.054 192.955 158.737 193.048C159.341 193.604 160.237 193.814 161.009 193.174C162.092 192.272 163.165 190.889 163.135 189.458C163.262 188.808 163.186 188.128 162.788 187.483L162.79 187.491Z" fill="#F9F5EF"/>
<path d="M124.326 170.202C124.838 169.164 124.829 168.067 123.677 167.114C121.335 165.186 118.318 167.476 117.179 169.39C116.584 170.386 115.9 171.732 115.85 172.943C115.788 174.454 117.052 175.479 118.483 175.669C121.891 176.123 123.565 173.098 124.29 170.368C124.304 170.31 124.315 170.256 124.326 170.202Z" fill="#F9F5EF"/>
<path d="M104.134 156.846C103.632 156.034 102.639 155.387 101.692 155.845C101.459 155.958 101.233 156.082 101.019 156.22C100.76 156.298 100.511 156.416 100.286 156.573C99.5384 157.079 98.6856 157.907 98.2812 158.711C97.8681 159.531 97.9363 160.515 98.4739 161.254C98.743 161.878 99.398 162.31 100.081 162.403C100.684 162.959 101.581 163.169 102.353 162.529C103.441 161.631 104.509 160.245 104.478 158.814C104.606 158.164 104.53 157.484 104.132 156.839L104.134 156.846Z" fill="#F9F5EF"/>
<path d="M114.81 156.013C115.833 155.773 117.079 155.146 117.889 154.254C118.335 153.841 118.67 153.331 118.773 152.654C118.944 151.487 118.285 150.182 117.121 149.691C114.435 148.555 113.01 152.032 112.64 153.982C112.435 155.056 113.751 156.258 114.81 156.013Z" fill="#F9F5EF"/>
<path d="M127.173 112.834C128.195 112.594 129.442 111.967 130.251 111.075C130.697 110.663 131.032 110.153 131.135 109.475C131.307 108.309 130.647 107.003 129.484 106.512C126.797 105.376 125.372 108.853 125.003 110.804C124.798 111.878 126.113 113.079 127.173 112.834Z" fill="#F9F5EF"/>
<path d="M149.802 186.736C148.734 186.266 147.519 186.63 146.726 187.331C145.672 188.263 143.989 190.272 144.465 191.826C144.569 192.783 145.338 193.723 146.574 193.566C148.583 193.313 150.534 192.022 151.175 190.088C151.593 188.842 151.144 187.324 149.805 186.731L149.802 186.736Z" fill="#F9F5EF"/>
<path d="M135.83 184.012C134.761 183.542 133.546 183.906 132.753 184.607C131.699 185.539 130.017 187.548 130.492 189.102C130.596 190.059 131.366 190.999 132.602 190.842C134.61 190.589 136.562 189.298 137.203 187.364C137.621 186.118 137.172 184.599 135.832 184.007L135.83 184.012Z" fill="#F9F5EF"/>
<path d="M130.578 162.647C131.662 161.745 132.735 160.362 132.704 158.931C132.831 158.281 132.755 157.601 132.358 156.956C131.856 156.143 130.863 155.496 129.915 155.954C129.682 156.067 129.457 156.191 129.243 156.329C128.984 156.407 128.735 156.525 128.51 156.683C127.759 157.194 126.909 158.016 126.505 158.821C126.092 159.64 126.16 160.624 126.698 161.363C126.967 161.988 127.622 162.419 128.305 162.513C128.908 163.069 129.805 163.278 130.576 162.639L130.578 162.647Z" fill="#F9F5EF"/>
<path d="M72.2832 172.842C72.2972 172.783 72.3082 172.729 72.3192 172.675C72.5407 172.234 72.6644 171.776 72.6449 171.323L68.897 177.812C70.7305 176.969 71.7612 174.824 72.2861 172.837L72.2832 172.842Z" fill="#F9F5EF"/>
<path d="M83.6303 158.516C87.0385 158.971 88.7122 155.945 89.4376 153.216C89.4515 153.157 89.4626 153.103 89.4736 153.049C89.9856 152.012 89.9762 150.914 88.825 149.962C87.6689 149.006 86.344 149.085 85.1594 149.64L81.1157 156.642C81.4563 157.676 82.4885 158.359 83.6332 158.511L83.6303 158.516Z" fill="#F9F5EF"/>
<path d="M97.0562 178.902C95.914 178.839 94.8109 179.334 93.931 179.964C92.4397 181.039 90.2633 184.344 92.7814 185.771C93.7316 186.306 94.8308 186.178 95.8393 185.742C95.8732 185.741 95.9149 185.739 95.9487 185.738C97.8807 185.548 100.144 183.217 99.7713 181.16C99.5341 179.831 98.3588 178.978 97.0483 178.904L97.0562 178.902Z" fill="#F9F5EF"/>
<path d="M87.6413 170.524C88.0593 169.279 87.61 167.76 86.2709 167.168C85.2025 166.698 83.9878 167.062 83.1946 167.762C82.1407 168.694 80.458 170.703 80.9337 172.257C81.0373 173.215 81.8071 174.155 83.0432 173.998C85.0517 173.744 87.003 172.453 87.6442 170.519L87.6413 170.524Z" fill="#F9F5EF"/>
<path d="M81.091 185.972C80.5889 185.16 79.5961 184.513 78.6486 184.971C78.4157 185.084 78.19 185.208 77.9764 185.346C77.717 185.424 77.4683 185.541 77.2431 185.699C76.4925 186.21 75.6426 187.033 75.2382 187.837C74.8251 188.657 74.8933 189.641 75.431 190.38C75.7001 191.004 76.355 191.436 77.0381 191.529C77.6413 192.085 78.5383 192.295 79.3096 191.655C80.3979 190.757 81.4662 189.371 81.4353 187.94C81.5627 187.29 81.4867 186.61 81.0889 185.964L81.091 185.972Z" fill="#F9F5EF"/>
<path d="M111.357 185.875C108.67 184.739 107.245 188.216 106.876 190.166C106.671 191.24 107.986 192.442 109.046 192.197C110.069 191.957 111.315 191.33 112.124 190.438C112.57 190.026 112.905 189.515 113.008 188.838C113.18 187.671 112.52 186.366 111.357 185.875Z" fill="#F9F5EF"/>
<path d="M106.32 171.573C103.634 170.437 102.208 173.914 101.839 175.864C101.634 176.938 102.95 178.14 104.009 177.894C105.037 177.657 106.278 177.028 107.088 176.136C107.534 175.723 107.868 175.213 107.971 174.536C108.143 173.369 107.483 172.064 106.32 171.573Z" fill="#F9F5EF"/>
<path d="M133.315 209.347C134.16 209.346 135.006 209.332 135.854 209.313C135.551 209.198 135.226 209.124 134.889 209.104C134.351 209.074 133.82 209.17 133.315 209.347Z" fill="#F9F5EF"/>
<path d="M124.104 197.369C123.036 196.899 121.821 197.263 121.028 197.964C119.974 198.896 118.291 200.905 118.767 202.459C118.87 203.416 119.64 204.356 120.876 204.199C122.885 203.946 124.836 202.655 125.477 200.721C125.895 199.475 125.446 197.956 124.107 197.364L124.104 197.369Z" fill="#F9F5EF"/>
<path d="M122.414 181.469C121.346 181 120.131 181.363 119.338 182.064C118.284 182.996 116.601 185.005 117.077 186.559C117.18 187.516 117.95 188.457 119.186 188.3C121.195 188.046 123.146 186.755 123.787 184.821C124.202 183.581 123.756 182.057 122.417 181.464L122.414 181.469Z" fill="#F9F5EF"/>
<path d="M97.3377 199.247C97.5092 198.08 96.8496 196.775 95.6863 196.284C93 195.148 91.5747 198.625 91.2053 200.575C91.2001 200.619 91.1948 200.663 91.1896 200.707L94.6718 202.135C95.3251 201.816 95.9674 201.376 96.4541 200.847C96.8999 200.434 97.2346 199.924 97.3377 199.247Z" fill="#F9F5EF"/>
<path d="M110.92 203.553C110.418 202.741 109.425 202.094 108.478 202.552C108.245 202.665 108.019 202.789 107.805 202.927C107.546 203.005 107.297 203.123 107.072 203.281C106.322 203.792 105.472 204.614 105.067 205.418C105.044 205.458 105.031 205.504 105.013 205.548C106.979 206.087 108.951 206.569 110.937 206.993C111.15 206.519 111.281 206.026 111.269 205.524C111.397 204.874 111.321 204.193 110.923 203.548L110.92 203.553Z" fill="#F9F5EF"/>
<path d="M142.173 197.769C141.67 196.957 140.678 196.31 139.73 196.767C139.497 196.881 139.272 197.005 139.058 197.143C138.799 197.221 138.55 197.338 138.325 197.496C137.574 198.007 136.724 198.829 136.32 199.634C135.907 200.454 135.975 201.438 136.513 202.177C136.782 202.801 137.437 203.233 138.12 203.326C138.723 203.882 139.62 204.092 140.391 203.452C141.474 202.551 142.548 201.168 142.517 199.736C142.644 199.087 142.568 198.406 142.17 197.761L142.173 197.769Z" fill="#F9F5EF"/>
<path d="M207.239 159.587C207.751 158.55 207.741 157.452 206.59 156.5C204.248 154.571 201.231 156.861 200.091 158.775C199.496 159.771 198.812 161.118 198.763 162.328C198.701 163.84 199.964 164.864 201.395 165.054C204.804 165.509 206.477 162.483 207.203 159.754C207.217 159.695 207.228 159.641 207.239 159.587Z" fill="#F9F5EF"/>
<path d="M141.411 110.715C140.816 111.711 140.132 113.057 140.083 114.268C140.023 115.774 141.284 116.804 142.715 116.994C146.123 117.448 147.797 114.422 148.522 111.693C148.536 111.634 148.547 111.58 148.558 111.526C149.07 110.489 149.061 109.392 147.91 108.439C145.567 106.51 142.55 108.8 141.411 110.715Z" fill="#F9F5EF"/>
<path d="M150.989 124.17C150.394 125.166 149.71 126.513 149.661 127.723C149.599 129.235 150.862 130.259 152.293 130.449C155.702 130.904 157.375 127.878 158.101 125.149C158.114 125.09 158.126 125.036 158.137 124.982C158.649 123.945 158.639 122.847 157.488 121.895C155.146 119.966 152.128 122.256 150.989 124.17Z" fill="#F9F5EF"/>
<path d="M183.86 171.037C183.894 171.037 183.936 171.034 183.97 171.033C185.902 170.843 188.165 168.513 187.792 166.456C187.555 165.126 186.38 164.273 185.074 164.203C183.932 164.139 182.829 164.634 181.949 165.265C180.458 166.339 178.281 169.644 180.8 171.072C181.75 171.607 182.849 171.478 183.857 171.042L183.86 171.037Z" fill="#F9F5EF"/>
<path d="M203.153 177.61C202.011 177.547 200.908 178.042 200.028 178.672C198.536 179.747 196.36 183.052 198.878 184.479C199.828 185.014 200.927 184.886 201.936 184.45C201.97 184.449 202.012 184.447 202.045 184.446C203.977 184.256 206.241 181.925 205.868 179.868C205.631 178.539 204.456 177.686 203.15 177.615L203.153 177.61Z" fill="#F9F5EF"/>
<path d="M197.306 169.525C194.62 168.389 193.194 171.866 192.825 173.816C192.62 174.89 193.936 176.092 194.995 175.847C196.018 175.607 197.264 174.98 198.074 174.088C198.52 173.675 198.854 173.165 198.957 172.488C199.129 171.321 198.469 170.016 197.306 169.525Z" fill="#F9F5EF"/>
<path d="M216.478 159.919C213.791 158.783 212.366 162.26 211.997 164.21C211.792 165.284 213.107 166.486 214.167 166.241C215.195 166.004 216.436 165.374 217.246 164.482C217.691 164.069 218.026 163.559 218.129 162.882C218.301 161.715 217.641 160.41 216.478 159.919Z" fill="#F9F5EF"/>
</svg>
